<svg width="285" height="49" viewBox="0 0 285 49" fill="none" xmlns="http://www.w3.org/2000/svg">
<g clip-path="url(#clip0_683_195)">
<path d="M12.6112 32.8928C12.6825 34.7445 12.8012 40.011 20.2587 40.011C21.3275 40.011 26.98 40.011 26.98 34.7926C26.98 32.6283 26.1012 31.1854 23.085 30.3437L11.97 27.4339C8.835 26.5922 0.76 24.4279 0.76 14.8567C0.76 7.42585 6.27 0.5 19.8075 0.5C37.5012 0.5 38.2375 10.2154 38.3087 15.0972H25.5787C25.5787 13.7024 25.65 8.7485 19.6175 8.7485C15.9837 8.7485 13.6562 10.8407 13.6562 13.5822C13.6562 16.9489 16.4112 17.7665 18.24 18.2715L26.695 20.484C32.7275 22.0711 39.8525 23.9709 39.8525 33.6864C39.8525 43.9068 31.2075 48.476 19.855 48.476C15.1525 48.476 7.5525 47.7064 3.42 43.017C0.11875 39.3617 0.07125 34.8407 0 32.8928H12.6112Z" fill="black"/>
<path d="M47.2871 1.6543H58.8059V29.7184L69.6121 15.6022H82.6509L71.9159 29.0691L84.2184 47.49H70.0396L58.8059 29.7665V47.49H47.2871V1.6543Z" fill="black"/>
<path d="M104.024 14.5441C114.237 14.5441 122.217 19.7625 122.217 31.0651C122.217 35.7064 120.91 40.3958 117.633 43.6904C114.997 46.2876 111.102 48.2595 104.642 48.2595C97.6828 48.2595 93.1703 46.5521 90.0828 43.5701C86.4491 40.0831 85.5703 35.3216 85.5703 31.4499C85.5941 21.6383 91.5553 14.5441 104.024 14.5441ZM99.3216 39.0491C100.699 41.4539 102.837 41.5982 103.905 41.5982C109.035 41.5982 110.057 35.9469 110.057 31.498C110.057 25.9669 108.75 21.3497 104.024 21.3497C98.8228 21.3497 97.8253 26.7364 97.8253 31.498C97.8253 33.5902 98.0153 36.6924 99.3216 39.0491Z" fill="black"/>
<path d="M141.147 1.63037H129.367V47.466H141.147V1.63037Z" fill="black"/>
<path d="M171.689 15.7463V23.3696H164.113V34.4076C164.184 38.3515 164.184 40.1311 168.697 40.1311C169.623 40.1311 170.193 40.1311 171.642 39.9387V47.4177C170.074 47.6822 168.008 47.9948 163.994 47.9948C154.589 47.9948 152.713 44.8205 152.713 38.6641V23.3696H146.752V15.7463H152.903V10.7924L164.256 6.22327V15.7463H171.689Z" fill="black"/>
<path d="M186.984 33.9508C186.984 35.6582 186.984 41.6942 192.992 41.6942C196.127 41.6942 198.075 40.0349 198.384 37.053H209.356C208.477 45.061 201.067 48.1632 192.921 48.1632C181.949 48.1632 176.059 42.584 176.059 32.0269C176.059 21.3496 181.212 14.4478 192.802 14.4478C201.59 14.4478 205.651 18.079 207.789 22.576C209.166 25.3175 209.546 28.3476 209.546 33.9508H186.984ZM198.455 27.4818C198.336 25.6301 197.956 20.8205 192.802 20.8205C187.649 20.8205 187.221 25.9668 187.102 27.4818H198.455Z" fill="black"/>
<path d="M236.385 26.7844C236.385 23.8025 235.245 21.3255 232.181 21.3255C227.859 21.3255 226.861 25.7744 226.861 31.3536C226.861 39.6021 229.117 41.5259 232.062 41.5259C236.076 41.5259 236.337 37.4618 236.337 35.057H248.26C248.331 43.1131 241.919 48.2594 232.395 48.2594C222.349 48.2594 214.701 42.8486 214.701 31.3776C214.701 18.8005 223.417 14.5439 232.252 14.5439C235.649 14.5439 241.349 15.1211 244.982 19.1131C247.69 22.0229 247.927 24.9568 248.046 26.8085H236.385V26.7844Z" fill="black"/>
<path d="M251.322 1.65417H263.221V19.1131C264.48 17.8385 267.354 14.9287 273.077 14.9287C276.141 14.9287 279.276 15.7464 281.865 18.1752C285 21.0369 285 24.5239 285 28.9728V47.5139H273.267V30.3676C273.267 27.6983 273.267 22.4798 268.375 22.4798C264.622 22.4798 263.744 25.6542 263.411 26.9287C263.102 28.3957 263.102 30.4157 263.102 33.085V47.4898H251.322V1.65417Z" fill="black"/>
</g>
<defs>
<clipPath id="clip0_683_195">
<rect width="285" height="48" fill="white" transform="translate(0 0.5)"/>
</clipPath>
</defs>
</svg>
