<svg width="207" height="57" viewBox="0 0 207 57" fill="none" xmlns="http://www.w3.org/2000/svg">
<g clip-path="url(#clip0_683_211)">
<path d="M207 35.6121C207 27.5552 203.583 21.4878 196.951 17.6085C193.434 15.5197 189.314 14.6245 185.295 14.724C181.275 14.724 177.155 15.6192 173.638 17.6085C167.006 21.3883 163.59 27.4558 163.59 35.6121C163.59 43.6689 167.006 49.7364 173.638 53.6156C177.055 55.605 180.974 56.5002 184.993 56.5002H185.295C185.395 56.5002 185.496 56.5002 185.596 56.5002C189.616 56.5002 193.535 55.5055 196.951 53.6156C203.583 49.8359 207 43.7684 207 35.6121ZM193.032 43.6689C191.123 45.6583 188.41 46.6529 185.295 46.6529H185.194C182.079 46.6529 179.366 45.6583 177.457 43.6689C175.548 41.7791 174.442 38.8945 174.442 35.7116C174.442 32.5286 175.447 29.6441 177.457 27.7542C179.366 25.7648 182.079 24.7702 185.194 24.7702H185.295C188.41 24.7702 191.123 25.7648 193.032 27.7542C194.941 29.6441 196.047 32.5286 196.047 35.7116C196.047 38.8945 195.042 41.6796 193.032 43.6689Z" fill="black"/>
<path d="M54.1621 15.2212V25.1679H69.4359V56.2017H80.5898V25.1679H96.165V15.2212H54.1621Z" fill="black"/>
<path d="M50.5434 15.1218H39.2891V56.2017H50.5434V15.1218Z" fill="black"/>
<path d="M11.2544 15.1218H0V56.2017H11.2544V15.1218Z" fill="black"/>
<path d="M28.3364 15.1218L11.2539 56.2017H22.9102L39.2893 15.1218H28.3364Z" fill="black"/>
<path d="M141.483 15.1218L130.329 42.1769L119.175 15.1218H99.7812V56.2017H111.036V22.5819L124.4 56.2017H136.056L149.421 22.6813V56.2017H160.675V15.1218H141.483Z" fill="black"/>
<path d="M44.9162 0.5C41.8012 0.5 39.2891 2.98668 39.2891 5.97069C39.2891 8.95471 41.8012 11.4414 44.9162 11.4414C48.0313 11.4414 50.5434 8.95471 50.5434 5.97069C50.5434 2.98668 48.0313 0.5 44.9162 0.5Z" fill="black"/>
</g>
<defs>
<clipPath id="clip0_683_211">
<rect width="207" height="56" fill="white" transform="translate(0 0.5)"/>
</clipPath>
</defs>
</svg>
