<svg width="1825" height="848" viewBox="0 0 1825 848" fill="none" xmlns="http://www.w3.org/2000/svg">
<g opacity="0.5">
<path d="M1122.09 196.784C1104.43 196.784 1083.85 207.13 1058.44 222.758C1049.13 228.261 1039.17 234.864 1028.6 241.688C1013.51 251.318 996.649 262.214 978.283 273.165C922.529 306.182 834.622 352.022 715.014 363.688C577.241 377.17 499.145 404.079 482.993 443.81C476.351 460.319 480.125 479.029 494.315 499.72C508.505 520.411 533.765 530.041 573.718 530.041C608.237 530.041 649.549 523.162 697.402 515.238C742.689 507.699 794.115 499.17 846.145 495.978C855.655 495.373 865.166 495.098 874.475 495.098C967.364 495.098 1053.96 524.098 1139.2 583.75C1227.92 645.823 1308.12 687.039 1377.51 706.245C1402.87 713.696 1428.96 717.743 1455.21 718.296C1505.53 718.296 1538.03 697.715 1542.76 663.267C1547.49 628.819 1521.58 582.319 1464.36 563.114C1440.46 555.079 1414.04 553.594 1388.33 552.108C1330.36 548.806 1270.43 545.449 1230.43 468.628C1220.23 448.46 1212.23 427.055 1206.58 404.85C1201.65 386.102 1197.66 367.069 1194.65 347.839C1190.71 320.826 1185.25 294.105 1178.3 267.827C1175.65 258.138 1172.46 248.637 1168.74 239.377C1164.35 227.601 1157.81 216.928 1149.52 208.01C1142.04 200.549 1132.22 196.529 1122.09 196.784ZM573.618 528.39C534.168 528.39 509.36 518.98 495.422 498.729C481.484 478.479 477.861 460.209 484.301 444.471C500.202 405.345 577.844 378.766 715.014 365.339C835.276 353.617 923.334 307.943 979.188 274.595C997.555 263.59 1014.41 252.584 1029.51 243.064C1040.07 236.295 1050.04 229.857 1059.3 224.189C1081.13 210.817 1103.88 198.38 1122.25 198.38C1131.97 198.227 1141.37 202.167 1148.51 209.386C1156.68 218.166 1163.1 228.694 1167.38 240.312C1171.1 249.515 1174.29 258.961 1176.94 268.597C1183.92 294.712 1189.43 321.267 1193.45 348.114C1196.41 367.439 1200.38 386.565 1205.32 405.4C1211.03 427.731 1219.08 449.263 1229.32 469.564C1269.58 547.155 1329.96 550.567 1388.43 553.869C1413.99 555.299 1440.36 556.785 1463.91 564.875C1520.32 583.86 1545.88 629.754 1541.3 663.267C1536.72 696.78 1504.47 716.92 1455.21 716.92C1429.07 716.39 1403.1 712.361 1377.87 704.924C1308.63 685.774 1228.62 644.392 1140.01 582.594C1054.47 522.777 967.666 493.722 874.475 493.722C865.166 493.722 855.605 493.997 846.045 494.602C793.964 497.794 742.538 506.324 697.201 513.863C649.599 521.512 608.287 528.39 573.919 528.39H573.618Z" fill="url(#paint0_linear_928_310)"/>
<path d="M1120.03 193.593C1103.57 193.593 1084.05 200.416 1056.68 215.604C1051.65 218.246 1047.52 220.777 1043.29 223.308C1031.82 230.242 1019.34 238.276 1006.11 246.806C994.232 254.455 981.954 262.324 968.569 270.634C891.732 318.344 803.17 347.674 697.702 360.111C561.287 376.62 483.896 405.565 467.794 447.002C461.001 464.391 465.077 483.817 479.871 504.783C494.665 525.749 520.126 535.544 560.381 535.544C596.561 535.544 641.646 527.62 689.449 519.035C734.737 511.111 785.81 502.086 836.582 498.675C847.401 497.904 858.27 497.574 868.837 497.574C961.977 497.574 1048.83 525.969 1134.37 584.355C1224.29 645.988 1305.45 687.755 1375.9 708.391C1402.49 716.72 1429.96 721.251 1457.62 721.873C1506.73 721.873 1539.34 701.457 1544.87 667.229C1551.11 628.268 1520.52 584.685 1473.67 566.25C1451.38 557.391 1427.48 554.639 1402.27 551.668C1346.21 545.119 1288.25 538.351 1248.95 460.649C1238.8 439.957 1230.62 418.18 1224.54 395.66C1219.01 376.18 1214.48 357.58 1210.85 338.815C1206.6 312.722 1200.15 287.116 1191.58 262.324C1187.98 253.359 1183.77 244.696 1179 236.405C1172.99 225.262 1165.18 215.399 1155.96 207.295C1145.74 198.425 1133.08 193.596 1120.03 193.593ZM560.583 533.948C520.831 533.948 495.52 524.373 481.028 503.847C466.536 483.321 462.611 464.501 469.153 447.663C485.054 406.831 561.991 377.941 697.853 361.817C803.523 349.215 892.285 319.94 969.324 272.119C982.709 263.81 994.986 255.611 1006.86 248.292C1020.1 239.762 1032.57 231.783 1044 224.849C1048.22 222.318 1052.6 219.787 1057.38 217.09C1084.5 201.957 1103.83 195.078 1120.03 195.078C1132.81 195.001 1145.23 199.677 1155.25 208.34C1164.34 216.427 1172.02 226.254 1177.9 237.341C1182.67 245.545 1186.85 254.136 1190.43 263.039C1199 287.782 1205.48 313.33 1209.8 339.365C1213.47 358.185 1217.95 376.895 1223.48 396.375C1229.55 419.005 1237.73 440.894 1247.89 461.695C1287.59 540.167 1345.91 546.99 1402.32 553.594C1427.48 556.51 1451.28 559.097 1473.42 568.066C1519.56 586.446 1549.75 629.039 1543.61 667.119C1538.23 700.522 1506.18 720.442 1458.07 720.442C1430.55 719.79 1403.22 715.259 1376.76 706.96C1306.31 686.379 1225.2 644.667 1135.23 583.144C1049.68 524.538 962.38 496.088 868.937 496.088C858.32 496.088 847.451 496.473 836.582 497.189C785.76 500.656 734.485 509.625 689.298 517.55C641.697 526.024 596.611 533.948 560.583 533.948Z" fill="url(#paint1_linear_928_310)"/>
<path d="M1116.31 189.906C1099.2 189.906 1079.68 195.794 1054.82 208.561C1049.48 211.257 1044.75 214.064 1040.02 216.54C1024.07 225.73 1006.66 237.066 986.485 250.218C977.679 255.721 968.42 261.994 958.608 268.267C891.13 311.465 802.619 339.805 680.243 356.644C545.187 375.409 468.501 406.886 452.349 450.194C445.455 468.574 449.783 488.714 465.18 510.011C480.578 531.307 506.643 541.157 547.25 541.157C585.09 541.157 632.038 532.463 681.703 523.328C729.853 513.539 778.421 506.395 827.225 501.921C839.402 500.986 851.579 500.546 863.455 500.546C956.847 500.546 1043.9 528.335 1129.69 585.566C1220.92 646.758 1303.44 688.966 1374.95 711.143C1402.71 720.33 1431.49 725.365 1460.49 726.11C1509.4 726.11 1541 706.3 1547.59 671.852C1554.74 633.331 1527.82 590.684 1483.54 570.048C1462.75 560.362 1440.26 556.235 1416.46 551.888C1362.47 542.038 1306.61 531.802 1268.02 453.276C1257.89 432.109 1249.47 410.013 1242.86 387.241C1237.83 369.906 1232.19 351.031 1227.41 330.45C1220.87 300.845 1214.43 274.926 1204.87 256.821C1200.25 248.582 1195.02 240.777 1189.22 233.489C1181.59 222.9 1172.55 213.625 1162.4 205.974C1148.87 195.653 1132.8 190.052 1116.31 189.906ZM547.25 539.506C506.995 539.506 481.433 529.821 466.388 509.02C451.342 488.219 447.065 468.629 453.707 450.799C469.659 408.097 545.942 376.95 680.394 358.24C803.072 341.181 891.734 313.006 959.413 269.643C969.175 263.425 978.434 257.372 987.24 251.648C1007.37 238.496 1024.83 227.161 1040.73 217.971C1045.36 215.329 1050.14 212.468 1055.47 210.046C1080.13 197.39 1099.45 191.557 1116.31 191.557C1132.53 191.765 1148.31 197.327 1161.59 207.515C1171.63 215.091 1180.56 224.295 1188.06 234.81C1193.8 242.031 1198.99 249.762 1203.56 257.922C1213.02 275.586 1219.41 301.395 1226.2 330.781C1230.98 351.417 1236.27 370.347 1241.7 387.736C1248.31 410.616 1256.73 432.822 1266.86 454.101C1305.81 533.343 1362.07 543.634 1416.41 553.594C1440.11 557.886 1462.55 562.013 1483.13 571.588C1526.76 591.949 1553.33 633.992 1546.28 671.576C1540.04 705.199 1508.8 724.515 1460.74 724.515C1431.86 723.793 1403.2 718.776 1375.55 709.602C1304.15 687.59 1221.78 645.328 1130.7 584.19C1044.45 526.795 957.098 498.95 863.455 498.95C851.529 498.95 839.302 499.39 827.124 500.326C777.51 504.013 728.65 513.037 681.451 521.732C631.836 530.867 584.99 539.506 547.25 539.506Z" fill="url(#paint2_linear_928_310)"/>
<path d="M1111.48 185.613C1094.42 185.613 1075.8 190.62 1052.96 201.461C1047.07 204.213 1041.79 206.964 1036.75 209.66C1016.63 220.666 993.831 235.909 967.364 253.684L948.695 266.01C878.903 311.96 787.675 333.476 662.733 353.287C529.085 374.528 453.104 408.316 436.901 453.495C429.957 472.92 434.536 493.776 450.538 515.403C466.539 537.029 492.956 546.879 533.966 546.879C573.517 546.879 622.226 537.469 673.803 527.509C721.367 517.413 769.364 509.938 817.614 505.112C831.201 504.012 844.787 503.461 857.87 503.461C951.413 503.461 1038.72 530.646 1124.56 586.721C1217.1 647.253 1300.68 690.23 1373.24 713.783C1402.16 723.896 1432.25 729.455 1462.6 730.292C1510.66 730.292 1542.41 710.646 1549.81 676.473C1557.76 639.273 1533.8 596.076 1492.79 573.789C1473.42 563.223 1452.24 557.83 1429.85 552.052C1377.97 538.79 1324.18 525.088 1286.49 445.791C1276.47 424.104 1267.96 401.626 1261.03 378.545L1258.31 370.071C1253.28 354.662 1248.24 338.704 1243.82 321.865C1235.31 290.388 1228.72 266.836 1217.8 251.758C1212.98 245.201 1207.63 239.14 1201.8 233.653C1200.94 232.718 1200.04 231.837 1199.13 230.957C1189.88 221.139 1179.61 212.533 1168.54 205.313C1146.6 191.226 1129.99 185.613 1111.48 185.613ZM533.966 545.063C493.46 545.063 467.294 535.213 451.695 514.137C436.096 493.061 431.567 472.755 438.31 453.605C454.06 409.582 531.752 375.353 662.934 354.552C787.926 334.687 879.305 313.115 949.752 267.001L968.37 254.729C994.838 237.175 1017.68 222.042 1037.71 210.706C1042.74 207.954 1047.77 205.203 1053.76 202.507C1076.46 191.776 1094.87 186.823 1111.73 186.823C1129.94 186.823 1146.35 192.326 1168.34 206.083C1179.26 213.257 1189.4 221.788 1198.53 231.507L1201.2 234.203C1206.96 239.616 1212.25 245.603 1217 252.088C1227.51 267.056 1234.31 290.608 1242.76 321.645C1247.34 338.539 1252.37 354.662 1257.3 369.96L1260.02 378.435C1267 401.579 1275.52 424.128 1285.53 445.901C1323.72 525.858 1377.66 539.451 1429.9 552.988C1452.24 558.491 1473.32 563.994 1492.54 574.559C1532.8 596.571 1556.55 638.943 1548.7 675.428C1541.55 708.83 1510.31 727.981 1463.16 727.981C1432.95 727.123 1403.01 721.565 1374.24 711.472C1301.88 687.919 1218.25 645.437 1125.87 584.519C1039.62 528.335 952.067 501.04 858.222 501.04C844.988 501.04 831.351 501.59 817.967 502.691C769.666 507.513 721.618 514.988 674.004 525.088C622.025 535.598 573.618 545.063 533.966 545.063Z" fill="url(#paint3_linear_928_310)"/>
<path d="M1106.34 180.715C1087.26 181.337 1068.47 185.97 1050.99 194.362C1044.7 197.114 1038.92 199.865 1033.43 202.837C1009.33 215.714 982.005 234.149 947.436 257.426L938.731 263.314C869.844 309.704 783.95 324.947 665.046 345.858L645.17 349.38C514.844 372.602 437.453 409.472 421.452 456.081C414.458 476.387 419.439 498.509 435.793 520.19C452.146 541.872 479.218 552.052 520.631 552.052C562.043 552.052 612.412 541.872 665.901 531.031C712.871 520.594 760.301 512.806 808.002 507.699C823.098 506.378 838.194 505.718 852.887 505.718C946.732 505.718 1034.04 532.352 1119.93 587.216C1214.98 647.748 1299.82 691.221 1372.13 715.874C1402.16 726.874 1433.51 732.938 1465.17 733.869C1512.37 733.869 1544.22 714.444 1552.57 680.546C1561.43 644.446 1540.39 600.863 1502.61 576.87C1484.54 565.424 1464.56 558.711 1443.38 551.557C1393.77 535.048 1342.49 517.604 1305.46 437.757C1295.56 415.538 1286.87 392.698 1279.44 369.355C1277.23 362.587 1274.86 355.818 1272.5 348.939C1268.47 337.218 1264.29 325.112 1260.47 312.73C1252.07 285.546 1244.12 259.902 1231.29 245.815C1226.12 240.481 1220.53 235.656 1214.58 231.397L1209.55 227.655C1198.67 218.751 1187.16 210.802 1175.13 203.882C1150.52 190.4 1131.1 180.715 1106.34 180.715ZM520.681 550.567C479.772 550.567 453.203 540.661 437.001 519.31C420.798 497.959 416.017 476.827 422.911 456.852C433.931 424.715 481.482 380.361 645.472 351.141L665.6 347.619C784.654 326.543 870.65 311.299 939.838 264.69L948.543 258.857C983.062 235.579 1010.33 217.144 1034.39 204.268C1039.87 201.351 1045.56 198.765 1051.85 195.848C1069.14 187.568 1087.73 182.991 1106.59 182.366C1131 182.366 1150.27 191.941 1174.88 205.478C1186.81 212.386 1198.23 220.298 1209.04 229.141L1214.08 232.938C1219.98 237.11 1225.5 241.882 1230.58 247.19C1243.16 260.948 1251.01 286.426 1259.41 313.225C1263.24 325.607 1267.41 337.768 1271.44 349.49C1273.8 356.313 1276.17 363.137 1278.38 369.851C1285.74 393.236 1294.34 416.131 1304.15 438.417C1341.48 518.815 1395.43 537.029 1442.98 553.043C1463.42 558.972 1483.19 567.408 1501.9 578.191C1539.14 601.799 1559.87 644.611 1551.16 679.995C1543.01 713.013 1511.71 732.108 1465.22 732.108C1433.7 731.163 1402.48 725.117 1372.58 714.168C1300.42 689.625 1215.69 646.372 1120.99 585.675C1034.94 530.646 947.336 503.957 853.189 503.957C838.445 503.957 823.35 504.617 808.204 505.938C760.438 511.09 712.942 518.896 665.901 529.325C612.261 540.386 561.792 550.567 520.681 550.567Z" fill="url(#paint4_linear_928_310)"/>
<path d="M1101.31 175.432C1083.42 175.891 1065.76 179.9 1049.18 187.264C1042.39 190.015 1036.2 192.767 1030.21 195.958C1001.88 210.651 968.066 233.929 928.868 260.838C868.485 302.275 794.415 315.867 700.52 332.376C677.323 336.558 653.371 340.85 627.759 345.858C464.826 377.94 417.275 425.1 406.054 459.053C399.009 480.459 404.242 503.407 421.149 525.088C438.057 546.77 466.185 557.39 507.396 557.39C550.419 557.39 602.7 546.384 658.353 534.663C704.797 524.868 752.852 514.743 798.743 510.45C815.298 508.854 831.853 508.084 847.905 508.084C941.9 508.084 1029.4 534.168 1115.4 587.931C1212.31 648.464 1298.31 692.487 1371.02 718.076C1402.13 730.01 1434.73 736.618 1467.68 737.666C1514.08 737.666 1546.08 718.406 1555.44 684.838C1565.5 649.234 1547.69 606.201 1512.42 580.282C1494.86 568.405 1476.16 558.662 1456.66 551.227C1411.68 531.967 1360.65 510.175 1324.43 430.163C1315.12 409.472 1306.91 386.139 1297.96 360.551C1294.59 350.976 1290.91 341.18 1287.34 331.715C1283.77 322.25 1280.45 313.391 1277.28 304.201C1266.36 273.109 1258.15 251.813 1244.92 240.587C1239.37 236.098 1233.44 232.21 1227.21 228.976C1224.79 227.6 1222.53 226.334 1220.26 224.959C1206.83 216.759 1194.15 209 1182.07 202.947L1170.95 197.444C1147.25 185.613 1127.12 175.432 1101.31 175.432ZM507.547 556.125C466.789 556.125 438.962 545.779 422.458 524.428C405.953 503.076 400.77 480.404 407.614 459.713C418.684 426.201 465.933 379.536 628.162 347.619C653.774 342.556 677.726 338.264 700.873 334.082C795.019 317.353 869.089 303.816 929.673 262.324C968.821 235.414 1002.64 212.192 1030.86 197.554C1036.8 194.473 1042.94 191.666 1049.68 188.86C1066.11 181.585 1083.6 177.614 1101.31 177.138C1126.47 177.138 1146.6 187.264 1170 199.15L1181.12 204.653C1193.09 210.541 1205.77 218.3 1219.21 226.665C1221.47 228.04 1223.74 229.361 1226.2 230.737C1232.34 233.917 1238.19 237.731 1243.66 242.128C1256.6 253.134 1264.65 274.21 1275.52 305.081C1278.79 314.436 1282.31 323.736 1285.58 332.596C1288.85 341.456 1292.83 351.856 1296.15 361.431C1305.1 387.295 1313.3 410.407 1322.71 431.153C1359.2 511.936 1410.47 533.838 1455.71 553.208C1475.07 560.585 1493.63 570.273 1511.06 582.098C1545.83 607.687 1563.29 650.004 1553.53 684.893C1544.32 717.91 1512.87 736.565 1467.18 736.565C1434.38 735.524 1401.93 728.953 1370.97 717.085C1298.66 691.111 1212.67 647.528 1115.9 586.996C1029.66 533.122 941.951 506.928 847.653 506.928C831.551 506.928 814.946 507.754 798.34 509.295C752.399 513.587 704.345 523.712 657.8 533.563C602.499 545.119 550.268 556.125 507.396 556.125H507.547Z" fill="url(#paint5_linear_928_310)"/>
<path d="M1096.63 169.71C1079.75 170.071 1063.05 173.607 1047.27 180.165C1040.07 182.917 1033.43 185.668 1027.14 189.135C997.301 204.158 962.078 228.371 919.156 258.362C863.252 297.433 797.133 308.824 713.402 323.186C681.047 328.689 647.585 334.192 610.449 342.447C449.428 377.06 402.078 426.586 390.857 462.025C383.712 484.642 389.146 508.36 406.708 530.646C424.269 552.933 452.699 563.334 494.313 563.334C539.097 563.334 593.19 551.447 650.302 538.846C696.495 528.72 744.247 518.265 788.931 513.807C806.945 511.992 825.009 511.056 842.47 511.056C936.566 511.056 1024.17 536.645 1110.32 589.198C1210.96 650.5 1295.44 693.753 1369.36 720.937C1407.3 734.97 1441.01 742.069 1469.6 742.069C1515.18 742.069 1547.34 723.029 1557.85 689.846C1568.77 655.233 1553.88 611.76 1521.68 584.08C1505.26 571.051 1487.61 559.982 1469.04 551.062C1426.47 528.555 1378.22 502.967 1342.89 422.679C1334.59 403.804 1327.04 382.783 1318.99 360.496L1315.87 351.912C1311.54 339.915 1306.56 327.864 1301.73 316.253C1298.96 309.429 1296.05 302.44 1293.33 295.507C1281.75 266.176 1272.4 244.715 1257.8 234.974C1251.79 231.303 1245.49 228.21 1238.98 225.73C1235.86 224.464 1233 223.308 1230.18 221.933C1224.09 219.071 1218.3 216.43 1212.77 213.568C1204.16 209.331 1196.06 205.369 1188.21 201.902C1180.36 198.435 1172.41 194.473 1165.01 190.896C1142.22 179.505 1122.49 169.71 1096.63 169.71ZM494.112 561.683C452.951 561.683 424.672 551.172 407.613 529.546C390.555 507.919 385.121 484.587 392.065 462.575C403.185 427.522 450.083 378.546 610.55 344.042C647.635 336.118 680.996 330.34 713.452 324.782C797.334 310.42 863.604 299.028 919.76 259.738C962.631 229.747 997.804 205.644 1027.59 190.621C1034.03 187.374 1040.63 184.458 1047.72 181.706C1063.34 175.216 1079.87 171.717 1096.58 171.361C1122.09 171.361 1141.87 181.101 1164.36 192.382C1171.71 196.014 1179.46 199.811 1187.61 203.388C1195.76 206.965 1203.51 210.817 1212.06 214.999C1217.65 217.695 1223.43 220.502 1229.52 223.418C1232.39 224.739 1235.31 225.95 1238.38 227.215C1244.81 229.638 1251.02 232.696 1256.95 236.35C1271.19 245.705 1280.45 266.946 1292.17 296.002C1294.89 302.936 1297.81 309.979 1300.57 316.748C1305.61 328.359 1310.34 340.41 1314.66 352.352L1317.78 360.936C1325.83 382.948 1333.43 404.244 1341.73 423.229C1377.31 504.012 1425.82 529.711 1468.59 552.383C1487.08 561.308 1504.64 572.377 1520.97 585.401C1552.67 612.915 1567.36 655.398 1556.6 689.351C1546.53 721.818 1514.68 740.473 1469.8 740.473C1441.42 740.473 1407.85 733.374 1370.06 719.397C1296.2 691.882 1211.51 649.069 1111.22 587.822C1024.88 535.104 937.019 509.46 842.671 509.46C825.16 509.46 807.096 510.396 788.981 512.212C744.247 516.669 696.444 527.18 650.201 537.305C592.787 549.797 538.745 561.683 494.112 561.683Z" fill="url(#paint6_linear_928_310)"/>
<path d="M1092.4 163.766C1076.38 164.05 1060.51 167.191 1045.41 173.066C1038.02 175.701 1030.76 178.768 1023.67 182.256C993.78 196.948 959.009 220.391 908.992 255.885C855.654 293.855 794.114 303.595 716.271 315.977C679.588 321.81 637.974 328.413 592.788 338.924C468.399 367.814 391.16 412.553 375.209 464.886C367.963 488.658 373.699 513.146 391.814 535.818C409.929 558.49 438.812 568.836 480.828 568.836C527.423 568.836 583.328 556.069 642.503 542.587C688.394 532.131 735.845 521.291 779.32 516.723C798.894 514.632 818.418 513.587 837.338 513.587C931.435 513.587 1019.14 538.57 1105.44 590.077C1208.19 651.38 1294.08 694.963 1368 723.303C1407.3 738.381 1442.17 746.03 1471.61 746.03C1516.9 746.03 1548.7 727.76 1560.52 694.523C1572.65 660.294 1560.87 617.482 1531.19 587.546C1515.8 573.168 1499.07 560.607 1481.27 550.071C1441.01 524.262 1395.73 495.042 1361.61 414.919C1354.82 399.016 1348.53 381.902 1341.84 363.962C1339.32 357.083 1336.8 350.095 1334.04 342.996C1328.7 328.854 1322.46 314.931 1316.37 301.504C1314.16 296.551 1311.9 291.599 1309.73 286.646C1298.21 260.232 1287.04 237.615 1271.04 229.306C1264.54 226.272 1257.8 223.878 1250.91 222.152C1247.19 221.051 1243.71 220.061 1240.29 218.85C1228.06 214.448 1217.1 209.935 1206.48 205.533L1194.55 200.69C1182.73 196.288 1172.11 190.785 1161.85 185.282C1138.9 173.836 1119.07 163.766 1092.4 163.766ZM480.828 567.24C439.265 567.24 410.381 556.564 392.921 534.718C375.46 512.871 369.573 488.603 376.668 465.381C392.418 413.654 469.255 369.3 593.039 340.52C638.326 330.009 679.789 323.406 716.422 317.628C794.466 305.191 856.107 295.616 909.797 257.095C959.714 221.657 994.434 198.269 1024.27 183.576C1031.31 180.14 1038.5 177.092 1045.81 174.442C1060.76 168.618 1076.48 165.495 1092.35 165.197C1118.67 165.197 1138.4 175.212 1161.19 186.823C1171.25 192.326 1182.12 197.499 1194.1 202.286L1205.97 207.184C1216.59 211.586 1227.61 216.099 1239.89 220.501C1243.31 221.767 1246.83 222.757 1250.56 223.803C1257.33 225.527 1263.95 227.902 1270.33 230.901C1285.88 238.716 1296.75 261.058 1308.32 287.251C1310.49 292.204 1312.75 297.157 1314.97 302.109C1321.05 315.536 1327.29 329.624 1332.63 343.491C1335.29 350.59 1337.66 357.579 1340.43 364.457C1347.07 382.507 1353.41 399.566 1360.2 415.47C1394.72 496.032 1440.26 525.528 1480.46 551.392C1498.17 561.873 1514.81 574.36 1530.13 588.646C1558.91 617.482 1570.84 660.735 1559.06 693.807C1547.29 726.88 1516.39 744.269 1471.56 744.269C1442.27 744.269 1407.55 736.675 1368.45 721.652C1294.59 693.312 1208.79 649.784 1106.14 588.536C1019.59 536.919 931.686 511.826 837.288 511.826C818.317 511.826 798.743 512.871 779.169 514.962C735.593 519.585 688.092 530.37 642.151 540.881C583.126 554.473 527.272 567.24 480.828 567.24Z" fill="url(#paint7_linear_928_310)"/>
<path d="M1088.48 157.768C1073.18 158.012 1058 160.852 1043.5 166.187C1035.64 168.86 1027.93 172.002 1020.4 175.597C987.943 191.226 948.442 218.08 899.08 253.684C847.201 291.049 788.378 299.468 714.359 310.144C673.349 316.032 626.804 322.746 575.277 335.622C452.297 366.274 375.762 413.269 359.811 467.693C352.465 492.676 358.453 518.044 377.121 540.991C395.789 563.939 425.075 574.449 467.695 574.449C516.102 574.449 576.485 560.197 634.905 546.384C680.192 535.378 727.542 524.373 769.86 519.75C790.944 517.439 811.977 516.228 832.357 516.228C926.135 516.129 1018.43 541.867 1100.71 591.068C1206.13 652.536 1293.18 696.614 1366.69 725.89C1407.3 742.013 1443.33 750.213 1473.67 750.213C1518.46 750.213 1550.26 732.163 1563.29 699.421C1576.32 666.678 1567.57 622.38 1540.85 591.178C1526.32 575.284 1510.36 561.05 1493.2 548.695C1455.86 519.695 1413.59 486.843 1380.43 407.325C1374.85 393.843 1369.56 379.811 1363.98 364.953C1360.25 354.938 1356.43 344.647 1352.35 334.302C1345.96 317.793 1338.31 302.495 1330.87 287.472C1329.31 284.335 1327.75 281.199 1326.24 278.062C1314.16 253.354 1301.83 230.682 1284.37 224.188C1277.45 221.71 1270.34 219.87 1263.14 218.685C1258.81 217.915 1254.73 217.145 1250.76 216.099C1232.24 211.146 1215.89 205.093 1201.45 199.59C1187.4 194.172 1173.7 187.737 1160.44 180.33C1137.64 168.774 1116.41 157.768 1088.48 157.768ZM467.594 572.743C425.528 572.743 396.343 562.013 378.228 539.726C360.113 517.439 354.075 492.456 361.22 468.188C377.02 414.204 453.153 367.594 575.629 337.053C627.105 324.121 673.55 317.353 714.51 311.575C788.931 300.899 847.654 292.424 899.885 254.785C949.147 219.291 988.597 192.436 1020.95 176.918C1028.44 173.323 1036.1 170.181 1043.9 167.508C1058.26 162.235 1073.28 159.432 1088.43 159.199C1116 159.199 1137.09 170.205 1159.43 182.146C1172.74 189.572 1186.5 196.024 1200.59 201.461C1215.03 206.964 1231.39 212.797 1250 217.97C1254.03 219.016 1258.16 219.786 1262.48 220.611C1269.59 221.707 1276.61 223.437 1283.47 225.784C1300.42 232.057 1312.55 254.509 1324.53 278.887C1326.04 282.024 1327.6 285.161 1329.16 288.297C1336.55 303.32 1344.25 318.783 1350.54 334.962C1354.62 345.363 1358.49 355.653 1362.22 365.613C1367.8 380.526 1373.03 394.559 1378.67 408.096C1411.98 487.998 1454.45 520.961 1491.94 550.071C1508.99 562.389 1524.87 576.548 1539.34 592.334C1565.65 623.26 1574.56 666.018 1561.53 698.815C1548.5 731.613 1517.4 748.342 1473.27 748.342C1443.08 748.342 1407.25 740.197 1366.79 724.129C1293.33 694.908 1206.38 650.83 1101.01 589.417C1018.52 540.063 925.982 514.248 831.954 514.357C811.03 514.389 790.121 515.583 769.307 517.934C726.888 522.667 679.789 533.783 634.15 544.568C576.132 558.546 515.85 572.743 467.594 572.743Z" fill="url(#paint8_linear_928_310)"/>
<path d="M1084.91 151.22C1070.2 151.415 1055.6 153.993 1041.58 158.869C1033.26 161.649 1025.1 164.956 1017.13 168.774C979.941 186.273 933.648 218.74 889.166 251.318C838.092 288.242 781.383 295.341 709.477 304.586C658.408 310.101 607.716 319.2 557.715 331.826C436.094 364.238 360.263 413.434 344.262 470.389C336.865 496.638 343.104 522.832 362.376 546.109C381.649 569.387 411.286 579.952 454.209 579.952C504.527 579.952 566.772 564.709 627.004 550.016C672.291 539.011 718.937 527.509 760.098 522.502C782.359 519.886 804.733 518.563 827.123 518.54C920.788 518.407 1013.03 543.566 1095.67 591.784C1205.87 654.517 1291.47 697.825 1365.13 728.091C1407 745.315 1444.08 754.01 1475.38 754.01C1519.41 754.01 1551.51 736.29 1565.96 704.098C1580.4 671.906 1574.11 627.442 1550.31 594.48C1536.54 576.707 1521.18 560.484 1504.47 546.054C1470 514.082 1430.95 477.818 1399.1 399.456C1394.47 388.01 1390.09 376.344 1385.41 363.963C1380.73 351.581 1375.8 338.319 1370.32 325.442C1362.75 307.543 1354.23 290.143 1344.8 273.329L1342.54 269.147C1327.44 241.247 1314.66 223.033 1297.25 218.575C1289.91 216.835 1282.46 215.677 1274.96 215.109C1269.93 214.558 1265.25 214.118 1260.72 213.238C1242.75 209.752 1225.02 204.954 1207.63 198.875C1190.97 192.861 1174.82 185.256 1159.38 176.148C1136.18 163.271 1114.29 151.22 1084.91 151.22ZM454.309 578.301C411.84 578.301 382.152 567.296 363.735 545.284C345.318 523.272 338.576 496.803 345.922 471.104C361.773 414.81 437.201 365.999 558.318 333.531C608.207 320.953 658.78 311.873 709.728 306.347C781.735 297.212 838.646 289.838 890.021 252.473C934.403 220.006 980.595 187.594 1017.73 169.93C1025.66 166.229 1033.78 163.014 1042.03 160.299C1055.91 155.512 1070.36 152.972 1084.91 152.76C1113.94 152.76 1135.68 164.757 1158.67 177.524C1174.2 186.675 1190.43 194.317 1207.18 200.361C1224.7 206.495 1242.57 211.348 1260.67 214.888C1265.25 215.714 1269.98 216.209 1275.01 216.704C1282.46 217.3 1289.85 218.458 1297.15 220.171C1313.81 224.519 1326.34 242.183 1341.23 270.028L1343.5 274.155C1352.93 290.856 1361.47 308.147 1369.06 325.937C1374.09 339.034 1379.12 352.076 1384.15 364.458C1389.19 376.839 1393.21 388.506 1397.84 399.952C1429.79 478.699 1469.04 515.018 1503.51 547.1C1520.13 561.491 1535.41 577.658 1549.1 595.36C1572.6 627.828 1578.79 671.191 1564.6 703.218C1550.41 735.245 1518.96 752.194 1475.53 752.194C1444.44 752.194 1407.5 743.499 1365.79 726.385C1292.17 696.504 1206.58 653.031 1096.43 590.518C1013.6 542.146 921.123 516.91 827.223 517.054C804.781 517.069 782.357 518.41 760.047 521.071C718.786 525.914 672.039 537.58 626.752 548.586C566.621 563.113 504.427 578.301 454.309 578.301Z" fill="url(#paint9_linear_928_310)"/>
<path d="M1081.84 144.726C1067.63 144.905 1053.52 147.277 1039.92 151.77C1031.12 154.494 1022.49 157.802 1014.06 161.675C981.754 176.588 942.756 201.736 879.455 248.511C828.834 285.931 773.332 292.039 703.339 299.743C655.838 305.246 601.996 310.749 540.708 328.303C478.111 346.023 427.742 368.475 390.959 394.999C358 418.772 336.715 445.791 329.318 473.085C321.921 500.38 328.362 527.674 348.188 551.282C368.013 574.889 398.104 585.51 441.479 585.51C493.609 585.51 557.816 569.276 619.86 553.648C664.694 542.312 711.038 530.591 751.041 525.638C774.815 522.694 798.72 521.206 822.645 521.181C916.161 520.985 1008.33 545.529 1091.3 592.719C1207.03 657.158 1291.37 699.641 1364.23 730.567C1407.35 748.837 1445.49 758.082 1477.75 758.082C1521.07 758.082 1553.53 740.637 1569.03 709.051C1584.52 677.464 1581.46 633.11 1560.17 598.057C1547.07 577.912 1532.17 559.239 1515.69 542.312C1484.19 507.644 1448.46 468.353 1418.17 391.807C1414.4 382.232 1410.77 372.657 1407 362.477C1401.36 347.454 1395.53 331.88 1389.04 316.417C1380.39 296.982 1370.47 278.259 1359.35 260.397C1343.8 234.204 1329.66 216.374 1311.14 213.072C1303.4 211.961 1295.6 211.373 1287.79 211.311C1282.11 211.311 1276.77 210.981 1271.54 210.321C1252.23 207.89 1233.14 203.674 1214.48 197.719C1195.35 191.244 1176.94 182.478 1159.58 171.58C1135.23 157.768 1112.63 144.726 1081.84 144.726ZM441.278 583.859C398.305 583.859 368.164 572.853 349.093 550.126C330.022 527.399 323.28 500.6 330.576 473.526C346.225 415.69 422.861 363.467 540.909 329.899C602.097 312.565 655.838 306.622 703.288 301.394C770.917 293.965 829.086 287.527 880.311 249.887C943.511 203.167 982.458 178.349 1014.66 163.216C1023.02 159.337 1031.59 156.047 1040.33 153.366C1053.79 148.893 1067.77 146.54 1081.84 146.377C1112.48 146.377 1134.92 159.419 1158.68 173.231C1176.18 184.178 1194.75 192.964 1214.03 199.425C1232.77 205.432 1251.94 209.684 1271.34 212.137C1276.37 212.742 1282.01 212.907 1287.69 213.072C1295.44 213.124 1303.17 213.73 1310.84 214.888C1328.85 217.86 1342.69 235.634 1358.04 261.443C1369 279.276 1378.76 297.962 1387.22 317.353C1393.72 332.761 1399.55 348.279 1405.19 363.302C1409.01 373.482 1412.58 383.113 1416.41 392.688C1446.6 469.729 1482.63 508.909 1514.18 543.688C1530.59 560.532 1545.44 579.113 1558.51 599.157C1579.49 633.771 1582.91 676.638 1567.32 708.5C1551.72 740.362 1520.12 756.651 1477.35 756.651C1445.29 756.651 1407.3 747.406 1364.38 729.136C1291.52 698.265 1207.43 655.782 1091.6 591.563C1008.42 544.216 916.013 519.56 822.243 519.695C798.249 519.713 774.275 521.22 750.437 524.208C710.182 529.16 663.989 540.716 619.105 552.162C557.112 567.681 493.106 583.859 441.076 583.859H441.278Z" fill="url(#paint10_linear_928_310)"/>
<path d="M1078.52 138.178C1064.74 138.314 1051.05 140.499 1037.81 144.671C1028.54 147.419 1019.45 150.82 1010.59 154.851C976.519 170.26 934.251 197.554 869.34 246.035C819.021 283.73 761.456 289.068 695.035 295.231C644.716 299.908 588.157 305.191 522.843 324.782C405.6 359.89 329.266 414.919 313.466 475.727C305.968 504.562 312.762 532.462 333.09 556.4C353.419 580.337 383.963 591.068 427.791 591.068C481.883 591.068 547.952 573.844 611.807 557.17C658.302 545.064 702.381 533.673 741.026 528.61C766.327 525.325 791.781 523.653 817.26 523.602C910.668 523.462 1002.78 547.505 1086.06 593.764C1172.86 640.924 1273.6 694.358 1362.42 733.153C1406.75 752.469 1446 762.319 1479.1 762.319C1533.85 762.319 1559.62 736.18 1571.39 714.223C1588.5 682.582 1587.69 638.393 1569.28 601.744C1557.65 578.521 1542.76 559.206 1525.55 536.864C1497.17 499.995 1465.17 458.172 1436.48 384.323C1433.47 376.509 1430.45 368.42 1427.58 360.606C1421.09 343.271 1414.45 325.387 1406.8 307.778C1397.85 288.16 1387.32 269.45 1375.35 251.868C1361.16 229.856 1345.16 209.605 1323.97 207.845C1320.25 207.845 1316.27 207.404 1311.84 207.404C1307.42 207.404 1303.64 207.404 1299.77 207.404C1295.89 207.404 1292.32 207.404 1288.75 207.404C1286.03 207.404 1283.72 207.404 1281.45 207.404C1260.87 206.02 1240.46 202.332 1220.57 196.398C1199.13 189.569 1178.61 179.689 1159.53 167.013C1134.67 152.265 1111.27 138.178 1078.52 138.178ZM427.69 589.417C384.315 589.417 353.671 578.411 334.097 555.299C314.523 532.187 307.428 504.452 314.774 476.167C330.574 415.965 406.506 361.376 523.296 326.322C588.459 306.787 645.169 301.504 695.186 296.882C761.858 290.663 819.423 285.326 870.245 247.355C935.056 198.93 977.224 171.69 1011.14 156.282C1019.94 152.303 1028.97 148.939 1038.16 146.212C1051.25 142.094 1064.79 139.928 1078.41 139.773C1110.77 139.773 1133.77 153.916 1158.67 168.829C1177.87 181.57 1198.51 191.505 1220.06 198.38C1240.06 204.309 1260.57 207.996 1281.25 209.385C1283.52 209.385 1285.93 209.385 1288.65 209.385C1292.27 209.385 1295.89 209.385 1299.67 209.385C1303.44 209.385 1307.62 209.385 1311.74 209.385C1315.87 209.385 1320.1 209.385 1323.77 209.826C1344.3 211.586 1360.05 231.837 1374.09 253.189C1386 270.706 1396.48 289.342 1405.39 308.878C1412.99 326.432 1419.68 344.317 1426.12 361.596C1429.04 369.465 1432.06 377.555 1435.03 385.314C1463.66 459.438 1495.91 501.315 1524.34 538.295C1541.5 560.307 1556.34 579.842 1567.92 602.899C1586.08 639.108 1586.89 682.582 1570.03 713.783C1558.36 735.355 1533.1 761.053 1479.05 761.053C1446.15 761.053 1407.05 751.258 1362.92 731.998C1274.16 693.477 1173.47 639.824 1086.67 592.719C1003.2 546.303 910.852 522.183 817.209 522.337C791.679 522.378 766.173 524.069 740.825 527.399C701.878 532.407 657.95 543.908 611.455 555.959C547.701 572.193 481.682 589.417 427.69 589.417Z" fill="url(#paint11_linear_928_310)"/>
<path d="M1075.6 131.52C1062.2 131.653 1048.87 133.688 1035.95 137.573C1026.2 140.326 1016.63 143.8 1007.32 147.974C971.087 164.152 926.806 192.712 859.429 243.559C809.11 281.64 752.048 285.932 686.281 290.939C633.799 294.902 574.372 299.414 505.133 321.206C389.399 357.855 313.619 415.14 297.819 478.369C290.271 508.525 297.316 537.305 317.946 561.573C338.577 585.841 369.775 596.572 414.056 596.572C470.111 596.572 538.092 578.357 603.808 560.693C649.8 548.366 693.276 536.7 731.015 531.582C757.858 527.943 784.879 526.105 811.928 526.079C905.16 526.274 997.118 549.764 1080.78 594.756C1179.56 647.144 1275.32 697.385 1360.61 735.631C1405.89 756.046 1446.15 766.447 1480.42 766.447C1534.41 766.447 1560.93 740.803 1573.71 719.342C1592.38 687.865 1594.19 644.172 1578.34 605.321C1567.37 578.467 1552.27 555.41 1534.81 528.721C1509.65 490.2 1481.12 446.727 1454.75 376.73C1452.49 370.732 1450.27 364.679 1448.01 358.57C1440.81 338.925 1433.32 318.674 1424.51 299.029C1415.23 279.206 1404.11 260.488 1391.3 243.174C1377.11 223.198 1359.55 202.728 1336.75 202.453H1335.04C1326.94 202.453 1319.29 203.058 1311.9 203.718C1304.5 204.379 1298.66 204.819 1292.42 204.819H1291.27C1269.45 204.605 1247.73 201.594 1226.56 195.849C1199.94 188.805 1179.46 175.818 1159.73 163.272C1134.42 146.763 1110.12 131.52 1075.6 131.52ZM414.508 594.921C370.681 594.921 339.583 583.64 319.506 560.418C299.429 537.195 292.032 508.415 299.379 478.809C315.078 416.131 390.255 359.286 505.686 322.801C574.523 300.79 633.899 296.552 686.281 292.59C752.3 287.583 809.311 283.235 860.184 244.935C927.511 194.143 971.64 165.638 1007.77 149.514C1017.15 145.385 1026.76 141.929 1036.55 139.169C1049.36 135.333 1062.57 133.317 1075.85 133.171C1109.97 133.171 1134.12 148.469 1159.68 164.647C1179.51 177.249 1199.94 190.291 1226.91 197.665C1248.19 203.425 1270 206.454 1291.92 206.69H1293.13C1299.42 206.69 1305.86 206.139 1312.7 205.589C1319.55 205.039 1327.8 204.323 1335.75 204.323H1337.46C1359.55 204.323 1376.86 224.739 1390.8 244.44C1403.55 261.652 1414.65 280.259 1423.91 299.964C1432.66 319.555 1440.11 339.805 1447.36 359.396C1449.57 365.504 1451.83 371.557 1454.05 377.555C1480.47 447.773 1509.05 491.411 1534.26 529.876C1551.72 556.51 1566.76 579.403 1577.68 606.257C1593.28 644.777 1591.57 687.645 1573.15 718.681C1560.62 739.813 1534.46 765.016 1481.12 765.016C1447.26 765.016 1407.15 754.671 1361.86 734.365C1276.67 695.844 1180.72 645.878 1082.14 593.49C998.274 548.387 906.091 524.84 812.632 524.649C785.534 524.671 758.462 526.509 731.568 530.151C693.729 535.269 650.203 546.935 604.161 559.262C538.394 576.761 470.363 594.921 414.508 594.921Z" fill="url(#paint12_linear_928_310)"/>
<path d="M1072.83 124.751C1059.74 124.824 1046.71 126.672 1034.04 130.254C1023.76 133.061 1013.68 136.628 1003.84 140.93C966.005 157.438 918.302 188.365 849.315 240.863C798.594 279.383 742.085 282.74 676.62 286.592C622.225 289.839 560.333 293.636 488.075 317.683C428.548 337.439 380.04 362.752 343.861 392.908C311.154 420.423 290.02 450.634 282.723 480.955C278.921 496.016 278.886 511.917 282.621 526.998C286.357 542.079 293.725 555.787 303.958 566.691C324.84 590.518 356.743 602.074 401.476 602.074C459.494 602.074 529.337 582.759 596.915 564.104C642.454 551.558 685.476 539.671 722.109 534.499C750.474 530.467 779.047 528.427 807.651 528.39C900.742 528.564 992.619 551.502 1076.56 595.526L1107.1 611.374C1197.67 658.204 1282.86 702.448 1359.85 737.942C1406.45 759.403 1447.81 770.299 1482.88 770.299C1536.17 770.299 1563.39 745.26 1577.18 724.239C1597.31 693.368 1601.53 649.069 1588.5 608.678C1578.44 576.981 1562.64 549.081 1544.47 516.724C1516.9 469.878 1493.32 420.364 1474.03 368.806C1472.47 364.623 1470.96 360.331 1469.4 356.094C1461.45 334.082 1453.19 311.52 1443.28 290.059C1433.59 270.044 1421.76 251.351 1408.06 234.369C1387.93 208.395 1370.92 196.839 1352.71 196.839H1350.49C1341.59 197.335 1333.23 198.435 1325.33 199.481C1317.43 200.526 1309.58 201.572 1302.19 201.792C1279.17 202.621 1256.16 200.235 1233.7 194.693C1204.47 187.484 1182.53 172.681 1161.24 158.924C1134.37 141.26 1109.16 124.751 1072.83 124.751ZM401.275 600.479C356.944 600.479 325.394 589.088 304.813 565.59C294.766 554.893 287.531 541.441 283.866 526.639C280.201 511.837 280.241 496.23 283.981 481.45C291.177 451.404 312.16 421.248 344.364 394.174C380.392 364.183 428.749 339.145 488.125 319.224C560.384 295.232 622.175 291.71 676.721 288.408C742.387 284.611 799.097 281.254 850.17 242.458C919.107 189.961 966.659 159.199 1004.4 142.691C1014.09 138.4 1024.04 134.852 1034.19 132.07C1046.74 128.491 1059.66 126.642 1072.63 126.567C1108.56 126.567 1133.57 143.076 1160.08 160.575C1181.42 174.663 1203.51 189.245 1232.95 196.509C1255.54 202.095 1278.69 204.499 1301.83 203.663C1309.28 203.663 1316.93 202.397 1325.13 201.352C1333.33 200.306 1341.48 199.206 1350.29 198.71H1352.45C1370.27 198.71 1387.02 210.101 1406.75 235.635C1420.31 252.544 1432 271.144 1441.57 291.049C1451.63 312.566 1459.68 335.073 1467.63 357.084C1469.19 361.322 1470.7 365.614 1472.26 369.796C1491.54 421.436 1515.12 471.025 1542.71 517.935C1560.78 550.237 1576.42 578.082 1586.59 609.613C1599.42 649.455 1595.14 693.148 1575.42 723.634C1555.69 754.12 1524.34 768.593 1482.68 768.593C1447.81 768.593 1406.65 757.587 1360.25 736.291C1283.27 700.797 1197.92 656.553 1107.55 609.724L1076.81 594.095C992.675 549.991 900.597 526.997 807.299 526.794C778.694 526.859 750.122 528.918 721.756 532.958C685.074 538.13 642.001 550.017 596.361 562.619C528.884 581.218 459.091 600.479 401.275 600.479Z" fill="url(#paint13_linear_928_310)"/>
<path d="M1070.16 118.038C1057.33 118.207 1044.56 120.054 1032.12 123.54C1021.46 126.437 1010.99 130.114 1000.77 134.546C960.821 151.825 911.106 184.073 839.753 239.102C788.78 278.228 732.423 280.594 667.159 283.125C610.5 285.436 546.394 288.133 470.563 314.492C358.754 353.397 282.772 416.791 267.224 483.982C263.387 499.474 263.408 515.806 267.283 531.287C271.158 546.767 278.747 560.833 289.264 572.029C310.599 596.131 343.004 607.853 388.191 607.853C448.221 607.853 519.976 587.492 589.467 567.791C634.502 554.969 677.072 542.918 712.597 537.69C742.518 533.266 772.676 531.023 802.869 530.977C895.801 531.129 987.578 553.498 1071.77 596.517C1102.42 612.035 1132.16 627.278 1161.29 642.081C1231.03 677.685 1297.15 711.307 1358.54 740.473C1406.19 763.09 1448.66 774.536 1484.69 774.536C1526.41 774.536 1559.36 758.963 1580.3 729.467C1601.63 699.091 1608.53 654.242 1598.31 612.365C1589.05 574.56 1572.4 540.167 1553.02 500.27C1530.31 455.37 1510.15 408.985 1492.64 361.377L1490.18 354.443C1481.74 329.549 1472.12 305.156 1461.34 281.364C1451.43 261.094 1439.05 242.38 1424.56 225.73C1403.02 200.141 1383.85 189.355 1363.72 191.612C1354.82 192.602 1346.42 194.033 1338.57 195.409C1329.41 197.004 1320.8 198.49 1312.5 199.096C1306.01 199.591 1299.57 199.811 1293.28 199.811C1275.46 199.868 1257.68 197.858 1240.24 193.813C1208.44 186.549 1184.89 170.48 1162.4 154.962C1134.52 135.757 1108.41 118.038 1070.16 118.038ZM387.989 606.037C343.206 606.037 311.203 594.48 290.169 570.708C279.794 559.705 272.309 545.859 268.494 530.614C264.679 515.369 264.675 499.284 268.482 484.037C283.879 417.396 359.509 354.443 470.815 315.702C546.293 289.398 610.45 286.757 667.059 284.446C732.473 281.694 789.132 279.383 840.458 239.982C911.911 184.953 961.525 153.036 1001.48 135.812C1011.62 131.38 1022.03 127.703 1032.63 124.806C1044.95 121.346 1057.6 119.499 1070.31 119.303C1108.1 119.303 1134.07 137.078 1161.49 155.898C1184.24 171.526 1207.79 187.649 1239.84 194.968C1257.37 199.032 1275.25 201.061 1293.18 201.022C1299.47 201.022 1306.01 201.022 1312.5 200.306C1320.85 199.701 1329.51 198.215 1338.72 196.619C1346.77 195.188 1355.17 193.758 1363.88 192.822C1383.55 190.621 1402.27 201.187 1423.45 226.39C1437.83 242.87 1450.14 261.377 1460.04 281.419C1470.77 305.158 1480.36 329.496 1488.77 354.333L1491.23 361.267C1508.63 408.932 1528.68 455.39 1551.26 500.38C1570.54 540.167 1587.14 574.505 1596.55 612.145C1606.61 653.527 1599.87 697.825 1578.84 727.706C1558.46 756.762 1525.85 772.115 1484.64 772.115C1448.81 772.115 1406.55 760.724 1358.84 738.217C1297.2 709.051 1231.34 675.428 1161.64 639.825C1132.71 625.022 1102.77 609.779 1072.08 594.26C987.721 551.009 895.733 528.47 802.567 528.225C772.273 528.268 742.016 530.511 711.993 534.939C676.418 540.167 633.798 552.273 588.661 565.095C519.523 585.676 447.819 606.037 387.989 606.037Z" fill="url(#paint14_linear_928_310)"/>
<path d="M1067.6 111.269C1055.02 111.367 1042.49 113.047 1030.26 116.276C1019.11 119.079 1008.17 122.757 997.503 127.282C955.486 145.167 903.708 178.735 829.639 235.965C778.313 275.696 721.906 277.072 656.642 278.668C598.071 280.098 531.65 281.749 452.9 310.419C342.199 350.701 266.972 416.406 251.625 486.128C247.718 502.109 247.775 518.94 251.791 534.888C255.806 550.837 263.634 565.328 274.469 576.871C296.308 601.194 329.166 613.08 375.107 613.08C437.15 613.08 514.139 590.628 582.069 570.818C626.652 557.831 668.718 545.559 703.137 540.331C734.613 535.514 766.355 533.069 798.139 533.013C890.85 533.305 982.432 555.276 1066.74 597.452C1115.85 621.61 1162.7 645.437 1208.04 668.439C1260.22 694.908 1309.53 719.892 1356.98 742.949C1405.79 766.611 1449.32 778.608 1486.35 778.608C1527.66 778.608 1561.02 763.365 1582.81 734.585C1605.81 704.263 1615.02 659.91 1607.37 615.887C1599.47 570.267 1582.21 529.271 1560.22 477.433C1545.12 442.324 1528.52 402.593 1511.46 353.672L1511.11 352.682C1502.03 325.274 1491.42 298.498 1479.36 272.504C1469.09 252.001 1456.08 233.287 1440.76 216.98C1421.34 195.463 1403.88 185.283 1385.11 185.283C1382.4 185.313 1379.69 185.534 1377.01 185.943C1368.15 187.374 1359.85 189.135 1351.85 190.841C1341.78 192.987 1331.72 195.023 1322.51 196.014C1313.3 197.004 1303.34 197.61 1294.23 197.61C1278.19 197.641 1262.18 195.964 1246.43 192.602C1212.16 185.283 1187.51 167.784 1163.4 150.78C1134.77 130.254 1107.7 111.269 1067.6 111.269ZM374.755 611.594C329.468 611.594 297.012 599.928 275.476 575.88C264.808 564.545 257.099 550.303 253.145 534.622C249.191 518.941 249.135 502.39 252.983 486.678C268.33 417.506 343.205 352.242 453.353 312.125C531.901 283.565 598.222 281.914 656.692 280.484C722.107 278.888 778.766 277.512 830.494 237.506C904.463 180.275 956.291 146.818 998.056 128.988C1008.64 124.488 1019.5 120.811 1030.56 117.982C1042.69 114.777 1055.12 113.115 1067.6 113.03C1107.3 113.03 1134.12 132.07 1162.6 152.266C1186.7 169.38 1211.61 187.044 1246.18 194.473C1262.01 197.883 1278.1 199.579 1294.23 199.536C1303.39 199.536 1313 198.985 1322.66 197.94C1332.33 196.894 1341.78 194.858 1352.15 192.437C1360.15 190.731 1368.4 189.025 1377.31 187.594C1379.92 187.158 1382.57 186.937 1385.21 186.934C1403.27 186.934 1420.69 196.784 1439.96 217.97C1455.18 234.112 1468.11 252.662 1478.3 273C1490.24 299.005 1500.67 325.802 1509.55 353.232L1509.9 354.223C1526.96 403.199 1543.82 442.985 1558.66 478.093C1580.6 529.876 1597.91 570.763 1605.76 616.217C1613.31 659.745 1604.25 703.603 1581.5 733.539C1560.02 761.934 1527.06 776.957 1486.2 776.957C1449.37 776.957 1406.04 765.016 1357.43 741.463C1309.98 718.406 1260.72 693.423 1208.54 666.954C1163.25 643.951 1116.31 620.124 1067.24 595.911C982.631 553.689 890.742 531.737 797.736 531.527C765.87 531.585 734.044 534.03 702.482 538.846C668.014 544.349 625.897 556.4 581.314 569.387C513.484 589.197 436.597 611.594 374.755 611.594Z" fill="url(#paint15_linear_928_310)"/>
<path d="M1065.13 104.444C1052.75 104.555 1040.42 106.141 1028.35 109.177C1016.74 112.068 1005.34 115.875 994.232 120.568C950.707 138.893 895.255 174.827 819.726 233.708C767.948 274.044 711.44 274.485 646.075 274.98C585.693 275.475 517.108 276.025 435.44 307.062C379.636 328.358 331.632 357.084 296.862 390.376C264.356 421.303 243.423 455.366 236.479 488.934C232.52 505.375 232.629 522.671 236.793 539.051C240.958 555.431 249.029 570.306 260.179 582.153C282.47 606.806 315.782 618.747 361.974 618.747C426.081 618.747 505.082 595.14 574.773 574.339C618.752 561.187 660.316 548.75 693.627 543.467C726.672 538.216 760.017 535.549 793.409 535.488C885.868 535.786 977.251 557.19 1061.71 598.332C1127.98 630.249 1190.38 661.945 1250.71 692.597C1287.09 711.086 1321.51 728.531 1355.42 745.37C1405.29 770.188 1449.92 782.735 1488.01 782.735C1528.97 782.735 1562.74 767.877 1585.63 739.702C1609.94 709.821 1621.56 664.862 1616.68 619.463C1610.74 563.938 1591.22 512.101 1566.36 446.506C1555.24 417.065 1542.66 383.663 1529.88 346.023C1520.92 317.696 1510.1 290.11 1497.52 263.479C1486.97 242.719 1473.37 223.997 1457.27 208.064C1434.27 184.732 1412.58 175.872 1390.24 180.55C1381.69 182.311 1373.59 184.292 1365.79 186.053C1354.16 188.859 1343.19 191.556 1332.78 192.986C1320.66 194.714 1308.46 195.596 1296.25 195.628C1281.7 195.672 1267.18 194.254 1252.87 191.391C1216.19 184.017 1190.02 164.866 1164.71 146.322C1135.18 124.75 1107 104.444 1065.13 104.444ZM361.522 617.097C315.731 617.097 282.772 605.32 260.884 580.997C249.923 569.331 241.991 554.691 237.898 538.574C233.804 522.457 233.697 505.441 237.586 489.264C244.631 456.246 265.412 422.293 297.667 391.642C332.588 358.624 380.391 329.734 435.994 308.603C517.46 277.621 585.844 277.126 646.176 276.631C711.842 276.136 768.501 275.695 820.682 235.029C896.161 176.258 951.511 140.378 994.886 122.109C1005.91 117.435 1017.23 113.646 1028.75 110.773C1040.72 107.755 1052.95 106.187 1065.23 106.095C1106.8 106.095 1134.62 126.456 1164.06 148.028C1189.22 166.682 1215.74 185.943 1252.77 193.317C1267.16 196.223 1281.77 197.66 1296.4 197.609C1308.66 197.577 1320.92 196.695 1333.08 194.967C1343.6 193.482 1354.62 190.785 1366.29 187.979C1374.09 186.053 1382.14 184.072 1390.65 182.476C1412.53 177.963 1433.77 186.713 1456.41 209.605C1472.49 225.421 1486.09 244.011 1496.67 264.634C1509.17 291.137 1519.95 318.573 1528.92 346.738C1541.75 384.433 1554.33 417.836 1565.4 447.276C1590.11 512.761 1609.63 564.489 1615.72 619.793C1620.75 664.752 1609.08 709.215 1585.03 738.766C1562.43 766.281 1529.07 781.249 1488.57 781.249C1450.68 781.249 1406.24 768.757 1356.58 744.049C1322.66 727.21 1288.3 709.766 1251.92 691.276C1191.53 660.625 1129.19 628.928 1062.87 597.011C978.07 555.677 886.299 534.214 793.46 534.002C760.001 534.062 726.588 536.729 693.476 541.982C660.064 547.485 618.45 559.756 574.421 572.908C504.327 593.544 425.427 617.097 361.522 617.097Z" fill="url(#paint16_linear_928_310)"/>
<path d="M1062.72 97.5669C1050.51 97.6791 1038.35 99.1915 1026.44 102.079C1014.45 104.994 1002.67 108.894 991.214 113.746C945.625 132.676 888.06 170.04 810.066 231.233C762.867 268.268 711.189 271.294 657.952 271.294H635.51H611.407C557.566 271.294 493.811 273.77 418.182 303.761C311.455 346.024 235.776 418.057 220.73 491.796C216.741 508.707 216.912 526.47 221.224 543.286C225.537 560.101 233.838 575.371 245.286 587.547C268.081 612.42 301.845 624.527 348.49 624.527C414.71 624.527 495.724 599.708 567.176 577.807C610.602 564.49 651.612 551.943 683.866 546.66C718.38 540.768 753.247 537.697 788.177 537.47C880.678 537.712 972.155 558.648 1056.98 598.993C1139.71 637.844 1216.69 677.245 1291.17 715.435L1354.11 747.572C1405.09 773.491 1450.83 786.588 1489.98 786.588C1531.19 786.588 1564.4 772.445 1588.7 744.49C1614.72 714.609 1628.35 670.201 1626.14 622.711C1623.02 554.915 1601.43 492.126 1571.49 405.18C1564.2 383.939 1556.4 361.982 1548.7 338.045C1539.79 309.326 1528.8 281.43 1515.84 254.62C1504.85 233.601 1490.56 214.862 1473.62 199.261C1449.82 177.249 1427.08 169.16 1403.48 175.048C1395.43 177.029 1387.78 179.12 1380.38 181.156C1367.2 184.788 1354.72 188.2 1342.99 190.181C1328.45 192.714 1313.74 194.02 1299.02 194.088C1285.71 194.112 1272.43 192.897 1259.31 190.456C1220.17 183.082 1192.69 162.336 1166.12 142.306C1135.63 119.248 1106.7 97.5669 1062.72 97.5669ZM657.7 272.945C711.189 272.945 763.37 269.863 810.67 232.554C888.614 171.416 945.978 134.161 991.265 115.286C1002.72 110.455 1014.49 106.591 1026.49 103.73C1038.28 100.813 1050.33 99.3005 1062.42 99.2178C1105.94 99.2178 1134.67 120.899 1165.07 143.902C1191.79 164.042 1219.41 184.898 1258.86 192.327C1272.06 194.816 1285.42 196.049 1298.81 196.014C1313.63 195.944 1328.41 194.638 1343.04 192.107C1354.82 190.126 1367.35 186.604 1380.53 183.027C1387.93 180.991 1395.63 178.9 1403.58 176.919C1426.73 171.416 1448.87 178.845 1472.47 200.802C1489.26 216.302 1503.42 234.932 1514.28 255.831C1527.22 282.566 1538.2 310.389 1547.09 339.035C1554.99 362.973 1562.59 384.984 1569.88 406.226C1599.77 493.007 1621.36 555.685 1624.48 623.261C1626.64 670.256 1613.11 714.224 1587.39 743.83C1563.39 771.345 1530.53 785.377 1489.77 785.377C1450.73 785.377 1405.24 772.335 1354.42 746.526C1333.79 736.034 1312.82 725.303 1291.52 714.334C1217.05 676.199 1140.01 636.743 1057.28 597.893C972.258 557.496 880.578 536.541 787.875 536.315C752.807 536.372 717.791 539.26 683.111 544.954C650.756 550.457 609.696 562.839 566.22 576.211C494.818 598.223 413.955 622.821 347.937 622.821C301.694 622.821 268.282 610.879 245.789 586.336C234.522 574.348 226.357 559.312 222.124 542.755C217.891 526.199 217.74 508.712 221.686 492.071C236.782 418.938 311.858 347.345 417.93 304.972C493.409 275.091 556.962 272.56 610.652 272.56C618.804 272.56 626.855 272.56 634.705 272.56L657.7 272.945Z" fill="url(#paint17_linear_928_310)"/>
<path d="M1060.4 90.6871C1048.34 90.7625 1036.31 92.2195 1024.52 95.0345C1011.99 97.9499 999.676 101.905 987.691 106.866C940.039 126.456 880.562 165.197 800.051 228.755C758.589 261.333 714.509 267.826 661.07 267.826C649.095 267.826 637.018 267.496 624.187 267.166C611.355 266.836 597.014 266.505 582.774 266.505C532.455 266.505 471.519 270.468 400.468 299.523C294.799 343.106 219.874 417.506 204.979 493.776C197.532 531.966 206.288 565.974 230.139 592.058C253.386 617.207 287.653 629.423 334.802 629.423C403.135 629.423 486.111 603.394 559.376 580.392C602.197 566.965 642.654 554.253 673.852 548.97C710.026 542.793 746.581 539.666 783.195 539.615C875.528 539.871 966.885 560.301 1051.9 599.707C1150.82 644.996 1242.2 692.487 1330.51 738.436L1352.5 749.827C1404.63 776.901 1451.48 790.604 1491.84 790.604C1538.08 790.604 1576.07 772.224 1601.63 737.445C1623.92 705.461 1635.85 666.279 1635.55 626.066C1636.4 543.082 1610.39 462.575 1574.11 350.92L1567.31 329.954C1558.51 300.903 1547.4 272.749 1534.1 245.815C1522.79 224.57 1507.86 205.891 1490.13 190.785C1471.76 174.882 1453.9 167.123 1435.58 167.123C1429.24 167.132 1422.93 168.038 1416.81 169.819C1409.57 171.91 1402.57 174.056 1395.83 176.093C1380.73 180.66 1366.64 184.952 1353.41 187.539C1336.61 191 1319.58 192.841 1302.49 193.042C1290.24 193.065 1278 192.016 1265.9 189.905C1224.34 182.586 1195.46 160.244 1167.78 138.673C1136.18 113.744 1106.29 90.6871 1060.4 90.6871ZM661.07 269.697C714.811 269.697 759.142 262.929 800.756 230.076C881.166 166.628 940.945 127.942 988.194 108.241C1000.13 103.299 1012.39 99.3621 1024.88 96.4652C1036.55 93.6926 1048.46 92.2542 1060.4 92.173C1105.69 92.173 1135.48 115.23 1166.93 139.608C1194.85 161.62 1223.79 183.631 1265.65 191.115C1277.83 193.272 1290.15 194.34 1302.49 194.307C1319.66 194.108 1336.78 192.266 1353.66 188.804C1366.95 186.218 1381.19 181.871 1396.23 177.303C1402.97 175.267 1409.97 173.121 1417.21 171.03C1423.21 169.294 1429.38 168.406 1435.58 168.388C1453.54 168.388 1471.11 175.982 1489.22 191.666C1506.82 206.802 1521.61 225.481 1532.8 246.695C1546.13 273.69 1557.26 301.92 1566.06 331.055L1572.9 352.021C1608.98 463.235 1635.09 543.633 1634.24 626.341C1633.43 707.399 1588.95 789.228 1492.04 789.228C1451.78 789.228 1405.24 775.581 1353.36 748.616L1331.37 737.225C1243.01 691.276 1151.63 643.676 1052.7 598.497C967.52 558.892 875.957 538.311 783.396 537.965C746.699 538.011 710.06 541.139 673.801 547.32C642.553 552.822 602.046 565.369 559.175 578.796C486.011 601.743 403.186 627.772 335.003 627.772C288.257 627.772 254.493 615.721 231.397 590.903C207.747 565.204 199.092 531.746 206.237 494.106C221.031 418.386 295.553 344.427 400.77 301.064C471.619 271.898 532.405 268.046 582.573 268.046C596.813 268.046 610.601 268.377 623.985 268.707C637.37 269.037 649.095 269.697 661.07 269.697Z" fill="url(#paint18_linear_928_310)"/>
<path d="M1058.09 83.7548C1046.25 83.8663 1034.45 85.2673 1022.86 87.937C1009.85 90.8788 997.061 94.9265 984.621 100.043C934.905 120.239 873.164 160.576 790.188 226.28C747.417 260.233 702.029 264.801 659.359 264.801C644.263 264.801 629.167 264.141 613.166 263.48C596.057 262.82 578.345 262.104 559.878 262.104C499.505 260.893 439.49 272.498 383.158 296.278C330.122 319.005 283.879 350.536 249.46 387.516C217.206 422.129 196.475 459.934 189.631 496.749C182.234 536.26 191.292 571.093 215.898 597.452C239.598 622.876 274.268 635.258 321.92 635.258C392.366 635.258 477.456 607.743 552.481 583.86C594.649 570.323 634.552 557.501 664.693 552.218C702.427 545.533 740.589 542.148 778.816 542.093C871.014 542.397 962.271 562.379 1047.47 600.919C1153.14 648.024 1251.56 699.532 1351.55 752.58C1404.73 780.755 1452.79 795.062 1494.3 795.062C1598.21 795.062 1640.68 706.08 1645.26 629.975C1651.1 536.92 1624.48 444.031 1586.23 322.967C1577.48 293.245 1566.12 264.515 1552.32 237.176C1540.7 215.588 1525.12 196.855 1506.58 182.147C1491.31 168.816 1472.47 161.317 1452.94 160.796C1445.22 160.818 1437.54 162.06 1430.14 164.483L1412.23 170.371C1395.02 175.874 1378.72 181.377 1363.72 184.733C1344.83 189.003 1325.6 191.233 1306.31 191.392C1294.96 191.394 1283.62 190.493 1272.39 188.695C1228.52 181.432 1198.48 157.494 1169.49 134.382C1136.79 108.243 1105.94 83.7548 1058.09 83.7548ZM659.158 266.562C702.08 266.562 747.719 261.884 790.842 227.601C873.718 161.566 935.358 121.725 984.922 101.584C997.297 96.4932 1010.02 92.4639 1022.96 89.5328C1034.55 86.8593 1046.35 85.4765 1058.19 85.4056C1105.54 85.4056 1136.18 109.839 1168.89 135.702C1198.07 158.925 1228.21 182.972 1272.5 190.291C1283.79 192.135 1295.19 193.054 1306.61 193.043C1326 192.884 1345.33 190.654 1364.33 186.384C1379.42 183.082 1395.73 177.69 1412.94 171.967L1430.9 166.023C1438.16 163.689 1445.68 162.485 1453.24 162.447C1472.46 162.951 1491.01 170.336 1506.03 183.468C1524.39 198.07 1539.81 216.652 1551.31 238.057C1565.05 265.303 1576.34 293.942 1585.03 323.572C1623.22 444.636 1649.79 537.14 1644 629.92C1639.27 705.42 1597.25 793.632 1494.35 793.632C1453.09 793.632 1405.24 779.379 1352.25 751.259C1252.22 698.211 1153.69 646.704 1048.07 599.544C962.697 560.935 871.253 540.915 778.866 540.607C740.455 540.644 702.108 544.03 664.189 550.733C633.998 556.236 594.045 568.892 551.777 582.429C476.852 606.477 391.964 633.772 321.668 633.772C274.469 633.772 240.101 621.555 216.653 596.462C192.499 570.488 183.543 535.93 190.839 497.409C197.632 460.925 218.212 423.395 250.266 389.002C284.533 352.187 330.776 320.766 383.46 298.149C439.601 274.449 499.407 262.863 559.576 264.03C577.993 264.03 595.705 264.801 612.814 265.461C628.966 265.956 644.062 266.562 659.158 266.562Z" fill="url(#paint19_linear_928_310)"/>
<path d="M1055.87 76.8208C1044.04 76.9048 1032.24 78.2502 1020.65 80.8379C1007.22 83.8023 994.031 87.924 981.199 93.1644C929.421 113.745 865.466 155.513 779.923 223.804C737.907 257.372 694.985 261.994 654.881 261.994C637.722 261.994 620.11 261.004 601.492 259.958C581.365 258.802 560.482 257.592 538.543 257.592C479.227 256.521 420.321 268.537 365.345 292.92C263.248 338.265 188.021 419.488 173.68 499.61C166.384 540.442 175.794 576.156 200.853 602.79C225.006 628.489 260.179 640.925 308.334 640.925C381.045 640.925 468.046 612.365 544.833 587.162C586.397 573.514 625.645 560.638 654.73 555.355C694.038 548.126 733.824 544.445 773.684 544.349C865.751 544.679 956.915 564.215 1042.29 601.91C1151.98 649.62 1254.88 703.714 1349.79 755.056C1404.13 784.441 1453.34 799.354 1496.11 799.354C1599.32 799.354 1645.61 713.674 1654.57 633.441C1665.19 538.021 1642.34 437.207 1604.75 315.262C1596.09 285.045 1584.55 255.904 1570.33 228.316C1558.35 206.397 1542.12 187.614 1522.78 173.287C1507.47 161.237 1489.16 154.559 1470.3 154.137C1461.1 154.18 1451.97 155.796 1443.23 158.924L1429.44 163.877C1408.76 171.251 1390.9 177.689 1373.84 181.761C1352.96 187.012 1331.61 189.743 1310.18 189.906C1299.65 189.931 1289.12 189.14 1278.69 187.54C1232.79 180.441 1201.29 154.962 1171.1 130.254C1137.44 102.74 1105.64 76.8208 1055.87 76.8208ZM655.032 263.645C693.475 263.645 738.511 259.078 780.829 225.124C866.371 156.943 929.975 115.506 981.552 94.7053C994.373 89.5001 1007.55 85.3971 1020.95 82.4337C1032.41 79.8683 1044.07 78.5412 1055.77 78.4716C1105.03 78.4716 1136.63 104.28 1170.1 131.575C1200.29 156.393 1231.89 182.037 1278.53 189.3C1289.04 190.874 1299.63 191.664 1310.24 191.667C1331.76 191.508 1353.21 188.777 1374.19 183.522C1391.35 179.395 1409.41 172.957 1429.99 165.528L1443.73 160.63C1452.32 157.505 1461.3 155.889 1470.35 155.843C1488.92 156.282 1506.92 162.884 1521.98 174.773C1541.13 188.942 1557.21 207.54 1569.08 229.252C1583.24 256.74 1594.74 285.769 1603.39 315.868C1640.88 437.647 1663.78 538.241 1653.11 633.386C1644.25 712.903 1598.36 797.814 1496.16 797.814C1453.64 797.814 1404.63 783.011 1350.54 753.79C1255.59 702.448 1152.64 648.354 1042.89 600.589C957.367 562.863 866.053 543.309 773.835 542.973C733.891 543.069 694.022 546.75 654.629 553.979C625.444 559.482 587.957 571.588 544.582 585.841C467.896 611.044 380.944 639.55 308.485 639.55C260.732 639.55 225.912 627.223 202.06 601.91C177.354 575.661 168.145 540.442 175.341 500.216C189.531 420.533 264.406 339.86 366.05 294.681C420.858 270.414 479.572 258.455 538.694 259.518C560.583 259.518 581.415 260.728 601.543 261.829C620.211 262.324 637.823 263.645 655.032 263.645Z" fill="url(#paint20_linear_928_310)"/>
<path d="M1053.66 69.7218C1041.97 69.8073 1030.31 71.0969 1018.84 73.5739C1004.88 76.5803 991.165 80.8129 977.828 86.2306C924.088 107.637 858.12 150.56 770.112 221.217C728.699 254.235 685.928 259.022 649.346 259.022C630.326 259.022 610.701 257.592 589.919 256.106C567.226 254.455 543.727 252.749 518.769 252.749C460.056 251.948 401.82 264.367 347.684 289.233C246.543 335.898 172.071 419.487 157.981 502.251C150.786 544.404 160.497 580.888 186.009 607.852C210.665 633.771 246.392 646.373 294.899 646.373C369.824 646.373 462.763 615.171 537.437 590.133C580.107 575.826 616.941 563.444 645.019 558.216C685.885 550.489 727.28 546.586 768.753 546.55C860.669 546.913 951.721 565.985 1037.26 602.79C1154.4 652.316 1265 711.583 1348.28 757.532C1403.63 788.128 1453.95 803.646 1498.18 803.646C1545.48 803.646 1584.62 786.092 1614.51 751.534C1646.22 714.829 1658.85 668.99 1663.88 636.963C1677.77 548.916 1665.24 447.057 1623.32 307.558C1614.86 276.811 1603.12 247.259 1588.35 219.511C1576.05 197.218 1559.17 178.374 1539.04 164.482C1523.83 153.557 1506.1 147.601 1487.91 147.313C1477.16 147.387 1466.49 149.453 1456.36 153.421L1448.46 156.448C1424.36 165.693 1403.58 173.727 1383.95 178.845C1361.21 185.022 1337.89 188.254 1314.46 188.475C1304.62 188.509 1294.78 187.81 1285.03 186.384C1236.42 179.285 1203.91 152.211 1172.51 125.852C1138.14 97.2364 1105.39 69.7218 1053.66 69.7218ZM649.547 260.783C686.18 260.783 729.253 256.216 771.018 222.648C858.874 152.266 924.742 109.233 978.382 87.8815C991.641 82.5196 1005.27 78.3241 1019.14 75.3348C1030.51 72.8756 1042.07 71.6042 1053.66 71.5378C1104.88 71.5378 1137.44 98.7222 1171.91 127.503C1203.46 153.861 1236.12 181.101 1285.13 188.035C1294.95 189.432 1304.85 190.13 1314.76 190.126C1338.31 189.917 1361.76 186.666 1384.61 180.441C1406.46 174.236 1428.01 166.815 1449.17 158.209L1457.07 155.182C1467.03 151.277 1477.53 149.249 1488.11 149.184C1506.01 149.466 1523.47 155.326 1538.43 166.078C1558.35 179.811 1575.08 198.425 1587.29 220.447C1601.99 248.216 1613.67 277.764 1622.11 308.494C1663.93 447.662 1676.41 549.026 1662.62 637.073C1656.53 675.593 1626.69 802.161 1498.38 802.161C1454.6 802.161 1404.38 786.697 1349.13 756.211C1265.85 710.262 1155.2 651.105 1038.01 601.414C952.296 564.546 861.059 545.438 768.954 545.064C727.399 545.129 685.923 549.032 644.968 556.73C616.79 562.233 579.906 574.395 537.236 588.757C462.663 613.741 369.824 644.887 295.101 644.887C246.895 644.887 211.621 632.451 187.267 606.807C162.108 580.283 152.547 544.294 159.642 502.692C173.631 420.478 247.801 337.604 348.489 290.939C402.4 266.161 460.395 253.78 518.869 254.565C543.777 254.565 567.226 256.271 589.919 257.922C610.852 259.352 630.477 260.783 649.547 260.783Z" fill="url(#paint21_linear_928_310)"/>
<path d="M1051.65 62.9531C1040.08 63.0054 1028.54 64.2397 1017.18 66.6401C1002.75 69.66 988.56 73.9478 974.758 79.4619C919.709 101.474 849.615 146.818 760.4 218.851C727.894 245.1 692.922 256.326 643.408 256.326C622.727 256.326 601.392 254.455 578.748 252.474C553.589 250.328 527.926 248.071 500.351 248.071C441.997 247.306 384.166 260.176 330.726 285.821C281.912 308.627 238.012 342.37 201.859 384.874C170.259 422.954 149.276 465.657 142.885 505.168C135.841 548.641 145.854 585.951 171.819 613.135C196.978 639.329 233.006 652.096 282.168 652.096C359.357 652.096 454.41 619.519 530.794 593.325C572.71 578.962 608.889 566.58 635.961 561.353C678.364 553.072 721.352 548.892 764.425 548.861C856.237 549.246 947.219 567.892 1032.93 603.89C1126.97 642.741 1226.91 692.377 1347.37 760.118C1403.98 791.98 1455.66 808.104 1500.94 808.104C1548.5 808.104 1588.35 790.66 1619.5 756.321C1652.66 719.727 1667.35 673.227 1673.84 640.76C1692.56 547.21 1682.29 435.776 1642.54 300.184C1634.15 268.945 1622.22 238.978 1607.02 210.982C1594.41 188.308 1576.86 169.402 1555.94 155.953C1540.97 146.089 1523.86 140.788 1506.38 140.599C1493.99 140.714 1481.71 143.268 1470.15 148.138C1445.45 158.908 1420.26 168.257 1394.67 176.148C1370.14 183.316 1344.88 187.105 1319.49 187.429C1310.28 187.426 1301.07 186.801 1291.92 185.558C1240.95 178.515 1207.28 149.844 1174.73 122.11C1138.9 91.7335 1105.19 62.9531 1051.65 62.9531ZM643.207 257.977C693.023 257.977 728.296 246.971 761.104 220.172C850.37 148.248 920.162 102.739 975.111 80.7275C988.811 75.2327 1002.9 70.9631 1017.23 67.9608C1028.51 65.6079 1039.96 64.3923 1051.44 64.3289C1104.58 64.3289 1138.14 92.889 1173.62 123.155C1206.38 151.055 1240.19 179.89 1291.57 186.989C1300.78 188.212 1310.06 188.818 1319.34 188.805C1344.84 188.516 1370.2 184.708 1394.82 177.469C1420.42 169.607 1445.61 160.257 1470.3 149.459C1481.69 144.673 1493.77 142.157 1505.98 142.03C1523.19 142.232 1540.04 147.456 1554.79 157.163C1575.46 170.417 1592.82 189.032 1605.36 211.367C1620.39 239.296 1632.22 269.145 1640.58 300.239C1680.23 435.556 1690.45 546.715 1671.83 639.99C1651.05 743.995 1586.99 806.123 1500.39 806.123C1455.1 806.123 1403.93 790.054 1347.52 758.357C1226.76 690.561 1127.02 640.87 1032.93 602.019C947.048 566.005 855.898 547.359 763.922 546.99C720.867 547.068 677.9 551.247 635.508 559.482C608.336 564.985 572.106 577.201 530.14 591.564C453.856 617.703 359.056 650.225 281.967 650.225C233.208 650.225 197.481 637.623 172.674 611.704C147.062 584.905 137.199 548.091 144.143 505.223C157.729 421.689 232.856 334.027 331.128 287.087C384.382 261.549 442.006 248.735 500.15 249.502C527.674 249.502 553.488 251.758 578.446 253.905C601.09 256.106 622.475 257.977 643.207 257.977Z" fill="url(#paint22_linear_928_310)"/>
<path d="M1049.33 55.9639C1037.83 56.0327 1026.37 57.2298 1015.06 59.5407C1000.17 62.5928 985.529 66.9731 971.287 72.6377C914.276 94.9796 841.967 142.03 750.286 216.374C718.585 242.128 683.412 253.629 636.213 253.629C614.073 253.629 590.926 251.263 566.873 248.786C539.802 245.98 511.875 243.283 481.834 243.283C423.61 242.542 365.958 255.904 313.014 282.409C215.144 330.78 140.42 421.468 127.086 508.029C120.192 552.713 130.507 590.848 156.975 618.087C182.537 644.556 219.069 657.433 268.683 657.433C348.187 657.433 445.353 623.425 523.448 596.131C564.609 581.713 600.134 569.276 626.2 564.104C670.154 555.263 714.752 550.806 759.444 550.787C851.129 551.235 942.016 569.438 1027.9 604.55C1125.11 643.731 1226.15 693.863 1345.81 762.374C1403.58 795.391 1456.51 812.23 1503.11 812.23C1550.91 812.23 1591.52 794.896 1623.87 760.723C1651.25 731.833 1671.73 691.441 1683.15 643.951C1706.9 544.898 1699.45 426.476 1661.06 292.204C1652.85 260.464 1640.82 230.06 1625.28 201.791C1612.24 178.906 1594.03 160.085 1572.4 147.147C1557.76 138.284 1541.32 133.59 1524.59 133.5C1510.49 133.668 1496.53 136.768 1483.48 142.635C1457.89 154.399 1431.72 164.595 1405.09 173.176C1378.9 181.396 1351.82 185.727 1324.58 186.053C1315.87 186.064 1307.16 185.513 1298.51 184.402C1245.22 177.523 1210.35 147.202 1176.64 117.927C1139.7 86.2299 1104.98 56.0189 1049.33 55.9639ZM636.213 255.225C683.764 255.225 719.189 243.669 751.192 217.695C842.722 143.46 914.879 96.6304 971.79 74.1785C985.955 68.5581 1000.51 64.1967 1015.32 61.1367C1026.54 58.8705 1037.92 57.692 1049.33 57.6147C1104.68 57.6147 1138.95 87.6057 1175.48 119.358C1209.4 148.798 1244.42 179.284 1298.11 186.218C1306.83 187.327 1315.6 187.879 1324.38 187.869C1351.74 187.519 1378.93 183.17 1405.24 174.937C1431.94 166.339 1458.18 156.124 1483.84 144.341C1496.69 138.531 1510.44 135.468 1524.34 135.316C1540.82 135.418 1557.01 140.035 1571.44 148.743C1592.88 161.528 1610.92 180.188 1623.77 202.892C1639.31 231.02 1651.37 261.274 1659.65 292.865C1697.94 426.861 1705.34 544.898 1681.69 643.731C1669.61 693.918 1628.15 810.745 1503.11 810.745C1456.76 810.745 1404.03 794.236 1346.52 761.218C1226.81 692.707 1125.72 642.52 1028.4 603.339C942.357 568.164 851.3 549.924 759.444 549.466C714.653 549.515 669.958 553.972 625.898 562.783C599.782 568.286 564.207 580.447 522.995 594.865C445.001 622.38 347.986 656.112 268.683 656.112C219.471 656.112 183.141 643.401 157.981 617.207C131.916 590.188 121.752 552.548 128.545 508.414C141.829 422.348 216.2 332.321 313.668 283.95C366.412 257.56 423.836 244.237 481.834 244.934C511.774 244.934 539.701 247.796 566.722 250.437C591.027 252.913 613.871 255.225 636.213 255.225Z" fill="url(#paint23_linear_928_310)"/>
<path d="M1047.22 49.0308C1035.79 49.0939 1024.4 50.2354 1013.15 52.4426C997.748 55.517 982.601 59.9709 967.865 65.7596C908.79 88.7618 834.318 137.298 740.222 213.898C708.823 239.542 674.404 250.933 628.614 250.933C603.964 250.386 579.358 248.42 554.897 245.045C524.69 240.959 494.303 238.663 463.87 238.166C405.671 237.594 348.115 251.5 295.553 278.833C198.488 328.359 124.468 421.909 111.436 510.946C104.693 556.895 115.361 595.801 142.281 623.536C168.296 650.225 205.281 663.212 255.449 663.212C337.267 663.212 436.597 627.828 516.353 599.323C556.608 584.96 591.579 572.524 616.588 567.296C662.144 557.877 708.401 553.106 754.764 553.043C846.334 553.545 937.136 571.342 1023.17 605.651C1121.79 644.172 1226.91 696.394 1344.55 765.236C1403.53 799.574 1457.72 817.018 1505.57 817.018C1632.13 817.018 1678.57 698.761 1692.66 647.914C1721.49 543.964 1717.06 418.442 1679.83 284.721C1671.57 252.511 1659.25 221.713 1643.25 193.207C1629.88 169.953 1610.99 151.105 1588.6 138.673C1574.38 130.782 1558.66 126.654 1542.71 126.622C1526.83 126.882 1511.15 130.625 1496.62 137.628C1470.09 150.354 1442.9 161.378 1415.2 170.645C1387.35 179.864 1358.45 184.755 1329.36 185.173C1321.17 185.201 1312.99 184.723 1304.85 183.742C1249.5 176.919 1213.17 145.222 1178.3 114.185C1140.51 80.7276 1104.83 49.0308 1047.22 49.0308ZM628.966 252.584C675.109 252.584 709.829 241.083 741.48 215.219C835.274 138.618 909.595 90.2476 968.519 67.3004C983.123 61.5562 998.135 57.139 1013.4 54.0934C1024.56 51.845 1035.87 50.6848 1047.22 50.6266C1104.33 50.6266 1139.75 82.0483 1177.34 115.286C1212.57 146.267 1248.59 178.349 1304.6 185.228C1312.81 186.18 1321.05 186.657 1329.31 186.659C1358.54 186.229 1387.57 181.301 1415.55 172.021C1443.31 162.788 1470.55 151.763 1497.12 139.003C1511.5 132.162 1526.98 128.532 1542.66 128.328C1558.39 128.346 1573.9 132.398 1587.95 140.159C1610.11 152.489 1628.81 171.165 1642.04 194.198C1657.99 222.552 1670.23 253.207 1678.42 285.271C1715.55 418.442 1719.98 543.633 1691.25 647.253C1677.26 697.77 1631.17 815.203 1505.62 815.203C1457.92 815.203 1403.93 797.868 1345.21 763.64C1227.51 695.019 1122.29 642.906 1023.62 604.055C937.449 569.672 846.489 551.854 754.764 551.392C708.369 551.42 662.076 556.173 616.487 565.59C591.328 570.763 556.457 583.254 515.849 597.672C436.194 626.122 337.016 661.506 255.449 661.506C205.683 661.506 169.051 648.629 143.288 622.215C116.77 594.7 106.303 556.18 113.096 511.111C126.079 422.459 199.695 329.515 296.308 279.988C348.741 252.788 406.141 238.976 464.172 239.597C494.556 240.066 524.894 242.362 555.048 246.476C579.572 249.927 604.246 251.966 628.966 252.584Z" fill="url(#paint24_linear_928_310)"/>
<path d="M1045.11 42.2068C1033.77 42.257 1022.46 43.3615 1011.29 45.5086C995.469 48.4934 979.9 52.9109 964.746 58.7156C903.307 82.5433 826.671 132.455 730.461 211.257C699.364 236.735 665.55 248.071 620.967 248.071C595.021 247.474 569.13 245.214 543.426 241.303C511.388 236.419 479.107 233.681 446.763 233.103C388.37 232.539 330.669 246.957 278.295 275.201C230.295 300.564 187.905 337.027 154.057 382.067C122.608 424.22 101.977 470.995 96.0397 513.752C89.5485 560.912 100.518 600.643 127.841 628.543C153.957 655.177 192.501 668.66 242.418 668.66C326.652 668.66 428.044 631.79 509.511 602.129C549.061 587.712 583.228 575.33 607.28 570.157C654.219 560.2 701.92 555.17 749.733 555.134C841.204 555.668 931.94 573.044 1018.13 606.532C1119.13 645.052 1225.4 697.715 1342.99 767.437C1403.08 803.041 1458.73 821.146 1507.99 821.146C1554.1 822.038 1598.81 803.858 1633.18 770.243C1662.92 741.353 1686.72 700.136 1702.02 651.16C1735.38 544.459 1734.07 408.096 1698.45 276.962C1690.3 244.252 1677.81 213.029 1661.36 184.292C1647.66 160.753 1628.18 141.896 1605.16 129.868C1575.92 115.176 1543.62 115.891 1510.1 131.96C1482.63 145.658 1454.43 157.565 1425.67 167.618C1396.21 177.854 1365.54 183.323 1334.64 183.852C1326.91 183.86 1319.18 183.419 1311.49 182.531C1253.63 175.873 1216.39 142.36 1180.36 109.948C1141.37 75.2244 1104.73 42.2068 1045.11 42.2068ZM620.967 249.942C665.902 249.942 699.968 238.496 731.367 212.742C827.476 134.106 903.961 84.2492 965.25 60.4766C980.308 54.5699 995.793 50.0599 1011.54 46.9944C1022.62 44.8502 1033.85 43.7455 1045.11 43.6926C1104.18 43.6926 1140.71 76.7102 1179.21 111.214C1215.33 143.791 1252.72 177.249 1311.09 184.182C1318.83 185.071 1326.61 185.512 1334.39 185.503C1365.46 184.938 1396.28 179.375 1425.87 168.994C1454.7 158.981 1482.95 147.054 1510.46 133.28C1543.57 117.377 1575.42 116.771 1604.3 131.189C1627.19 143.062 1646.55 161.754 1660.15 185.118C1676.55 213.697 1688.98 244.778 1697.04 277.347C1732.61 408.096 1733.92 544.073 1700.66 650.445C1667.1 757.752 1596.9 819.33 1508.04 819.33C1458.93 819.33 1403.63 801.335 1343.75 765.786C1226.1 696.064 1119.73 643.401 1018.69 604.826C932.308 571.319 841.385 553.962 749.733 553.483C701.716 553.488 653.811 558.537 606.677 568.561C582.524 573.734 548.357 586.171 508.756 600.588C427.39 630.194 326.098 667.009 242.065 667.009C192.551 667.009 154.309 653.692 128.546 627.333C101.575 599.818 90.7562 560.637 97.1971 514.027C109.626 424.22 184.249 326.598 278.597 276.686C330.807 248.569 388.316 234.226 446.511 234.809C478.805 235.391 511.035 238.129 543.023 243.008C568.858 246.988 594.884 249.303 620.967 249.942Z" fill="url(#paint25_linear_928_310)"/>
<path d="M1043.04 35.0536C1031.76 35.0925 1020.5 36.1601 1009.38 38.2453C993.091 41.4048 977.07 46.0246 961.475 52.0577C898.073 76.4907 819.274 127.778 720.548 209.001C689.652 234.369 656.441 245.816 612.815 245.816C585.476 245.047 558.212 242.326 531.198 237.671C497.471 231.95 463.426 228.75 429.302 228.096C370.664 227.58 312.781 242.57 260.582 271.789C166.486 323.242 92.3154 424 80.1885 516.834C73.8483 565.205 85.2205 605.652 112.946 633.827C139.464 660.681 178.361 674.328 228.931 674.328C315.53 674.328 419.036 635.808 502.214 605.101C540.959 590.739 574.371 578.357 597.468 573.239C646.03 562.631 695.431 557.286 744.952 557.281C836.334 557.863 927.008 574.854 1013.35 607.578C1116.51 646.098 1223.89 698.981 1341.64 769.969C1402.97 806.948 1459.78 825.658 1510.56 825.658C1557.3 826.438 1602.68 808.401 1638.06 774.977C1668.91 746.086 1694.32 704.484 1711.53 654.793C1731.72 594.19 1741.94 530.157 1741.72 465.657C1742.13 399.307 1733.81 333.238 1717.01 269.478C1708.97 236.354 1696.27 204.796 1679.38 175.928C1665.26 151.942 1644.99 133.033 1621.11 121.56C1590.92 107.692 1557.76 109.508 1522.93 127.062C1494.57 141.815 1465.38 154.571 1435.53 165.253C1404.49 176.525 1372.07 182.574 1339.37 183.192C1331.97 183.192 1324.63 182.807 1317.53 182.037C1257.15 175.488 1218.96 140.38 1181.67 106.372C1142.22 69.4469 1104.63 35.0536 1043.04 35.0536ZM612.815 247.356C656.794 247.356 690.306 235.91 721.454 210.322C820.079 129.209 898.727 78.2516 961.978 53.5985C977.489 47.6008 993.428 43.0177 1009.63 39.8962C1020.67 37.8115 1031.84 36.7438 1043.04 36.7045C1104.08 36.7045 1141.47 70.9327 1181.07 107.142C1218.35 141.26 1256.95 176.589 1317.58 183.192C1324.73 183.963 1332.12 184.348 1339.57 184.348C1372.43 183.746 1405.01 177.659 1436.18 166.298C1466.09 155.624 1495.34 142.849 1523.74 128.053C1558.21 110.774 1591.17 108.958 1620.75 122.55C1644.35 133.901 1664.37 152.6 1678.32 176.314C1695.17 205.179 1707.8 236.741 1715.76 269.863C1750.33 400.393 1748.26 544.019 1710.12 654.132C1688.18 717.526 1633.08 823.622 1510.56 823.622C1460.24 823.622 1403.43 804.967 1342.39 768.153C1224.54 697.11 1117.06 643.952 1013.81 605.652C927.317 572.862 836.49 555.833 744.952 555.245C695.328 555.241 645.825 560.605 597.166 571.258C573.969 576.376 540.506 588.758 501.56 603.12C418.483 633.937 315.077 672.292 228.73 672.292C178.663 672.292 140.018 658.81 113.751 632.231C86.3777 604.441 75.2069 564.49 81.4465 516.669C93.523 424.275 167.391 324.067 261.035 272.78C313.105 243.683 370.83 228.769 429.302 229.307C463.376 230.011 497.368 233.228 531.047 238.937C558.106 243.689 585.42 246.502 612.815 247.356Z" fill="url(#paint26_linear_928_310)"/>
<path d="M1041.03 28.0093C1029.78 28.0817 1018.56 29.1306 1007.47 31.146C990.713 34.3292 974.235 39.0414 958.203 45.2335C892.788 70.1617 811.875 122.935 710.634 206.524C680.442 231.507 646.628 243.119 604.41 243.119C575.83 242.245 547.344 239.137 519.17 233.819C483.845 227.239 448.119 223.56 412.292 222.813C353.346 222.258 295.197 237.726 243.07 267.827C195.567 295.023 154.128 333.333 121.7 380.031C90.3516 425.045 70.0228 474.571 64.4877 519.53C58.3991 569.057 70.073 610.218 98.2517 638.558C125.223 665.743 164.723 679.5 215.646 679.5C304.71 679.5 414.859 637.898 495.268 607.467C533.058 593.214 565.715 580.833 587.906 575.825C637.853 564.751 688.704 559.274 739.668 559.482C831.135 560.164 921.92 576.751 1008.62 608.623C1114.8 647.143 1223.33 700.797 1340.43 772.555C1402.92 810.8 1461.19 830.225 1513.32 830.225C1637.71 830.225 1696.94 722.588 1721.19 658.369C1743.82 595.984 1756.2 529.722 1757.77 462.63C1759.94 394.835 1752.59 327.078 1735.98 261.718C1727.99 228.033 1715.11 195.966 1697.84 166.738C1683.32 142.398 1662.36 123.472 1637.76 112.479C1625.17 107.114 1611.77 104.37 1598.26 104.39C1576.8 104.798 1555.69 110.438 1536.47 120.899C1507.12 136.64 1476.87 150.261 1445.89 161.675C1413.33 173.978 1379.2 180.607 1344.75 181.321C1337.76 181.321 1330.81 180.991 1324.07 180.275C1261.58 173.892 1222.03 137.132 1183.78 101.583C1143.13 63.8884 1104.53 28.0643 1041.03 28.0093ZM604.41 244.769C646.98 244.769 680.996 233.048 711.539 207.845C812.63 124.365 893.493 71.7025 958.706 46.7743C974.646 40.5858 991.044 35.9093 1007.72 32.7968C1018.72 30.7548 1029.86 29.7057 1041.03 29.6602C1103.98 29.6602 1142.37 65.3192 1182.98 103.069C1221.37 138.783 1261.12 175.708 1323.87 182.146C1330.66 182.862 1337.66 183.192 1344.7 183.192C1379.38 182.464 1413.74 175.741 1446.5 163.271C1477.48 151.856 1507.74 138.216 1537.07 122.439C1572.9 103.84 1606.97 100.923 1637.16 113.855C1661.48 124.723 1682.19 143.439 1696.53 167.508C1713.79 196.659 1726.6 228.681 1734.47 262.324C1768.69 394.394 1763.11 542.478 1719.38 657.709C1695.28 721.488 1636.45 828.299 1513.07 828.299C1461.09 828.299 1403.17 808.984 1340.88 770.794C1223.74 699.256 1115.15 645.382 1008.77 606.752C922.009 574.924 831.18 558.338 739.668 557.611C688.636 557.569 637.734 563.23 587.755 574.504C565.514 579.567 532.806 591.894 494.916 606.201C414.406 636.577 304.61 678.124 215.797 678.124C165.478 678.124 126.078 664.532 99.4091 637.623C71.633 609.668 60.1099 569.002 66.1481 520.026C77.8221 425.1 150.936 321.92 243.925 269.588C295.788 239.488 353.681 223.963 412.393 224.409C448.152 225.187 483.808 228.865 519.069 235.414C547.277 240.748 575.796 243.874 604.41 244.769Z" fill="url(#paint27_linear_928_310)"/>
<path d="M1038.92 21.0208C1027.74 21.0765 1016.58 22.1069 1005.55 24.1025C988.339 27.2624 971.403 32.0308 954.933 38.3551C886.902 64.1638 803.976 118.368 700.722 204.048C670.53 228.866 637.269 240.477 595.806 240.477C567.628 240.477 538.242 235.36 507.094 229.967C471.871 223.804 435.289 217.475 395.587 217.475C336.199 217.074 277.703 233.29 225.66 264.58C134.331 317.848 60.0101 426.531 48.8896 523.217C43.0526 573.844 55.0788 615.722 83.6096 644.282C111.033 671.796 151.037 685.609 202.463 685.609C294.044 685.609 406.356 642.356 488.375 610.769C525.259 596.571 557.161 584.3 578.346 579.347C629.721 567.359 682.104 561.291 734.637 561.243C826.021 561.898 916.763 578.01 1003.64 609.008C1109.92 646.538 1222.73 702.227 1338.87 774.481C1402.57 814.102 1462.1 834.242 1515.84 834.242C1608.88 834.242 1685.11 772.83 1730.5 661.396C1778.81 542.753 1788.06 386.525 1754.65 253.739C1746.73 219.596 1733.62 187.154 1715.86 157.768C1700.96 133.06 1679.32 114.114 1654.01 103.62C1642.06 98.9655 1629.47 96.6012 1616.78 96.631C1593.41 97.3107 1570.5 103.843 1549.8 115.726C1519.58 132.406 1488.38 146.874 1456.41 159.034C1422.48 172.361 1386.79 179.59 1350.74 180.44C1344.05 180.44 1337.41 180.11 1331.02 179.505C1266.16 173.342 1225.35 134.931 1186.05 97.7866C1143.93 58.3307 1104.38 21.0208 1038.92 21.0208ZM595.806 242.073C637.622 242.073 671.285 230.407 701.476 205.369C804.379 119.743 887.405 65.6495 955.235 39.8959C971.607 33.6025 988.441 28.8527 1005.55 25.6984C1016.5 23.7458 1027.57 22.7338 1038.66 22.6717C1103.58 22.6717 1142.92 59.7614 1184.59 99.0523C1224.14 136.362 1265.1 174.938 1330.51 181.101C1336.95 181.761 1343.65 182.091 1350.64 182.091C1386.93 181.254 1422.85 173.987 1457.02 160.575C1489.05 148.413 1520.3 133.908 1550.56 117.157C1571.14 105.446 1593.89 99.0458 1617.08 98.447C1629.6 98.4078 1642.02 100.735 1653.81 105.326C1678.82 115.707 1700.19 134.442 1714.9 158.869C1732.57 188.129 1745.58 220.447 1753.39 254.455C1786.76 386.91 1777.5 542.698 1729.34 661.011C1684.05 771.839 1608.58 832.867 1516.04 832.867C1462.6 832.867 1403.27 812.836 1339.92 773.325C1223.69 701.017 1110.77 645.272 1004.4 607.742C917.302 576.485 826.298 560.204 734.637 559.482C681.977 559.422 629.457 565.417 577.943 577.366C556.658 582.319 524.756 594.645 487.772 608.843C405.852 640.375 293.691 683.573 202.362 683.573C151.289 683.573 111.788 669.815 84.5154 642.686C56.3367 614.456 44.5118 573.074 50.2481 523.052C61.3183 427.081 135.338 318.949 226.365 265.956C278.183 234.76 336.437 218.582 395.587 218.961C435.188 218.961 471.619 225.344 506.893 231.453C538.04 236.955 567.477 242.073 595.806 242.073Z" fill="url(#paint28_linear_928_310)"/>
<path d="M1036.9 14.0325C1025.76 14.0771 1014.64 15.0707 1003.64 17.004C985.968 20.2072 968.577 25.0677 951.663 31.5317C881.921 57.7806 796.58 113.415 690.81 201.572C660.618 226.39 627.911 237.946 587.052 237.946C557.766 237.946 527.273 232.443 494.918 226.17C458.185 219.291 420.194 212.138 378.782 212.138C318.977 212.031 260.169 228.887 208.1 261.059C117.526 315.703 43.8083 427.192 33.1406 526.134C27.6056 577.862 39.9337 620.399 68.8672 649.18C96.7439 676.694 137.2 690.892 189.129 690.892C283.226 690.892 397.802 645.988 481.432 613.19C517.41 599.103 548.457 586.997 568.585 582.044C621.479 569.422 675.467 563.093 729.606 563.169C820.896 563.952 911.554 579.814 998.51 610.219C1106.34 647.143 1220.27 703.328 1337.26 777.233C1402.12 818.229 1463.06 839.03 1518.41 839.03C1567.06 839.501 1614.41 821.839 1652.66 788.954C1687.58 759.403 1716.91 717.746 1739.81 665.193C1792.75 543.689 1805.83 379.041 1773.22 246.366C1765.45 211.671 1752.17 178.739 1733.97 149.074C1718.74 124.047 1696.49 105.103 1670.57 95.0905C1659.3 91.0453 1647.51 89.0016 1635.65 89.0372C1610.26 89.7955 1585.39 97.0717 1563.04 110.279C1531.92 127.982 1499.73 143.317 1466.68 156.173C1425.32 171.746 1389.09 179.34 1355.98 179.34C1349.69 179.34 1343.4 179.01 1337.36 178.46C1270.23 172.462 1228.37 132.455 1187.91 93.7698C1144.89 52.773 1104.38 14.0325 1036.9 14.0325ZM587.052 239.652C628.263 239.652 661.474 227.986 691.716 202.948C797.385 114.901 882.525 59.3215 952.116 33.1276C968.962 26.6818 986.286 21.8397 1003.89 18.6549C1014.81 16.7645 1025.85 15.7895 1036.9 15.7384C1103.83 15.7384 1144.13 54.2588 1186.75 95.0354C1227.41 133.886 1269.48 174.112 1337.06 180.166C1343.2 180.716 1349.49 180.991 1355.83 180.991C1389.24 180.991 1425.62 173.397 1467.13 157.769C1500.23 144.863 1532.49 129.511 1563.69 111.819C1585.82 98.7211 1610.45 91.501 1635.6 90.7431C1647.3 90.7255 1658.94 92.7313 1670.07 96.6863C1695.75 106.588 1717.81 125.338 1732.92 150.12C1751 179.615 1764.2 212.362 1771.91 246.861C1804.42 379.426 1791.39 543.358 1738.6 664.533C1690.04 776.022 1611.9 837.434 1518.56 837.434C1463.56 837.434 1402.82 816.689 1338.21 775.857C1221.17 701.898 1107.15 645.658 999.215 608.678C912.107 578.25 821.298 562.37 729.857 561.573C675.635 561.499 621.565 567.827 568.585 580.448C548.206 585.346 517.109 597.562 481.08 611.65C397.551 644.667 283.125 689.241 189.23 689.241C137.703 689.241 97.549 675.318 69.9742 647.969C41.4433 619.519 29.2158 577.477 34.7509 526.299C45.2676 427.852 118.482 316.913 208.855 262.324C260.686 230.276 319.239 213.495 378.782 213.623C420.094 213.623 457.984 220.722 494.515 227.601C527.072 233.874 557.666 239.597 587.052 239.597V239.652Z" fill="url(#paint29_linear_928_310)"/>
<path d="M1034.94 6.98798C1023.83 7.03455 1012.75 8.00952 1001.78 9.90448C983.624 13.1039 965.759 18.0387 948.391 24.6523C876.888 51.3414 789.384 108.407 680.846 199.095C651.057 223.913 618.45 235.469 578.145 235.469C547.953 235.469 516.152 229.141 482.538 222.372C444.397 214.668 404.997 206.744 361.773 206.744C301.497 206.696 242.301 224.229 190.286 257.536C143.688 287.761 103.76 328.854 73.3445 377.885C42.1467 427.411 22.2708 481.23 17.4401 529.38C12.1566 582.153 24.8873 625.351 54.2233 654.297C82.5026 682.251 123.462 696.449 175.895 696.449C272.557 696.449 389.348 649.839 474.588 615.831C509.56 601.854 540.003 589.802 559.174 585.015C613.588 571.614 669.199 564.896 724.975 564.984C816.206 565.851 906.825 581.369 993.93 611.044C1104.18 647.693 1219.31 704.593 1336.1 779.598C1402.32 821.861 1464.66 843.322 1521.42 843.322C1570.7 843.73 1618.71 826.211 1657.89 793.521C1694.02 763.86 1724.81 721.983 1749.42 668.604C1806.78 544.568 1823.89 371.832 1792.04 238.661C1784.41 203.472 1770.95 170.107 1752.34 140.214C1734.17 112.699 1712.08 94.6495 1686.92 86.3401C1676.33 82.8802 1665.32 81.1374 1654.27 81.1673C1630.06 81.1673 1603.95 89.0916 1576.32 104.83C1544.27 123.482 1511.06 139.663 1476.94 153.256C1433.67 169.764 1395.83 178.129 1361.21 178.129C1355.27 178.129 1349.33 178.129 1343.55 177.413C1274.21 171.47 1231.23 129.868 1189.67 89.6418C1145.84 47.1592 1104.38 6.98798 1034.94 6.98798ZM578.145 237.12C618.802 237.12 651.711 225.454 681.802 200.416C789.987 109.838 877.542 52.8823 948.844 26.1931C966.137 19.6305 983.915 14.7146 1001.98 11.5003C1012.89 9.65454 1023.9 8.69812 1034.94 8.63885C1103.83 8.63885 1145.09 48.59 1188.77 91.1827C1230.53 131.629 1273.7 173.396 1343.55 179.229C1349.33 179.725 1355.32 180 1361.31 180C1396.03 180 1434.02 171.855 1477.45 155.016C1511.62 141.41 1544.88 125.191 1576.98 106.481C1604.3 90.9075 1630.31 83.0383 1654.27 83.0383C1665.17 82.9988 1676.02 84.7045 1686.47 88.101C1711.63 96.3553 1733.12 114.295 1751.13 141.424C1769.64 171.127 1783.01 204.289 1790.58 239.266C1822.38 372.107 1805.27 544.403 1748.11 668.109C1711.43 747.406 1642.44 841.891 1521.68 841.891C1465.17 841.891 1403.07 820.54 1337.11 778.387C1220.21 703.107 1104.98 646.317 994.635 609.723C907.382 580.003 816.61 564.466 725.227 563.608C669.37 563.514 613.677 570.214 559.174 583.584C539.751 588.427 509.459 600.478 474.437 614.455C389.297 648.408 272.658 694.963 176.247 694.963C124.167 694.963 83.5593 680.931 55.4813 653.251C26.4975 624.636 13.9682 581.713 19.2013 529.766C29.2651 428.787 101.825 315.151 191.644 259.132C243.381 225.918 302.284 208.403 362.276 208.395C405.148 208.395 444.497 216.319 482.538 223.968C515.95 230.737 547.651 237.12 578.145 237.12Z" fill="url(#paint30_linear_928_310)"/>
<path d="M1032.98 -0.000183105C1002.98 0.626221 973.28 6.64996 945.071 17.8293C871.907 44.9587 782.239 103.455 670.933 196.619C641.851 221.263 605.865 234.135 569.088 233.049C537.739 233.049 505.032 226.005 470.362 218.521C430.912 210.046 389.851 201.297 345.571 201.297C284.785 201.288 225.16 219.503 173.178 253.96C84.8681 310.64 11.2011 430.493 1.74114 532.793C-3.29076 586.501 9.84239 630.304 39.5306 659.36C68.2627 687.535 109.675 701.842 162.661 701.842C261.94 701.842 380.895 653.582 467.796 618.308C503.019 603.945 531.147 592.609 549.614 587.877C605.516 573.741 662.718 566.669 720.095 566.801C908.489 566.801 1115.3 639.219 1334.69 781.965C1402.07 825.988 1465.52 848 1524.19 848C1640.53 848 1711.33 761.494 1750.28 688.966C1797.78 600.424 1825 482.551 1825 365.614C1825 285.106 1811.51 212.303 1786.96 160.575C1759.89 103.4 1720.44 73.1887 1672.99 73.1887C1647.32 73.1887 1619.29 81.9934 1589.61 99.3276C1500.24 151.605 1427.38 176.974 1366.84 176.974C1285.18 176.974 1237.73 130.474 1191.84 85.5152C1146.85 41.6019 1104.43 -0.000183105 1032.98 -0.000183105ZM569.088 234.81C606.187 235.924 642.495 222.955 671.839 198.105C782.994 105.051 872.561 46.6646 945.574 19.5352C973.62 8.41394 1003.15 2.42712 1032.98 1.8158C1103.83 1.8158 1146.1 43.1978 1190.83 87.001C1236.92 132.18 1284.62 178.9 1366.95 178.9C1427.73 178.9 1500.84 153.421 1590.41 101.089C1619.85 83.8643 1647.67 75.1147 1673.09 75.1147C1719.98 75.1147 1758.93 104.996 1785.75 161.621C1810.16 213.128 1823.59 285.656 1823.59 365.889C1823.59 482.551 1796.47 600.093 1749.07 688.415C1710.37 760.614 1639.93 846.624 1524.29 846.624C1466.17 846.624 1402.67 824.613 1335.6 780.589C1115.9 637.513 908.841 565.205 720.196 565.205C662.701 565.049 605.38 572.12 549.363 586.281C530.795 591.014 502.818 602.405 467.343 616.767C380.593 651.986 261.79 700.247 162.762 700.247C110.179 700.247 69.0678 686.049 40.6376 658.149C11.352 629.369 -1.57988 586.006 3.35138 532.848C12.7107 431.044 86.126 311.685 174.033 255.28C225.791 220.981 285.152 202.844 345.671 202.838C390.053 202.838 430.811 211.587 470.161 220.062C504.78 227.601 537.588 234.81 569.088 234.81Z" fill="url(#paint31_linear_928_310)"/>
</g>
<defs>
<linearGradient id="paint0_linear_928_310" x1="481.228" y1="492.217" x2="1536.48" y2="454.473" gradientUnits="userSpaceOnUse">
<stop stop-color="#00BCE2"/>
<stop offset="0.08" stop-color="#279EE7"/>
<stop offset="0.25" stop-color="#7364F1"/>
<stop offset="0.39" stop-color="#AA3AF9"/>
<stop offset="0.5" stop-color="#CC20FD"/>
<stop offset="0.55" stop-color="#D916FF"/>
<stop offset="0.98" stop-color="#7300FF"/>
</linearGradient>
<linearGradient id="paint1_linear_928_310" x1="465.701" y1="493.211" x2="1539.01" y2="454.822" gradientUnits="userSpaceOnUse">
<stop stop-color="#06B7E3"/>
<stop offset="0.02" stop-color="#0EB0E4"/>
<stop offset="0.2" stop-color="#5F71EF"/>
<stop offset="0.35" stop-color="#9A43F6"/>
<stop offset="0.47" stop-color="#BE27FB"/>
<stop offset="0.52" stop-color="#CC1CFD"/>
<stop offset="0.55" stop-color="#D218FE"/>
<stop offset="0.94" stop-color="#7A07FD"/>
<stop offset="0.98" stop-color="#6F05FD"/>
</linearGradient>
<linearGradient id="paint2_linear_928_310" x1="450.17" y1="493.986" x2="1541.63" y2="454.948" gradientUnits="userSpaceOnUse">
<stop stop-color="#0DB1E4"/>
<stop offset="0.17" stop-color="#517BED"/>
<stop offset="0.34" stop-color="#8F49F5"/>
<stop offset="0.46" stop-color="#B62AFA"/>
<stop offset="0.52" stop-color="#C51EFC"/>
<stop offset="0.55" stop-color="#CB1BFD"/>
<stop offset="0.94" stop-color="#760CFB"/>
<stop offset="0.98" stop-color="#6C0AFB"/>
</linearGradient>
<linearGradient id="paint3_linear_928_310" x1="434.626" y1="494.43" x2="1544.39" y2="454.737" gradientUnits="userSpaceOnUse">
<stop stop-color="#13ACE5"/>
<stop offset="0.12" stop-color="#4286EB"/>
<stop offset="0.31" stop-color="#8550F4"/>
<stop offset="0.45" stop-color="#AF2EF9"/>
<stop offset="0.52" stop-color="#BF21FB"/>
<stop offset="0.55" stop-color="#C41DFC"/>
<stop offset="0.94" stop-color="#7211FA"/>
<stop offset="0.98" stop-color="#680FFA"/>
</linearGradient>
<linearGradient id="paint4_linear_928_310" x1="419.169" y1="494.541" x2="1547.29" y2="454.191" gradientUnits="userSpaceOnUse">
<stop stop-color="#19A7E6"/>
<stop offset="0.07" stop-color="#3094E9"/>
<stop offset="0.29" stop-color="#7957F2"/>
<stop offset="0.45" stop-color="#A632F8"/>
<stop offset="0.52" stop-color="#B823FA"/>
<stop offset="0.55" stop-color="#BD20FB"/>
<stop offset="0.94" stop-color="#6E16F8"/>
<stop offset="0.98" stop-color="#6415F8"/>
</linearGradient>
<linearGradient id="paint5_linear_928_310" x1="403.656" y1="494.488" x2="1550.54" y2="453.467" gradientUnits="userSpaceOnUse">
<stop stop-color="#20A1E7"/>
<stop offset="0.25" stop-color="#6C60F0"/>
<stop offset="0.43" stop-color="#9E35F7"/>
<stop offset="0.52" stop-color="#B125F9"/>
<stop offset="0.55" stop-color="#B622FA"/>
<stop offset="0.94" stop-color="#6A1BF6"/>
<stop offset="0.98" stop-color="#601AF6"/>
</linearGradient>
<linearGradient id="paint6_linear_928_310" x1="388.088" y1="494.273" x2="1553.93" y2="452.574" gradientUnits="userSpaceOnUse">
<stop stop-color="#269CE8"/>
<stop offset="0.2" stop-color="#5E6AEF"/>
<stop offset="0.42" stop-color="#953AF6"/>
<stop offset="0.52" stop-color="#AA27F9"/>
<stop offset="0.55" stop-color="#AF25F9"/>
<stop offset="0.94" stop-color="#6621F4"/>
<stop offset="0.98" stop-color="#5D1FF4"/>
</linearGradient>
<linearGradient id="paint7_linear_928_310" x1="372.516" y1="493.947" x2="1557.72" y2="451.556" gradientUnits="userSpaceOnUse">
<stop stop-color="#2C97E9"/>
<stop offset="0.14" stop-color="#4E77ED"/>
<stop offset="0.4" stop-color="#8B3FF5"/>
<stop offset="0.52" stop-color="#A329F8"/>
<stop offset="0.55" stop-color="#A827F8"/>
<stop offset="0.94" stop-color="#6226F2"/>
<stop offset="0.98" stop-color="#5924F2"/>
</linearGradient>
<linearGradient id="paint8_linear_928_310" x1="356.989" y1="493.456" x2="1561.71" y2="450.366" gradientUnits="userSpaceOnUse">
<stop stop-color="#3391E9"/>
<stop offset="0.04" stop-color="#3D88EA"/>
<stop offset="0.37" stop-color="#8246F3"/>
<stop offset="0.52" stop-color="#9D2CF7"/>
<stop offset="0.55" stop-color="#A12AF7"/>
<stop offset="0.94" stop-color="#5D2BF1"/>
<stop offset="0.98" stop-color="#5529F1"/>
</linearGradient>
<linearGradient id="paint9_linear_928_310" x1="341.41" y1="492.966" x2="1566.05" y2="449.164" gradientUnits="userSpaceOnUse">
<stop stop-color="#398CEA"/>
<stop offset="0.33" stop-color="#774DF2"/>
<stop offset="0.52" stop-color="#962EF6"/>
<stop offset="0.55" stop-color="#9A2CF6"/>
<stop offset="0.94" stop-color="#5930EF"/>
<stop offset="0.98" stop-color="#522EEF"/>
</linearGradient>
<linearGradient id="paint10_linear_928_310" x1="325.829" y1="492.365" x2="1570.99" y2="447.829" gradientUnits="userSpaceOnUse">
<stop stop-color="#3F86EB"/>
<stop offset="0.28" stop-color="#6C55F1"/>
<stop offset="0.52" stop-color="#8F30F5"/>
<stop offset="0.55" stop-color="#932FF5"/>
<stop offset="0.94" stop-color="#5535ED"/>
<stop offset="0.98" stop-color="#4E34ED"/>
</linearGradient>
<linearGradient id="paint11_linear_928_310" x1="310.296" y1="491.763" x2="1576.17" y2="446.486" gradientUnits="userSpaceOnUse">
<stop stop-color="#4681EC"/>
<stop offset="0.21" stop-color="#625FEF"/>
<stop offset="0.52" stop-color="#8832F4"/>
<stop offset="0.55" stop-color="#8C31F4"/>
<stop offset="0.94" stop-color="#513AEB"/>
<stop offset="0.98" stop-color="#4A39EB"/>
</linearGradient>
<linearGradient id="paint12_linear_928_310" x1="294.714" y1="491.109" x2="1582.07" y2="445.064" gradientUnits="userSpaceOnUse">
<stop stop-color="#4C7CED"/>
<stop offset="0.1" stop-color="#566EEE"/>
<stop offset="0.52" stop-color="#8134F3"/>
<stop offset="0.55" stop-color="#8534F3"/>
<stop offset="0.94" stop-color="#4D3FE9"/>
<stop offset="0.98" stop-color="#463EE9"/>
</linearGradient>
<linearGradient id="paint13_linear_928_310" x1="279.131" y1="490.453" x2="1588.36" y2="443.626" gradientUnits="userSpaceOnUse">
<stop stop-color="#5276EE"/>
<stop offset="0.52" stop-color="#7B37F2"/>
<stop offset="0.55" stop-color="#7E36F2"/>
<stop offset="0.94" stop-color="#4944E8"/>
<stop offset="0.98" stop-color="#4343E8"/>
</linearGradient>
<linearGradient id="paint14_linear_928_310" x1="263.543" y1="489.743" x2="1595.2" y2="442.114" gradientUnits="userSpaceOnUse">
<stop stop-color="#5971EF"/>
<stop offset="0.52" stop-color="#7439F1"/>
<stop offset="0.55" stop-color="#7739F1"/>
<stop offset="0.94" stop-color="#4549E6"/>
<stop offset="0.98" stop-color="#3F48E6"/>
</linearGradient>
<linearGradient id="paint15_linear_928_310" x1="247.957" y1="489.033" x2="1602.8" y2="440.574" gradientUnits="userSpaceOnUse">
<stop stop-color="#5F6CF0"/>
<stop offset="0.52" stop-color="#6D3BF0"/>
<stop offset="0.55" stop-color="#703BF0"/>
<stop offset="0.94" stop-color="#414EE4"/>
<stop offset="0.98" stop-color="#3B4DE4"/>
</linearGradient>
<linearGradient id="paint16_linear_928_310" x1="232.372" y1="488.322" x2="1610.91" y2="439.016" gradientUnits="userSpaceOnUse">
<stop stop-color="#6566F1"/>
<stop offset="0.52" stop-color="#663DF0"/>
<stop offset="0.55" stop-color="#693EEF"/>
<stop offset="0.94" stop-color="#3D54E2"/>
<stop offset="0.98" stop-color="#3853E2"/>
</linearGradient>
<linearGradient id="paint17_linear_928_310" x1="216.787" y1="487.614" x2="1619.76" y2="437.433" gradientUnits="userSpaceOnUse">
<stop stop-color="#6B61F2"/>
<stop offset="0.52" stop-color="#5F3FEF"/>
<stop offset="0.55" stop-color="#6240EE"/>
<stop offset="0.94" stop-color="#3959E0"/>
<stop offset="0.98" stop-color="#3458E0"/>
</linearGradient>
<linearGradient id="paint18_linear_928_310" x1="201.202" y1="486.957" x2="1629.48" y2="435.872" gradientUnits="userSpaceOnUse">
<stop stop-color="#725CF3"/>
<stop offset="0.52" stop-color="#5841EE"/>
<stop offset="0.55" stop-color="#5B43ED"/>
<stop offset="0.94" stop-color="#355EDE"/>
<stop offset="0.98" stop-color="#305DDE"/>
</linearGradient>
<linearGradient id="paint19_linear_928_310" x1="185.615" y1="486.248" x2="1640.34" y2="434.217" gradientUnits="userSpaceOnUse">
<stop stop-color="#7856F4"/>
<stop offset="0.52" stop-color="#5244ED"/>
<stop offset="0.55" stop-color="#5445EC"/>
<stop offset="0.94" stop-color="#3163DD"/>
<stop offset="0.98" stop-color="#2D62DD"/>
</linearGradient>
<linearGradient id="paint20_linear_928_310" x1="169.979" y1="485.54" x2="1652.27" y2="432.523" gradientUnits="userSpaceOnUse">
<stop stop-color="#7E51F5"/>
<stop offset="0.47" stop-color="#5147ED"/>
<stop offset="0.52" stop-color="#4B46EC"/>
<stop offset="0.55" stop-color="#4D48EB"/>
<stop offset="0.94" stop-color="#2D68DB"/>
<stop offset="0.98" stop-color="#2967DB"/>
</linearGradient>
<linearGradient id="paint21_linear_928_310" x1="154.396" y1="484.885" x2="1665.25" y2="430.846" gradientUnits="userSpaceOnUse">
<stop stop-color="#854CF6"/>
<stop offset="0.31" stop-color="#604AF0"/>
<stop offset="0.52" stop-color="#4448EB"/>
<stop offset="0.55" stop-color="#464AEA"/>
<stop offset="0.94" stop-color="#296DD9"/>
<stop offset="0.98" stop-color="#256CD9"/>
</linearGradient>
<linearGradient id="paint22_linear_928_310" x1="138.761" y1="484.232" x2="1679.04" y2="429.141" gradientUnits="userSpaceOnUse">
<stop stop-color="#8B46F7"/>
<stop offset="0.23" stop-color="#6C48F2"/>
<stop offset="0.52" stop-color="#3D4AEA"/>
<stop offset="0.55" stop-color="#3F4DE9"/>
<stop offset="0.94" stop-color="#2572D7"/>
<stop offset="0.98" stop-color="#2172D7"/>
</linearGradient>
<linearGradient id="paint23_linear_928_310" x1="123.128" y1="483.579" x2="1693.83" y2="427.399" gradientUnits="userSpaceOnUse">
<stop stop-color="#9141F8"/>
<stop offset="0.18" stop-color="#7644F4"/>
<stop offset="0.52" stop-color="#364CE9"/>
<stop offset="0.55" stop-color="#384FE8"/>
<stop offset="0.94" stop-color="#2177D5"/>
<stop offset="0.98" stop-color="#1E77D5"/>
</linearGradient>
<linearGradient id="paint24_linear_928_310" x1="107.545" y1="482.979" x2="1709.23" y2="425.691" gradientUnits="userSpaceOnUse">
<stop stop-color="#983BF8"/>
<stop offset="0.14" stop-color="#8040F4"/>
<stop offset="0.44" stop-color="#434BEB"/>
<stop offset="0.52" stop-color="#304FE8"/>
<stop offset="0.55" stop-color="#3152E7"/>
<stop offset="0.94" stop-color="#1C7CD4"/>
<stop offset="0.98" stop-color="#1A7CD4"/>
</linearGradient>
<linearGradient id="paint25_linear_928_310" x1="91.9126" y1="482.326" x2="1724.78" y2="423.923" gradientUnits="userSpaceOnUse">
<stop stop-color="#9E36F9"/>
<stop offset="0.12" stop-color="#893BF6"/>
<stop offset="0.36" stop-color="#5248ED"/>
<stop offset="0.52" stop-color="#2951E7"/>
<stop offset="0.55" stop-color="#2A54E6"/>
<stop offset="0.94" stop-color="#1881D2"/>
<stop offset="0.98" stop-color="#1681D2"/>
</linearGradient>
<linearGradient id="paint26_linear_928_310" x1="76.2798" y1="481.728" x2="1741.23" y2="422.178" gradientUnits="userSpaceOnUse">
<stop stop-color="#A431FA"/>
<stop offset="0.1" stop-color="#9136F7"/>
<stop offset="0.3" stop-color="#5F43F0"/>
<stop offset="0.52" stop-color="#2253E7"/>
<stop offset="0.55" stop-color="#2357E5"/>
<stop offset="0.94" stop-color="#1487D0"/>
<stop offset="0.98" stop-color="#1386D0"/>
</linearGradient>
<linearGradient id="paint27_linear_928_310" x1="60.596" y1="481.132" x2="1757.89" y2="420.425" gradientUnits="userSpaceOnUse">
<stop stop-color="#AB2BFB"/>
<stop offset="0.09" stop-color="#9930F8"/>
<stop offset="0.26" stop-color="#6C3DF2"/>
<stop offset="0.5" stop-color="#2353E7"/>
<stop offset="0.52" stop-color="#1B55E6"/>
<stop offset="0.55" stop-color="#1C59E4"/>
<stop offset="0.94" stop-color="#108CCE"/>
<stop offset="0.98" stop-color="#0F8BCE"/>
</linearGradient>
<linearGradient id="paint28_linear_928_310" x1="44.9665" y1="480.589" x2="1775.05" y2="418.709" gradientUnits="userSpaceOnUse">
<stop stop-color="#B126FC"/>
<stop offset="0.08" stop-color="#A12BFA"/>
<stop offset="0.23" stop-color="#7738F3"/>
<stop offset="0.43" stop-color="#344DEA"/>
<stop offset="0.52" stop-color="#1457E5"/>
<stop offset="0.55" stop-color="#155CE3"/>
<stop offset="0.94" stop-color="#0C91CC"/>
<stop offset="0.98" stop-color="#0B91CC"/>
</linearGradient>
<linearGradient id="paint29_linear_928_310" x1="29.2849" y1="479.994" x2="1792.26" y2="416.937" gradientUnits="userSpaceOnUse">
<stop stop-color="#B721FD"/>
<stop offset="0.07" stop-color="#A826FB"/>
<stop offset="0.2" stop-color="#8133F5"/>
<stop offset="0.38" stop-color="#4348EC"/>
<stop offset="0.52" stop-color="#0E5AE4"/>
<stop offset="0.55" stop-color="#0E5EE2"/>
<stop offset="0.94" stop-color="#0896CB"/>
<stop offset="0.98" stop-color="#0796CB"/>
</linearGradient>
<linearGradient id="paint30_linear_928_310" x1="13.6015" y1="479.397" x2="1809.67" y2="415.157" gradientUnits="userSpaceOnUse">
<stop stop-color="#BE1BFE"/>
<stop offset="0.06" stop-color="#B020FC"/>
<stop offset="0.18" stop-color="#8C2DF7"/>
<stop offset="0.34" stop-color="#5142EE"/>
<stop offset="0.52" stop-color="#075CE3"/>
<stop offset="0.55" stop-color="#0761E1"/>
<stop offset="0.94" stop-color="#049BC9"/>
<stop offset="0.98" stop-color="#049BC9"/>
</linearGradient>
<linearGradient id="paint31_linear_928_310" x1="-2.07655" y1="478.912" x2="1827.29" y2="413.481" gradientUnits="userSpaceOnUse">
<stop stop-color="#C416FF"/>
<stop offset="0.06" stop-color="#B71BFD"/>
<stop offset="0.17" stop-color="#9527F8"/>
<stop offset="0.31" stop-color="#5E3CF0"/>
<stop offset="0.48" stop-color="#1257E5"/>
<stop offset="0.52" stop-color="#005EE2"/>
<stop offset="0.94" stop-color="#00A0C7"/>
</linearGradient>
</defs>
</svg>
