<svg width="1772" height="824" viewBox="0 0 1772 824" fill="none" xmlns="http://www.w3.org/2000/svg">
<g opacity="0.2">
<path d="M682.751 632.544C699.907 632.544 719.897 622.495 744.58 607.315C753.622 601.969 763.299 595.555 773.563 588.927C788.226 579.573 804.6 568.99 822.439 558.353C876.594 526.282 961.981 481.757 1078.16 470.426C1211.98 457.33 1287.84 431.192 1303.53 392.6C1309.98 376.565 1306.31 358.391 1292.53 338.294C1278.75 318.196 1254.21 308.842 1215.4 308.842C1181.87 308.842 1141.75 315.523 1095.27 323.22C1051.28 330.543 1001.33 338.828 950.788 341.928C941.551 342.516 932.313 342.784 923.271 342.784C833.045 342.784 748.929 314.615 666.133 256.673C579.964 196.38 502.056 156.345 434.656 137.691C410.028 130.453 384.687 126.522 359.191 125.985C310.314 125.985 278.741 145.976 274.146 179.436C269.552 212.897 294.723 258.063 350.295 276.718C373.511 284.522 399.172 285.965 424.147 287.408C480.453 290.615 538.664 293.876 577.52 368.494C587.428 388.084 595.204 408.876 600.688 430.444C605.481 448.654 609.348 467.141 612.272 485.819C616.1 512.058 621.405 538.014 628.156 563.538C630.73 572.949 633.831 582.178 637.443 591.172C641.708 602.61 648.061 612.977 656.113 621.639C663.379 628.886 672.92 632.792 682.751 632.544ZM1215.5 310.446C1253.82 310.446 1277.92 319.586 1291.46 339.256C1304.99 358.926 1308.51 376.672 1302.26 391.959C1286.81 429.963 1211.4 455.78 1078.16 468.822C961.345 480.207 875.812 524.572 821.56 556.963C803.72 567.654 787.346 578.344 772.683 587.591C762.419 594.165 752.742 600.419 743.748 605.925C722.536 618.913 700.444 630.993 682.604 630.993C673.161 631.142 664.026 627.315 657.091 620.303C649.158 611.775 642.918 601.548 638.762 590.263C635.15 581.325 632.048 572.149 629.476 562.789C622.703 537.424 617.349 511.63 613.445 485.552C610.563 466.781 606.712 448.204 601.91 429.909C596.368 408.219 588.544 387.304 578.596 367.585C539.495 292.219 480.844 288.905 424.049 285.698C399.22 284.308 373.609 282.865 350.735 275.007C295.945 256.567 271.116 211.988 275.564 179.436C280.011 146.884 311.341 127.321 359.191 127.321C384.573 127.836 409.801 131.75 434.313 138.974C501.567 157.575 579.28 197.77 665.351 257.796C748.441 315.898 832.752 344.12 923.271 344.12C932.313 344.12 941.599 343.853 950.886 343.265C1001.47 340.164 1051.42 331.88 1095.46 324.557C1141.7 317.127 1181.83 310.446 1215.21 310.446L1215.5 310.446Z" fill="url(#paint0_linear_928_37)"/>
<path d="M684.756 635.643C700.738 635.643 719.702 629.015 746.291 614.263C751.179 611.697 755.186 609.238 759.292 606.78C770.436 600.045 782.557 592.241 795.412 583.956C806.946 576.526 818.872 568.883 831.873 560.812C906.507 514.469 992.529 485.98 1094.97 473.9C1227.48 457.864 1302.65 429.749 1318.29 389.5C1324.89 372.609 1320.93 353.741 1306.56 333.376C1292.19 313.011 1267.46 303.497 1228.36 303.497C1193.22 303.497 1149.42 311.194 1102.99 319.532C1059 327.229 1009.39 335.995 960.076 339.309C949.567 340.057 939.01 340.378 928.746 340.378C838.276 340.378 753.916 312.797 670.826 256.085C583.484 196.22 504.647 155.65 436.221 135.606C410.389 127.516 383.71 123.114 356.846 122.51C309.142 122.51 277.471 142.341 272.094 175.587C266.033 213.431 295.75 255.764 341.254 273.671C362.906 282.276 386.122 284.949 410.609 287.835C465.057 294.196 521.363 300.771 559.535 376.244C569.392 396.343 577.336 417.496 583.24 439.37C588.617 458.292 593.015 476.358 596.534 494.585C600.663 519.93 606.93 544.802 615.254 568.883C618.757 577.591 622.841 586.006 627.473 594.058C633.315 604.883 640.899 614.462 649.858 622.334C659.785 630.949 672.083 635.64 684.756 635.643ZM1228.16 305.047C1266.77 305.047 1291.36 314.347 1305.43 334.285C1319.51 354.222 1323.32 372.502 1316.97 388.858C1301.52 428.519 1226.79 456.581 1094.83 472.243C992.187 484.483 905.97 512.919 831.14 559.368C818.139 567.44 806.213 575.404 794.679 582.513C781.824 590.798 769.703 598.548 758.608 605.283C754.502 607.742 750.25 610.201 745.607 612.82C719.262 627.519 700.494 634.2 684.756 634.2C672.345 634.276 660.28 629.733 650.542 621.318C641.711 613.464 634.258 603.919 628.548 593.15C623.915 585.181 619.847 576.836 616.378 568.188C608.051 544.155 601.752 519.339 597.561 494.051C593.993 475.77 589.643 457.597 584.266 438.675C578.373 416.694 570.43 395.433 560.562 375.228C521.998 299.007 465.351 292.379 410.56 285.965C386.122 283.132 363.004 280.619 341.498 271.907C296.679 254.054 267.353 212.683 273.316 175.694C278.546 143.249 309.68 123.9 356.406 123.9C383.139 124.534 409.686 128.935 435.39 136.995C503.816 156.986 582.605 197.502 669.995 257.261C753.085 314.187 837.885 341.821 928.648 341.821C938.961 341.821 949.518 341.447 960.076 340.752C1009.44 337.385 1059.25 328.672 1103.14 320.975C1149.37 312.744 1193.17 305.047 1228.16 305.047Z" fill="url(#paint1_linear_928_37)"/>
<path d="M688.372 639.225C704.99 639.225 723.954 633.505 748.099 621.105C753.279 618.486 757.874 615.76 762.468 613.354C777.962 604.428 794.873 593.417 814.473 580.642C823.026 575.297 832.019 569.203 841.55 563.11C907.093 521.151 993.066 493.623 1111.93 477.267C1243.12 459.04 1317.6 428.466 1333.29 386.4C1339.99 368.547 1335.79 348.984 1320.83 328.298C1305.87 307.612 1280.56 298.045 1241.11 298.045C1204.36 298.045 1158.76 306.49 1110.52 315.363C1063.75 324.871 1016.57 331.81 969.166 336.155C957.338 337.064 945.51 337.492 933.975 337.492C843.261 337.492 758.705 310.499 675.371 254.909C586.758 195.471 506.601 154.474 437.148 132.933C410.179 124.009 382.228 119.118 354.059 118.394C306.551 118.394 275.857 137.637 269.454 171.098C262.514 208.513 288.662 249.938 331.673 269.983C351.859 279.39 373.707 283.399 396.825 287.622C449.27 297.189 503.522 307.131 541.01 383.406C550.853 403.966 559.03 425.428 565.448 447.548C570.336 464.385 575.81 482.719 580.453 502.71C586.807 531.467 593.063 556.642 602.35 574.228C606.832 582.231 611.916 589.812 617.55 596.891C624.961 607.176 633.743 616.185 643.601 623.617C656.742 633.642 672.35 639.083 688.372 639.225ZM1241.11 299.648C1280.21 299.648 1305.04 309.056 1319.66 329.26C1334.27 349.465 1338.43 368.494 1331.97 385.812C1316.48 427.29 1242.38 457.544 1111.79 475.717C992.626 492.287 906.506 519.654 840.768 561.774C831.286 567.814 822.293 573.693 813.739 579.252C794.189 592.027 777.229 603.038 761.784 611.965C757.287 614.53 752.644 617.31 747.463 619.662C723.514 631.955 704.746 637.621 688.372 637.621C672.616 637.419 657.283 632.016 644.383 622.12C634.633 614.761 625.964 605.821 618.675 595.608C613.097 588.594 608.062 581.085 603.621 573.159C594.432 556.001 588.225 530.932 581.626 502.389C576.983 482.345 571.851 463.958 566.572 447.067C560.158 424.843 551.981 403.273 542.134 382.605C504.304 305.635 449.661 295.639 396.874 285.965C373.854 281.795 352.055 277.786 332.065 268.486C289.689 248.709 263.882 207.872 270.725 171.365C276.786 138.706 307.138 119.944 353.814 119.944C381.87 120.646 409.708 125.519 436.562 134.43C505.917 155.81 585.927 196.861 674.393 256.246C758.167 311.995 843.016 339.042 933.975 339.042C945.558 339.042 957.435 338.614 969.263 337.706C1017.46 334.124 1064.91 325.358 1110.76 316.913C1158.95 308.04 1204.46 299.648 1241.11 299.648Z" fill="url(#paint2_linear_928_37)"/>
<path d="M693.064 643.395C709.633 643.395 727.717 638.531 749.907 628.001C755.626 625.328 760.758 622.655 765.645 620.036C785.196 609.346 807.337 594.54 833.046 577.275L851.179 565.302C918.97 520.67 1007.58 499.771 1128.94 480.528C1258.76 459.896 1332.56 427.077 1348.3 383.193C1355.04 364.325 1350.6 344.067 1335.05 323.061C1319.51 302.054 1293.85 292.486 1254.02 292.486C1215.6 292.486 1168.29 301.627 1118.19 311.301C1071.99 321.108 1025.37 328.368 978.501 333.056C965.305 334.125 952.108 334.659 939.4 334.659C848.539 334.659 763.739 308.255 680.356 253.788C590.473 194.991 509.29 153.246 438.81 130.368C410.718 120.545 381.49 115.146 352.006 114.333C305.329 114.333 274.488 133.415 267.304 166.608C259.581 202.741 282.846 244.701 322.68 266.349C341.498 276.611 362.075 281.85 383.825 287.462C434.216 300.344 486.465 313.653 523.073 390.677C532.8 411.741 541.067 433.575 547.804 455.994L550.443 464.226C555.331 479.192 560.219 494.693 564.52 511.049C572.78 541.623 579.183 564.5 589.789 579.146C594.467 585.515 599.67 591.402 605.331 596.732C606.162 597.64 607.042 598.495 607.922 599.351C616.91 608.887 626.882 617.246 637.639 624.259C658.949 637.943 675.078 643.395 693.064 643.395ZM1254.02 294.25C1293.36 294.25 1318.78 303.818 1333.93 324.29C1349.08 344.762 1353.48 364.485 1346.93 383.086C1331.63 425.848 1256.17 459.094 1128.75 479.299C1007.34 498.595 918.579 519.548 850.152 564.34L832.068 576.26C806.359 593.311 784.169 608.01 764.717 619.021C759.829 621.693 754.941 624.366 749.125 626.985C727.082 637.408 709.193 642.219 692.82 642.219C675.127 642.219 659.193 636.874 637.834 623.511C627.221 616.543 617.38 608.256 608.508 598.816L605.918 596.197C600.32 590.94 595.182 585.124 590.571 578.825C580.356 564.287 573.757 541.409 565.546 511.263C561.098 494.853 556.211 479.192 551.421 464.333L548.782 456.101C542.005 433.621 533.723 411.718 524.002 390.57C486.904 312.905 434.509 299.702 383.776 286.553C362.075 281.208 341.595 275.863 322.925 265.6C283.824 244.22 260.754 203.062 268.379 167.624C275.319 135.179 305.671 116.578 351.468 116.578C380.807 117.411 409.887 122.81 437.833 132.613C508.117 155.49 589.349 196.755 679.086 255.926C762.859 310.499 847.904 337.011 939.058 337.011C951.912 337.011 965.158 336.477 978.159 335.408C1025.07 330.724 1071.74 323.463 1117.99 313.653C1168.48 303.444 1215.5 294.25 1254.02 294.25Z" fill="url(#paint3_linear_928_37)"/>
<path d="M698.05 648.152C716.584 647.548 734.837 643.048 751.814 634.896C757.924 632.224 763.545 629.551 768.872 626.665C792.284 614.157 818.824 596.251 852.402 573.641L860.857 567.922C927.769 522.862 1011.2 508.056 1126.69 487.745L1146 484.324C1272.59 461.767 1347.76 425.955 1363.3 380.681C1370.1 360.958 1365.26 339.47 1349.37 318.411C1333.49 297.351 1307.19 287.462 1266.97 287.462C1226.74 287.462 1177.82 297.351 1125.86 307.881C1080.24 318.019 1034.17 325.583 987.837 330.544C973.175 331.827 958.512 332.468 944.24 332.468C853.086 332.468 768.286 306.598 684.854 253.307C592.527 194.51 510.122 152.284 439.886 128.337C410.719 117.653 380.263 111.763 349.514 110.859C303.669 110.859 272.73 129.727 264.617 162.653C256.014 197.717 276.445 240.051 313.15 263.356C330.697 274.473 350.101 280.995 370.678 287.943C418.87 303.979 468.675 320.923 504.647 398.481C514.263 420.062 522.701 442.248 529.916 464.921C532.067 471.495 534.364 478.07 536.661 484.751C540.571 496.136 544.628 507.896 548.343 519.922C556.505 546.327 564.227 571.236 576.691 584.919C581.712 590.1 587.143 594.787 592.918 598.923L597.805 602.558C608.375 611.207 619.554 618.928 631.237 625.649C655.137 638.745 674.003 648.152 698.05 648.152ZM1266.92 288.905C1306.66 288.905 1332.46 298.527 1348.2 319.266C1363.94 340.005 1368.58 360.53 1361.89 379.933C1351.18 411.149 1305 454.231 1145.71 482.613L1126.16 486.034C1010.52 506.506 926.986 521.312 859.782 566.585L851.326 572.251C817.797 594.861 791.306 612.767 767.943 625.275C762.616 628.108 757.093 630.62 750.983 633.453C734.186 641.496 716.135 645.942 697.806 646.549C674.101 646.549 655.382 637.248 631.481 624.099C619.891 617.389 608.795 609.705 598.294 601.115L593.406 597.427C587.676 593.374 582.308 588.739 577.375 583.583C565.156 570.22 557.532 545.472 549.369 519.441C545.655 507.415 541.598 495.602 537.688 484.217C535.391 477.589 533.093 470.961 530.943 464.44C523.796 441.725 515.441 419.487 505.918 397.839C469.652 319.747 417.257 302.054 371.069 286.5C351.21 280.741 332.011 272.546 313.835 262.073C277.666 239.142 257.529 197.557 265.985 163.188C273.903 131.117 304.304 112.569 349.466 112.569C380.081 113.487 410.404 119.359 439.446 129.994C509.535 153.834 591.842 195.847 683.827 254.803C767.406 308.255 852.499 334.179 943.947 334.179C958.267 334.179 972.93 333.537 987.642 332.254C1034.04 327.25 1080.17 319.668 1125.86 309.538C1177.97 298.794 1226.99 288.905 1266.92 288.905Z" fill="url(#paint4_linear_928_37)"/>
<path d="M702.938 653.283C720.314 652.838 737.471 648.944 753.574 641.791C760.172 639.119 766.184 636.446 772 633.346C799.517 619.074 832.362 596.464 870.437 570.327C929.088 530.078 1001.03 516.875 1092.24 500.84C1114.77 496.778 1138.03 492.608 1162.91 487.744C1321.17 456.582 1367.36 410.774 1378.26 377.795C1385.1 357.002 1380.02 334.713 1363.6 313.653C1347.17 292.593 1319.85 282.277 1279.82 282.277C1238.03 282.277 1187.25 292.967 1133.2 304.353C1088.08 313.867 1041.41 323.702 996.83 327.871C980.75 329.421 964.67 330.17 949.078 330.17C857.778 330.17 772.782 304.834 689.253 252.612C595.117 193.815 511.588 151.054 440.962 126.199C410.747 114.607 379.077 108.189 347.07 107.17C302.007 107.17 270.921 125.878 261.83 158.484C252.055 193.067 269.357 234.866 303.619 260.041C320.677 271.578 338.837 281.041 357.774 288.264C401.47 306.972 451.03 328.138 486.221 405.857C495.263 425.954 503.23 448.618 511.93 473.473C515.204 482.773 518.772 492.288 522.243 501.481C525.713 510.675 528.939 519.281 532.018 528.207C542.624 558.407 550.591 579.093 563.445 589.997C568.832 594.357 574.594 598.134 580.65 601.275C582.996 602.611 585.195 603.841 587.395 605.177C600.444 613.141 612.761 620.678 624.492 626.557L635.293 631.903C658.314 643.395 677.864 653.283 702.938 653.283ZM1279.68 283.507C1319.27 283.507 1346.3 293.555 1362.33 314.295C1378.36 335.034 1383.39 357.056 1376.74 377.153C1365.99 409.705 1320.1 455.032 1162.52 486.034C1137.64 490.951 1114.38 495.121 1091.89 499.183C1000.45 515.432 928.501 528.581 869.655 568.883C831.629 595.021 798.784 617.578 771.365 631.796C765.597 634.789 759.634 637.515 753.085 640.241C737.133 647.307 720.144 651.164 702.938 651.626C678.5 651.626 658.949 641.791 636.222 630.246L625.42 624.901C613.788 619.181 601.471 611.645 588.421 603.52C586.222 602.184 584.022 600.901 581.627 599.565C575.664 596.476 569.985 592.771 564.667 588.5C552.106 577.81 544.286 557.338 533.729 527.352C530.552 518.265 527.13 509.232 523.953 500.626C520.776 492.02 516.915 481.918 513.689 472.617C504.989 447.495 497.023 425.046 487.883 404.895C452.447 326.428 402.643 305.154 358.703 286.339C339.893 279.174 321.863 269.764 304.939 258.277C271.166 233.423 254.206 192.318 263.688 158.43C272.632 126.359 303.179 108.239 347.559 108.239C379.414 109.251 410.936 115.634 441.01 127.161C511.245 152.39 594.775 194.724 688.764 253.52C772.538 305.849 857.729 331.292 949.323 331.292C964.963 331.292 981.092 330.49 997.221 328.994C1041.85 324.824 1088.52 314.989 1133.73 305.422C1187.45 294.197 1238.18 283.507 1279.82 283.507L1279.68 283.507Z" fill="url(#paint5_linear_928_37)"/>
<path d="M707.484 658.842C723.881 658.491 740.1 655.056 755.431 648.686C762.421 646.013 768.872 643.341 774.982 639.973C803.965 625.381 838.179 601.863 879.87 572.732C934.172 534.781 998.395 523.717 1079.73 509.766C1111.15 504.421 1143.66 499.076 1179.73 491.058C1336.13 457.437 1382.12 409.331 1393.02 374.908C1399.96 352.94 1394.68 329.902 1377.63 308.254C1360.57 286.606 1332.95 276.504 1292.53 276.504C1249.03 276.504 1196.49 288.05 1141.02 300.29C1096.15 310.125 1049.76 320.281 1006.36 324.61C988.864 326.374 971.318 327.283 954.358 327.283C862.959 327.283 777.866 302.428 694.19 251.382C596.437 191.837 514.374 149.824 442.575 123.419C405.722 109.789 372.975 102.894 345.214 102.894C300.932 102.894 269.7 121.388 259.485 153.619C248.879 187.24 263.346 229.467 294.627 256.353C310.573 269.008 327.712 279.76 345.751 288.424C387.1 310.285 433.973 335.14 468.284 413.126C476.348 431.46 483.68 451.878 491.5 473.526L494.53 481.864C498.734 493.517 503.572 505.222 508.264 516.501C510.953 523.129 513.787 529.917 516.427 536.652C527.668 565.141 536.76 585.987 550.934 595.448C556.778 599.014 562.894 602.019 569.213 604.428C572.244 605.658 575.03 606.78 577.767 608.116C583.681 610.896 589.301 613.461 594.678 616.241C603.035 620.357 610.904 624.205 618.529 627.573C626.154 630.94 633.876 634.789 641.061 638.263C663.202 649.327 682.362 658.842 707.484 658.842ZM1292.73 278.108C1332.71 278.108 1360.18 288.317 1376.75 309.323C1393.31 330.33 1398.59 352.993 1391.85 374.374C1381.05 408.422 1335.49 455.994 1179.63 489.508C1143.61 497.205 1111.2 502.817 1079.68 508.216C998.199 522.167 933.83 533.231 879.284 571.395C837.641 600.526 803.477 623.938 774.542 638.53C768.286 641.684 761.883 644.517 754.992 647.189C739.817 653.493 723.763 656.893 707.533 657.238C682.753 657.238 663.544 647.777 641.696 636.82C634.561 633.292 627.034 629.604 619.116 626.129C611.198 622.655 603.671 618.914 595.362 614.851C589.937 612.232 584.316 609.506 578.402 606.673C575.616 605.39 572.781 604.214 569.8 602.985C563.554 600.631 557.518 597.662 551.764 594.112C537.932 585.025 528.939 564.393 517.551 536.171C514.912 529.436 512.077 522.594 509.389 516.02C504.501 504.741 499.907 493.036 495.703 481.437L492.673 473.098C484.853 451.718 477.472 431.032 469.408 412.591C434.852 334.125 387.736 309.163 346.191 287.141C328.231 278.472 311.173 267.72 295.311 255.07C264.519 228.344 250.247 187.08 260.707 154.1C270.482 122.564 301.421 104.444 345.018 104.444C372.584 104.444 405.185 111.339 441.891 124.916C513.641 151.642 595.899 193.227 693.31 252.718C777.181 303.925 862.519 328.833 954.162 328.833C971.171 328.833 988.718 327.924 1006.31 326.16C1049.76 321.831 1096.2 311.622 1141.11 301.787C1196.88 289.653 1249.37 278.108 1292.73 278.108Z" fill="url(#paint6_linear_928_37)"/>
<path d="M711.588 664.615C727.153 664.34 742.572 661.288 757.239 655.582C764.418 653.023 771.466 650.043 778.353 646.656C807.386 632.384 841.159 609.614 889.742 575.138C941.551 538.256 1001.33 528.795 1076.94 516.769C1112.57 511.103 1152.99 504.689 1196.88 494.48C1317.7 466.418 1392.73 422.962 1408.22 372.129C1415.26 349.038 1409.69 325.253 1392.09 303.231C1374.5 281.209 1346.44 271.16 1305.63 271.16C1260.37 271.16 1206.07 283.561 1148.59 296.656C1104.02 306.812 1057.92 317.342 1015.7 321.778C996.683 323.809 977.719 324.825 959.342 324.825C867.943 324.825 782.752 300.558 698.929 250.528C599.124 190.983 515.692 148.649 443.893 121.122C405.721 106.476 371.85 99.0463 343.257 99.0463C299.269 99.0463 268.379 116.792 256.893 149.077C245.114 182.324 256.551 223.909 285.388 252.986C300.334 266.951 316.585 279.152 333.873 289.387C372.974 314.455 416.963 342.838 450.101 420.663C456.699 436.111 462.808 452.734 469.309 470.159C471.753 476.841 474.197 483.629 476.885 490.524C482.066 504.261 488.126 517.784 494.04 530.827C496.191 535.637 498.39 540.448 500.492 545.258C511.685 570.915 522.535 592.884 538.078 600.955C544.393 603.901 550.936 606.227 557.628 607.903C561.245 608.972 564.618 609.935 567.941 611.111C579.818 615.387 590.473 619.77 600.786 624.046L612.369 628.749C623.855 633.026 634.168 638.371 644.139 643.716C666.426 654.834 685.684 664.615 711.588 664.615ZM1305.63 272.71C1346 272.71 1374.06 283.079 1391.02 304.3C1407.98 325.52 1413.69 349.092 1406.8 371.648C1391.51 421.893 1316.87 464.975 1196.64 492.93C1152.65 503.139 1112.37 509.553 1076.79 515.165C1000.98 527.245 941.111 536.546 888.96 573.962C840.475 608.385 806.75 631.101 777.767 645.373C770.933 648.71 763.951 651.672 756.847 654.246C742.323 659.903 727.053 662.936 711.637 663.226C686.075 663.226 666.915 653.497 644.774 642.219C634.999 636.874 624.442 631.85 612.809 627.199L601.275 622.442C590.962 618.166 580.258 613.783 568.332 609.507C565.009 608.278 561.587 607.315 557.97 606.3C551.394 604.626 544.966 602.318 538.762 599.405C523.659 591.815 513.102 570.113 501.86 544.67C499.759 539.86 497.559 535.049 495.409 530.239C489.495 517.196 483.434 503.513 478.253 490.043C475.663 483.148 473.366 476.36 470.677 469.678C464.226 452.146 458.067 435.576 451.469 420.129C417.94 341.876 373.707 313.226 334.655 288.104C317.46 277.923 301.291 265.794 286.414 251.917C258.457 223.909 246.873 181.896 258.31 149.772C269.747 117.647 299.757 100.757 343.306 100.757C371.752 100.757 405.477 108.133 443.453 122.725C515.204 150.253 598.538 192.533 698.245 252.024C782.312 302.162 867.699 326.535 959.391 326.535C977.817 326.535 996.83 325.52 1015.84 323.489C1058.17 318.999 1104.31 308.522 1148.93 298.313C1206.26 285.111 1260.52 272.71 1305.63 272.71Z" fill="url(#paint7_linear_928_37)"/>
<path d="M715.4 670.441C730.265 670.204 745.005 667.445 759.096 662.263C766.721 659.667 774.21 656.615 781.53 653.123C813.055 637.942 851.423 611.858 899.371 577.275C949.762 540.982 1006.9 532.804 1078.8 522.434C1118.63 516.715 1163.84 510.194 1213.89 497.686C1333.34 467.914 1407.68 422.266 1423.18 369.403C1430.31 345.136 1424.5 320.495 1406.36 298.206C1388.23 275.916 1359.78 265.707 1318.39 265.707C1271.37 265.707 1212.72 279.551 1155.97 292.967C1111.98 303.658 1065.99 314.348 1024.88 318.838C1004.41 321.083 983.975 322.259 964.18 322.259C873.091 322.355 783.447 297.355 703.524 249.565C601.128 189.86 516.572 147.045 445.164 118.609C405.721 102.948 370.726 94.9833 341.253 94.9833C297.754 94.9833 266.864 112.515 254.205 144.319C241.546 176.123 250.051 219.151 276.004 249.458C290.111 264.896 305.619 278.722 322.289 290.722C358.556 318.891 399.611 350.802 431.821 428.039C437.246 441.134 442.378 454.765 447.803 469.196C451.42 478.925 455.135 488.92 459.094 498.969C465.301 515.004 472.73 529.864 479.964 544.456C481.479 547.503 482.994 550.549 484.46 553.596C496.191 577.596 508.165 599.618 525.126 605.925C531.853 608.332 538.752 610.12 545.751 611.27C549.954 612.018 553.914 612.767 557.775 613.782C575.761 618.593 591.646 624.473 605.673 629.818C619.316 635.081 632.624 641.331 645.508 648.526C667.649 659.751 688.274 670.441 715.4 670.441ZM1318.48 267.364C1359.34 267.364 1387.69 277.787 1405.29 299.435C1422.88 321.083 1428.75 345.35 1421.81 368.922C1406.46 421.358 1332.51 466.631 1213.55 496.296C1163.55 508.857 1118.43 515.432 1078.65 521.044C1006.36 531.414 949.322 539.645 898.589 576.206C850.739 610.682 812.42 636.766 780.992 651.84C773.722 655.332 766.282 658.384 758.705 660.98C744.755 666.102 730.163 668.825 715.449 669.051C688.665 669.051 668.186 658.361 646.485 646.762C633.552 639.549 620.196 633.281 606.504 628C592.477 622.655 576.592 616.989 558.508 611.965C554.598 610.949 550.59 610.201 546.386 609.399C539.479 608.335 532.662 606.654 526.005 604.375C509.534 598.282 497.755 576.473 486.122 552.794C484.656 549.748 483.141 546.701 481.626 543.654C474.441 529.062 466.963 514.042 460.853 498.327C456.894 488.225 453.131 478.23 449.514 468.555C444.089 454.07 439.006 440.44 433.532 427.291C401.176 349.679 359.924 317.662 323.511 289.386C306.947 277.421 291.523 263.669 277.47 248.335C251.908 218.296 243.256 176.764 255.915 144.907C268.574 113.05 298.78 96.8006 341.644 96.8006C370.97 96.8006 405.77 104.711 445.066 120.319C516.426 148.702 600.884 191.517 703.23 251.168C783.356 299.107 873.239 324.182 964.571 324.076C984.896 324.045 1005.21 322.886 1025.42 320.602C1066.62 316.005 1112.37 305.208 1156.7 294.731C1213.06 281.155 1271.61 267.364 1318.48 267.364Z" fill="url(#paint8_linear_928_37)"/>
<path d="M718.871 676.802C733.157 676.612 747.339 674.108 760.954 669.372C769.036 666.671 776.967 663.459 784.708 659.751C820.827 642.753 865.793 611.217 909 579.574C958.609 543.708 1013.69 536.813 1083.54 527.833C1133.14 522.476 1182.38 513.638 1230.95 501.374C1349.08 469.892 1422.74 422.106 1438.28 366.784C1445.46 341.288 1439.4 315.845 1420.68 293.235C1401.97 270.625 1373.18 260.362 1331.49 260.362C1282.61 260.362 1222.15 275.168 1163.64 289.44C1119.66 300.13 1074.35 311.301 1034.37 316.165C1012.74 318.706 991.012 319.991 969.264 320.014C878.284 320.142 788.682 295.705 708.412 248.87C601.373 187.935 518.235 145.869 446.68 116.471C406.015 99.7407 369.993 91.2953 339.592 91.2953C296.825 91.2953 265.642 108.507 251.615 139.776C237.587 171.045 243.697 214.234 266.816 246.251C280.186 263.514 295.103 279.272 311.342 293.288C344.822 324.343 382.75 359.568 413.688 435.683C418.185 446.801 422.437 458.132 426.983 470.159C431.528 482.185 436.318 495.067 441.646 507.575C448.998 524.96 457.272 541.862 466.426 558.193L468.625 562.255C483.288 589.355 495.703 607.048 512.614 611.377C519.748 613.068 526.984 614.193 534.266 614.745C539.154 615.279 543.699 615.707 548.098 616.562C565.552 619.948 582.778 624.609 599.662 630.513C615.848 636.354 631.533 643.741 646.535 652.588C669.067 665.096 690.328 676.802 718.871 676.802ZM1331.39 261.966C1372.64 261.966 1401.48 272.656 1419.36 294.037C1437.25 315.417 1443.8 341.127 1436.67 366.089C1421.27 420.77 1348.01 468.181 1230.36 499.717C1181.9 511.935 1132.78 520.755 1083.29 526.122C1013.35 534.995 958.071 542.158 908.169 578.451C865.06 609.988 820.192 641.47 784.121 658.628C776.417 662.223 768.535 665.345 760.514 667.982C747.034 672.633 733.005 675.1 718.871 675.305C690.67 675.305 669.555 663.653 647.219 651.252C632.138 642.363 616.372 634.94 600.102 629.07C583.089 623.112 565.732 618.398 548.147 614.959C543.699 614.157 539.105 613.676 534.217 613.195C526.986 612.616 519.801 611.491 512.712 609.827C496.534 605.605 484.363 588.447 469.896 561.4L467.697 557.391C458.531 541.169 450.241 524.374 442.867 507.094C437.98 494.372 433.092 481.704 428.205 469.678C423.317 457.651 419.407 446.319 414.91 435.202C383.874 358.713 345.751 323.435 312.27 292.273C296.123 278.294 281.289 262.591 267.989 245.396C245.163 213.859 239.152 171.74 252.935 140.631C266.718 109.522 297.265 93.0592 339.446 93.0592C369.651 93.0592 405.526 101.505 446.045 118.128C517.55 147.152 600.689 189.379 707.679 250.099C788.133 297.084 877.959 321.597 969.166 321.457C990.965 321.443 1012.75 320.14 1034.42 317.555C1074.49 312.851 1119.9 301.52 1163.89 290.829C1222.3 276.718 1282.71 261.966 1331.39 261.966Z" fill="url(#paint9_linear_928_37)"/>
<path d="M721.853 683.109C735.651 682.935 749.358 680.632 762.567 676.268C771.112 673.622 779.502 670.409 787.689 666.646C819.068 652.161 856.947 627.734 918.433 582.3C967.603 545.953 1021.51 540.02 1089.5 532.537C1135.64 527.192 1187.94 521.847 1247.47 504.796C1308.27 487.584 1357.19 465.776 1392.92 440.013C1424.94 416.922 1445.61 390.677 1452.8 364.165C1459.98 337.653 1453.73 311.141 1434.47 288.211C1415.21 265.28 1385.98 254.964 1343.85 254.964C1293.22 254.964 1230.85 270.732 1170.59 285.912C1127.04 296.923 1082.02 308.308 1043.17 313.119C1020.07 315.978 996.854 317.424 973.615 317.449C882.78 317.638 793.251 293.798 712.664 247.962C600.249 185.37 518.333 144.106 447.56 114.066C405.673 96.3201 368.625 87.3402 337.295 87.3402C295.213 87.3402 263.688 104.284 248.634 134.965C233.58 165.647 236.562 208.728 257.236 242.777C269.965 262.344 284.438 280.482 300.443 296.923C331.039 330.597 365.741 368.762 395.165 443.113C398.83 452.413 402.35 461.714 406.015 471.602C411.489 486.194 417.159 501.321 423.464 516.341C431.858 535.219 441.495 553.405 452.301 570.754C467.404 596.197 481.138 613.516 499.124 616.723C506.644 617.802 514.218 618.374 521.803 618.433C527.326 618.433 532.507 618.754 537.59 619.395C556.348 621.757 574.89 625.851 593.016 631.636C611.591 637.925 629.474 646.44 646.339 657.025C669.995 670.441 691.941 683.109 721.853 683.109ZM1344.05 256.567C1385.79 256.567 1415.06 267.258 1433.59 289.333C1452.11 311.408 1458.66 337.439 1451.57 363.737C1436.37 419.915 1361.94 470.64 1247.27 503.245C1187.84 520.083 1135.64 525.855 1089.55 530.933C1023.86 538.149 967.358 544.403 917.602 580.964C856.214 626.344 818.384 650.451 787.103 665.15C778.989 668.918 770.663 672.113 762.176 674.717C749.098 679.062 735.521 681.347 721.853 681.506C692.088 681.506 670.289 668.838 647.219 655.421C630.215 644.788 612.183 636.255 593.455 629.979C575.252 624.144 556.629 620.014 537.786 617.631C532.898 617.043 527.424 616.883 521.901 616.723C514.379 616.673 506.869 616.084 499.418 614.959C481.92 612.072 468.479 594.808 453.572 569.739C442.923 552.418 433.448 534.267 425.224 515.432C418.919 500.466 413.249 485.393 407.775 470.8C404.06 460.912 400.59 451.558 396.875 442.257C367.55 367.425 332.554 329.368 301.909 295.587C285.965 279.225 271.541 261.178 258.849 241.708C238.468 208.087 235.144 166.448 250.296 135.5C265.447 104.552 296.142 88.7299 337.686 88.7299C368.821 88.7299 405.722 97.7098 447.413 115.456C518.186 145.442 599.858 186.706 712.371 249.084C793.163 295.073 882.924 319.023 974.005 318.892C997.311 318.874 1020.6 317.411 1043.75 314.509C1082.85 309.698 1127.72 298.473 1171.32 287.355C1231.53 272.282 1293.7 256.567 1344.24 256.567L1344.05 256.567Z" fill="url(#paint10_linear_928_37)"/>
<path d="M725.079 689.47C738.46 689.337 751.763 687.215 764.62 683.162C773.62 680.493 782.452 677.19 791.062 673.274C824.152 658.307 865.208 631.796 928.258 584.705C977.134 548.091 1033.05 542.906 1097.57 536.919C1146.44 532.376 1201.38 527.245 1264.82 508.216C1378.7 474.114 1452.85 420.663 1468.19 361.599C1475.48 333.59 1468.88 306.491 1449.13 283.239C1429.39 259.988 1399.72 249.565 1357.15 249.565C1304.6 249.565 1240.43 266.295 1178.41 282.491C1133.24 294.25 1090.43 305.315 1052.89 310.232C1028.32 313.423 1003.59 315.047 978.845 315.096C888.114 315.232 798.643 291.879 717.748 246.946C633.437 201.138 535.587 149.237 449.32 111.553C406.26 92.7918 368.137 83.224 335.976 83.224C282.799 83.224 257.774 108.613 246.337 129.941C229.719 160.675 230.501 203.597 248.39 239.195C259.681 261.752 274.148 280.513 290.864 302.214C318.43 338.027 349.515 378.65 377.374 450.382C380.307 457.972 383.239 465.829 386.025 473.419C392.33 490.256 398.782 507.628 406.211 524.732C414.905 543.787 425.127 561.961 436.759 579.039C450.542 600.42 466.085 620.09 486.662 621.8C490.278 621.8 494.139 622.228 498.441 622.228C502.742 622.228 506.407 622.228 510.171 622.228C513.934 622.228 517.405 622.228 520.875 622.228C523.514 622.228 525.763 622.228 527.962 622.228C547.958 623.573 567.774 627.155 587.102 632.918C607.922 639.552 627.855 649.148 646.389 661.461C670.534 675.786 693.261 689.47 725.079 689.47ZM1357.24 251.168C1399.38 251.168 1429.14 261.859 1448.15 284.308C1467.17 306.758 1474.06 333.697 1466.92 361.171C1451.58 419.647 1377.82 472.671 1264.38 506.719C1201.08 525.695 1146 530.826 1097.42 535.316C1032.66 541.356 976.743 546.541 927.378 583.422C864.426 630.459 823.467 656.918 790.525 671.884C781.974 675.749 773.208 679.016 764.278 681.666C751.561 685.666 738.409 687.769 725.177 687.919C693.75 687.919 671.413 674.182 647.22 659.697C628.576 647.321 608.529 637.671 587.591 630.994C568.163 625.235 548.249 621.653 528.157 620.304C525.958 620.304 523.612 620.304 520.973 620.304C517.454 620.304 513.935 620.304 510.269 620.304C506.603 620.304 502.546 620.304 498.538 620.304C494.531 620.304 490.425 620.304 486.857 619.876C466.915 618.165 451.617 598.495 437.981 577.756C426.409 560.741 416.236 542.639 407.58 523.663C400.2 506.612 393.699 489.241 387.443 472.457C384.608 464.813 381.675 456.956 378.792 449.419C350.981 377.42 319.652 336.744 292.036 300.825C275.37 279.444 260.951 260.469 249.71 238.073C232.066 202.902 231.283 160.675 247.657 130.368C258.996 109.415 283.532 84.4534 336.025 84.4534C367.99 84.4534 405.967 93.9677 448.831 112.676C535.049 150.092 632.85 202.207 717.162 247.961C798.24 293.046 887.936 316.475 978.894 316.326C1003.69 316.285 1028.47 314.643 1053.09 311.408C1090.92 306.544 1133.59 295.373 1178.75 283.667C1240.67 267.899 1304.8 251.168 1357.24 251.168Z" fill="url(#paint11_linear_928_37)"/>
<path d="M727.913 695.937C740.93 695.807 753.876 693.831 766.428 690.057C775.897 687.384 785.188 684.008 794.238 679.955C829.429 664.24 872.44 636.499 937.885 587.11C986.762 550.121 1042.19 545.952 1106.07 541.088C1157.05 537.24 1214.77 532.857 1282.02 511.69C1394.44 476.091 1468.05 420.448 1483.39 359.033C1490.72 329.741 1483.88 301.786 1463.84 278.214C1443.8 254.642 1413.5 244.219 1370.49 244.219C1316.04 244.219 1250.01 261.912 1186.18 279.07C1141.5 291.043 1099.27 302.374 1062.62 307.345C1036.54 310.881 1010.3 312.666 984.025 312.69C893.466 312.501 804.144 289.684 722.879 245.983C626.935 195.097 533.924 146.296 451.078 109.148C407.09 89.3171 367.989 79.2147 334.704 79.2147C282.26 79.2147 256.502 104.123 244.088 124.969C225.955 155.543 224.195 197.984 239.591 235.72C250.246 261.805 264.909 284.201 281.869 310.125C306.307 347.541 334.02 389.767 359.631 457.757C361.831 463.584 363.981 469.463 366.18 475.396C373.17 494.479 380.452 514.149 389.006 533.231C398.016 552.485 408.826 570.667 421.264 587.484C435.047 606.887 452.105 626.771 474.246 627.038L475.907 627.038C483.777 627.038 491.206 626.45 498.391 625.809C505.576 625.167 511.245 624.739 517.306 624.739L518.43 624.739C539.621 624.947 560.716 627.871 581.285 633.452C607.14 640.294 627.033 652.908 646.192 665.095C670.777 681.131 694.384 695.937 727.913 695.937ZM1370.05 245.823C1412.62 245.823 1442.83 256.78 1462.33 279.337C1481.83 301.893 1489.01 329.848 1481.88 358.605C1466.63 419.486 1393.61 474.702 1281.49 510.14C1214.62 531.52 1156.95 535.636 1106.07 539.485C1041.94 544.349 986.566 548.571 937.152 585.774C871.756 635.109 828.891 662.797 793.798 678.458C784.689 682.469 775.35 685.826 765.841 688.507C753.399 692.233 740.569 694.191 727.669 694.333C694.531 694.333 671.07 679.474 646.241 663.759C626.984 651.519 607.14 638.851 580.942 631.688C560.276 626.093 539.084 623.151 517.794 622.922L516.621 622.922C510.512 622.922 504.256 623.457 497.609 623.991C490.961 624.526 482.946 625.221 475.223 625.221L473.562 625.221C452.105 625.221 435.291 605.39 421.753 586.255C409.364 569.535 398.587 551.462 389.592 532.322C381.088 513.293 373.854 493.623 366.816 474.595C364.665 468.661 362.466 462.782 360.316 456.956C334.655 388.752 306.894 346.365 282.407 309.002C265.447 283.132 250.833 260.896 240.227 234.812C225.075 197.396 226.737 155.757 244.625 125.611C256.796 105.085 282.211 80.6044 334.02 80.6044C366.914 80.6045 405.868 90.6534 449.856 110.377C532.604 147.793 625.811 196.327 721.559 247.212C803.021 291.022 892.561 313.894 983.34 314.08C1009.66 314.058 1035.96 312.273 1062.08 308.735C1098.83 303.764 1141.11 292.432 1185.83 280.459C1249.72 263.462 1315.8 245.823 1370.05 245.823Z" fill="url(#paint12_linear_928_37)"/>
<path d="M730.602 702.511C743.317 702.441 755.975 700.645 768.286 697.166C778.264 694.439 788.062 690.975 797.612 686.796C834.367 670.761 880.701 640.721 947.71 589.729C996.978 552.313 1051.87 549.052 1115.45 545.311C1168.29 542.157 1228.41 538.469 1298.59 515.111C1356.41 495.922 1403.53 471.334 1438.67 442.043C1470.44 415.317 1490.97 385.972 1498.06 356.52C1501.75 341.891 1501.78 326.446 1498.16 311.798C1494.53 297.149 1487.37 283.834 1477.43 273.243C1457.15 250.099 1426.16 238.874 1382.71 238.874C1326.35 238.874 1258.51 257.635 1192.87 275.755C1148.64 287.942 1106.85 299.488 1071.27 304.512C1043.72 308.428 1015.96 310.41 988.18 310.445C897.758 310.277 808.516 287.996 726.986 245.235L697.318 229.841C609.34 184.354 526.593 141.379 451.813 106.902C406.553 86.0564 366.377 75.473 332.31 75.473C280.55 75.473 254.108 99.7934 240.716 120.212C221.166 150.198 217.06 193.226 229.719 232.46C239.494 263.248 254.842 290.348 272.486 321.777C299.265 367.28 322.17 415.374 340.912 465.454C342.428 469.517 343.894 473.686 345.409 477.802C353.131 499.182 361.147 521.097 370.776 541.943C380.193 561.384 391.677 579.541 404.989 596.036C424.54 621.265 441.06 632.49 458.753 632.49L460.903 632.49C469.555 632.009 477.668 630.94 485.342 629.924C493.015 628.909 500.64 627.893 507.825 627.679C530.176 626.874 552.53 629.191 574.345 634.574C602.742 641.577 624.052 655.955 644.727 669.318C670.827 686.476 695.314 702.511 730.602 702.511ZM1382.9 240.424C1425.96 240.424 1456.61 251.489 1476.6 274.312C1486.36 284.702 1493.39 297.769 1496.95 312.147C1500.51 326.524 1500.47 341.684 1496.83 356.039C1489.85 385.224 1469.46 414.515 1438.18 440.813C1403.19 469.944 1356.22 494.265 1298.54 513.614C1228.36 536.919 1168.34 540.34 1115.36 543.547C1051.57 547.235 996.489 550.495 946.88 588.179C879.919 639.171 833.731 669.051 797.074 685.086C787.659 689.253 777.991 692.7 768.139 695.402C755.944 698.878 743.4 700.674 730.798 700.747C695.9 700.747 671.609 684.712 645.851 667.714C625.128 654.031 603.671 639.866 575.078 632.811C553.136 627.385 530.65 625.05 508.167 625.862C500.933 625.862 493.504 627.091 485.537 628.107C477.57 629.122 469.652 630.191 461.099 630.672L458.997 630.672C441.695 630.672 425.419 619.608 406.26 594.807C393.088 578.383 381.736 560.316 372.438 540.981C362.662 520.082 354.842 498.22 347.12 476.839C345.605 472.724 344.138 468.554 342.623 464.492C323.902 414.333 300.996 366.166 274.196 320.601C256.65 289.225 241.45 262.179 231.577 231.551C219.113 192.852 223.267 150.412 242.427 120.8C261.586 91.1877 292.036 77.13 332.506 77.13C366.377 77.13 406.358 87.8203 451.422 108.506C526.202 142.982 609.096 185.957 696.878 231.444L726.741 246.624C808.461 289.464 897.899 311.798 988.522 311.995C1016.31 311.933 1044.06 309.933 1071.61 306.009C1107.24 300.984 1149.08 289.439 1193.41 277.199C1258.95 259.132 1326.75 240.424 1382.9 240.424Z" fill="url(#paint13_linear_928_37)"/>
<path d="M733.193 709.032C745.66 708.868 758.065 707.073 770.143 703.687C780.5 700.873 790.673 697.302 800.593 692.997C839.401 676.213 887.69 644.891 956.997 591.439C1006.51 553.435 1061.25 551.137 1124.64 548.678C1179.68 546.433 1241.94 543.814 1315.6 518.211C1424.2 480.421 1498.01 418.845 1513.11 353.581C1516.84 338.533 1516.82 322.669 1513.05 307.632C1509.29 292.595 1501.92 278.933 1491.7 268.059C1470.98 244.647 1439.5 233.262 1395.61 233.262C1337.3 233.262 1267.61 253.039 1200.11 272.174C1156.36 284.628 1115.01 296.334 1080.51 301.412C1051.44 305.709 1022.15 307.888 992.823 307.933C902.556 307.785 813.41 286.058 731.629 244.273C701.863 229.199 672.977 214.393 644.678 200.015C576.936 165.432 512.712 132.773 453.083 104.444C406.798 82.4752 365.546 71.3573 330.551 71.3573C290.032 71.3573 258.018 86.4841 237.686 115.134C216.962 144.639 210.266 188.202 220.188 228.879C229.181 265.6 245.359 299.007 264.177 337.759C286.238 381.372 305.826 426.427 322.828 472.67L325.223 479.405C333.418 503.585 342.766 527.279 353.229 550.389C362.862 570.077 374.879 588.255 388.958 604.428C409.877 629.283 428.498 639.759 448.049 637.568C456.7 636.606 464.862 635.216 472.487 633.88C481.382 632.33 489.74 630.886 497.805 630.298C504.11 629.817 510.366 629.603 516.476 629.603C533.787 629.548 551.056 631.501 567.991 635.43C598.881 642.485 621.755 658.093 643.603 673.166C670.68 691.821 696.047 709.032 733.193 709.032ZM1395.81 235.026C1439.31 235.026 1470.39 246.25 1490.82 269.341C1500.9 280.029 1508.17 293.478 1511.88 308.286C1515.58 323.093 1515.59 338.717 1511.89 353.527C1496.93 418.257 1423.47 479.405 1315.36 517.035C1242.04 542.585 1179.73 545.15 1124.74 547.395C1061.2 550.068 1006.17 552.313 956.313 590.584C886.908 644.035 838.716 675.037 799.909 691.767C790.056 696.073 779.948 699.644 769.654 702.458C757.688 705.818 745.399 707.613 733.046 707.803C696.34 707.803 671.12 690.538 644.482 672.258C622.39 657.077 599.516 641.416 568.382 634.307C551.35 630.36 533.984 628.39 516.573 628.428C510.464 628.428 504.11 628.428 497.805 629.122C489.691 629.71 481.285 631.154 472.341 632.704C464.52 634.093 456.358 635.483 447.902 636.392C428.792 638.53 410.61 628.267 390.033 603.786C376.065 587.779 364.115 569.803 354.5 550.335C344.072 527.277 334.757 503.637 326.592 479.512L324.197 472.777C307.295 426.479 287.823 381.353 265.888 337.652C247.168 299.007 231.039 265.653 221.899 229.092C212.124 188.897 218.673 145.868 239.103 116.844C258.898 88.6221 290.57 73.7092 330.6 73.7092C365.399 73.7092 406.455 84.7737 452.79 106.635C512.663 134.965 576.642 167.623 644.336 202.206C672.44 216.585 701.521 231.391 731.335 246.464C813.272 288.475 902.622 310.368 993.116 310.606C1022.54 310.564 1051.93 308.386 1081.09 304.085C1115.65 299.007 1157.05 287.247 1200.89 274.793C1268.04 254.803 1337.69 235.025 1395.81 235.026Z" fill="url(#paint14_linear_928_37)"/>
<path d="M735.685 715.607C747.904 715.512 760.073 713.88 771.951 710.743C782.778 708.021 793.412 704.448 803.769 700.053C844.581 682.681 894.874 650.076 966.82 594.486C1016.67 555.894 1071.46 554.558 1134.86 553.008C1191.75 551.618 1256.27 550.015 1332.76 522.167C1440.28 483.04 1513.35 419.219 1528.26 351.496C1532.06 335.974 1532 319.625 1528.1 304.134C1524.2 288.642 1516.6 274.567 1506.07 263.355C1484.86 239.73 1452.94 228.184 1408.32 228.184C1348.05 228.184 1273.27 249.992 1207.29 269.235C1163.99 281.849 1123.13 293.769 1089.7 298.847C1059.12 303.526 1028.29 305.901 997.417 305.956C907.364 305.672 818.408 284.331 736.516 243.364C688.812 219.899 643.309 196.755 599.271 174.412C548.587 148.702 500.688 124.435 454.598 102.039C407.188 79.0547 364.91 67.4022 328.937 67.4022C288.81 67.4022 256.405 82.2083 235.241 110.163C212.905 139.615 203.961 182.697 211.39 225.458C219.063 269.769 235.828 309.59 257.187 359.942C271.85 394.044 287.979 432.636 304.548 480.154L304.89 481.116C313.711 507.738 324.01 533.746 335.731 558.995C345.706 578.91 358.341 597.087 373.219 612.927C392.085 633.826 409.045 643.715 427.276 643.715C429.909 643.686 432.537 643.471 435.145 643.074C443.747 641.684 451.812 639.973 459.583 638.316C469.358 636.232 479.133 634.254 488.078 633.292C497.022 632.33 506.7 631.742 515.546 631.742C531.131 631.711 546.682 633.34 561.979 636.606C595.263 643.715 619.213 660.713 642.624 677.229C670.435 697.166 696.73 715.607 735.685 715.607ZM1408.66 229.627C1452.65 229.627 1484.17 240.959 1505.09 264.317C1515.46 275.327 1522.94 289.162 1526.78 304.393C1530.62 319.624 1530.68 335.7 1526.94 350.962C1512.03 418.15 1439.31 481.544 1332.32 520.51C1256.02 548.251 1191.6 549.854 1134.81 551.244C1071.27 552.794 1016.23 554.131 965.989 592.99C894.141 648.579 843.799 681.078 803.232 698.396C792.95 702.767 782.399 706.339 771.658 709.086C759.876 712.199 747.805 713.813 735.685 713.897C697.122 713.897 671.07 695.402 643.407 675.786C619.995 659.162 595.801 642.005 562.223 634.789C546.85 631.476 531.215 629.829 515.546 629.871C506.651 629.871 497.316 630.406 487.931 631.421C478.547 632.437 469.358 634.414 459.29 636.766C451.519 638.423 443.503 640.08 434.852 641.47C432.312 641.894 429.747 642.109 427.178 642.111C409.632 642.111 392.721 632.544 374.001 611.965C359.211 596.286 346.656 578.268 336.757 558.513C325.164 533.253 315.027 507.225 306.405 480.581L306.063 479.619C289.494 432.048 273.12 393.402 258.702 359.3C237.392 309.002 220.579 269.288 212.954 225.137C205.623 182.857 214.42 140.256 236.512 111.179C257.382 83.598 289.396 69.0058 329.084 69.0058C364.861 69.0058 406.943 80.6047 454.158 103.482C500.248 125.878 548.098 150.145 598.783 175.855C642.771 198.198 688.373 221.342 736.027 244.861C818.214 285.872 907.469 307.195 997.808 307.399C1028.76 307.343 1059.67 304.968 1090.33 300.29C1123.81 294.945 1164.72 283.239 1208.02 270.624C1273.91 251.382 1348.59 229.627 1408.66 229.627Z" fill="url(#paint15_linear_928_37)"/>
<path d="M738.08 722.236C750.107 722.129 762.087 720.587 773.809 717.639C785.084 714.83 796.159 711.133 806.946 706.574C849.224 688.775 903.086 653.871 976.449 596.678C1026.74 557.499 1081.63 557.071 1145.12 556.59C1203.77 556.109 1270.39 555.574 1349.72 525.428C1403.92 504.742 1450.55 476.84 1484.32 444.502C1515.9 414.463 1536.23 381.376 1542.97 348.771C1546.82 332.801 1546.71 316.001 1542.67 300.091C1538.62 284.18 1530.78 269.732 1519.95 258.224C1498.3 234.278 1465.94 222.679 1421.08 222.679C1358.81 222.679 1282.07 245.61 1214.38 265.814C1171.66 278.589 1131.29 290.669 1098.93 295.801C1066.84 300.902 1034.45 303.492 1002.01 303.551C912.204 303.262 823.441 282.471 741.404 242.51C677.034 211.508 616.427 180.72 557.825 150.947C522.487 132.988 489.056 116.044 456.113 99.6875C407.677 75.5809 364.324 63.3939 327.325 63.3939C287.54 63.3939 254.743 77.8258 232.505 105.193C208.898 134.217 197.607 177.887 202.348 221.984C208.116 275.917 227.08 326.268 251.224 389.982C262.026 418.578 274.245 451.023 286.66 487.584C295.365 515.099 305.868 541.894 318.087 567.761C328.334 587.926 341.544 606.111 357.188 621.587C379.524 644.25 400.59 652.856 422.291 648.312C430.6 646.602 438.469 644.678 446.045 642.967C457.335 640.241 467.99 637.622 478.108 636.232C489.874 634.554 501.726 633.697 513.592 633.667C527.721 633.624 541.824 635.002 555.723 637.783C591.354 644.945 616.769 663.546 641.354 681.559C670.045 702.512 697.415 722.236 738.08 722.236ZM1421.52 224.283C1465.99 224.283 1498.01 235.721 1519.27 259.347C1529.91 270.679 1537.62 284.899 1541.6 300.554C1545.57 316.208 1545.68 332.737 1541.9 348.45C1535.06 380.521 1514.87 413.501 1483.54 443.273C1449.62 475.344 1403.19 503.406 1349.18 523.931C1270.05 554.024 1203.63 554.505 1145.02 554.986C1081.24 555.467 1026.21 555.895 975.521 595.396C902.206 652.482 848.443 687.332 806.311 705.078C795.606 709.618 784.612 713.298 773.417 716.089C761.794 719.02 749.911 720.543 737.982 720.632C697.61 720.632 670.582 700.855 641.989 679.902C617.551 661.782 591.794 643.074 555.821 635.912C541.844 633.089 527.658 631.693 513.445 631.742C501.53 631.773 489.63 632.63 477.814 634.308C467.599 635.751 456.895 638.37 445.556 641.096C437.98 642.967 430.16 644.892 421.9 646.442C400.639 650.825 380.013 642.326 358.019 620.09C342.404 604.727 329.195 586.671 318.918 566.639C306.769 540.896 296.3 514.247 287.588 486.889C275.125 450.275 262.906 417.83 252.153 389.234C228.155 325.626 209.191 275.382 203.277 221.663C198.389 177.994 209.729 134.805 233.091 106.102C255.037 79.3759 287.442 64.8371 326.787 64.8371C363.591 64.8371 406.749 76.9707 454.989 100.97C487.932 117.326 521.314 134.271 556.652 152.23C615.303 182.003 675.861 212.791 740.28 243.792C822.646 283.941 911.785 304.789 1001.96 304.994C1034.46 304.936 1066.92 302.346 1099.08 297.244C1131.53 291.899 1171.95 279.979 1214.72 267.204C1282.81 247.16 1359.44 224.283 1421.52 224.283Z" fill="url(#paint16_linear_928_37)"/>
<path d="M740.426 728.916C752.281 728.807 764.092 727.338 775.666 724.533C787.315 721.702 798.752 717.914 809.88 713.201C854.161 694.814 910.076 658.521 985.834 599.083C1031.68 563.11 1081.88 560.17 1133.59 560.17L1155.39 560.17L1178.8 560.17C1231.09 560.17 1293.02 557.765 1366.48 528.634C1470.15 487.583 1543.66 417.615 1558.27 345.99C1562.15 329.565 1561.98 312.31 1557.79 295.977C1553.6 279.644 1545.54 264.812 1534.42 252.985C1512.28 228.825 1479.48 217.066 1434.18 217.066C1369.85 217.066 1291.16 241.172 1221.76 262.446C1179.58 275.381 1139.75 287.568 1108.42 292.699C1074.89 298.422 1041.02 301.406 1007.1 301.626C917.247 301.392 828.392 281.055 745.998 241.867C665.646 204.13 590.866 165.859 518.529 128.764L457.385 97.5484C407.873 72.3728 363.445 59.6513 325.419 59.6513C285.389 59.6513 253.131 73.3883 229.524 100.542C204.255 129.566 191.009 172.701 193.16 218.829C196.19 284.682 217.158 345.67 246.239 430.123C253.326 450.755 260.902 472.082 268.38 495.333C277.034 523.228 287.707 550.325 300.296 576.366C310.975 596.782 324.856 614.984 341.304 630.138C364.422 651.518 386.514 659.376 409.437 653.656C417.257 651.732 424.686 649.701 431.871 647.723C444.677 644.196 456.798 640.882 468.186 638.957C482.315 636.497 496.597 635.229 510.904 635.162C523.827 635.139 536.727 636.32 549.467 638.69C587.493 645.853 614.179 666.004 639.986 685.46C669.605 707.856 697.709 728.916 740.426 728.916ZM1133.83 558.566C1081.88 558.566 1031.19 561.56 985.247 597.8C909.538 657.184 853.819 693.371 809.831 711.705C798.706 716.398 787.268 720.15 775.617 722.929C764.163 725.763 752.463 727.232 740.72 727.312C698.442 727.312 670.534 706.253 641.012 683.91C615.059 664.347 588.226 644.089 549.907 636.873C537.09 634.455 524.106 633.257 511.099 633.291C496.711 633.36 482.349 634.628 468.137 637.087C456.7 639.011 444.53 642.432 431.725 645.906C424.54 647.884 417.062 649.915 409.339 651.839C386.856 657.184 365.351 649.968 342.428 628.641C326.11 613.586 312.359 595.489 301.812 575.19C289.238 549.221 278.582 522.196 269.944 494.371C262.271 471.12 254.89 449.739 247.803 429.107C218.771 344.814 197.803 283.933 194.773 218.295C192.671 172.648 205.819 129.94 230.795 101.183C254.109 74.4573 286.025 60.8272 325.614 60.8272C363.542 60.8272 407.726 73.4952 457.091 98.5639C477.131 108.755 497.496 119.178 518.187 129.833C590.523 166.875 665.353 205.199 745.705 242.936C828.292 282.175 917.344 302.529 1007.39 302.748C1041.45 302.693 1075.46 299.888 1109.15 294.356C1140.58 289.011 1180.46 276.985 1222.69 263.996C1292.04 242.615 1370.59 218.723 1434.71 218.723C1479.63 218.723 1512.08 230.322 1533.93 254.161C1544.88 265.806 1552.81 280.411 1556.92 296.492C1561.03 312.574 1561.18 329.559 1557.34 345.723C1542.68 416.76 1469.76 486.3 1366.73 527.458C1293.41 556.482 1231.68 558.941 1179.53 558.941C1171.61 558.941 1163.79 558.941 1156.17 558.941L1133.83 558.566Z" fill="url(#paint17_linear_928_37)"/>
<path d="M742.674 735.598C754.393 735.525 766.073 734.11 777.523 731.376C789.698 728.544 801.659 724.702 813.3 719.884C859.586 700.855 917.358 663.225 995.56 601.489C1035.83 569.846 1078.65 563.539 1130.56 563.539C1142.19 563.539 1153.92 563.859 1166.38 564.18C1178.85 564.501 1192.77 564.821 1206.61 564.821C1255.48 564.821 1314.67 560.973 1383.69 532.751C1486.33 490.417 1559.1 418.151 1573.57 344.067C1580.8 306.972 1572.3 273.939 1549.13 248.603C1526.55 224.176 1493.27 212.31 1447.47 212.31C1381.09 212.31 1300.5 237.592 1229.33 259.935C1187.74 272.977 1148.44 285.324 1118.14 290.455C1083 296.456 1047.5 299.494 1011.93 299.542C922.247 299.294 833.51 279.449 750.934 241.173C654.844 197.183 566.085 151.054 480.307 106.422L458.948 95.3579C408.312 69.0598 362.809 55.7504 323.61 55.7504C278.693 55.7504 241.791 73.6031 216.962 107.384C195.312 138.452 183.723 176.51 184.02 215.57C183.189 296.175 208.457 374.374 243.697 482.827L250.296 503.192C258.85 531.41 269.644 558.757 282.554 584.919C293.543 605.554 308.043 623.698 325.271 638.37C343.111 653.818 360.462 661.355 378.253 661.355C384.408 661.346 390.536 660.465 396.484 658.735C403.522 656.704 410.316 654.62 416.865 652.642C431.528 648.205 445.214 644.036 458.068 641.524C474.381 638.162 490.932 636.373 507.531 636.179C519.431 636.156 531.313 637.175 543.064 639.226C583.435 646.335 611.49 668.036 638.372 688.989C669.066 713.202 698.099 735.598 742.674 735.598ZM1130.56 561.721C1078.36 561.721 1035.3 568.296 994.875 600.206C916.771 661.836 858.706 699.412 812.811 718.547C801.218 723.348 789.307 727.172 777.181 729.986C765.842 732.679 754.277 734.076 742.674 734.155C698.686 734.155 669.751 711.759 639.203 688.08C612.077 666.7 583.973 645.319 543.308 638.05C531.479 635.955 519.514 634.918 507.531 634.949C490.851 635.143 474.218 636.932 457.824 640.295C444.92 642.807 431.088 647.03 416.475 651.466C409.925 653.444 403.131 655.528 396.093 657.559C390.271 659.245 384.276 660.108 378.253 660.125C360.805 660.125 343.747 652.749 326.151 637.515C309.055 622.813 294.688 604.67 283.825 584.064C270.872 557.843 260.061 530.423 251.518 502.123L244.87 481.758C209.826 373.733 184.459 295.64 185.29 215.303C186.072 136.569 229.279 57.0867 323.414 57.0867C362.515 57.0867 407.726 70.3426 458.117 96.5338L479.476 107.598C565.302 152.23 654.062 198.466 750.152 242.349C832.892 280.818 921.831 300.809 1011.74 301.146C1047.38 301.1 1082.97 298.062 1118.19 292.059C1148.54 286.714 1187.89 274.527 1229.53 261.485C1300.6 239.196 1381.05 213.913 1447.27 213.913C1492.68 213.913 1525.48 225.619 1547.91 249.725C1570.88 274.687 1579.29 307.186 1572.35 343.747C1557.98 417.296 1485.59 489.134 1383.39 531.254C1314.57 559.583 1255.53 563.325 1206.8 563.325C1192.97 563.325 1179.58 563.004 1166.58 562.683C1153.58 562.363 1142.19 561.721 1130.56 561.721Z" fill="url(#paint18_linear_928_37)"/>
<path d="M744.923 742.332C756.423 742.224 767.884 740.863 779.137 738.27C791.779 735.413 804.199 731.481 816.283 726.511C864.572 706.894 924.543 667.714 1005.14 603.893C1046.69 570.914 1090.77 566.477 1132.22 566.477C1146.88 566.477 1161.54 567.119 1177.09 567.76C1193.7 568.402 1210.91 569.096 1228.85 569.096C1287.49 570.273 1345.78 559.001 1400.5 535.903C1452.02 513.828 1496.93 483.2 1530.36 447.281C1561.69 413.66 1581.83 376.939 1588.48 341.18C1595.66 302.802 1586.86 268.967 1562.96 243.364C1539.94 218.669 1506.27 206.643 1459.98 206.643C1391.56 206.643 1308.91 233.368 1236.03 256.566C1195.07 269.715 1156.31 282.17 1127.04 287.301C1090.38 293.794 1053.32 297.083 1016.19 297.136C926.632 296.841 837.991 277.431 755.236 239.996C652.596 194.242 556.995 144.211 459.878 92.6843C408.216 65.3172 361.539 51.4198 321.216 51.4198C220.287 51.4198 179.035 137.851 174.587 211.774C168.918 302.16 194.773 392.386 231.919 509.979C240.426 538.849 251.458 566.755 264.862 593.31C276.152 614.279 291.277 632.475 309.29 646.761C324.121 659.71 342.42 666.994 361.392 667.5C368.891 667.478 376.349 666.272 383.533 663.919L400.933 658.2C417.649 652.855 433.484 647.51 448.049 644.249C466.4 640.102 485.079 637.936 503.817 637.781C514.842 637.779 525.852 638.655 536.76 640.401C579.38 647.456 608.559 670.707 636.712 693.157C668.481 718.546 698.442 742.332 744.923 742.332ZM1132.41 564.767C1090.72 564.767 1046.39 569.31 1004.5 602.61C924.006 666.752 864.133 705.451 815.99 725.014C803.969 729.959 791.615 733.873 779.039 736.72C767.788 739.317 756.325 740.66 744.826 740.729C698.833 740.729 669.068 716.996 637.298 691.874C608.95 669.318 579.673 645.959 536.662 638.85C525.692 637.06 514.615 636.167 503.524 636.178C484.689 636.332 465.913 638.498 447.463 642.645C432.8 645.853 416.964 651.091 400.249 656.65L382.8 662.423C375.751 664.69 368.446 665.859 361.099 665.897C342.426 665.406 324.416 658.234 309.828 645.478C291.991 631.295 277.017 613.245 265.839 592.455C252.493 565.99 241.526 538.172 233.092 509.391C195.995 391.798 170.189 301.946 175.809 211.827C180.404 138.492 221.215 52.8095 321.167 52.8095C361.245 52.8095 407.727 66.6534 459.193 93.9671C556.359 145.494 652.059 195.525 754.65 241.333C837.578 278.834 926.4 298.28 1016.14 298.579C1053.45 298.543 1090.69 295.254 1127.53 288.744C1156.85 283.399 1195.66 271.105 1236.72 257.956C1309.49 234.598 1391.95 208.086 1460.23 208.086C1506.07 208.086 1539.45 219.952 1562.23 244.326C1585.69 269.555 1594.39 303.122 1587.3 340.538C1580.71 375.977 1560.72 412.431 1529.58 445.838C1496.3 481.597 1451.38 512.117 1400.21 534.086C1345.68 557.106 1287.58 568.36 1229.14 567.226C1211.25 567.226 1194.05 566.477 1177.43 565.836C1161.74 565.355 1147.08 564.767 1132.41 564.767Z" fill="url(#paint19_linear_928_37)"/>
<path d="M747.073 749.067C758.566 748.986 770.025 747.679 781.286 745.166C794.328 742.286 807.141 738.283 819.605 733.192C869.899 713.202 932.02 672.632 1015.11 606.299C1055.92 573.694 1097.61 569.204 1136.57 569.204C1153.23 569.204 1170.34 570.166 1188.42 571.181C1207.98 572.304 1228.26 573.48 1249.57 573.48C1307.19 574.52 1364.4 562.849 1417.8 539.164C1516.97 495.12 1590.04 416.226 1603.97 338.401C1611.06 298.74 1601.92 264.05 1577.58 238.179C1554.12 213.218 1519.95 201.137 1473.18 201.137C1402.55 201.137 1318.04 228.879 1243.46 253.359C1203.09 266.615 1164.96 279.123 1136.71 284.254C1098.53 291.275 1059.89 294.851 1021.17 294.945C931.744 294.624 843.193 275.648 760.269 239.034C653.719 192.692 553.768 140.149 461.587 90.2793C408.801 61.7362 361 47.2509 319.455 47.2509C219.21 47.2509 174.244 130.475 165.544 208.407C155.231 301.091 177.421 399.014 213.931 517.463C222.347 546.813 233.552 575.119 247.363 601.916C259.006 623.207 274.771 641.451 293.551 655.367C308.428 667.071 326.205 673.558 344.529 673.968C353.462 673.926 362.334 672.357 370.824 669.318L384.216 664.507C404.304 657.345 421.655 651.091 438.224 647.136C458.507 642.036 479.241 639.383 500.053 639.225C510.288 639.2 520.513 639.968 530.649 641.523C575.224 648.419 605.821 673.167 635.146 697.166C667.845 723.892 698.734 749.067 747.073 749.067ZM1136.42 567.6C1099.08 567.6 1055.34 572.037 1014.23 605.016C931.141 671.242 869.361 711.491 819.263 731.696C806.809 736.752 794.014 740.737 780.993 743.615C769.861 746.107 758.533 747.396 747.171 747.464C699.321 747.464 668.627 722.395 636.124 695.883C606.798 671.777 576.104 646.868 530.796 639.813C520.591 638.285 510.303 637.517 500.004 637.514C479.095 637.669 458.264 640.321 437.882 645.425C421.216 649.434 403.669 655.688 383.678 662.904L370.335 667.661C361.996 670.697 353.269 672.266 344.48 672.311C326.446 671.884 308.957 665.472 294.333 653.924C275.725 640.161 260.107 622.096 248.585 601.007C234.828 574.307 223.656 546.11 215.251 516.875C178.838 398.587 156.599 300.878 166.961 208.46C175.563 131.223 220.139 48.7475 319.406 48.7475C360.707 48.7475 408.312 63.1259 460.854 91.5086C553.083 141.379 653.084 193.921 759.683 240.317C842.754 276.962 931.45 295.955 1021.02 296.281C1059.82 296.188 1098.55 292.612 1136.81 285.591C1165.16 280.245 1201.57 268.486 1243.7 254.642C1318.19 230.162 1402.65 202.474 1473.03 202.474C1519.41 202.474 1553.24 214.447 1576.4 239.034C1600.4 264.531 1609.35 298.74 1602.36 337.813C1588.57 415.21 1515.85 493.57 1417.12 537.454C1363.88 561.025 1306.85 572.641 1249.42 571.609C1228.16 571.609 1207.93 570.433 1188.38 569.364C1170.24 568.883 1153.14 567.6 1136.42 567.6Z" fill="url(#paint20_linear_928_37)"/>
<path d="M749.223 755.963C760.58 755.88 771.904 754.627 783.046 752.221C796.604 749.301 809.925 745.19 822.88 739.928C875.079 719.135 939.156 677.443 1024.64 608.811C1064.87 576.74 1106.41 572.09 1141.94 572.09C1160.42 572.09 1179.48 573.48 1199.67 574.923C1221.71 576.527 1244.53 578.184 1268.78 578.184C1325.81 578.962 1382.37 566.899 1434.96 542.745C1533.2 497.419 1605.53 416.226 1619.22 335.835C1626.21 294.891 1616.78 259.453 1592 233.262C1568.05 208.086 1533.34 195.846 1486.23 195.846C1413.45 195.846 1323.18 226.153 1250.64 250.473C1209.2 264.371 1173.42 276.397 1146.15 281.475C1106.45 288.981 1066.24 292.772 1025.96 292.807C936.679 292.454 848.239 273.929 765.157 238.179C651.373 190.073 543.943 132.506 463.053 87.8741C409.289 58.1552 360.413 43.0819 317.451 43.0819C271.508 43.0819 233.482 60.1329 204.449 93.7004C173.657 129.352 161.39 173.877 156.502 204.986C143.012 290.508 155.182 389.447 195.896 524.946C204.113 554.812 215.514 583.517 229.865 610.468C241.807 632.122 258.209 650.426 277.764 663.92C292.529 674.532 309.755 680.317 327.422 680.596C337.87 680.524 348.232 678.518 358.067 674.663L365.741 671.724C389.153 662.744 409.338 654.94 428.4 649.969C450.487 643.969 473.141 640.829 495.898 640.615C505.46 640.582 515.013 641.26 524.491 642.646C571.705 649.541 603.279 675.839 633.778 701.443C667.16 729.237 698.979 755.963 749.223 755.963ZM1141.75 570.38C1106.17 570.38 1064.33 574.816 1023.76 607.422C938.423 675.786 874.444 717.585 822.342 738.324C809.463 743.532 796.225 747.607 782.753 750.511C771.708 752.9 760.481 754.135 749.223 754.199C699.467 754.199 667.844 727.794 634.364 699.839C603.719 674.236 571.998 647.777 524.393 641.042C514.847 639.685 505.231 639.007 495.605 639.011C472.732 639.214 449.961 642.372 427.765 648.419C406.54 654.446 385.61 661.653 365.057 670.013L357.383 672.953C347.704 676.746 337.508 678.716 327.226 678.779C309.839 678.505 292.883 672.813 278.35 662.37C258.999 649.03 242.751 630.95 230.891 609.56C216.616 582.587 205.265 553.886 197.069 524.037C156.453 388.859 144.332 290.401 157.724 204.879C163.638 167.463 192.621 44.525 317.255 44.525C359.778 44.525 408.556 59.5449 462.222 89.157C543.113 133.789 650.591 191.249 764.424 239.516C847.68 275.327 936.301 293.887 1025.76 294.25C1066.13 294.187 1106.42 290.396 1146.2 282.918C1173.57 277.573 1209.39 265.76 1250.84 251.81C1323.27 227.543 1413.45 197.289 1486.03 197.289C1532.86 197.289 1567.12 209.369 1590.77 234.278C1615.21 260.041 1624.5 294.998 1617.61 335.408C1604.02 415.264 1531.98 495.762 1434.17 541.088C1381.81 565.156 1325.48 577.182 1268.68 576.42C1244.49 576.42 1221.71 574.763 1199.67 573.159C1179.33 571.77 1160.27 570.38 1141.75 570.38Z" fill="url(#paint21_linear_928_37)"/>
<path d="M751.179 762.537C762.416 762.487 773.625 761.288 784.659 758.956C798.677 756.023 812.456 751.858 825.862 746.502C879.332 725.122 947.417 681.078 1034.07 611.11C1065.65 585.613 1099.62 574.709 1147.71 574.709C1167.8 574.709 1188.52 576.527 1210.52 578.451C1234.96 580.536 1259.88 582.727 1286.67 582.727C1343.35 583.471 1399.52 570.969 1451.43 546.059C1498.84 523.908 1541.48 491.132 1576.6 449.847C1607.29 412.859 1627.68 371.38 1633.88 333.002C1640.73 290.776 1631 254.536 1605.78 228.131C1581.34 202.688 1546.35 190.287 1498.59 190.287C1423.62 190.287 1331.29 221.93 1257.1 247.373C1216.38 261.324 1181.24 273.35 1154.94 278.428C1113.76 286.471 1072 290.531 1030.16 290.562C940.985 290.188 852.612 272.076 769.36 237.11C678.011 199.374 580.943 151.161 463.933 85.3619C408.948 54.4135 358.752 38.7523 314.763 38.7523C268.575 38.7523 229.865 55.6963 199.611 89.05C167.401 124.595 153.129 169.762 146.824 201.298C128.642 292.165 138.613 400.404 177.226 532.109C185.377 562.452 196.969 591.559 211.732 618.753C223.979 640.777 241.023 659.141 261.341 672.205C275.884 681.786 292.507 686.935 309.484 687.118C321.522 687.006 333.442 684.525 344.675 679.795C368.663 669.334 393.135 660.253 417.99 652.588C441.818 645.626 466.348 641.945 491.011 641.63C499.964 641.633 508.909 642.24 517.795 643.448C567.306 650.29 600.004 678.138 631.627 705.077C666.427 734.582 699.174 762.537 751.179 762.537ZM1147.91 573.106C1099.52 573.106 1065.26 583.796 1033.39 609.827C946.683 679.688 878.892 723.892 825.519 745.273C812.212 750.61 798.531 754.757 784.61 757.673C773.653 759.959 762.528 761.14 751.374 761.201C699.761 761.201 667.16 733.46 632.703 704.062C600.884 676.962 568.039 648.953 518.137 642.058C509.185 640.87 500.175 640.281 491.157 640.294C466.393 640.574 441.76 644.274 417.843 651.305C392.98 658.942 368.507 668.024 344.529 678.512C333.464 683.16 321.728 685.604 309.876 685.728C293.157 685.532 276.79 680.457 262.466 671.029C242.388 658.155 225.518 640.073 213.345 618.379C198.741 591.251 187.25 562.258 179.132 532.055C140.617 400.618 130.695 292.646 148.78 202.046C168.965 101.023 231.185 40.6765 315.301 40.6765C359.289 40.6765 408.996 56.2843 463.787 87.0724C581.09 152.924 677.962 201.191 769.36 238.928C852.778 273.909 941.314 292.021 1030.65 292.379C1072.47 292.304 1114.21 288.244 1155.38 280.246C1181.78 274.901 1216.97 263.034 1257.73 249.084C1331.83 223.694 1423.91 192.104 1498.79 192.104C1546.15 192.104 1580.85 204.345 1604.95 229.52C1629.83 255.551 1639.41 291.31 1632.66 332.949C1619.46 414.088 1546.49 499.236 1451.04 544.83C1399.31 569.636 1343.34 582.083 1286.86 581.337C1260.13 581.337 1235.05 579.146 1210.81 577.061C1188.82 574.923 1168.04 573.106 1147.91 573.106Z" fill="url(#paint22_linear_928_37)"/>
<path d="M753.427 769.326C764.595 769.26 775.734 768.097 786.712 765.852C801.179 762.887 815.401 758.633 829.234 753.131C884.611 731.429 954.846 685.728 1043.9 613.516C1074.69 588.5 1108.85 577.329 1154.7 577.329C1176.21 577.329 1198.69 579.627 1222.05 582.033C1248.35 584.759 1275.47 587.378 1304.65 587.378C1361.21 588.098 1417.21 575.119 1468.63 549.374C1563.7 502.39 1636.28 414.302 1649.23 330.223C1655.93 286.821 1645.91 249.779 1620.2 223.321C1595.37 197.61 1559.88 185.103 1511.69 185.103C1434.47 185.103 1340.09 218.136 1264.23 244.648C1224.25 258.652 1189.74 270.732 1164.43 275.756C1121.73 284.343 1078.41 288.673 1035 288.692C945.947 288.256 857.666 270.575 774.248 236.47C679.819 198.412 581.676 149.718 465.448 83.171C409.338 51.1001 357.921 34.744 312.662 34.744C266.229 34.744 226.786 51.5811 195.359 84.7744C168.77 112.836 148.877 152.07 137.782 198.198C114.713 294.411 121.947 409.438 159.239 539.86C167.209 570.69 178.895 600.222 193.99 627.68C206.654 649.909 224.347 668.19 245.359 680.757C259.574 689.367 275.542 693.926 291.791 694.013C305.496 693.85 319.047 690.839 331.723 685.14C356.583 673.714 382.005 663.81 407.872 655.475C433.309 647.491 459.612 643.284 486.074 642.967C494.535 642.957 502.989 643.492 511.392 644.571C563.152 651.252 597.023 680.704 629.77 709.14C665.645 739.928 699.37 769.273 753.427 769.326ZM1154.7 575.779C1108.51 575.779 1074.1 587.004 1043.02 612.233C954.113 684.339 884.024 729.826 828.745 751.634C814.987 757.093 800.848 761.33 786.467 764.302C775.567 766.503 764.511 767.648 753.427 767.723C699.663 767.723 666.378 738.592 630.894 707.75C597.952 679.154 563.934 649.542 511.783 642.807C503.315 641.729 494.795 641.194 486.27 641.203C459.693 641.543 433.278 645.767 407.726 653.764C381.793 662.116 356.306 672.038 331.381 683.483C318.898 689.126 305.542 692.102 292.036 692.249C276.029 692.15 260.301 687.666 246.288 679.207C225.462 666.789 207.946 648.664 195.456 626.611C180.364 599.29 168.646 569.903 160.607 539.218C123.413 409.064 116.228 294.411 139.2 198.412C150.93 149.664 191.204 36.1871 312.662 36.1872C357.677 36.1872 408.899 52.2226 464.764 84.2934C581.041 150.84 679.233 199.588 773.759 237.645C857.334 271.813 945.78 289.529 1035 289.974C1078.51 289.927 1121.92 285.598 1164.72 277.039C1190.09 271.694 1224.64 259.881 1264.67 245.877C1340.43 219.151 1434.66 186.386 1511.69 186.386C1559.49 186.386 1594.78 198.733 1619.22 224.176C1644.54 250.42 1654.41 286.981 1647.81 329.849C1634.91 413.447 1562.67 500.894 1468 547.877C1416.77 573.511 1360.99 586.452 1304.65 585.774C1275.57 585.774 1248.45 582.995 1222.2 580.429C1198.59 578.024 1176.4 575.779 1154.7 575.779Z" fill="url(#paint23_linear_928_37)"/>
<path d="M755.479 776.061C766.575 775.999 777.646 774.891 788.568 772.747C803.53 769.76 818.242 765.434 832.556 759.811C889.937 737.469 962.274 690.325 1053.67 615.92C1084.17 591.012 1117.6 579.948 1162.08 579.948C1186.02 580.479 1209.92 582.388 1233.68 585.667C1263.02 589.636 1292.54 591.866 1322.1 592.348C1378.63 592.904 1434.54 579.396 1485.59 552.848C1579.87 504.742 1651.77 413.874 1664.43 327.39C1670.98 282.758 1660.62 244.968 1634.47 218.028C1609.2 192.104 1573.28 179.49 1524.55 179.49C1445.07 179.49 1348.59 213.859 1271.12 241.547C1232.02 255.498 1198.05 267.578 1173.76 272.656C1129.51 281.804 1084.58 286.439 1039.55 286.499C950.603 286.013 862.404 268.725 778.841 235.4C683.044 197.984 580.942 147.259 466.669 80.3909C409.386 47.0373 356.747 30.0931 310.265 30.0931C187.342 30.0931 142.229 144.96 128.544 194.349C100.538 295.319 104.839 417.242 141.007 547.128C149.032 578.414 160.99 608.33 176.54 636.018C189.521 658.605 207.867 676.914 229.619 688.988C243.435 696.653 258.703 700.663 274.195 700.694C289.622 700.441 304.846 696.806 318.965 690.004C344.734 677.643 371.139 666.934 398.047 657.933C425.099 648.979 453.168 644.228 481.43 643.822C489.382 643.795 497.328 644.259 505.232 645.212C558.996 651.84 594.285 682.628 628.156 712.774C664.862 745.273 699.515 776.061 755.479 776.061ZM1161.74 578.344C1116.92 578.344 1083.19 589.515 1052.45 614.638C961.345 689.042 889.155 736.026 831.921 758.315C817.736 763.894 803.154 768.185 788.323 771.143C777.488 773.327 766.496 774.454 755.479 774.511C700.004 774.511 665.595 743.99 629.085 711.705C594.872 681.612 559.876 650.45 505.477 643.769C497.505 642.844 489.495 642.38 481.479 642.379C453.082 642.796 424.881 647.582 397.705 656.597C370.739 665.565 344.283 676.274 318.476 688.668C304.511 695.313 289.472 698.839 274.243 699.037C258.961 699.02 243.895 695.084 230.255 687.545C208.722 675.569 190.563 657.428 177.713 635.056C162.22 607.515 150.325 577.739 142.376 546.594C106.305 417.242 102.004 295.64 129.912 194.991C143.5 145.922 188.271 31.857 310.217 31.857C356.551 31.8571 408.995 48.6942 466.034 81.941C580.355 148.595 682.555 199.213 778.402 236.95C862.1 270.348 950.452 287.654 1039.55 288.103C1084.61 288.076 1129.58 283.459 1173.86 274.313C1198.3 269.288 1232.17 257.155 1271.61 243.15C1348.98 215.516 1445.32 181.147 1524.55 181.147C1572.88 181.147 1608.47 193.655 1633.49 219.311C1659.25 246.037 1669.41 283.453 1662.82 327.229C1650.21 413.34 1578.7 503.619 1484.86 551.725C1433.93 578.146 1378.17 591.562 1321.81 590.959C1292.29 590.503 1262.83 588.272 1233.54 584.277C1209.72 580.925 1185.75 578.944 1161.74 578.344Z" fill="url(#paint24_linear_928_37)"/>
<path d="M757.533 782.689C768.545 782.64 779.533 781.567 790.378 779.482C805.747 776.583 820.87 772.292 835.589 766.654C895.267 743.509 969.705 695.029 1063.16 618.486C1093.36 593.738 1126.21 582.727 1169.51 582.727C1194.71 583.308 1219.86 585.503 1244.83 589.302C1275.95 594.045 1307.3 596.705 1338.72 597.266C1395.44 597.814 1451.49 583.809 1502.36 556.376C1548.98 531.74 1590.16 496.323 1623.03 452.573C1653.58 411.63 1673.62 366.196 1679.39 324.664C1685.69 278.856 1675.04 240.264 1648.5 213.165C1623.13 187.294 1585.69 174.198 1537.21 174.198C1455.39 174.198 1356.9 210.011 1277.77 238.821C1239.35 252.825 1206.17 264.852 1182.81 269.876C1137.21 279.548 1090.88 284.434 1044.44 284.469C955.589 283.95 867.454 267.073 783.731 234.545C685.637 197.129 582.41 145.976 468.186 78.2532C409.828 43.6701 355.771 26.0846 307.921 26.0846C263.138 25.2176 219.706 42.8762 186.317 75.5271C157.432 103.589 134.313 143.624 119.455 191.196C87.0499 294.838 88.3208 427.291 122.925 554.665C130.837 586.437 142.974 616.764 158.947 644.677C172.26 667.541 191.176 685.858 213.541 697.541C241.939 711.812 273.317 711.118 305.869 695.51C332.558 682.204 359.943 670.638 387.883 660.873C416.495 650.932 446.282 645.619 476.3 645.105C483.81 645.098 491.315 645.526 498.783 646.388C554.991 652.856 591.159 685.407 626.154 716.89C664.033 750.618 699.615 782.689 757.533 782.689ZM1169.51 580.91C1125.86 580.91 1092.78 592.028 1062.28 617.043C968.923 693.425 894.631 741.852 835.1 764.943C820.474 770.68 805.432 775.061 790.134 778.039C779.37 780.121 768.464 781.194 757.533 781.246C700.153 781.246 664.669 749.175 627.279 715.661C592.185 684.018 555.87 651.519 499.174 644.784C491.657 643.921 484.103 643.493 476.544 643.502C446.366 644.051 416.427 649.454 387.687 659.537C359.681 669.263 332.243 680.848 305.526 694.227C273.366 709.674 242.427 710.262 214.372 696.258C192.143 684.725 173.339 666.569 160.12 643.876C144.193 616.116 132.12 585.926 124.294 554.291C89.738 427.291 88.4674 295.212 120.775 191.891C153.375 87.6606 221.557 27.8485 307.873 27.8485C355.576 27.8485 409.291 45.327 467.453 79.8566C581.726 147.58 685.05 198.733 783.194 236.202C867.097 268.748 955.413 285.607 1044.44 286.072C1091.08 286.068 1137.61 281.163 1183.39 271.427C1206.85 266.402 1240.04 254.322 1278.5 240.318C1357.54 211.561 1455.93 175.802 1537.55 175.802C1585.64 175.802 1622.79 188.737 1647.81 214.34C1674.01 241.066 1684.52 279.124 1678.26 324.397C1666.19 411.63 1593.71 506.452 1502.06 554.933C1451.35 582.244 1395.49 596.175 1338.96 595.609C1307.6 595.044 1276.29 592.384 1245.22 587.645C1220.13 583.78 1194.85 581.531 1169.51 580.91Z" fill="url(#paint25_linear_928_37)"/>
<path d="M759.536 789.637C770.496 789.599 781.433 788.562 792.235 786.537C808.055 783.468 823.617 778.981 838.765 773.121C900.349 749.388 976.889 699.572 1072.78 620.677C1102.79 596.036 1135.05 584.918 1177.43 584.918C1203.98 585.665 1230.46 588.307 1256.7 592.829C1289.46 598.387 1322.53 601.494 1355.68 602.13C1412.64 602.632 1468.86 588.071 1519.56 559.689C1610.96 509.712 1683 411.843 1694.78 321.67C1700.94 274.687 1689.89 235.4 1662.96 208.033C1637.21 181.949 1599.42 168.693 1550.3 168.693C1466.19 168.693 1365.65 206.109 1284.86 235.934C1247.22 249.885 1214.77 261.912 1192.34 266.883C1145.17 277.187 1097.18 282.379 1049.08 282.384C960.317 281.818 872.243 265.314 788.373 233.529C688.177 196.113 583.875 144.746 469.505 75.794C409.925 39.8746 354.744 21.7012 305.427 21.7012C260.02 20.9439 215.941 38.4641 181.575 70.9298C151.614 98.9918 126.932 139.401 110.216 187.668C90.6039 246.533 80.6754 308.73 80.8901 371.38C80.4965 435.828 88.5788 500.002 104.889 561.934C112.706 594.108 125.039 624.762 141.448 652.802C155.164 676.1 174.848 694.467 198.046 705.612C227.372 719.081 259.582 717.317 293.404 700.266C320.952 685.937 349.309 673.546 378.302 663.171C408.449 652.222 439.943 646.346 471.704 645.746C478.889 645.746 486.025 646.12 492.916 646.868C551.568 653.229 588.665 687.331 624.882 720.364C663.201 756.23 699.712 789.637 759.536 789.637ZM1177.43 583.422C1134.71 583.422 1102.16 594.54 1071.9 619.395C976.107 698.182 899.713 747.678 838.276 771.624C823.21 777.45 807.728 781.901 791.99 784.933C781.27 786.958 770.415 787.995 759.536 788.034C700.25 788.034 663.935 754.787 625.469 719.616C589.252 686.476 551.764 652.16 492.868 645.746C485.927 644.998 478.743 644.624 471.509 644.624C439.594 645.208 407.949 651.12 377.667 662.156C348.617 672.524 320.209 684.933 292.622 699.304C259.142 716.088 227.128 717.852 198.389 704.649C175.466 693.624 156.019 675.461 142.474 652.427C126.107 624.39 113.838 593.733 106.11 561.56C72.5324 434.773 74.5364 295.265 111.585 188.309C132.895 126.733 186.414 23.6788 305.427 23.6788C354.304 23.6789 409.485 41.7989 468.772 77.5579C583.24 146.564 687.64 198.198 787.934 235.4C871.943 267.25 960.166 283.79 1049.08 284.361C1097.28 284.365 1145.36 279.155 1192.63 268.807C1215.16 263.836 1247.66 251.809 1285.49 237.859C1366.19 207.926 1466.63 170.67 1550.5 170.67C1599.13 170.67 1636.67 183.766 1662.18 209.583C1688.77 236.576 1699.62 275.382 1693.56 321.831C1681.83 411.576 1610.08 508.911 1519.12 558.727C1468.54 586.99 1412.47 601.476 1355.68 600.954C1322.58 600.27 1289.56 597.145 1256.85 591.6C1230.57 586.984 1204.04 584.252 1177.43 583.422Z" fill="url(#paint26_linear_928_37)"/>
<path d="M761.492 796.479C772.415 796.409 783.316 795.39 794.092 793.432C810.364 790.341 826.369 785.763 841.942 779.749C905.481 755.535 984.074 704.276 1082.41 623.083C1111.74 598.816 1144.58 587.538 1185.59 587.538C1213.35 588.386 1241.02 591.405 1268.39 596.571C1302.7 602.962 1337.4 606.535 1372.2 607.261C1429.46 607.801 1485.94 592.776 1536.57 563.538C1582.71 537.122 1622.96 499.911 1654.46 454.551C1684.91 410.828 1704.66 362.721 1710.03 319.052C1715.95 270.945 1704.61 230.964 1677.24 203.436C1651.04 177.031 1612.67 163.668 1563.21 163.668C1476.7 163.668 1369.71 204.078 1291.6 233.636C1254.9 247.48 1223.18 259.507 1201.62 264.371C1153.11 275.128 1103.71 280.447 1054.21 280.246C965.367 279.583 877.184 263.471 792.968 232.514C689.839 195.098 584.413 142.983 470.678 73.282C409.974 36.1333 353.376 17.265 302.74 17.265C181.918 17.265 124.391 121.816 100.832 184.194C78.855 244.79 66.8261 309.152 65.2992 374.32C63.1952 440.171 70.3326 505.985 86.4627 569.471C94.2244 602.191 106.733 633.339 123.511 661.728C137.617 685.37 157.973 703.753 181.869 714.431C194.099 719.643 207.111 722.308 220.237 722.289C241.085 721.892 261.59 716.414 280.257 706.253C308.76 690.963 338.149 677.732 368.234 666.646C399.865 654.696 433.016 648.257 466.475 647.564C473.269 647.564 480.014 647.884 486.563 648.579C547.267 654.78 585.684 690.485 622.83 725.015C662.322 761.629 699.81 796.426 761.492 796.479ZM1185.59 585.934C1144.24 585.934 1111.2 597.319 1081.53 621.8C983.341 702.886 904.797 754.039 841.453 778.252C825.97 784.263 810.043 788.806 793.848 791.829C783.157 793.812 772.335 794.831 761.492 794.876C700.348 794.876 663.055 760.239 623.612 723.571C586.32 688.882 547.707 653.016 486.759 646.762C480.16 646.067 473.367 645.746 466.524 645.746C432.838 646.453 399.467 652.983 367.648 665.096C337.555 676.183 308.166 689.432 279.67 704.757C244.871 722.823 211.781 725.656 182.456 713.095C158.834 702.539 138.715 684.359 124.782 660.98C108.02 632.665 95.5736 601.561 87.9289 568.883C54.6931 440.6 60.1184 296.762 102.592 184.835C126.004 122.885 183.14 19.1358 302.984 19.1358C353.473 19.1358 409.73 37.8973 470.239 74.9925C584.022 144.479 689.497 196.808 792.822 234.331C877.098 265.246 965.322 281.357 1054.21 282.063C1103.78 282.103 1153.22 276.605 1201.77 265.654C1223.37 260.736 1255.14 248.763 1291.95 234.866C1370.15 205.36 1476.79 165.005 1563.06 165.005C1611.94 165.005 1650.21 178.207 1676.11 204.345C1703.09 231.498 1714.28 270.999 1708.42 318.571C1697.08 410.774 1626.06 510.995 1535.74 561.828C1485.36 591.064 1429.13 606.144 1372.1 605.711C1337.37 604.955 1302.73 601.382 1268.48 595.021C1241.09 589.84 1213.38 586.804 1185.59 585.934Z" fill="url(#paint27_linear_928_37)"/>
<path d="M763.544 803.268C774.401 803.213 785.237 802.213 795.948 800.274C812.67 797.205 829.12 792.573 845.118 786.43C911.199 761.362 991.747 708.712 1092.04 625.488C1121.37 601.382 1153.67 590.103 1193.95 590.103C1221.32 590.103 1249.86 595.074 1280.12 600.313C1314.33 606.299 1349.86 612.446 1388.43 612.446C1446.11 612.835 1502.93 597.085 1553.48 566.692C1642.19 514.951 1714.38 409.384 1725.18 315.47C1730.85 266.295 1719.17 225.619 1691.46 197.877C1664.82 171.152 1625.96 157.735 1576.01 157.735C1487.06 157.735 1377.97 199.748 1298.3 230.429C1262.47 244.22 1231.48 256.139 1210.91 260.95C1161 272.595 1110.12 278.489 1059.1 278.535C970.334 277.899 882.194 262.249 797.806 232.14C694.579 195.686 584.999 141.593 472.193 71.4113C410.316 32.9263 352.495 13.3632 300.295 13.3632C209.923 13.3631 135.876 73.0148 91.7897 181.254C44.8685 296.495 35.875 448.243 68.3288 577.222C76.0217 610.386 88.7606 641.898 106.012 670.441C120.484 694.441 141.502 712.844 166.081 723.037C177.69 727.558 189.926 729.854 202.25 729.825C224.946 729.165 247.202 722.82 267.304 711.278C296.657 695.076 326.962 681.023 358.018 669.211C390.981 656.266 425.643 649.245 460.658 648.419C467.159 648.419 473.61 648.74 479.817 649.328C542.819 655.314 582.457 692.623 620.63 728.703C661.539 767.027 699.956 803.268 763.544 803.268ZM1193.95 588.553C1153.33 588.553 1120.63 599.885 1091.31 624.205C991.356 707.376 910.71 759.918 844.825 784.934C828.922 791.047 812.57 795.66 795.948 798.724C785.315 800.621 774.562 801.604 763.788 801.664C700.738 801.664 662.517 765.638 622.047 727.473C583.631 691.233 543.845 653.764 480.306 647.777C474.05 647.136 467.55 646.815 460.756 646.815C425.508 647.629 390.614 654.687 357.432 667.715C326.314 679.528 295.958 693.617 266.571 709.888C246.584 721.263 224.481 727.48 201.956 728.061C189.8 728.099 177.729 725.839 166.277 721.38C141.991 711.296 121.229 693.098 106.941 669.372C89.7795 640.951 77.1376 609.559 69.5507 576.527C37.1458 447.869 46.1391 296.548 92.9137 181.628C136.902 73.977 210.217 14.6994 300.1 14.6994C352.006 14.6994 409.631 34.1557 471.167 72.5338C584.071 142.769 693.749 196.915 797.073 233.369C881.67 263.73 970.064 279.544 1059.1 280.246C1110.25 280.303 1161.26 274.481 1211.3 262.874C1231.97 258.064 1262.96 246.09 1298.88 232.3C1378.46 201.672 1487.4 159.713 1576.11 159.713C1625.72 159.713 1664.09 173.076 1690.58 199.427C1717.95 226.848 1729.44 267.043 1723.86 315.631C1713.11 408.85 1641.21 513.882 1552.8 565.356C1502.46 595.657 1445.88 611.371 1388.43 611.003C1349.96 611.003 1314.57 604.803 1280.31 598.87C1250.06 593.524 1221.46 588.553 1193.95 588.553Z" fill="url(#paint28_linear_928_37)"/>
<path d="M765.5 810.055C776.321 810.012 787.123 809.047 797.807 807.169C814.975 804.058 831.868 799.337 848.296 793.058C916.038 767.562 998.932 713.522 1101.67 627.893C1131 603.787 1162.77 592.562 1202.45 592.562C1230.9 592.562 1260.52 597.907 1291.95 604C1327.63 610.682 1364.53 617.631 1404.75 617.631C1462.84 617.734 1519.96 601.362 1570.54 570.112C1658.52 517.035 1730.12 408.743 1740.48 312.637C1745.86 262.393 1733.88 221.075 1705.78 193.12C1678.7 166.394 1639.41 152.604 1588.97 152.604C1497.57 152.604 1386.28 196.22 1305.04 228.077C1270.1 241.76 1239.94 253.52 1220.39 258.33C1169.01 270.591 1116.57 276.738 1063.99 276.664C975.314 275.903 887.256 260.496 802.792 230.963C698.051 195.097 587.395 140.523 473.758 68.7383C410.756 28.917 351.567 8.71238 297.803 8.71238C250.546 8.25561 204.555 25.4107 167.402 57.3531C133.482 86.0565 104.987 126.519 82.7482 177.565C31.3304 295.586 18.6225 455.512 50.2943 584.384C57.8405 618.084 70.7449 650.071 88.4179 678.886C103.213 703.195 124.824 721.596 150.002 731.321C160.949 735.251 172.401 737.236 183.922 737.201C208.585 736.465 232.745 729.397 254.45 716.569C284.675 699.373 315.949 684.478 348.048 671.99C388.225 656.864 423.415 649.487 455.576 649.487C461.685 649.487 467.795 649.808 473.66 650.343C538.861 656.169 579.526 695.028 618.822 732.604C660.611 772.426 699.957 810.055 765.5 810.055ZM1202.45 590.905C1162.42 590.905 1130.17 602.237 1100.79 626.557C998.15 712.079 915.452 766.065 847.856 791.508C831.493 797.769 814.666 802.472 797.562 805.565C786.956 807.402 776.238 808.349 765.5 808.398C700.494 808.398 661.345 770.982 619.947 731.375C580.455 693.638 539.594 654.565 473.953 648.686C467.991 648.151 461.881 647.884 455.722 647.884C423.269 647.884 387.931 655.26 347.608 670.44C315.455 682.976 284.118 697.888 253.815 715.072C232.325 727.795 208.399 734.808 183.971 735.544C172.602 735.561 161.303 733.613 150.491 729.771C125.541 720.154 104.119 701.941 89.4442 677.87C71.8745 649.221 59.0524 617.413 51.5651 583.903C19.9912 455.138 32.65 295.907 83.9211 178.207C131.087 69.9142 206.992 10.2625 297.657 10.2625C351.079 10.2625 410.072 30.4136 472.829 70.0745C586.515 141.913 697.269 196.541 802.108 232.46C886.719 262.015 974.923 277.44 1063.74 278.214C1116.41 278.286 1168.93 272.14 1220.39 259.88C1240.19 255.123 1270.39 243.257 1305.39 229.574C1386.52 197.503 1497.67 154.207 1588.87 154.207C1638.92 154.207 1677.92 167.73 1704.7 194.296C1732.42 221.93 1744.29 262.767 1738.92 312.477C1728.7 408.101 1657.59 515.859 1569.81 568.883C1519.46 600.012 1462.59 616.312 1404.75 616.187C1364.62 616.187 1327.82 609.292 1292.34 602.611C1260.71 596.517 1231 590.958 1202.45 590.958L1202.45 590.905Z" fill="url(#paint29_linear_928_37)"/>
<path d="M767.406 816.898C778.193 816.853 788.961 815.906 799.616 814.065C817.251 810.957 834.604 806.164 851.473 799.74C920.927 773.816 1005.92 718.387 1111.35 630.299C1140.28 606.193 1171.95 594.968 1211.1 594.968C1240.43 594.968 1271.32 601.115 1303.97 607.689C1341.02 615.172 1379.29 622.869 1421.27 622.869C1479.82 622.916 1537.32 605.886 1587.84 573.534C1633.1 544.175 1671.89 504.261 1701.43 456.636C1731.73 408.529 1751.04 356.254 1755.73 309.484C1760.86 258.224 1748.5 216.265 1720 188.149C1692.54 160.996 1652.75 147.206 1601.82 147.206C1507.93 147.206 1394.49 192.479 1311.69 225.512C1277.72 239.088 1248.15 250.794 1229.53 255.445C1176.68 268.461 1122.66 274.987 1068.48 274.901C979.869 274.059 891.848 258.986 807.24 230.162C700.153 194.563 588.324 139.295 474.882 66.4405C410.561 25.3898 350.004 4.54375 294.871 4.54374C247.005 4.14764 200.376 21.1644 162.319 52.9172C127.226 81.7275 97.3137 122.404 73.4132 174.252C17.6943 294.731 1.07625 462.515 32.0148 591.868C39.43 626.047 52.4996 658.455 70.5783 687.492C88.2226 714.218 109.679 731.75 134.117 739.821C144.41 743.182 155.097 744.874 165.838 744.845C189.347 744.845 214.714 737.148 241.547 721.861C272.684 703.744 304.939 688.027 338.078 674.824C380.111 658.789 416.866 650.664 450.493 650.664C456.26 650.664 462.028 650.664 467.649 651.359C535 657.132 576.74 697.541 617.112 736.614C659.683 777.878 699.957 816.898 767.406 816.898ZM1211.1 593.364C1171.61 593.364 1139.65 604.696 1110.42 629.016C1005.34 716.997 920.291 772.319 851.033 798.243C834.237 804.618 816.968 809.393 799.42 812.515C788.827 814.308 778.126 815.237 767.406 815.294C700.495 815.294 660.416 776.489 617.992 735.117C577.425 695.83 535.489 655.261 467.649 649.595C462.028 649.114 456.212 648.847 450.395 648.847C416.671 648.847 379.769 656.758 337.589 673.114C304.393 686.33 272.087 702.084 240.912 720.258C214.372 735.384 189.103 743.028 165.838 743.028C155.247 743.066 144.709 741.41 134.557 738.111C110.119 730.093 89.249 712.668 71.7513 686.316C53.7739 657.465 40.7863 625.254 33.4324 591.28C2.54268 462.248 19.1606 294.892 74.6841 174.733C110.315 97.7095 177.324 5.93344 294.627 5.93345C349.515 5.93345 409.828 26.6726 473.905 67.6164C587.444 140.738 699.371 195.9 806.556 231.445C891.307 260.313 979.476 275.405 1068.24 276.237C1122.49 276.329 1176.59 269.821 1229.53 256.834C1248.4 252.131 1277.82 240.425 1311.84 226.848C1394.54 193.869 1507.83 148.649 1601.48 148.649C1652.07 148.649 1691.51 162.279 1718.78 189.165C1746.93 216.96 1759.1 258.652 1754.02 309.11C1744.25 407.193 1673.77 517.57 1586.52 571.984C1536.27 604.245 1479.06 621.258 1420.78 621.266C1379.14 621.266 1340.92 613.569 1303.97 606.139C1271.52 599.565 1240.72 593.364 1211.1 593.364Z" fill="url(#paint30_linear_928_37)"/>
<path d="M769.312 823.686C798.45 823.077 827.298 817.226 854.698 806.367C925.764 780.016 1012.86 723.197 1120.98 632.704C1149.22 608.767 1184.18 596.264 1219.9 597.319C1250.35 597.319 1282.12 604.161 1315.8 611.43C1354.12 619.662 1394 628.161 1437.01 628.161C1496.05 628.169 1553.97 610.476 1604.46 577.008C1690.24 521.953 1761.79 405.536 1770.98 306.169C1775.87 254.001 1763.11 211.454 1734.27 183.231C1706.37 155.864 1666.14 141.967 1614.67 141.967C1518.24 141.967 1402.7 188.844 1318.29 223.106C1284.08 237.057 1256.75 248.068 1238.82 252.665C1184.52 266.395 1128.96 273.264 1073.22 273.136C890.231 273.136 689.35 202.794 476.25 64.1415C410.805 21.3804 349.172 -0.000124388 292.182 -0.00012937C179.181 -0.000139249 110.411 84.0254 72.5813 154.474C26.4422 240.478 0.000335178 354.97 0.000325249 468.555C0.000318412 546.754 13.0991 617.47 36.9506 667.714C63.246 723.25 101.565 752.595 147.655 752.595C172.582 752.595 199.806 744.043 228.643 727.206C315.447 676.427 386.22 651.786 445.018 651.786C524.344 651.786 570.434 696.952 615.009 740.622C658.705 783.276 699.908 823.686 769.312 823.686ZM1219.9 595.609C1183.87 594.526 1148.6 607.123 1120.1 631.261C1012.13 721.647 925.129 778.359 854.21 804.71C826.968 815.513 798.284 821.328 769.312 821.922C700.494 821.922 659.438 781.726 615.987 739.179C571.216 695.295 524.882 649.915 444.92 649.915C385.878 649.915 314.861 674.663 227.861 725.495C199.268 742.226 172.24 750.724 147.558 750.724C102.005 750.724 64.1746 721.7 38.1236 666.699C14.4186 616.668 1.36897 546.219 1.36898 468.287C1.36899 354.97 27.7132 240.798 73.7546 155.009C111.34 84.8806 179.767 1.33615 292.084 1.33616C348.536 1.33616 410.218 22.7167 475.37 65.4778C688.764 204.451 889.889 274.687 1073.13 274.687C1128.97 274.838 1184.65 267.969 1239.06 254.215C1257.1 249.618 1284.27 238.553 1318.73 224.603C1402.99 190.394 1518.39 143.517 1614.58 143.517C1665.65 143.517 1705.58 157.307 1733.2 184.407C1761.65 212.362 1774.21 254.482 1769.42 306.116C1760.33 405.001 1689.01 520.937 1603.63 575.725C1553.35 609.041 1495.7 626.658 1436.91 626.664C1393.8 626.664 1354.21 618.165 1315.99 609.934C1282.36 602.611 1250.5 595.609 1219.9 595.609Z" fill="url(#paint31_linear_928_37)"/>
</g>
<defs>
<linearGradient id="paint0_linear_928_37" x1="1305.24" y1="345.582" x2="280.249" y2="382.243" gradientUnits="userSpaceOnUse">
<stop stop-color="#00BCE2"/>
<stop offset="0.08" stop-color="#279EE7"/>
<stop offset="0.25" stop-color="#7364F1"/>
<stop offset="0.39" stop-color="#AA3AF9"/>
<stop offset="0.5" stop-color="#CC20FD"/>
<stop offset="0.55" stop-color="#D916FF"/>
<stop offset="0.98" stop-color="#7300FF"/>
</linearGradient>
<linearGradient id="paint1_linear_928_37" x1="1320.32" y1="344.616" x2="277.792" y2="381.904" gradientUnits="userSpaceOnUse">
<stop stop-color="#06B7E3"/>
<stop offset="0.02" stop-color="#0EB0E4"/>
<stop offset="0.2" stop-color="#5F71EF"/>
<stop offset="0.35" stop-color="#9A43F6"/>
<stop offset="0.47" stop-color="#BE27FB"/>
<stop offset="0.52" stop-color="#CC1CFD"/>
<stop offset="0.55" stop-color="#D218FE"/>
<stop offset="0.94" stop-color="#7A07FD"/>
<stop offset="0.98" stop-color="#6F05FD"/>
</linearGradient>
<linearGradient id="paint2_linear_928_37" x1="1335.41" y1="343.863" x2="275.243" y2="381.782" gradientUnits="userSpaceOnUse">
<stop stop-color="#0DB1E4"/>
<stop offset="0.17" stop-color="#517BED"/>
<stop offset="0.34" stop-color="#8F49F5"/>
<stop offset="0.46" stop-color="#B62AFA"/>
<stop offset="0.52" stop-color="#C51EFC"/>
<stop offset="0.55" stop-color="#CB1BFD"/>
<stop offset="0.94" stop-color="#760CFB"/>
<stop offset="0.98" stop-color="#6C0AFB"/>
</linearGradient>
<linearGradient id="paint3_linear_928_37" x1="1350.51" y1="343.432" x2="272.561" y2="381.987" gradientUnits="userSpaceOnUse">
<stop stop-color="#13ACE5"/>
<stop offset="0.12" stop-color="#4286EB"/>
<stop offset="0.31" stop-color="#8550F4"/>
<stop offset="0.45" stop-color="#AF2EF9"/>
<stop offset="0.52" stop-color="#BF21FB"/>
<stop offset="0.55" stop-color="#C41DFC"/>
<stop offset="0.94" stop-color="#7211FA"/>
<stop offset="0.98" stop-color="#680FFA"/>
</linearGradient>
<linearGradient id="paint4_linear_928_37" x1="1365.52" y1="343.325" x2="269.744" y2="382.518" gradientUnits="userSpaceOnUse">
<stop stop-color="#19A7E6"/>
<stop offset="0.07" stop-color="#3094E9"/>
<stop offset="0.29" stop-color="#7957F2"/>
<stop offset="0.45" stop-color="#A632F8"/>
<stop offset="0.52" stop-color="#B823FA"/>
<stop offset="0.55" stop-color="#BD20FB"/>
<stop offset="0.94" stop-color="#6E16F8"/>
<stop offset="0.98" stop-color="#6415F8"/>
</linearGradient>
<linearGradient id="paint5_linear_928_37" x1="1380.59" y1="343.376" x2="266.589" y2="383.22" gradientUnits="userSpaceOnUse">
<stop stop-color="#20A1E7"/>
<stop offset="0.25" stop-color="#6C60F0"/>
<stop offset="0.43" stop-color="#9E35F7"/>
<stop offset="0.52" stop-color="#B125F9"/>
<stop offset="0.55" stop-color="#B622FA"/>
<stop offset="0.94" stop-color="#6A1BF6"/>
<stop offset="0.98" stop-color="#601AF6"/>
</linearGradient>
<linearGradient id="paint6_linear_928_37" x1="1395.71" y1="343.584" x2="263.295" y2="384.088" gradientUnits="userSpaceOnUse">
<stop stop-color="#269CE8"/>
<stop offset="0.2" stop-color="#5E6AEF"/>
<stop offset="0.42" stop-color="#953AF6"/>
<stop offset="0.52" stop-color="#AA27F9"/>
<stop offset="0.55" stop-color="#AF25F9"/>
<stop offset="0.94" stop-color="#6621F4"/>
<stop offset="0.98" stop-color="#5D1FF4"/>
</linearGradient>
<linearGradient id="paint7_linear_928_37" x1="1410.84" y1="343.901" x2="259.611" y2="385.077" gradientUnits="userSpaceOnUse">
<stop stop-color="#2C97E9"/>
<stop offset="0.14" stop-color="#4E77ED"/>
<stop offset="0.4" stop-color="#8B3FF5"/>
<stop offset="0.52" stop-color="#A329F8"/>
<stop offset="0.55" stop-color="#A827F8"/>
<stop offset="0.94" stop-color="#6226F2"/>
<stop offset="0.98" stop-color="#5924F2"/>
</linearGradient>
<linearGradient id="paint8_linear_928_37" x1="1425.92" y1="344.378" x2="255.74" y2="386.232" gradientUnits="userSpaceOnUse">
<stop stop-color="#3391E9"/>
<stop offset="0.04" stop-color="#3D88EA"/>
<stop offset="0.37" stop-color="#8246F3"/>
<stop offset="0.52" stop-color="#9D2CF7"/>
<stop offset="0.55" stop-color="#A12AF7"/>
<stop offset="0.94" stop-color="#5D2BF1"/>
<stop offset="0.98" stop-color="#5529F1"/>
</linearGradient>
<linearGradient id="paint9_linear_928_37" x1="1441.05" y1="344.855" x2="251.526" y2="387.401" gradientUnits="userSpaceOnUse">
<stop stop-color="#398CEA"/>
<stop offset="0.33" stop-color="#774DF2"/>
<stop offset="0.52" stop-color="#962EF6"/>
<stop offset="0.55" stop-color="#9A2CF6"/>
<stop offset="0.94" stop-color="#5930EF"/>
<stop offset="0.98" stop-color="#522EEF"/>
</linearGradient>
<linearGradient id="paint10_linear_928_37" x1="1456.19" y1="345.438" x2="246.731" y2="388.697" gradientUnits="userSpaceOnUse">
<stop stop-color="#3F86EB"/>
<stop offset="0.28" stop-color="#6C55F1"/>
<stop offset="0.52" stop-color="#8F30F5"/>
<stop offset="0.55" stop-color="#932FF5"/>
<stop offset="0.94" stop-color="#5535ED"/>
<stop offset="0.98" stop-color="#4E34ED"/>
</linearGradient>
<linearGradient id="paint11_linear_928_37" x1="1471.27" y1="346.022" x2="241.691" y2="390.001" gradientUnits="userSpaceOnUse">
<stop stop-color="#4681EC"/>
<stop offset="0.21" stop-color="#625FEF"/>
<stop offset="0.52" stop-color="#8832F4"/>
<stop offset="0.55" stop-color="#8C31F4"/>
<stop offset="0.94" stop-color="#513AEB"/>
<stop offset="0.98" stop-color="#4A39EB"/>
</linearGradient>
<linearGradient id="paint12_linear_928_37" x1="1486.41" y1="346.658" x2="235.967" y2="391.383" gradientUnits="userSpaceOnUse">
<stop stop-color="#4C7CED"/>
<stop offset="0.1" stop-color="#566EEE"/>
<stop offset="0.52" stop-color="#8134F3"/>
<stop offset="0.55" stop-color="#8534F3"/>
<stop offset="0.94" stop-color="#4D3FE9"/>
<stop offset="0.98" stop-color="#463EE9"/>
</linearGradient>
<linearGradient id="paint13_linear_928_37" x1="1501.55" y1="347.295" x2="229.855" y2="392.779" gradientUnits="userSpaceOnUse">
<stop stop-color="#5276EE"/>
<stop offset="0.52" stop-color="#7B37F2"/>
<stop offset="0.55" stop-color="#7E36F2"/>
<stop offset="0.94" stop-color="#4944E8"/>
<stop offset="0.98" stop-color="#4343E8"/>
</linearGradient>
<linearGradient id="paint14_linear_928_37" x1="1516.69" y1="347.984" x2="223.206" y2="394.248" gradientUnits="userSpaceOnUse">
<stop stop-color="#5971EF"/>
<stop offset="0.52" stop-color="#7439F1"/>
<stop offset="0.55" stop-color="#7739F1"/>
<stop offset="0.94" stop-color="#4549E6"/>
<stop offset="0.98" stop-color="#3F48E6"/>
</linearGradient>
<linearGradient id="paint15_linear_928_37" x1="1531.82" y1="348.674" x2="215.824" y2="395.744" gradientUnits="userSpaceOnUse">
<stop stop-color="#5F6CF0"/>
<stop offset="0.52" stop-color="#6D3BF0"/>
<stop offset="0.55" stop-color="#703BF0"/>
<stop offset="0.94" stop-color="#414EE4"/>
<stop offset="0.98" stop-color="#3B4DE4"/>
</linearGradient>
<linearGradient id="paint16_linear_928_37" x1="1546.96" y1="349.365" x2="207.955" y2="397.257" gradientUnits="userSpaceOnUse">
<stop stop-color="#6566F1"/>
<stop offset="0.52" stop-color="#663DF0"/>
<stop offset="0.55" stop-color="#693EEF"/>
<stop offset="0.94" stop-color="#3D54E2"/>
<stop offset="0.98" stop-color="#3853E2"/>
</linearGradient>
<linearGradient id="paint17_linear_928_37" x1="1562.1" y1="350.053" x2="199.353" y2="398.795" gradientUnits="userSpaceOnUse">
<stop stop-color="#6B61F2"/>
<stop offset="0.52" stop-color="#5F3FEF"/>
<stop offset="0.55" stop-color="#6240EE"/>
<stop offset="0.94" stop-color="#3959E0"/>
<stop offset="0.98" stop-color="#3458E0"/>
</linearGradient>
<linearGradient id="paint18_linear_928_37" x1="1577.24" y1="350.691" x2="189.917" y2="400.311" gradientUnits="userSpaceOnUse">
<stop stop-color="#725CF3"/>
<stop offset="0.52" stop-color="#5841EE"/>
<stop offset="0.55" stop-color="#5B43ED"/>
<stop offset="0.94" stop-color="#355EDE"/>
<stop offset="0.98" stop-color="#305DDE"/>
</linearGradient>
<linearGradient id="paint19_linear_928_37" x1="1592.38" y1="351.379" x2="179.361" y2="401.919" gradientUnits="userSpaceOnUse">
<stop stop-color="#7856F4"/>
<stop offset="0.52" stop-color="#5244ED"/>
<stop offset="0.55" stop-color="#5445EC"/>
<stop offset="0.94" stop-color="#3163DD"/>
<stop offset="0.98" stop-color="#2D62DD"/>
</linearGradient>
<linearGradient id="paint20_linear_928_37" x1="1607.57" y1="352.067" x2="167.777" y2="403.564" gradientUnits="userSpaceOnUse">
<stop stop-color="#7E51F5"/>
<stop offset="0.47" stop-color="#5147ED"/>
<stop offset="0.52" stop-color="#4B46EC"/>
<stop offset="0.55" stop-color="#4D48EB"/>
<stop offset="0.94" stop-color="#2D68DB"/>
<stop offset="0.98" stop-color="#2967DB"/>
</linearGradient>
<linearGradient id="paint21_linear_928_37" x1="1622.7" y1="352.704" x2="155.167" y2="405.193" gradientUnits="userSpaceOnUse">
<stop stop-color="#854CF6"/>
<stop offset="0.31" stop-color="#604AF0"/>
<stop offset="0.52" stop-color="#4448EB"/>
<stop offset="0.55" stop-color="#464AEA"/>
<stop offset="0.94" stop-color="#296DD9"/>
<stop offset="0.98" stop-color="#256CD9"/>
</linearGradient>
<linearGradient id="paint22_linear_928_37" x1="1637.89" y1="353.338" x2="141.775" y2="406.85" gradientUnits="userSpaceOnUse">
<stop stop-color="#8B46F7"/>
<stop offset="0.23" stop-color="#6C48F2"/>
<stop offset="0.52" stop-color="#3D4AEA"/>
<stop offset="0.55" stop-color="#3F4DE9"/>
<stop offset="0.94" stop-color="#2572D7"/>
<stop offset="0.98" stop-color="#2172D7"/>
</linearGradient>
<linearGradient id="paint23_linear_928_37" x1="1653.07" y1="353.973" x2="127.406" y2="408.541" gradientUnits="userSpaceOnUse">
<stop stop-color="#9141F8"/>
<stop offset="0.18" stop-color="#7644F4"/>
<stop offset="0.52" stop-color="#364CE9"/>
<stop offset="0.55" stop-color="#384FE8"/>
<stop offset="0.94" stop-color="#2177D5"/>
<stop offset="0.98" stop-color="#1E77D5"/>
</linearGradient>
<linearGradient id="paint24_linear_928_37" x1="1668.21" y1="354.555" x2="112.448" y2="410.2" gradientUnits="userSpaceOnUse">
<stop stop-color="#983BF8"/>
<stop offset="0.14" stop-color="#8040F4"/>
<stop offset="0.44" stop-color="#434BEB"/>
<stop offset="0.52" stop-color="#304FE8"/>
<stop offset="0.55" stop-color="#3152E7"/>
<stop offset="0.94" stop-color="#1C7CD4"/>
<stop offset="0.98" stop-color="#1A7CD4"/>
</linearGradient>
<linearGradient id="paint25_linear_928_37" x1="1683.4" y1="355.189" x2="97.3484" y2="411.918" gradientUnits="userSpaceOnUse">
<stop stop-color="#9E36F9"/>
<stop offset="0.12" stop-color="#893BF6"/>
<stop offset="0.36" stop-color="#5248ED"/>
<stop offset="0.52" stop-color="#2951E7"/>
<stop offset="0.55" stop-color="#2A54E6"/>
<stop offset="0.94" stop-color="#1881D2"/>
<stop offset="0.98" stop-color="#1681D2"/>
</linearGradient>
<linearGradient id="paint26_linear_928_37" x1="1698.58" y1="355.77" x2="81.364" y2="413.613" gradientUnits="userSpaceOnUse">
<stop stop-color="#A431FA"/>
<stop offset="0.1" stop-color="#9136F7"/>
<stop offset="0.3" stop-color="#5F43F0"/>
<stop offset="0.52" stop-color="#2253E7"/>
<stop offset="0.55" stop-color="#2357E5"/>
<stop offset="0.94" stop-color="#1487D0"/>
<stop offset="0.98" stop-color="#1386D0"/>
</linearGradient>
<linearGradient id="paint27_linear_928_37" x1="1713.81" y1="356.349" x2="65.186" y2="415.315" gradientUnits="userSpaceOnUse">
<stop stop-color="#AB2BFB"/>
<stop offset="0.09" stop-color="#9930F8"/>
<stop offset="0.26" stop-color="#6C3DF2"/>
<stop offset="0.5" stop-color="#2353E7"/>
<stop offset="0.52" stop-color="#1B55E6"/>
<stop offset="0.55" stop-color="#1C59E4"/>
<stop offset="0.94" stop-color="#108CCE"/>
<stop offset="0.98" stop-color="#0F8BCE"/>
</linearGradient>
<linearGradient id="paint28_linear_928_37" x1="1728.99" y1="356.876" x2="48.5164" y2="416.982" gradientUnits="userSpaceOnUse">
<stop stop-color="#B126FC"/>
<stop offset="0.08" stop-color="#A12BFA"/>
<stop offset="0.23" stop-color="#7738F3"/>
<stop offset="0.43" stop-color="#344DEA"/>
<stop offset="0.52" stop-color="#1457E5"/>
<stop offset="0.55" stop-color="#155CE3"/>
<stop offset="0.94" stop-color="#0C91CC"/>
<stop offset="0.98" stop-color="#0B91CC"/>
</linearGradient>
<linearGradient id="paint29_linear_928_37" x1="1744.23" y1="357.454" x2="31.8015" y2="418.703" gradientUnits="userSpaceOnUse">
<stop stop-color="#B721FD"/>
<stop offset="0.07" stop-color="#A826FB"/>
<stop offset="0.2" stop-color="#8133F5"/>
<stop offset="0.38" stop-color="#4348EC"/>
<stop offset="0.52" stop-color="#0E5AE4"/>
<stop offset="0.55" stop-color="#0E5EE2"/>
<stop offset="0.94" stop-color="#0896CB"/>
<stop offset="0.98" stop-color="#0796CB"/>
</linearGradient>
<linearGradient id="paint30_linear_928_37" x1="1759.46" y1="358.034" x2="14.8908" y2="420.432" gradientUnits="userSpaceOnUse">
<stop stop-color="#BE1BFE"/>
<stop offset="0.06" stop-color="#B020FC"/>
<stop offset="0.18" stop-color="#8C2DF7"/>
<stop offset="0.34" stop-color="#5142EE"/>
<stop offset="0.52" stop-color="#075CE3"/>
<stop offset="0.55" stop-color="#0761E1"/>
<stop offset="0.94" stop-color="#049BC9"/>
<stop offset="0.98" stop-color="#049BC9"/>
</linearGradient>
<linearGradient id="paint31_linear_928_37" x1="1774.69" y1="358.505" x2="-2.22061" y2="422.06" gradientUnits="userSpaceOnUse">
<stop stop-color="#C416FF"/>
<stop offset="0.06" stop-color="#B71BFD"/>
<stop offset="0.17" stop-color="#9527F8"/>
<stop offset="0.31" stop-color="#5E3CF0"/>
<stop offset="0.48" stop-color="#1257E5"/>
<stop offset="0.52" stop-color="#005EE2"/>
<stop offset="0.94" stop-color="#00A0C7"/>
</linearGradient>
</defs>
</svg>
