<svg width="1335" height="622" viewBox="0 0 1335 622" fill="none" xmlns="http://www.w3.org/2000/svg">
<g clip-path="url(#clip0_1220_1290)">
<g opacity="0.2">
<path d="M1128.49 196.368C1111.37 195.24 1090.77 203.952 1065.14 217.476C1055.76 222.215 1045.69 227.979 1035.01 233.917C1019.76 242.287 1002.73 251.77 984.226 261.211C928.079 289.65 839.949 328.463 723.276 332.129C588.882 336.395 511.471 357.487 493.277 394.963C485.785 410.54 488.247 428.915 500.679 449.876C513.11 470.836 536.978 481.784 575.701 484.336C609.158 486.541 649.638 482.514 696.525 477.89C740.9 473.477 791.288 468.495 841.92 468.725C851.177 468.746 860.412 469.087 869.434 469.682C959.464 475.616 1041.55 509.256 1120.35 572.517C1202.37 638.347 1277.48 683.42 1343.5 706.467C1367.6 715.309 1392.63 720.898 1418.04 723.111C1466.81 726.325 1499.63 708.454 1506.41 675.368C1513.2 642.282 1491.05 595.558 1436.83 573.289C1414.17 563.975 1388.66 560.848 1363.84 557.765C1307.86 550.861 1249.99 543.779 1216.13 466.767C1207.53 446.568 1201.14 425.31 1197.09 403.428C1193.5 384.941 1190.86 366.24 1189.17 347.41C1187.07 320.976 1183.49 294.728 1178.43 268.815C1176.48 259.255 1173.99 249.842 1170.98 240.63C1167.48 228.936 1161.82 218.174 1154.35 209.001C1147.58 201.291 1138.32 196.767 1128.49 196.368ZM575.709 482.73C537.473 480.209 514.031 469.504 501.815 448.986C489.599 428.468 487.255 410.529 494.503 395.687C512.414 358.781 589.365 337.98 723.171 333.729C840.481 330.052 928.746 291.408 985.012 262.655C1003.52 253.161 1020.56 243.571 1035.8 235.309C1046.47 229.423 1056.54 223.82 1065.88 218.917C1087.9 207.352 1110.74 196.751 1128.54 197.924C1137.97 198.397 1146.83 202.817 1153.29 210.27C1160.65 219.301 1166.2 229.916 1169.6 241.45C1172.62 250.607 1175.11 259.967 1177.06 269.475C1182.15 295.231 1185.8 321.321 1187.98 347.599C1189.62 366.519 1192.24 385.31 1195.83 403.88C1199.93 425.889 1206.37 447.272 1215 467.603C1249.05 545.378 1307.36 552.542 1363.82 559.478C1388.51 562.498 1413.97 565.622 1436.27 574.967C1489.73 596.971 1511.58 643.086 1505 675.275C1498.42 707.464 1465.87 724.924 1418.12 721.777C1392.83 719.594 1367.91 714.029 1343.93 705.209C1278.04 682.225 1203.14 637.006 1121.21 571.449C1042.12 508.008 959.845 474.302 869.522 468.348C860.5 467.754 851.216 467.41 841.911 467.385C791.23 467.152 740.841 472.134 696.418 476.544C649.792 480.917 609.312 484.945 576.002 482.749L575.709 482.73Z" fill="url(#paint0_linear_1220_1290)"/>
<path d="M1126.7 193.143C1110.75 192.092 1091.39 197.458 1063.89 210.43C1058.84 212.669 1054.68 214.859 1050.42 217.042C1038.86 223.029 1026.25 230.019 1012.88 237.441C1000.88 244.096 988.481 250.938 974.977 258.137C897.457 299.47 809.747 322.24 706.73 327.557C573.459 334.843 496.601 357.953 478.347 397.086C470.652 413.506 473.361 432.594 486.361 453.86C499.36 475.126 523.412 486.246 562.428 488.818C597.494 491.129 641.698 486.329 688.579 481.063C732.978 476.276 783.056 470.791 832.483 470.728C843.018 470.672 853.574 471.047 863.816 471.722C954.09 477.672 1036.45 510.742 1115.63 572.796C1198.85 638.276 1274.85 683.943 1341.81 708.444C1367.05 718.215 1393.38 724.362 1420.15 726.732C1467.75 729.869 1500.66 712.165 1508.21 679.344C1516.74 641.981 1489.88 597.784 1445.65 576.924C1424.61 566.913 1401.62 562.719 1377.37 558.229C1323.46 548.301 1267.71 538.037 1234.59 460.217C1226.07 439.513 1219.54 417.883 1215.08 395.668C1210.96 376.434 1207.76 358.117 1205.45 339.698C1203 314.137 1198.38 288.906 1191.66 264.33C1188.73 255.411 1185.21 246.746 1181.12 238.406C1176 227.221 1169.07 217.163 1160.64 208.719C1151.3 199.469 1139.34 193.98 1126.7 193.143ZM562.725 487.284C524.196 484.745 500.277 473.847 487.542 453.027C474.808 432.207 472.206 413.716 479.622 397.813C497.641 359.254 574.057 336.168 706.767 329.22C809.99 323.756 897.89 301.052 975.613 259.625C989.116 252.427 1001.54 245.264 1013.52 238.929C1026.89 231.507 1039.49 224.571 1051.01 218.58C1055.27 216.397 1059.67 214.223 1064.48 211.915C1091.73 198.98 1110.9 193.548 1126.6 194.583C1138.99 195.324 1150.73 200.65 1159.89 209.687C1168.19 218.106 1175 228.12 1179.99 239.242C1184.09 247.498 1187.6 256.093 1190.49 264.95C1197.22 289.478 1201.87 314.655 1204.39 340.164C1206.75 358.639 1209.89 377.06 1214.01 396.294C1218.45 418.615 1224.98 440.352 1233.49 461.163C1266.96 539.756 1323.05 550.095 1377.3 560.099C1401.5 564.533 1424.4 568.56 1445.29 578.668C1488.84 599.43 1515.38 642.641 1506.99 679.157C1499.64 711.187 1467.3 728.447 1420.68 725.374C1394.04 722.984 1367.84 716.846 1342.73 707.112C1275.76 682.664 1199.81 637.054 1116.54 571.677C1037.37 509.41 954.575 476.258 864.009 470.288C853.718 469.61 843.159 469.289 832.579 469.288C783.099 469.401 732.829 474.819 688.527 479.613C641.849 484.786 597.645 489.586 562.725 487.284Z" fill="url(#paint1_linear_1220_1290)"/>
<path d="M1123.32 189.332C1106.74 188.239 1087.44 192.698 1062.53 203.484C1057.19 205.757 1052.43 208.175 1047.69 210.273C1031.64 218.161 1014.04 228.036 993.643 239.494C984.757 244.265 975.382 249.754 965.471 255.207C897.311 292.765 809.713 314.578 690.028 323.081C557.929 332.641 481.592 358.25 463.171 399.193C455.315 416.566 458.222 436.364 471.786 457.988C485.349 479.613 509.983 490.825 549.34 493.419C586.016 495.837 632.074 490.409 680.794 484.728C728.087 478.317 775.617 474.495 823.205 473.277C835.067 473.148 846.898 473.499 858.408 474.258C948.926 480.224 1031.52 512.72 1111.02 573.67C1195.53 638.807 1272.82 684.988 1340.7 711.05C1367.03 721.729 1394.6 728.447 1422.66 731.022C1470.06 734.147 1501.96 716.965 1510.55 683.998C1519.93 647.119 1496.56 604.064 1454.96 581.234C1435.44 570.52 1413.9 565.083 1391.11 559.349C1339.41 546.352 1285.93 532.864 1253.54 454.288C1245.07 433.126 1238.32 411.172 1233.37 388.678C1229.61 371.556 1225.35 352.902 1222.03 332.649C1217.58 303.536 1212.99 278.004 1204.88 259.846C1200.94 251.565 1196.36 243.666 1191.21 236.231C1184.49 225.481 1176.32 215.914 1166.97 207.85C1154.52 196.983 1139.3 190.527 1123.32 189.332ZM549.446 491.819C510.43 489.248 486.273 478.228 473.019 457.105C459.766 435.983 456.872 416.723 464.449 399.866C482.637 359.497 558.563 334.182 690.072 324.637C810.064 315.941 897.797 294.297 966.164 256.592C976.022 251.189 985.383 245.913 994.283 240.929C1014.63 229.467 1032.28 219.596 1048.28 211.705C1052.93 209.44 1057.75 206.972 1063.07 204.966C1087.78 194.274 1106.88 189.855 1123.22 190.932C1138.93 192.17 1153.87 198.57 1166.09 209.292C1175.34 217.277 1183.4 226.767 1190 237.438C1195.11 244.804 1199.64 252.628 1203.55 260.829C1211.59 278.554 1216.13 303.976 1220.84 332.892C1224.15 353.198 1228.07 371.883 1232.22 389.084C1237.16 411.682 1243.9 433.743 1252.37 455.014C1285.05 534.306 1338.92 547.873 1390.96 560.999C1413.65 566.673 1435.14 572.107 1454.48 582.702C1495.46 605.223 1518.52 647.669 1509.3 683.647C1501.1 715.837 1469.58 732.561 1423 729.491C1395.06 726.946 1367.6 720.253 1341.39 709.595C1273.59 683.699 1196.45 637.475 1112.08 572.401C1032.16 511.262 949.271 478.694 858.51 472.711C846.951 471.95 835.072 471.595 823.21 471.724C774.886 472.128 726.954 477.753 680.652 483.165C631.981 488.849 586.024 494.23 549.446 491.819Z" fill="url(#paint2_linear_1220_1290)"/>
<path d="M1118.91 184.862C1102.38 183.772 1084.02 187.437 1061.18 196.484C1055.3 198.775 1050 201.104 1044.95 203.396C1024.74 212.778 1001.68 226.095 974.886 241.632L956.005 252.386C885.425 292.463 795.63 307.489 673.267 318.708C542.376 330.758 466.575 358.652 447.984 401.405C440.013 419.789 443.119 440.296 457.246 462.279C471.374 484.262 496.349 495.497 536.097 498.117C574.43 500.644 622.241 494.635 672.867 488.276C719.612 481.53 766.61 477.351 813.683 475.756C826.922 475.557 840.125 475.892 852.805 476.727C943.469 482.703 1026.35 514.628 1105.97 574.462C1191.79 639.042 1270.05 686.037 1338.88 713.5C1366.26 725.149 1395.07 732.459 1424.44 735.21C1471.01 738.28 1503.04 721.267 1512.39 688.618C1522.48 653.071 1502.02 609.673 1463.7 585.452C1445.6 573.974 1425.41 567.394 1404.07 560.363C1354.64 544.195 1303.38 527.478 1271.92 448.213C1263.6 426.555 1256.78 404.224 1251.53 381.411L1249.44 373.023C1245.55 357.768 1241.69 341.979 1238.48 325.376C1232.24 294.324 1227.36 271.076 1217.74 255.764C1213.49 249.101 1208.69 242.885 1203.39 237.194C1202.62 236.233 1201.8 235.322 1200.98 234.411C1192.63 224.304 1183.23 215.307 1172.96 207.602C1152.6 192.546 1136.86 186.045 1118.91 184.862ZM536.213 496.357C496.952 493.769 472.221 482.55 458.449 461.126C444.676 439.702 441.584 419.732 449.343 401.602C467.42 359.94 544.909 331.728 673.382 319.948C795.796 308.679 885.741 293.609 956.966 253.414L975.795 242.71C1002.57 227.386 1025.68 214.178 1045.81 204.471C1050.87 202.125 1055.92 199.78 1061.9 197.549C1084.58 188.598 1102.74 184.975 1119.08 186.052C1136.74 187.215 1152.28 193.597 1172.72 208.336C1182.85 215.986 1192.12 224.902 1200.36 234.905L1202.77 237.689C1208.01 243.303 1212.75 249.444 1216.94 256.033C1226.18 271.212 1231.26 294.473 1237.47 325.095C1240.82 341.761 1244.67 357.71 1248.47 372.853L1250.57 381.24C1255.85 404.117 1262.67 426.517 1270.98 448.259C1302.89 528.196 1354.3 544.816 1404.06 561.273C1425.37 568.034 1445.45 574.714 1463.4 586.183C1501.01 610.089 1521.33 652.674 1511.39 687.534C1502.33 719.453 1470.82 736.017 1425.12 733.005C1395.9 730.245 1367.24 722.944 1340 711.324C1271.37 683.874 1193.03 637.356 1107.38 572.412C1027.38 512.446 944.258 480.398 853.301 474.403C840.475 473.558 827.223 473.22 814.179 473.431C767.057 475.02 720.011 479.195 673.217 485.942C622.165 492.809 574.644 498.89 536.213 496.357Z" fill="url(#paint3_linear_1220_1290)"/>
<path d="M1114.25 179.788C1095.72 179.171 1077.21 182.461 1059.73 189.479C1053.46 191.744 1047.68 194.041 1042.17 196.571C1017.99 207.511 990.326 223.633 955.334 243.986L946.521 249.137C876.791 289.698 792.566 298.984 675.986 311.656L656.496 313.8C528.697 327.982 451.333 358.772 432.847 402.925C424.77 422.159 428.185 443.919 442.65 465.978C457.116 488.037 482.704 499.633 522.842 502.279C562.98 504.924 612.449 498.275 664.985 491.185C711.176 484.069 757.643 479.551 804.203 477.649C818.918 477.333 833.592 477.657 847.833 478.596C938.789 484.591 1021.71 515.983 1101.45 574.646C1189.71 639.388 1269.16 686.942 1337.67 715.456C1366.07 728.035 1396.07 735.916 1426.7 738.841C1472.44 741.856 1504.56 725.063 1514.82 692.742C1525.71 658.32 1508.1 614.734 1473.01 589.066C1456.23 576.818 1437.3 569.035 1417.23 560.748C1370.19 541.578 1321.61 521.395 1290.82 441.639C1282.64 419.471 1275.68 396.779 1269.97 373.68C1268.26 366.979 1266.4 360.267 1264.55 353.449C1261.39 341.832 1258.12 329.831 1255.2 317.586C1248.79 290.702 1242.73 265.339 1231.19 250.866C1226.52 245.365 1221.41 240.332 1215.92 235.824L1211.28 231.876C1201.3 222.551 1190.66 214.111 1179.44 206.636C1156.45 191.997 1138.25 181.369 1114.25 179.788ZM522.986 500.842C483.335 498.228 458.217 486.931 443.877 465.201C429.537 443.472 426.254 422.686 434.212 403.765C446.945 373.321 495.867 333.371 656.676 315.526L676.409 313.398C793.147 300.576 877.469 291.296 947.506 250.541L956.316 245.443C991.259 225.088 1018.87 208.962 1043.01 198.018C1048.51 195.542 1054.18 193.398 1060.47 190.974C1077.76 184.053 1096.06 180.804 1114.39 181.404C1138.04 182.963 1156.11 193.474 1179.1 208.167C1190.22 215.625 1200.79 224.022 1210.7 233.284L1215.33 237.286C1220.79 241.706 1225.84 246.684 1230.42 252.154C1241.73 266.291 1247.71 291.487 1254.15 317.999C1257.06 330.243 1260.33 342.297 1263.49 353.915C1265.34 360.68 1267.2 367.445 1268.92 374.093C1274.55 397.229 1281.43 419.968 1289.51 442.195C1320.56 522.504 1371.68 543.604 1416.74 562.162C1436.18 569.215 1454.8 578.655 1472.24 590.301C1506.83 615.561 1524.18 658.38 1513.49 692.119C1503.48 723.6 1471.92 740.107 1426.86 737.137C1396.37 734.207 1366.5 726.354 1338.22 713.832C1269.85 685.434 1190.48 638.099 1102.57 573.22C1022.69 514.387 939.487 482.923 848.238 476.909C833.948 475.967 819.275 475.642 804.511 475.955C757.886 477.897 711.353 482.429 665.094 489.532C612.398 496.825 562.831 503.468 522.986 500.842Z" fill="url(#paint4_linear_1220_1290)"/>
<path d="M1109.71 174.346C1092.35 173.648 1074.97 176.405 1058.43 182.483C1051.67 184.716 1045.5 186.987 1039.49 189.698C1011.09 202.129 976.832 222.53 937.121 246.107C875.95 282.411 803.291 290.853 711.231 300.855C688.481 303.427 664.992 306.057 639.848 309.274C479.88 329.96 430.779 372.631 417.735 404.822C409.539 425.119 413.145 447.695 428.147 469.789C443.149 491.883 469.733 503.974 509.676 506.607C551.374 509.355 602.75 502.028 657.439 494.223C703.08 487.696 750.302 480.953 795.055 479.724C811.202 479.235 827.297 479.546 842.855 480.571C933.958 486.576 1017.1 517.447 1097.02 575.05C1187.08 639.911 1267.62 688.073 1336.46 717.519C1365.84 731.073 1397.02 739.561 1428.89 742.682C1473.86 745.646 1506.11 729.023 1517.32 697.086C1529.35 663.221 1514.84 620.374 1482.3 593C1466.04 580.366 1448.55 569.729 1430.12 561.277C1387.75 539.735 1339.69 515.355 1309.69 435.49C1301.99 414.841 1295.53 391.703 1288.48 366.33C1285.83 356.834 1282.89 347.106 1280.03 337.704C1277.18 328.302 1274.52 319.502 1272.04 310.393C1263.44 279.561 1256.85 258.396 1244.74 246.67C1239.65 241.965 1234.15 237.817 1228.32 234.284C1226.06 232.797 1223.95 231.425 1221.84 229.947C1209.35 221.142 1197.55 212.812 1186.23 206.173L1175.81 200.129C1153.59 187.148 1134.73 175.995 1109.71 174.346ZM509.903 505.39C470.399 502.786 444.09 490.981 429.457 469.233C414.824 447.484 411.25 425.179 419.204 405.562C432.075 373.787 480.851 331.577 640.126 311.006C665.273 307.736 688.762 305.106 711.464 302.531C803.782 292.331 876.437 283.943 937.807 247.598C977.469 224.018 1011.73 203.67 1040.02 191.286C1045.97 188.679 1052.1 186.351 1058.82 184.062C1075.2 178.06 1092.41 175.328 1109.61 175.999C1133.99 177.607 1152.85 188.706 1174.77 201.722L1185.2 207.766C1196.43 214.238 1208.22 222.568 1220.71 231.533C1222.82 233.011 1224.93 234.436 1227.23 235.927C1232.98 239.401 1238.4 243.472 1243.42 248.083C1255.26 259.576 1261.71 280.518 1270.27 311.134C1272.85 320.41 1275.67 329.648 1278.27 338.444C1280.88 347.24 1284.06 357.575 1286.67 367.067C1293.7 392.707 1300.17 415.632 1307.97 436.341C1338.17 516.968 1386.46 541.472 1429.07 563.136C1447.37 571.522 1464.74 582.098 1480.87 594.673C1512.94 621.695 1527.16 663.826 1515.47 697.017C1504.43 728.43 1472.76 744.502 1428.48 741.583C1396.76 738.478 1365.72 730.036 1336.47 716.556C1268.05 686.762 1187.48 639.026 1097.57 574.176C1017.41 516.45 934.08 485.459 842.685 479.435C827.078 478.406 810.931 478.146 794.739 478.578C749.937 479.804 702.715 486.547 656.973 493.121C602.636 500.789 551.309 508.119 509.757 505.38L509.903 505.39Z" fill="url(#paint5_linear_1220_1290)"/>
<path d="M1105.54 168.5C1089.16 167.772 1072.75 170.133 1057.03 175.481C1049.88 177.688 1043.27 179.93 1036.95 182.889C1007.07 195.543 971.383 216.76 927.866 243.086C871.186 277.383 806.374 284.2 724.302 292.771C692.591 296.038 659.808 299.234 623.288 304.862C465.011 328.123 415.954 373.1 402.815 406.732C394.444 428.196 398.196 451.531 413.793 474.254C429.39 496.976 456.281 508.873 496.614 511.532C540.02 514.393 593.208 506.328 649.367 497.762C694.785 490.9 741.736 483.817 785.329 482.351C802.905 481.742 820.473 481.989 837.396 483.105C928.597 489.116 1011.87 519.513 1092.01 575.952C1185.63 641.797 1264.76 689.117 1334.66 720.187C1370.54 736.211 1402.76 745.245 1430.46 747.071C1474.65 749.983 1507.03 733.583 1519.34 702.094C1532.14 669.243 1520.48 626.157 1491.03 597.271C1475.96 583.595 1459.56 571.739 1442.13 561.908C1402.31 537.374 1357.17 509.49 1328.06 429.417C1321.22 410.592 1315.25 389.736 1308.87 367.62L1306.4 359.101C1302.97 347.197 1298.91 335.198 1294.97 323.636C1292.72 316.846 1290.34 309.885 1288.15 302.992C1278.81 273.824 1271.11 252.425 1257.59 242.053C1251.99 238.11 1246.08 234.71 1239.94 231.89C1236.99 230.464 1234.29 229.161 1231.64 227.647C1225.92 224.485 1220.49 221.555 1215.3 218.428C1207.23 213.772 1199.64 209.414 1192.25 205.552C1184.86 201.691 1177.41 197.343 1170.47 193.403C1149.1 180.907 1130.61 170.153 1105.54 168.5ZM496.525 509.919C456.631 507.289 429.893 495.295 414.742 473.245C399.59 451.194 395.814 428.233 403.95 407.342C416.968 374.078 465.55 329.605 623.283 306.415C659.733 301.104 692.437 297.635 724.249 294.321C806.467 285.759 871.425 278.952 928.363 244.458C971.831 218.129 1007.46 197.015 1037.29 184.358C1043.74 181.622 1050.32 179.217 1057.37 177.003C1072.93 171.711 1089.17 169.375 1105.39 170.097C1130.12 171.727 1148.66 182.431 1169.74 194.802C1176.63 198.791 1183.9 202.966 1191.57 206.954C1199.24 210.941 1206.51 215.17 1214.53 219.77C1219.77 222.74 1225.2 225.83 1230.91 229.046C1233.61 230.509 1236.36 231.869 1239.26 233.292C1245.33 236.051 1251.16 239.411 1256.67 243.332C1269.87 253.308 1277.49 274.487 1287 303.398C1289.19 310.292 1291.57 317.305 1293.82 324.042C1297.95 335.617 1301.77 347.6 1305.2 359.45L1307.67 367.97C1314.07 389.819 1320.07 410.945 1326.91 429.876C1356.23 510.445 1401.6 538.452 1441.61 563.159C1458.96 572.99 1475.27 584.84 1490.27 598.507C1519.24 627.2 1530.76 669.313 1518.16 701.534C1506.33 732.359 1474.26 748.405 1430.76 745.537C1403.25 743.724 1371.18 734.7 1335.45 718.738C1265.61 687.351 1186.26 640.446 1092.98 574.677C1012.65 518.065 929.138 487.598 837.693 481.571C820.721 480.452 803.153 480.205 785.48 480.807C741.838 482.27 694.835 489.403 649.368 496.263C592.923 504.702 539.784 512.77 496.525 509.919Z" fill="url(#paint6_linear_1220_1290)"/>
<path d="M1101.83 162.469C1086.28 161.721 1070.69 163.751 1055.68 168.481C1048.35 170.562 1041.12 173.072 1034.03 175.999C1004.12 188.33 968.919 208.83 918.174 240.036C864.052 273.43 803.783 278.939 727.545 285.967C691.618 289.277 650.863 293.019 606.396 300.319C483.99 320.374 406.27 358.801 387.466 408.504C378.924 431.082 382.92 455.183 399.029 478.315C415.138 501.446 442.471 513.319 483.194 516.003C528.356 518.979 583.355 510.177 641.57 500.89C686.717 493.688 733.4 486.212 775.829 484.563C794.935 483.787 813.924 484.021 832.262 485.229C923.463 491.241 1006.87 521.058 1087.22 576.493C1182.9 642.473 1263.36 690.202 1333.2 722.392C1370.32 739.517 1403.63 749.158 1432.16 751.039C1476.06 753.932 1508.05 738.256 1521.63 706.797C1535.57 674.397 1526.89 632.15 1500.03 601.238C1486.04 586.32 1470.62 573.077 1454.05 561.728C1416.68 534.142 1374.65 502.927 1346.7 423.091C1341.14 407.243 1336.13 390.254 1330.79 372.439C1328.79 365.611 1326.8 358.677 1324.57 351.62C1320.31 337.572 1315.15 323.679 1310.1 310.277C1308.27 305.335 1306.4 300.39 1304.62 295.452C1295.13 269.114 1285.75 246.48 1270.77 237.404C1264.67 234.048 1258.29 231.298 1251.72 229.184C1248.18 227.88 1244.88 226.698 1241.64 225.306C1230.07 220.258 1219.73 215.184 1209.72 210.238L1198.47 204.783C1187.29 199.761 1177.35 193.749 1167.76 187.76C1146.25 175.2 1127.68 164.173 1101.83 162.469ZM483.296 514.456C443.012 511.801 415.7 499.609 400.172 477.319C384.644 455.029 380.489 431.132 388.849 409.078C407.418 359.948 484.724 321.868 606.538 301.882C651.103 294.588 691.712 290.836 727.585 287.576C804.023 280.508 864.378 275.166 918.877 241.261C969.521 210.101 1004.67 189.652 1034.53 177.318C1041.56 174.437 1048.73 171.941 1055.98 169.84C1070.85 165.15 1086.29 163.128 1101.69 163.853C1127.19 165.534 1145.67 176.501 1167.02 189.211C1176.43 195.188 1186.63 200.896 1197.93 206.301L1209.13 211.806C1219.14 216.752 1229.53 221.829 1241.15 226.88C1244.38 228.326 1247.73 229.511 1251.28 230.762C1257.73 232.865 1263.99 235.59 1269.99 238.906C1284.56 247.473 1293.67 269.821 1303.21 295.948C1304.99 300.887 1306.87 305.832 1308.7 310.773C1313.74 324.176 1318.89 338.229 1323.18 352.01C1325.31 359.061 1327.15 365.985 1329.4 372.829C1334.68 390.747 1339.73 407.687 1345.3 423.535C1373.61 503.823 1415.87 535.32 1453.18 562.956C1469.67 574.246 1485.01 587.412 1498.94 602.238C1524.99 632.024 1533.79 674.708 1520.26 706.01C1506.74 737.313 1475.68 752.193 1432.23 749.329C1403.84 747.458 1370.68 737.88 1333.74 720.821C1263.96 688.634 1183.58 640.965 1088.01 575.045C1007.42 519.487 923.819 489.55 832.326 483.519C813.939 482.307 794.901 482.07 775.796 482.847C733.265 484.543 686.537 491.962 641.338 499.214C583.262 508.617 528.311 517.423 483.296 514.456Z" fill="url(#paint7_linear_1220_1290)"/>
<path d="M1098.41 156.405C1083.56 155.664 1068.67 157.448 1054.27 161.692C1046.49 163.781 1038.81 166.333 1031.28 169.337C998.825 182.411 958.825 205.915 908.706 237.27C856.037 270.17 798.487 274.573 726.063 280.191C685.939 283.278 640.398 286.812 589.634 296.001C468.481 317.852 391.3 358.511 372.363 410.241C363.646 433.986 367.829 458.956 384.457 482.39C401.085 505.824 428.798 517.882 470.106 520.604C517.023 523.697 576.458 513.74 633.963 504.085C678.559 496.311 725.155 488.669 766.467 486.892C787.049 485.999 807.512 486.17 827.264 487.471C918.163 493.366 1005.97 524.208 1082.58 577.151C1180.82 643.462 1262.38 691.745 1331.76 724.816C1370.09 743.038 1404.49 753.286 1433.9 755.225C1477.3 758.086 1509.28 742.623 1524 711.721C1538.72 680.819 1533.07 637.324 1509.16 605.376C1496.1 589.043 1481.54 574.227 1465.69 561.157C1431.36 530.664 1392.49 496.122 1365.43 416.934C1360.88 403.509 1356.65 389.571 1352.19 374.814C1349.22 364.869 1346.17 354.651 1342.88 344.363C1337.74 327.954 1331.31 312.639 1325.05 297.602C1323.74 294.462 1322.42 291.323 1321.16 288.186C1311.04 263.467 1300.53 240.705 1284.03 233.296C1277.47 230.452 1270.71 228.214 1263.8 226.606C1259.65 225.583 1255.75 224.575 1251.96 223.308C1234.33 217.325 1218.87 210.413 1205.22 204.157C1191.96 198.008 1179.09 190.897 1166.71 182.87C1145.35 170.213 1125.47 158.189 1098.41 156.405ZM470.118 518.945C429.346 516.257 401.744 503.992 385.611 481.234C369.477 458.476 365.221 433.876 373.697 410.811C392.459 359.498 469.226 319.187 589.884 297.41C640.603 288.164 686.05 284.571 726.118 281.588C798.932 275.995 856.388 271.533 909.416 238.388C959.43 207.133 999.382 183.626 1031.73 170.652C1039.22 167.645 1046.84 165.09 1054.57 162.998C1068.83 158.804 1083.57 157.047 1098.27 157.789C1124.99 159.55 1144.72 171.564 1165.62 184.566C1178.05 192.613 1190.96 199.746 1204.28 205.916C1217.92 212.172 1233.4 218.87 1251.11 225.073C1254.95 226.344 1258.9 227.354 1263.04 228.431C1269.86 229.947 1276.55 232.072 1283.05 234.785C1299.08 241.948 1309.4 264.484 1319.45 288.877C1320.71 292.013 1322.03 295.153 1323.34 298.293C1329.55 313.326 1336.02 328.805 1341.08 344.888C1344.37 355.228 1347.47 365.45 1350.44 375.341C1354.9 390.152 1359.08 404.087 1363.67 417.568C1390.85 497.139 1429.91 531.8 1464.39 562.41C1480.13 575.438 1494.61 590.175 1507.63 606.4C1531.16 638.056 1537.06 680.066 1522.33 711.022C1507.61 741.977 1476.4 756.205 1433.63 753.385C1404.36 751.457 1370.16 741.274 1331.97 723.116C1262.64 690.101 1181.18 641.824 1082.97 575.571C1006.18 522.466 918.135 491.533 826.994 485.632C806.711 484.326 786.369 484.147 766.046 485.097C724.63 486.974 678.271 494.739 633.347 502.277C576.222 512.118 516.888 522.027 470.118 518.945Z" fill="url(#paint8_linear_1220_1290)"/>
<path d="M1095.36 149.83C1081.09 149.08 1066.78 150.646 1052.88 154.476C1044.64 156.64 1036.52 159.324 1028.55 162.514C991.387 177.1 944.444 205.61 899.25 234.343C847.389 266.869 791.972 270.126 721.688 274.493C671.839 276.576 622.126 282.156 572.856 291.199C452.908 314.844 376.268 357.681 357.121 411.862C348.274 436.83 352.648 462.617 369.84 486.409C387.032 510.201 415.083 522.335 456.684 525.077C505.455 528.291 566.757 517.494 626.074 507.101C670.671 499.327 716.616 491.16 756.83 488.936C778.573 487.823 800.342 487.97 822.045 489.377C912.836 495.233 1000.64 525.511 1077.65 577.524C1180.45 645.366 1260.65 692.809 1330.11 726.85C1369.59 746.219 1404.98 757.015 1435.31 759.014C1477.99 761.827 1510.23 746.704 1526.29 716.425C1542.34 686.146 1539.08 642.649 1518.12 609.181C1505.92 591.075 1492.07 574.371 1476.79 559.317C1445.42 526.127 1409.89 488.484 1384.03 410.499C1380.27 399.11 1376.77 387.523 1373.03 375.224C1369.28 362.924 1365.35 349.755 1360.86 336.924C1354.66 319.093 1347.52 301.683 1339.46 284.786L1337.53 280.587C1324.68 252.582 1313.46 234.111 1296.87 228.679C1289.86 226.523 1282.72 224.924 1275.49 223.895C1270.64 223.04 1266.14 222.314 1261.8 221.171C1244.61 216.645 1227.73 210.862 1211.27 203.86C1195.5 196.966 1180.34 188.564 1165.95 178.749C1144.29 164.787 1123.84 151.708 1095.36 149.83ZM456.887 523.483C415.725 520.77 387.654 508.206 371.21 485.695C354.766 463.185 349.922 437.099 358.684 412.661C377.643 359.111 453.868 316.621 573.333 292.891C622.49 283.886 672.086 278.317 721.819 276.216C792.193 271.962 847.824 268.451 900.005 235.518C945.095 206.885 991.937 178.421 1029.06 163.673C1036.98 160.593 1045.05 157.996 1053.23 155.892C1066.99 152.138 1081.15 150.599 1095.26 151.324C1123.4 153.179 1143.71 166.195 1165.18 180.037C1179.64 189.9 1194.89 198.343 1210.73 205.271C1227.32 212.335 1244.33 218.18 1261.65 222.768C1266.04 223.861 1270.59 224.643 1275.43 225.445C1282.61 226.497 1289.71 228.093 1296.67 230.219C1312.54 235.497 1323.55 253.418 1336.21 281.357L1338.14 285.502C1346.22 302.292 1353.39 319.596 1359.61 337.324C1363.65 350.339 1367.69 363.301 1371.78 375.623C1375.86 387.945 1379.02 399.51 1382.78 410.899C1408.71 489.264 1444.43 526.973 1475.79 560.269C1490.99 575.28 1504.75 591.924 1516.9 609.957C1537.6 642.926 1540.83 685.35 1525.03 715.485C1509.23 745.62 1477.66 760.038 1435.57 757.264C1405.43 755.277 1370.19 744.491 1330.85 725.238C1261.41 691.574 1181.23 643.971 1078.47 576.345C1001.28 524.171 913.256 493.803 822.237 487.944C800.485 486.525 778.665 486.392 756.872 487.546C716.571 489.603 670.518 497.924 625.922 505.698C566.713 515.937 505.463 526.685 456.887 523.483Z" fill="url(#paint9_linear_1220_1290)"/>
<path d="M1092.8 143.34C1079.02 142.607 1065.19 144.004 1051.73 147.49C1043.03 149.568 1034.44 152.222 1026.03 155.438C993.763 167.828 954.359 189.711 890.018 231.002C838.564 264.037 784.38 266.411 716.048 269.407C669.658 271.706 617.122 273.6 556.598 286.699C494.796 299.874 444.542 318.417 407.197 341.775C373.733 362.71 351.377 387.538 342.464 413.52C333.551 439.502 338.05 466.368 355.758 490.516C373.465 514.663 401.951 526.879 443.991 529.65C494.517 532.98 557.786 521.348 618.918 510.165C663.096 502.042 708.763 493.642 747.852 491.397C771.081 490.063 794.346 490.147 817.536 491.651C908.187 497.436 995.953 527.113 1073.35 578.15C1181.41 648 1260.43 694.563 1329.08 729.192C1369.7 749.654 1406.08 761.051 1437.34 763.112C1479.34 765.88 1511.91 751.046 1528.95 721.421C1545.98 691.797 1545.84 648.612 1527.45 613.277C1516.04 592.915 1502.79 573.865 1487.9 556.407C1459.59 520.793 1427.47 480.429 1403 404.304C1399.95 394.782 1397.05 385.271 1394.05 375.162C1389.54 360.242 1384.88 344.775 1379.58 329.373C1372.44 309.983 1364.02 291.203 1354.38 273.181C1340.98 246.799 1328.42 228.615 1310.68 224.232C1303.25 222.66 1295.73 221.592 1288.17 221.034C1282.65 220.671 1277.51 220.01 1272.48 219.036C1253.91 215.446 1235.68 210.14 1217.98 203.176C1199.85 195.679 1182.57 186.007 1166.44 174.335C1143.71 159.392 1122.65 145.308 1092.8 143.34ZM443.902 528.037C402.252 525.292 373.742 512.699 356.709 489.453C339.677 466.207 334.854 439.802 343.656 414.027C362.518 358.971 440.131 313.251 556.691 288.258C617.103 275.366 669.57 273.039 715.894 271.004C781.916 268.124 838.705 265.6 890.758 232.39C954.998 191.146 994.333 169.58 1026.51 156.97C1034.86 153.744 1043.37 151.102 1052.01 149.062C1065.35 145.587 1079.05 144.2 1092.7 144.941C1122.4 146.898 1143.32 160.973 1165.45 175.877C1181.72 187.606 1199.15 197.307 1217.43 204.801C1235.21 211.82 1253.52 217.166 1272.16 220.783C1277 221.691 1282.45 222.211 1287.96 222.734C1295.46 223.279 1302.91 224.36 1310.27 225.973C1327.54 230.004 1339.82 248.115 1353.05 274.11C1362.53 292.094 1370.79 310.829 1377.76 330.164C1383.07 345.512 1387.73 360.926 1392.24 375.847C1395.29 385.958 1398.14 395.52 1401.24 405.045C1425.58 481.643 1457.99 521.92 1486.35 557.644C1501.18 575.018 1514.39 593.976 1525.77 614.238C1543.9 649.127 1544.48 690.894 1527.32 720.779C1510.17 750.663 1478.5 764.432 1437.04 761.7C1405.98 759.652 1369.75 748.265 1329.31 727.815C1260.67 693.239 1181.88 646.692 1073.72 577.05C996.124 525.846 908.134 496.045 817.241 490.186C793.985 488.67 770.653 488.599 747.358 489.972C708.025 492.2 662.516 500.45 618.281 508.676C557.205 519.757 494.135 531.348 443.707 528.024L443.902 528.037Z" fill="url(#paint10_linear_1220_1290)"/>
<path d="M1090 136.781C1076.64 136.034 1063.23 137.276 1050.13 140.474C1040.97 142.546 1031.94 145.261 1023.1 148.602C989.094 161.36 946.383 185.114 880.372 227.956C829.194 261.277 773.06 262.773 708.289 264.503C659.22 265.822 604.064 267.329 539.509 282.144C423.631 308.682 346.131 357.141 326.932 415.068C317.824 442.537 322.625 470.012 340.799 494.511C358.973 519.011 387.891 531.363 430.37 534.163C482.798 537.618 547.934 525.145 610.889 513.064C656.726 504.3 700.177 496.076 737.956 493.638C762.688 492.07 787.465 492.076 812.163 493.654C902.706 499.486 990.448 528.673 1068.21 578.829C1149.33 630.083 1243.55 688.308 1327.15 731.583C1368.89 753.136 1406.3 765.191 1438.39 767.306C1491.45 770.803 1518.09 747.115 1530.91 726.586C1549.51 697.011 1551.55 654.131 1536.04 617.433C1526.26 594.183 1513.06 574.51 1497.81 551.757C1472.66 514.209 1444.31 471.629 1421.23 398.22C1418.8 390.454 1416.39 382.421 1414.11 374.664C1408.93 357.448 1403.63 339.69 1397.34 322.134C1389.92 302.549 1380.92 283.742 1370.43 265.936C1358.09 243.695 1343.87 223.045 1323.45 219.985C1319.84 219.747 1316.02 219.067 1311.73 218.784C1307.43 218.501 1303.78 218.26 1300.02 218.012C1296.27 217.765 1292.8 217.537 1289.34 217.308C1286.71 217.135 1284.46 216.987 1282.27 216.842C1262.4 214.185 1242.87 209.307 1223.96 202.285C1203.62 194.297 1184.36 183.41 1166.68 169.905C1143.53 154.023 1121.75 138.874 1090 136.781ZM430.378 532.556C388.338 529.785 359.34 517.16 341.845 493.509C324.35 469.858 319.245 442.523 328.172 415.578C347.332 358.238 424.414 310.18 539.85 283.666C604.255 268.895 659.557 267.398 708.33 266.113C773.348 264.345 829.482 262.849 881.166 229.294C947.076 186.499 989.686 162.792 1023.54 150.025C1032.33 146.73 1041.29 144.047 1050.37 141.99C1063.33 138.835 1076.59 137.601 1089.8 138.322C1121.16 140.389 1142.54 155.565 1165.73 171.61C1183.52 185.186 1202.89 196.133 1223.35 204.173C1242.35 211.198 1261.99 216.082 1281.95 218.749C1284.14 218.894 1286.48 219.048 1289.12 219.222C1292.63 219.453 1296.14 219.685 1299.8 219.926C1303.45 220.167 1307.5 220.434 1311.5 220.697C1315.5 220.961 1319.6 221.231 1323.13 221.892C1342.92 224.911 1356.89 245.544 1369.13 267.135C1379.56 284.875 1388.52 303.607 1395.91 323.111C1402.15 340.61 1407.49 358.372 1412.63 375.531C1414.96 383.344 1417.37 391.377 1419.75 399.087C1442.77 472.759 1471.35 515.408 1496.54 553.066C1511.77 575.497 1524.91 595.379 1534.65 618.466C1549.95 654.721 1547.95 696.908 1529.62 726.072C1516.92 746.234 1490.8 769.528 1438.42 766.076C1406.52 763.973 1369.26 751.982 1327.71 730.495C1244.14 687.49 1149.98 629.055 1068.86 577.855C990.926 527.535 902.966 498.258 812.195 492.424C787.448 490.834 762.619 490.843 737.838 492.451C699.77 494.817 656.459 503.158 610.625 511.868C547.796 523.529 482.709 536.006 430.378 532.556Z" fill="url(#paint11_linear_1220_1290)"/>
<path d="M1087.6 130.142C1074.6 129.415 1061.55 130.536 1048.78 133.476C1039.16 135.521 1029.66 138.278 1020.37 141.727C984.218 155.093 939.475 179.946 870.923 224.924C819.72 258.617 764.14 259.132 700.078 259.784C648.957 260.271 591.071 260.849 522.571 277.546C408.058 305.674 330.95 356.355 311.597 416.629C302.355 445.374 307.344 473.719 325.789 498.558C344.235 523.397 373.787 535.791 416.705 538.619C471.035 542.2 538.087 528.889 602.91 515.967C648.274 506.958 691.157 498.428 728.061 495.879C754.311 494.066 780.618 494.011 806.835 495.714C897.186 501.859 984.813 530.501 1063.03 579.453C1155.42 636.538 1245.02 691.351 1325.24 733.868C1367.83 756.549 1406.18 769.201 1439.39 771.39C1491.72 774.839 1519.07 751.679 1532.82 731.695C1552.93 702.379 1557.48 660.147 1544.59 621.479C1535.68 594.75 1522.52 571.438 1507.3 544.455C1485.38 505.513 1460.5 461.555 1439.42 392.028C1437.61 386.069 1435.85 380.061 1434.04 373.996C1428.32 354.496 1422.35 334.389 1415.07 314.786C1407.35 294.98 1397.76 276.127 1386.45 258.528C1373.97 238.261 1358.26 217.298 1336.19 215.575L1334.53 215.466C1326.67 214.949 1319.22 215.047 1312.01 215.214C1304.8 215.382 1299.11 215.435 1293.07 215.037L1291.95 214.963C1270.81 213.362 1249.96 209.057 1229.8 202.135C1204.45 193.608 1185.43 179.712 1167.11 166.291C1143.64 148.674 1121.05 132.347 1087.6 130.142ZM417.249 537.048C374.77 534.248 345.351 521.328 327.375 497.538C309.399 473.747 304.069 445.38 313.08 417.155C332.301 357.409 408.795 307.116 523.005 279.128C591.129 262.192 648.949 261.878 699.972 261.384C764.279 260.748 819.813 260.177 871.567 226.305C940.067 181.377 984.659 156.569 1020.71 143.25C1030.06 139.846 1039.6 137.111 1049.26 135.061C1061.92 132.161 1074.86 131.051 1087.74 131.758C1120.8 133.938 1143.24 150.308 1166.98 167.622C1185.39 181.102 1204.36 195.048 1230.03 203.918C1250.28 210.86 1271.23 215.189 1292.46 216.818L1293.63 216.895C1299.73 217.297 1306 217.175 1312.67 217.079C1319.34 216.983 1327.38 216.817 1335.09 217.325L1336.75 217.434C1358.16 218.845 1373.63 239.738 1385.88 259.723C1397.14 277.221 1406.71 295.964 1414.43 315.654C1421.66 335.201 1427.58 355.304 1433.36 374.754C1435.11 380.816 1436.92 386.828 1438.68 392.783C1459.8 462.527 1484.71 506.648 1506.69 545.54C1521.91 572.47 1535.03 595.618 1543.9 622.344C1556.56 660.675 1552.16 702.114 1532.33 731.019C1518.84 750.7 1491.86 773.456 1440.17 770.048C1407.35 767.885 1369.14 755.296 1326.54 732.722C1246.43 689.945 1156.62 635.386 1064.43 578.313C986.022 529.24 898.18 500.529 807.61 494.372C781.344 492.663 754.987 492.715 728.689 494.527C691.687 497.07 648.755 505.597 603.343 514.603C538.482 527.362 471.384 540.616 417.249 537.048Z" fill="url(#paint12_linear_1220_1290)"/>
<path d="M1085.35 123.405C1072.66 122.639 1059.91 123.598 1047.39 126.26C1037.26 128.324 1027.25 131.137 1017.45 134.678C979.72 148.262 931.51 175.189 861.292 221.664C809.671 255.758 754.688 255.402 690.991 254.953C638.063 254.625 577.833 254.351 506.262 273.043C447.305 288.387 398.673 309.823 361.681 336.74C328.222 361.318 305.809 389.249 296.8 418.171C292.153 432.525 291.103 447.935 293.76 462.79C296.417 477.646 302.683 491.402 311.904 502.624C330.621 527.053 360.804 540.291 404.16 543.149C460.393 546.855 529.32 532.596 596.01 518.833C640.949 509.582 683.407 500.81 719.242 498.136C746.992 496.041 774.816 495.889 802.542 497.681C892.757 503.796 980.341 531.898 1058.88 579.929L1087.47 597.241C1172.27 648.416 1252.01 696.74 1324.36 736.06C1368.15 759.837 1407.54 773.04 1441.54 775.281C1493.18 778.685 1521.17 756.156 1535.87 736.663C1557.35 708.028 1564.28 665.362 1554.23 625.382C1546.5 594.017 1532.97 565.967 1517.43 533.445C1493.7 486.279 1474.01 436.783 1458.6 385.578C1457.36 381.425 1456.17 377.168 1454.93 372.962C1448.63 351.12 1442.07 328.725 1433.83 307.291C1425.72 287.272 1415.45 268.4 1403.25 251.065C1385.4 224.605 1369.66 212.318 1352 211.154L1349.86 211.013C1341.19 210.924 1333.03 211.457 1325.3 211.965C1317.58 212.474 1309.9 212.986 1302.72 212.727C1280.36 212.06 1258.21 208.278 1236.8 201.471C1208.92 192.617 1188.6 176.868 1168.85 162.174C1143.94 143.337 1120.56 125.726 1085.35 123.405ZM404.067 541.589C361.101 538.757 331.249 525.701 312.803 501.612C303.748 490.603 297.596 477.102 294.989 462.521C292.383 447.941 293.418 432.817 297.988 418.731C306.881 390.07 329.145 362.182 362.088 337.998C398.923 311.232 447.391 290.054 506.213 274.539C577.78 255.901 637.895 256.435 690.973 256.72C754.861 257.235 810.039 257.604 862.02 223.265C932.189 176.787 980.242 150.01 1017.87 136.42C1027.54 132.881 1037.42 130.078 1047.42 128.03C1059.82 125.363 1072.46 124.396 1085.04 125.152C1119.86 127.447 1143.04 145.045 1167.63 163.7C1187.4 178.717 1207.88 194.262 1235.95 203.183C1257.49 210.04 1279.77 213.849 1302.26 214.518C1309.48 214.993 1316.97 214.255 1324.99 213.766C1333 213.276 1340.98 212.731 1349.54 212.813L1351.64 212.951C1368.9 214.089 1384.42 226.2 1401.9 252.208C1413.97 269.463 1424.11 288.237 1432.11 308.142C1440.49 329.639 1446.86 351.967 1453.16 373.809C1454.4 378.016 1455.59 382.273 1456.83 386.426C1472.21 437.708 1491.9 487.277 1515.65 534.506C1531.09 566.968 1544.48 594.955 1552.32 626.166C1562.21 665.601 1555.27 707.676 1534.21 735.964C1513.14 764.252 1481.83 776.276 1441.45 773.615C1407.65 771.387 1368.46 758.09 1324.86 734.485C1252.5 695.166 1172.62 646.832 1088.02 595.67L1059.22 578.558C980.492 530.437 892.717 502.269 802.303 496.112C774.574 494.347 746.75 494.517 718.999 496.62C683.115 499.29 640.608 508.059 595.569 517.358C528.979 531.074 460.104 545.283 404.067 541.589Z" fill="url(#paint13_linear_1220_1290)"/>
<path d="M1083.19 116.728C1070.74 116.072 1058.24 117.047 1045.97 119.631C1035.45 121.757 1025.06 124.652 1014.88 128.295C975.056 142.49 924.811 170.569 852.139 219.346C800.235 254.012 745.461 252.705 682.044 250.989C626.981 249.609 564.675 248.127 489.494 268.831C378.641 299.396 300.948 355.985 281.585 420.114C276.877 434.885 275.853 450.715 278.62 465.967C281.387 481.219 287.844 495.337 297.322 506.859C316.461 531.583 347.12 545.014 390.916 547.901C449.099 551.736 519.946 536.586 588.557 521.931C633.025 512.381 675.055 503.42 709.821 500.622C739.104 498.246 768.476 497.999 797.744 499.882C887.805 505.967 975.329 533.51 1054.18 580.584C1082.89 597.582 1110.74 614.256 1138.04 630.464C1203.36 669.428 1265.29 706.24 1322.93 738.43C1367.67 763.395 1408.1 777.202 1443.02 779.504C1483.45 782.169 1516.39 769.18 1538.56 741.929C1561.18 713.851 1570.73 670.823 1563.51 629.582C1556.95 592.349 1543 557.95 1526.77 518.044C1507.63 473.075 1491.05 426.829 1477.12 379.568L1475.17 372.69C1468.59 348.023 1460.82 323.766 1451.9 300.018C1443.58 279.738 1432.79 260.81 1419.8 243.746C1400.56 217.569 1382.67 205.89 1363.02 206.791C1354.32 207.182 1346.09 208.032 1338.39 208.864C1329.41 209.826 1320.98 210.716 1312.89 210.772C1306.57 210.838 1300.31 210.64 1294.22 210.238C1276.94 209.155 1259.83 206.07 1243.19 201.036C1212.84 191.964 1191.04 174.886 1170.23 158.408C1144.44 138.013 1120.26 119.171 1083.19 116.728ZM390.837 546.128C347.431 543.267 317.152 530.022 298.284 505.637C288.931 494.31 282.561 480.412 279.837 465.393C277.114 450.373 278.137 434.783 282.801 420.248C301.982 356.642 379.306 300.458 489.661 270.02C564.497 249.348 626.848 250.886 681.862 252.262C745.439 253.775 800.502 255.154 852.765 220.245C925.535 171.474 975.661 143.709 1015.48 129.567C1025.6 125.919 1035.92 123.02 1046.38 120.89C1058.54 118.323 1070.92 117.341 1083.26 117.964C1119.88 120.378 1143.91 139.264 1169.29 159.257C1190.34 175.857 1212.13 192.989 1242.73 202.13C1259.47 207.189 1276.66 210.298 1294.04 211.405C1300.14 211.807 1306.48 212.225 1312.81 211.946C1320.95 211.893 1329.43 211.006 1338.46 210.047C1346.35 209.175 1354.59 208.325 1363.09 207.974C1382.3 207.098 1399.76 218.534 1418.69 244.315C1431.57 261.206 1442.31 279.93 1450.63 299.988C1459.52 323.682 1467.26 347.884 1473.82 372.493L1475.76 379.371C1489.58 426.681 1506.05 472.989 1525.06 518.038C1541.2 557.831 1555.1 592.173 1561.81 629.256C1568.92 670.008 1559.56 712.512 1537.26 740.13C1515.65 766.989 1483.07 779.786 1443.13 777.154C1408.4 774.865 1368.16 761.124 1323.37 736.262C1265.49 704.057 1203.79 667.261 1138.52 628.3C1111.42 612.105 1083.38 595.418 1054.62 578.416C975.627 531.107 887.91 503.386 797.627 497.196C768.262 495.303 738.792 495.543 709.411 497.917C674.597 500.711 632.515 509.722 587.949 519.266C519.623 534.797 448.825 549.95 390.837 546.128Z" fill="url(#paint14_linear_1220_1290)"/>
<path d="M1081.14 110.003C1068.94 109.295 1056.69 110.123 1044.63 112.471C1033.65 114.476 1022.8 117.341 1012.18 121.046C970.313 135.696 917.984 164.923 842.538 215.66C790.254 250.889 735.494 248.619 672.137 245.997C615.277 243.642 550.795 240.998 472.637 263.755C362.769 295.725 285.66 354.602 266.331 421.198C261.524 436.437 260.504 452.754 263.377 468.468C266.249 484.183 272.911 498.728 282.675 510.608C302.288 535.577 333.376 549.197 377.903 552.132C438.037 556.095 514.09 539.253 581.195 524.391C625.236 514.652 666.792 505.446 700.485 502.578C731.3 499.92 762.222 499.577 793.031 501.553C882.87 507.759 970.23 534.905 1049.25 581.169C1095.31 607.721 1139.19 633.808 1181.66 658.998C1230.55 687.986 1276.74 715.351 1321.26 740.73C1367.06 766.783 1408.48 781.19 1444.37 783.556C1484.41 786.196 1517.72 773.553 1540.68 747.05C1564.9 719.131 1576.66 676.731 1572.06 633.574C1567.32 588.854 1553.21 548.016 1535.21 496.369C1522.82 461.377 1509.26 421.808 1495.86 373.303L1495.58 372.32C1488.53 345.175 1479.96 318.546 1469.93 292.582C1461.28 272.054 1449.87 253.085 1436.07 236.3C1418.61 214.205 1402.34 203.223 1384.15 202.024C1381.52 201.88 1378.88 201.921 1376.26 202.146C1367.58 202.967 1359.42 204.143 1351.56 205.286C1341.67 206.723 1331.78 208.053 1322.79 208.425C1313.81 208.797 1304.11 208.747 1295.28 208.165C1279.73 207.171 1264.32 204.523 1249.27 200.258C1216.53 190.975 1193.75 172.439 1171.47 154.419C1145.03 132.695 1120.01 112.565 1081.14 110.003ZM377.657 550.669C333.763 547.776 303.052 534.395 283.714 509.712C274.099 498.044 267.537 483.747 264.707 468.296C261.876 452.846 262.879 436.801 267.612 421.818C286.906 355.755 363.646 297.283 472.967 265.438C550.922 242.775 615.307 245.411 672.07 247.76C735.573 250.392 790.576 252.678 843.268 217.208C918.617 166.464 970.987 137.347 1012.6 122.735C1023.15 119.05 1033.91 116.179 1044.81 114.144C1056.77 111.813 1068.93 110.996 1081.03 111.71C1119.5 114.246 1144.28 134.414 1170.6 155.807C1192.86 173.935 1215.88 192.646 1248.91 202.055C1264.03 206.372 1279.52 209.044 1295.16 210.032C1304.04 210.617 1313.39 210.698 1322.82 210.302C1332.25 209.905 1341.55 208.536 1351.75 206.852C1359.61 205.709 1367.72 204.583 1376.44 203.766C1379 203.509 1381.58 203.464 1384.14 203.63C1401.65 204.784 1417.9 215.444 1435.22 237.209C1448.95 253.826 1460.29 272.631 1468.87 292.994C1478.78 318.962 1487.18 345.6 1494.03 372.754L1494.31 373.736C1507.71 422.295 1521.51 461.933 1533.65 496.91C1551.61 548.5 1565.77 589.234 1570.48 633.791C1575.01 676.462 1563.43 718.392 1539.48 745.953C1516.84 772.102 1483.93 784.557 1444.33 781.947C1408.63 779.594 1367.4 765.252 1321.8 739.319C1277.28 713.94 1231.13 686.578 1182.24 657.591C1139.82 632.403 1095.84 606.31 1049.84 579.708C970.524 533.38 882.865 506.233 792.735 500.088C761.846 498.108 730.843 498.445 699.945 501.096C666.186 504.228 624.595 513.217 580.555 522.957C513.547 537.824 437.595 554.62 377.657 550.669Z" fill="url(#paint15_linear_1220_1290)"/>
<path d="M1079.18 103.231C1067.17 102.547 1055.12 103.297 1043.23 105.468C1031.79 107.529 1020.5 110.49 1009.44 114.329C966.078 129.309 910.038 160.595 833.072 212.839C780.31 248.626 725.513 245.443 662.129 241.747C603.573 238.37 537.064 234.522 455.927 259.386C400.48 276.462 352.118 301.236 316.29 331.283C282.809 359.181 260.345 390.858 251.47 422.95C246.583 438.632 245.583 455.403 248.573 471.545C251.563 487.687 258.435 502.62 268.485 514.814C288.516 540.133 320.039 553.835 364.81 556.786C426.943 560.881 505.021 543.047 573.897 527.338C617.362 517.401 658.441 508.002 691.065 505.01C723.428 502.031 755.918 501.576 788.286 503.651C877.88 509.846 965.083 536.429 1044.31 581.7C1106.51 616.868 1164.96 651.576 1221.47 685.138C1255.55 705.383 1287.8 724.489 1319.59 742.977C1366.34 770.217 1408.8 785.228 1445.72 787.662C1485.42 790.279 1519.09 778.035 1543.08 752.19C1568.55 724.781 1582.68 681.948 1580.85 637.635C1578.65 583.44 1563.03 531.95 1543.13 466.786C1534.23 437.541 1524.18 404.363 1514.19 367.065C1507.32 339.037 1498.6 311.609 1488.11 284.994C1479.21 264.199 1467.22 245.185 1452.63 228.714C1431.83 204.63 1411.38 194.658 1389.43 197.764C1381.02 198.924 1373.04 200.327 1365.37 201.535C1353.93 203.513 1343.12 205.425 1332.94 206.147C1321.08 207.047 1309.2 207.123 1297.36 206.373C1283.26 205.487 1269.28 203.184 1255.59 199.495C1220.51 190.005 1196.37 169.772 1173.02 150.181C1145.77 127.387 1119.76 105.906 1079.18 103.231ZM364.477 555.157C320.096 552.231 288.903 538.712 269.242 513.739C259.364 501.731 252.611 487.035 249.673 471.153C246.736 455.271 247.719 438.771 252.522 423.34C261.459 391.789 283.77 360.209 316.99 332.561C352.946 302.791 401.123 277.843 456.365 260.915C537.303 236.091 603.614 239.98 662.121 243.354C725.798 247.069 780.741 250.262 833.914 214.18C910.824 162.04 966.764 130.801 1009.97 115.865C1020.95 112.039 1032.16 109.089 1043.52 107.041C1055.31 104.881 1067.27 104.142 1079.17 104.838C1119.46 107.493 1145.13 129.005 1172.28 151.793C1195.47 171.481 1219.95 191.843 1255.37 201.356C1269.13 205.091 1283.19 207.417 1297.38 208.303C1309.27 209.056 1321.2 208.984 1333.1 208.086C1343.39 207.318 1354.24 205.408 1365.74 203.434C1373.42 202.066 1381.35 200.66 1389.69 199.656C1411.2 196.681 1431.22 206.518 1451.7 230.152C1466.27 246.509 1478.27 265.395 1487.2 286.06C1497.63 312.546 1506.33 339.826 1513.22 367.697C1523.25 405.052 1533.31 438.23 1542.16 467.472C1561.92 532.52 1577.54 583.902 1579.91 637.894C1581.91 681.79 1567.76 724.14 1542.56 751.244C1518.9 776.469 1485.61 788.845 1446.35 786.257C1409.62 783.837 1367.36 768.891 1320.8 741.77C1289 723.283 1256.81 704.18 1222.73 683.935C1166.16 650.37 1107.76 615.666 1045.52 580.494C965.973 535.015 878.398 508.35 788.43 502.214C755.997 500.134 723.442 500.584 691.013 503.56C658.278 506.759 617.161 515.995 573.647 525.929C504.391 541.452 426.415 559.239 364.477 555.157Z" fill="url(#paint16_linear_1220_1290)"/>
<path d="M1077.28 96.4111C1065.45 95.7401 1053.56 96.4291 1041.83 98.4671C1030.02 100.526 1018.36 103.553 1006.94 107.524C961.548 122.959 903.368 155.496 823.865 209.823C775.752 242.703 725.472 242.335 673.873 238.934L652.121 237.5L628.76 235.96C576.576 232.521 514.626 230.848 439.408 255.084C333.266 289.228 255.314 354.209 236.02 424.718C231.074 440.853 230.104 458.081 233.21 474.655C236.315 491.228 243.385 506.558 253.703 519.091C274.207 544.655 306.159 558.546 351.369 561.525C415.551 565.756 495.657 546.877 566.31 530.214C609.249 520.081 649.799 510.54 681.398 507.481C715.226 503.975 749.216 503.225 783.086 505.238C872.724 511.381 960.049 537.517 1039.69 582.039C1117.38 624.979 1189.49 668.086 1259.23 709.858L1318.18 745.027C1365.93 773.405 1409.43 789.021 1447.37 791.522C1487.32 794.155 1520.41 782.569 1545.75 757.027C1572.87 729.728 1588.93 687.557 1589.81 641.387C1591.12 575.478 1574.21 513.243 1550.75 427.06C1545.03 406.007 1538.88 384.227 1532.94 360.535C1526.14 332.131 1517.27 304.391 1506.42 277.579C1497.11 256.504 1484.46 237.429 1469.04 221.226C1447.38 198.371 1425.85 189.078 1402.6 193.277C1394.67 194.683 1387.13 196.221 1379.83 197.722C1366.82 200.4 1354.51 202.909 1343.02 204.08C1328.75 205.606 1314.42 205.932 1300.14 205.058C1287.24 204.23 1274.45 202.204 1261.89 199.001C1224.42 189.353 1199.12 167.491 1174.65 146.379C1146.56 122.083 1119.91 99.2211 1077.28 96.4111ZM673.523 240.518C725.366 243.935 776.138 244.282 824.366 211.142C903.817 156.865 961.795 124.422 1006.9 109.021C1018.3 105.07 1029.96 102.077 1041.77 100.07C1053.39 97.9971 1065.16 97.3001 1076.88 97.9921C1119.07 100.773 1145.53 123.622 1173.52 147.858C1198.13 169.086 1223.57 191.065 1261.33 200.786C1273.96 204.041 1286.84 206.09 1299.82 206.912C1314.18 207.79 1328.6 207.468 1342.94 205.95C1354.48 204.782 1366.85 202.169 1379.85 199.545C1387.15 198.044 1394.75 196.509 1402.58 195.097C1425.37 191.242 1446.35 199.857 1467.82 222.645C1483.12 238.741 1495.65 257.703 1504.84 278.652C1515.67 305.392 1524.53 333.059 1531.32 361.392C1537.45 385.097 1543.4 406.917 1549.12 427.971C1572.54 513.99 1589.46 576.119 1588.17 641.814C1587.26 687.501 1571.34 729.252 1544.52 756.304C1519.5 781.438 1486.76 792.939 1447.25 790.336C1409.41 787.841 1366.15 772.295 1318.54 744.033C1299.22 732.546 1279.58 720.806 1259.64 708.814C1189.89 667.095 1117.75 623.931 1040.05 580.992C960.222 536.406 872.702 510.239 782.867 504.098C748.874 501.913 714.751 502.475 680.775 505.779C649.064 509.046 608.477 518.423 565.485 528.606C494.874 545.379 414.928 564.054 350.941 559.837C306.121 556.882 274.501 543.174 254.268 517.95C244.114 505.61 237.161 490.515 234.116 474.198C231.07 457.881 232.041 440.922 236.929 425.046C256.233 355.127 333.572 290.534 439.087 256.241C514.151 232.102 575.91 233.709 627.948 237.139C635.848 237.659 643.652 238.174 651.26 238.675L673.523 240.518Z" fill="url(#paint17_linear_1220_1290)"/>
<path d="M1075.48 89.5949C1063.78 88.8979 1052.03 89.5419 1040.43 91.5169C1028.09 93.5419 1015.9 96.5889 1003.97 100.631C956.533 116.574 896.412 150.323 814.319 206.782C772.051 235.708 728.913 239.186 677.119 235.772C665.512 235.007 653.828 233.915 641.413 232.775C628.997 231.636 615.119 230.4 601.317 229.49C552.547 226.275 493.233 226.223 422.513 249.845C317.311 285.336 239.939 352.659 220.63 425.631C210.972 462.17 217.286 495.691 238.736 522.496C259.662 548.355 292.094 562.385 337.792 565.397C404.022 569.762 486.107 549.835 558.586 532.222C600.948 521.943 640.971 512.207 671.546 509.08C707.002 505.404 742.632 504.708 778.122 506.998C867.598 513.145 954.837 538.783 1034.72 582.407C1127.71 632.622 1213.24 684.488 1295.9 734.665L1316.48 747.11C1365.28 776.682 1409.81 792.955 1448.92 795.533C1493.74 798.487 1531.74 783.1 1558.73 751.025C1582.38 721.449 1596.45 684.235 1598.72 645.241C1604.85 564.865 1584.78 485.173 1556.75 374.637L1551.5 353.882C1544.82 325.163 1535.85 297.165 1524.69 270.211C1515.08 248.897 1501.81 229.839 1485.58 214.065C1468.8 197.478 1451.98 188.817 1434.23 187.646C1428.08 187.251 1421.91 187.726 1415.86 189.061C1408.71 190.625 1401.79 192.258 1395.12 193.801C1380.2 197.263 1366.27 200.523 1353.28 202.185C1336.78 204.467 1320.15 205.163 1303.57 204.265C1291.7 203.505 1279.91 201.707 1268.32 198.888C1228.5 189.139 1201.93 165.64 1176.49 142.964C1147.45 116.784 1119.96 92.5269 1075.48 89.5949ZM677 237.585C729.086 241.018 772.486 237.29 814.917 208.107C896.906 151.748 957.316 118.072 1004.37 101.996C1016.25 97.9689 1028.39 94.9359 1040.68 92.9259C1052.17 90.9849 1063.8 90.3509 1075.38 91.0349C1119.28 93.9289 1146.67 118.179 1175.6 143.816C1201.26 166.934 1227.9 190.117 1268 200.045C1279.66 202.914 1291.53 204.735 1303.49 205.492C1320.15 206.395 1336.86 205.705 1353.44 203.427C1366.48 201.769 1380.56 198.466 1395.44 195C1402.1 193.457 1409.02 191.824 1416.18 190.26C1422.1 188.961 1428.13 188.495 1434.15 188.873C1451.56 190.021 1468.09 198.503 1484.65 214.861C1500.74 230.656 1513.88 249.705 1523.37 270.98C1534.57 297.997 1543.55 326.068 1550.21 354.869L1555.51 375.627C1583.37 485.723 1603.55 565.315 1597.43 645.424C1591.48 723.936 1543.14 800.404 1449.2 794.213C1410.19 791.641 1365.95 775.44 1317.39 745.992L1296.8 733.546C1214.1 683.366 1128.57 631.393 1035.57 581.285C955.543 537.457 868.112 511.66 778.422 505.411C742.852 503.112 707.141 503.803 671.603 507.477C640.965 510.814 600.903 520.387 558.493 530.662C486.115 548.229 404.176 568.165 338.092 563.81C292.785 560.823 260.83 546.986 240.03 521.456C218.749 495.037 212.498 462.056 221.828 426.031C241.004 353.586 317.958 286.664 422.707 251.357C493.239 227.616 552.399 227.765 601.023 230.97C614.825 231.88 628.167 233.081 641.119 234.256C654.071 235.431 665.392 236.82 677 237.585Z" fill="url(#paint18_linear_1220_1290)"/>
<path d="M1073.68 82.728C1062.19 82.08 1050.67 82.684 1039.27 84.532C1026.47 86.551 1013.82 89.658 1001.43 93.822C951.957 110.22 889.539 145.371 804.919 203.753C761.295 233.929 717.012 235.456 675.655 232.73C661.024 231.766 646.435 230.161 630.968 228.499C614.428 226.766 597.307 224.941 579.408 223.761C520.971 218.73 462.061 226.144 405.944 245.593C353.088 264.233 306.253 291.84 270.532 325.483C237.059 356.97 214.55 392.287 205.566 427.532C195.872 465.354 202.426 499.694 224.591 526.814C245.937 552.969 278.749 567.184 324.935 570.229C393.213 574.729 477.441 553.497 551.684 535.142C593.418 524.716 632.912 514.838 662.463 511.643C699.464 507.574 736.667 506.731 773.721 509.12C863.062 515.304 950.235 540.502 1030.35 583.298C1129.76 635.704 1221.86 691.914 1315.38 749.717C1365.13 780.423 1410.79 797.36 1451.03 800.012C1551.74 806.65 1598.58 723.12 1607.88 649.649C1619.48 559.831 1599.62 468.1 1570.29 348.319C1563.7 318.952 1554.53 290.381 1542.9 263.002C1533.01 241.336 1519.12 222.184 1502.08 206.744C1488.13 192.847 1470.35 184.376 1451.46 182.623C1443.97 182.152 1436.45 182.865 1429.13 184.74L1411.39 189.303C1394.36 193.537 1378.2 197.829 1363.46 200.125C1344.87 203.055 1326.09 203.988 1307.38 202.91C1296.38 202.187 1285.45 200.59 1274.69 198.13C1232.62 188.287 1205.03 163.167 1178.42 138.914C1148.39 111.49 1120.06 85.785 1073.68 82.728ZM675.347 234.424C716.949 237.166 761.482 235.548 805.469 205.075C890.012 146.367 952.301 111.689 1001.63 95.335C1013.94 91.191 1026.53 88.098 1039.27 86.085C1050.66 84.233 1062.19 83.647 1073.67 84.335C1119.56 87.36 1147.7 112.998 1177.75 140.156C1204.55 164.528 1232.23 189.761 1274.68 199.683C1285.51 202.191 1296.5 203.811 1307.57 204.53C1326.38 205.615 1345.25 204.688 1363.94 201.763C1378.78 199.527 1394.92 195.342 1411.97 190.895L1429.76 186.282C1436.94 184.483 1444.31 183.797 1451.64 184.242C1470.24 185.96 1487.74 194.301 1501.46 207.989C1518.33 223.314 1532.08 242.31 1541.87 263.791C1553.44 291.076 1562.56 319.555 1569.08 348.828C1598.36 468.606 1618.2 559.961 1606.67 649.515C1597.26 722.39 1550.9 805.202 1451.17 798.629C1411.17 795.993 1365.7 779.122 1316.14 748.482C1222.58 690.676 1130.38 634.46 1031.02 582.004C950.739 539.129 863.389 513.884 773.865 507.683C736.634 505.265 699.25 506.097 662.07 510.171C632.457 513.576 592.924 523.29 551.093 533.711C476.937 552.232 392.918 573.263 324.786 568.772C279.039 565.757 246.509 551.721 225.385 525.902C203.635 499.185 197.162 465.118 206.694 428.249C215.609 393.321 237.953 358.261 271.217 326.974C306.782 293.482 353.609 265.981 406.117 247.426C462.044 228.042 520.75 220.634 578.993 225.609C596.842 226.785 613.961 228.664 630.5 230.397C646.124 231.909 660.716 233.46 675.347 234.424Z" fill="url(#paint19_linear_1220_1290)"/>
<path d="M1071.98 75.8659C1060.5 75.1919 1048.98 75.7419 1037.58 77.5099C1024.38 79.5249 1011.33 82.6769 998.555 86.9359C947.055 103.576 882.4 139.972 795.128 200.697C752.26 230.547 710.363 232.286 671.493 229.724C654.863 228.627 637.856 226.542 619.878 224.339C600.444 221.934 580.281 219.426 559.018 218.025C501.595 213.198 443.734 221.08 388.893 241.201C287.041 278.628 208.94 352.545 189.922 429.286C180.242 468.395 187.081 503.611 209.667 531.026C231.435 557.477 264.731 571.778 311.404 574.854C381.877 579.499 468.026 557.376 544.06 537.854C585.216 527.282 624.079 517.308 652.606 514.046C691.166 509.551 729.963 508.525 768.602 510.978C857.815 517.18 944.925 541.938 1025.26 583.927C1128.53 637.177 1224.81 696.18 1313.51 752.004C1364.31 783.957 1411.05 801.555 1452.51 804.288C1552.54 810.881 1602.88 730.795 1616.69 653.603C1633.07 561.798 1617.37 462.627 1588.73 342.034C1582.26 312.194 1572.94 283.212 1560.93 255.565C1550.71 233.555 1536.18 214.313 1518.35 199.192C1504.28 186.535 1486.97 178.893 1468.71 177.278C1459.79 176.733 1450.84 177.715 1442.16 180.189L1428.48 184.108C1407.97 189.934 1390.24 195.033 1373.45 197.89C1352.88 201.645 1332.01 202.928 1311.24 201.717C1301.02 201.069 1290.87 199.63 1280.86 197.412C1236.83 187.6 1207.93 160.893 1180.25 135.016C1149.38 106.198 1120.21 79.0449 1071.98 75.8659ZM671.534 231.333C708.795 233.789 752.736 232.239 795.921 202.035C883.186 141.417 947.479 105.318 998.798 88.4519C1011.56 84.2259 1024.59 81.0909 1037.77 79.0759C1049.04 77.3209 1060.43 76.7799 1071.77 77.4599C1119.52 80.6069 1148.5 107.64 1179.19 136.232C1206.86 162.215 1235.85 189.089 1280.6 199.109C1290.68 201.305 1300.9 202.748 1311.17 203.427C1332.05 204.649 1353.01 203.372 1373.68 199.62C1390.57 196.716 1408.49 191.629 1428.92 185.744L1442.54 181.874C1451.06 179.394 1459.88 178.401 1468.65 178.935C1486.62 180.547 1503.64 188.096 1517.48 200.58C1535.14 215.538 1549.54 234.59 1559.65 256.392C1571.62 283.939 1580.91 312.809 1587.37 342.534C1615.93 462.961 1631.69 561.921 1615.27 653.457C1601.61 729.961 1551.71 809.326 1452.66 802.798C1411.44 800.081 1364.89 782.603 1314.33 750.826C1225.58 694.998 1129.25 635.992 1025.93 582.686C945.45 540.657 858.195 515.871 768.836 509.655C730.116 507.196 691.239 508.217 652.596 512.706C623.958 516.176 586.851 525.514 543.9 536.557C467.964 556.086 381.868 578.159 311.638 573.53C265.355 570.48 232.394 556.308 210.894 530.25C188.624 503.23 181.949 468.507 191.493 429.979C210.337 353.655 288.061 280.248 389.463 242.953C444.135 222.934 501.806 215.094 559.041 219.901C580.256 221.299 600.369 223.804 619.807 226.156C637.869 227.829 654.855 230.234 671.534 231.333Z" fill="url(#paint20_linear_1220_1290)"/>
<path d="M1070.28 68.8439C1058.94 68.1799 1047.56 68.6859 1036.29 70.3529C1022.57 72.3759 1009 75.6019 995.732 80.0009C942.277 97.3149 875.597 134.703 785.784 197.563C743.537 226.919 701.776 228.827 666.32 226.49C647.885 225.275 628.956 222.634 608.908 219.867C587.018 216.817 564.352 213.662 540.162 212.068C483.307 207.54 426.07 215.857 372.012 236.5C271.002 275.267 193.482 351.526 174.539 430.843C164.872 471.238 171.954 507.22 194.958 534.984C217.199 561.681 251.021 576.177 298.036 579.276C370.655 584.062 462.727 559.758 536.702 540.261C578.973 529.12 615.464 519.472 643.012 516.199C683.115 511.32 723.485 510.182 763.684 512.797C852.748 519.021 939.779 543.322 1020.33 584.459C1130.7 639.944 1234.11 704.453 1311.89 754.308C1363.59 787.499 1411.36 805.754 1454.23 808.58C1500.08 811.601 1539.14 797.088 1570.32 765.503C1603.39 731.953 1618.56 688.331 1625.48 657.612C1644.57 573.162 1638.93 473.637 1607.22 335.753C1600.98 305.412 1591.49 276.019 1578.95 248.182C1568.46 225.79 1553.29 206.447 1534.67 191.696C1520.63 180.136 1503.82 173.23 1486.21 171.79C1475.78 171.174 1465.31 172.495 1455.24 175.694L1447.39 178.123C1423.44 185.544 1402.79 192.003 1383.44 195.71C1361.01 200.244 1338.19 201.887 1315.47 200.604C1305.93 200.008 1296.44 198.703 1287.08 196.697C1240.42 186.711 1210.64 158.393 1181.89 130.84C1150.41 100.91 1120.42 72.1489 1070.28 68.8439ZM666.403 228.209C701.907 230.55 743.947 228.874 786.57 199.008C876.22 136.404 942.809 98.9039 996.163 81.6359C1009.36 77.2859 1022.83 74.0909 1036.47 72.0789C1047.64 70.4219 1058.93 69.9279 1070.17 70.6039C1119.81 73.8769 1149.63 102.305 1181.2 132.401C1210.1 159.964 1240.01 188.452 1287.07 198.303C1296.5 200.285 1306.05 201.595 1315.66 202.223C1338.5 203.525 1361.43 201.872 1383.97 197.298C1405.55 192.68 1426.91 186.865 1447.96 179.875L1455.81 177.446C1465.72 174.298 1476.03 173.003 1486.29 173.616C1503.62 175.032 1520.17 181.828 1533.98 193.204C1552.41 207.788 1567.44 226.897 1577.86 249.021C1590.33 276.875 1599.77 306.26 1605.99 336.583C1637.62 474.14 1643.24 573.182 1624.26 657.638C1615.89 694.584 1578.89 815.35 1454.52 807.152C1412.09 804.356 1364.41 786.16 1312.81 753.083C1235.03 703.227 1131.56 638.822 1021.15 583.174C940.428 541.964 853.22 517.616 763.974 511.37C723.693 508.778 683.244 509.911 643.058 514.756C615.395 518.289 578.869 527.72 536.595 538.915C462.721 558.365 370.75 582.622 298.326 577.849C251.604 574.769 218.21 560.462 196.244 534.051C173.553 506.736 166.586 471.244 176.12 431.376C194.931 352.586 272.112 277.001 372.683 238.204C426.517 217.633 483.519 209.338 540.143 213.834C564.284 215.425 586.902 218.577 608.792 221.627C628.989 224.351 647.919 226.991 666.403 228.209Z" fill="url(#paint21_linear_1220_1290)"/>
<path d="M1068.76 62.1549C1057.55 61.4669 1046.28 61.9259 1035.12 63.5269C1020.94 65.5319 1006.92 68.7809 993.188 73.2439C938.427 91.0619 867.593 130.532 776.521 194.649C743.339 218.014 708.726 226.66 660.736 223.497C640.692 222.176 620.133 218.999 598.312 215.633C574.064 211.945 549.336 208.119 522.61 206.357C466.1 201.888 409.227 210.667 355.793 232.109C307.025 251.094 262.32 280.995 224.564 319.881C191.504 354.77 168.438 394.818 159.72 432.705C150.115 474.39 157.437 511.191 180.866 539.198C203.578 566.193 237.682 580.869 285.33 584.009C360.144 588.94 454.352 563.438 530.059 542.93C571.603 531.687 607.46 521.998 634.032 518.661C675.659 513.344 717.591 512.039 759.341 514.76C848.302 520.998 935.293 544.883 1016.06 585.249C1104.73 628.912 1198.42 683.405 1310.85 756.757C1363.68 791.255 1412.74 810.183 1456.63 813.076C1502.72 816.114 1542.46 801.753 1574.84 770.461C1609.32 737.111 1626.53 692.981 1634.9 661.928C1659.01 572.453 1656.18 463.793 1626.32 329.834C1620.18 299.021 1610.53 269.214 1597.58 241.108C1586.81 218.326 1571.01 198.881 1551.6 184.509C1537.72 173.993 1521.47 167.761 1504.54 166.462C1492.52 165.782 1480.46 167.473 1468.94 171.455C1444.32 180.315 1419.3 187.767 1394 193.781C1369.76 199.16 1345.05 201.22 1320.42 199.912C1311.48 199.32 1302.6 198.126 1293.81 196.337C1244.85 186.254 1214.06 156.315 1184.28 127.354C1151.49 95.6239 1120.65 65.5759 1068.76 62.1549ZM660.436 225.084C708.718 228.266 743.61 219.853 777.12 195.974C868.233 131.967 938.785 92.3169 993.448 74.4929C1007.08 70.0429 1021 66.8039 1035.08 64.8099C1046.17 63.2499 1057.35 62.8039 1068.48 63.4759C1119.98 66.8699 1150.69 96.6959 1183.14 128.297C1213.1 157.431 1244.03 187.539 1293.38 197.701C1302.23 199.475 1311.18 200.655 1320.18 201.236C1344.91 202.585 1369.73 200.513 1394.06 195.07C1419.37 189.086 1444.39 181.633 1469.01 172.744C1480.35 168.834 1492.22 167.167 1504.06 167.823C1520.73 169.118 1536.73 175.258 1550.4 185.609C1569.59 199.775 1585.23 218.927 1595.95 241.375C1608.74 269.405 1618.3 299.091 1624.41 329.762C1654.2 463.448 1657 571.838 1632.99 661.053C1606.21 760.53 1540.15 816.653 1456.22 811.121C1412.33 808.228 1363.75 789.385 1311.11 755.06C1198.39 681.635 1104.9 627.102 1016.18 583.435C935.248 543.044 848.095 519.148 758.973 512.915C717.237 510.239 675.326 511.546 633.712 516.818C607.025 520.416 571.13 529.942 529.538 541.182C453.932 561.643 359.971 587.108 285.255 582.183C237.996 579.068 204.174 564.572 181.786 537.866C158.674 510.255 151.467 473.944 160.936 432.839C179.441 352.743 257.855 272.579 356.102 233.362C409.348 212.011 466.017 203.273 522.323 207.731C549 209.49 573.875 213.325 597.928 217C619.735 220.58 640.342 223.76 660.436 225.084Z" fill="url(#paint22_linear_1220_1290)"/>
<path d="M1066.97 55.2331C1055.82 54.5661 1044.63 54.9931 1033.52 56.5111C1018.89 58.5181 1004.42 61.8281 990.257 66.4081C933.573 84.4201 860.484 125.403 766.875 191.603C734.504 214.538 699.679 223.439 653.933 220.423C632.474 219.009 610.19 215.237 587.036 211.3C560.977 206.85 534.082 202.453 504.966 200.534C448.581 196.096 391.85 205.363 338.842 227.671C240.893 268.3 162.676 351.424 144.222 434.469C134.686 477.337 142.247 514.957 166.16 543.049C189.245 570.337 223.829 585.151 271.917 588.321C348.974 593.4 445.322 566.646 522.758 545.18C563.573 533.836 598.799 524.052 624.393 520.703C667.56 514.943 711.07 513.472 754.387 516.308C843.222 522.601 930.149 546.049 1011.14 585.567C1102.87 629.753 1197.59 684.796 1309.19 758.843C1363.07 794.535 1413.3 814.238 1458.46 817.214C1504.8 820.268 1545.26 806.062 1578.8 775.007C1607.18 748.755 1629.61 710.915 1643.71 665.616C1673.06 571.129 1673.41 455.875 1644.78 323.283C1638.85 291.996 1629.13 261.758 1615.88 233.367C1604.7 210.353 1588.25 190.948 1568.11 177.026C1554.49 167.5 1538.86 161.901 1522.65 160.745C1508.96 160.006 1495.24 162.12 1482.22 166.973C1456.66 176.74 1430.64 184.95 1404.28 191.566C1378.38 197.86 1351.85 200.327 1325.43 198.903C1316.99 198.357 1308.59 197.266 1300.27 195.637C1249.06 185.566 1217.2 153.951 1186.4 123.422C1152.62 90.3411 1120.9 58.8421 1066.97 55.2331ZM653.831 221.97C699.919 225.008 734.991 216.07 767.669 192.94C861.124 126.838 934.053 86.0591 990.646 67.9341C1004.73 63.3911 1019.12 60.0941 1033.67 58.0741C1044.69 56.5941 1055.8 56.1791 1066.86 56.8341C1120.51 60.3701 1151.8 91.6271 1185.18 124.735C1216.17 155.436 1248.17 187.222 1299.77 197.372C1308.14 199.004 1316.61 200.099 1325.12 200.65C1351.66 202.059 1378.3 199.581 1404.32 193.282C1430.74 186.654 1456.83 178.43 1482.45 168.648C1495.28 163.839 1508.8 161.748 1522.29 162.489C1538.25 163.641 1553.65 169.15 1567.08 178.512C1587.04 192.273 1603.33 211.51 1614.34 234.337C1627.6 262.592 1637.36 292.686 1643.37 323.833C1671.92 456.152 1671.55 571.029 1642.31 665.309C1627.4 713.18 1579.75 823.763 1458.56 815.774C1413.64 812.814 1363.58 793.444 1309.95 757.768C1198.3 683.718 1103.53 628.618 1011.71 584.426C930.561 544.836 843.472 521.341 754.472 515.028C711.057 512.214 667.452 513.679 624.185 519.404C598.521 523.069 563.264 532.584 522.4 543.925C445.048 565.61 348.863 592.107 272.001 587.041C224.304 583.897 189.904 569.256 167.192 542.26C143.655 514.407 136.208 477.277 145.611 434.935C163.985 352.367 241.819 269.861 339.377 229.206C392.184 206.997 448.691 197.753 504.861 202.134C533.879 204.047 560.764 208.604 586.785 212.89C610.183 216.843 632.177 220.543 653.831 221.97Z" fill="url(#paint23_linear_1220_1290)"/>
<path d="M1065.36 48.3788C1054.29 47.7098 1043.17 48.0878 1032.13 49.5088C1017 51.5048 1002.03 54.8538 987.382 59.5228C928.656 78.0438 853.375 120.328 757.281 188.56C725.21 211.408 691.123 220.25 646.742 217.325C622.886 215.22 599.163 211.743 575.67 206.909C546.654 201.019 517.349 196.852 487.884 194.426C431.513 190.154 374.839 199.955 322.149 223.089C224.907 264.89 147.189 350.832 128.87 436.296C119.399 480.401 127.253 518.791 151.573 547.392C175.083 574.921 210.099 589.871 258.723 593.076C338.024 598.303 436.557 570.354 515.679 547.821C555.613 536.472 590.303 526.652 614.876 523.183C659.631 516.965 704.77 515.295 749.71 518.197C838.429 524.532 925.3 547.583 1006.49 586.332C1099.62 629.968 1198.16 687.298 1307.79 761.537C1362.76 798.586 1414.17 818.956 1460.55 822.013C1583.21 830.097 1635.78 718.446 1652.68 670.064C1687.27 571.155 1690.99 449.213 1663.45 317.229C1657.5 285.483 1647.53 254.846 1633.84 226.195C1622.37 202.803 1605.27 183.327 1584.36 169.848C1571.07 161.291 1556.1 156.286 1540.65 155.236C1525.24 154.474 1509.81 157.1 1495.27 162.958C1468.74 173.598 1441.69 182.547 1414.25 189.759C1386.67 196.915 1358.35 199.808 1330.12 198.355C1322.18 197.859 1314.28 196.873 1306.46 195.403C1253.25 185.253 1220.06 152.211 1188.25 119.902C1153.76 85.0598 1121.2 52.0588 1065.36 48.3788ZM646.978 218.947C691.701 221.895 726.087 212.966 758.416 189.92C854.217 121.669 929.341 79.5348 987.917 61.0578C1002.44 56.4238 1017.27 53.1018 1032.26 51.1248C1043.22 49.6588 1054.26 49.2568 1065.26 49.9248C1120.61 53.5738 1152.94 86.2918 1187.25 120.908C1219.41 153.186 1252.28 186.582 1306.12 196.827C1314.01 198.274 1321.98 199.263 1329.98 199.792C1358.34 201.243 1386.79 198.322 1414.5 191.115C1442 183.939 1469.1 174.993 1495.67 164.324C1510.04 158.611 1525.28 156.083 1540.49 156.886C1555.74 157.909 1570.51 162.827 1583.63 171.246C1604.33 184.613 1621.25 203.909 1632.6 227.078C1646.25 255.578 1656.16 286.072 1662.05 317.672C1689.53 449.117 1685.82 570.738 1651.36 669.334C1634.57 717.402 1582.4 828.276 1460.71 820.256C1414.48 817.208 1363.26 796.958 1308.53 760.032C1198.84 686.004 1100.19 628.773 1007.03 584.814C925.71 545.984 838.688 522.904 749.815 516.597C704.846 513.659 659.675 515.309 614.887 521.523C590.171 524.93 555.576 534.809 515.297 546.189C436.276 568.675 337.889 596.634 258.832 591.423C210.598 588.243 175.916 573.423 152.633 546.176C128.689 517.814 121.006 479.81 130.469 436.562C148.715 351.468 226.004 266.087 322.807 224.257C375.364 201.243 431.88 191.524 488.085 195.832C517.504 198.228 546.762 202.392 575.725 208.305C599.274 213.217 623.058 216.769 646.978 218.947Z" fill="url(#paint24_linear_1220_1290)"/>
<path d="M1063.75 41.63C1052.76 40.954 1041.72 41.302 1030.76 42.67C1015.24 44.552 999.865 47.839 984.807 52.497C923.736 71.666 846.271 115.146 747.987 185.376C716.22 208.084 682.722 216.911 639.511 214.063C614.402 211.826 589.452 207.981 564.789 202.549C534.048 195.769 502.936 191.053 471.624 188.426C415.064 184.149 358.219 194.438 305.652 218.466C257.509 239.982 214.094 272.615 178.411 314.107C145.236 352.953 122.252 396.97 113.766 438.033C104.462 483.327 112.556 522.536 137.256 551.322C160.866 578.805 197.363 594.335 245.743 597.524C327.384 602.905 428.012 573.647 508.866 550.104C548.121 538.657 582.027 528.839 605.669 525.362C651.8 518.71 698.354 516.882 744.698 519.902C833.32 526.263 920.153 548.9 1001.56 586.864C1096.98 630.651 1196.62 688.482 1306.14 763.571C1362.1 801.917 1414.88 823.02 1462.62 826.167C1507.25 829.977 1551.75 815.214 1587.22 784.829C1617.89 758.728 1643.59 720.3 1661.54 673.809C1700.69 572.522 1708.14 440.273 1681.99 310.898C1676.18 278.675 1666.06 247.615 1651.96 218.712C1640.18 195.022 1622.51 175.501 1600.96 162.372C1573.57 146.264 1542.21 144.893 1508.7 158.326C1481.2 169.848 1453.11 179.588 1424.59 187.494C1395.38 195.532 1365.31 198.874 1335.32 197.413C1327.83 196.926 1320.37 196.005 1312.97 194.654C1257.31 184.503 1223.36 149.643 1190.52 115.927C1154.94 79.781 1121.54 45.439 1063.75 41.63ZM639.393 215.876C682.945 218.747 716.693 209.829 748.771 186.874C846.946 116.797 924.261 73.361 985.182 54.236C1000.15 49.473 1015.45 46.091 1030.91 44.126C1041.79 42.756 1052.74 42.402 1063.65 43.07C1120.91 46.844 1154.21 81.179 1189.31 117.08C1222.25 150.962 1256.35 185.779 1312.48 196.228C1319.92 197.584 1327.43 198.508 1334.97 198.996C1365.12 200.433 1395.35 197.011 1424.69 188.84C1453.28 180.976 1481.42 171.221 1508.96 159.629C1542.07 146.33 1572.98 147.778 1600.05 163.597C1621.47 176.567 1639.04 195.92 1650.74 219.434C1664.81 248.182 1674.87 279.101 1680.6 311.181C1706.72 440.18 1699.3 572.055 1660.27 673.028C1620.89 774.889 1548.92 830.087 1462.79 824.41C1415.19 821.273 1362.74 800.299 1306.97 762.019C1197.4 686.927 1097.67 629.089 1002.2 585.246C920.62 547.252 833.605 524.621 744.805 518.302C698.265 515.239 651.51 517.072 605.186 523.777C581.446 527.247 547.536 537.118 508.233 548.562C427.48 572.059 326.953 601.269 245.507 595.901C197.517 592.738 161.302 577.388 138.016 550.194C113.632 521.803 105.65 483.137 114.87 438.373C132.654 352.123 211.217 262.273 305.85 219.925C358.249 196.008 414.905 185.781 471.272 190.064C502.534 192.691 533.598 197.404 564.289 204.176C589.075 209.683 614.153 213.59 639.393 215.876Z" fill="url(#paint25_linear_1220_1290)"/>
<path d="M1062.21 34.5648C1051.27 33.8816 1040.29 34.1968 1029.37 35.5078C1013.39 37.5298 997.563 40.9838 982.063 45.8348C919.051 65.4648 839.4 110.14 738.524 182.557C706.958 205.171 674.038 214.143 631.755 211.356C605.306 208.864 579.055 204.486 553.169 198.248C520.846 190.548 488.054 185.272 455.021 182.458C398.221 178.211 341.162 189.042 288.703 214.028C194.215 257.886 115.891 350.805 98.2065 440.007C88.9713 486.484 97.4095 526.412 122.482 555.492C146.468 583.213 183.296 598.926 232.31 602.156C316.244 607.689 419.025 576.966 501.604 552.518C540.075 541.073 573.25 531.207 595.962 527.722C643.708 520.543 691.93 518.518 739.928 521.677C828.46 528.079 915.258 550.34 996.856 587.572C1094.37 631.497 1195.07 689.613 1304.66 765.938C1361.75 805.698 1415.61 827.461 1464.82 830.705C1510.08 834.447 1555.22 819.864 1591.65 789.729C1623.39 763.698 1650.67 725 1670.53 677.937C1693.97 620.489 1707.97 559.08 1711.87 496.551C1716.5 432.269 1712.66 367.701 1700.46 304.831C1694.78 272.212 1684.49 240.814 1669.96 211.756C1657.8 187.606 1639.37 167.984 1616.95 155.338C1588.58 139.968 1556.32 139.61 1521.45 154.4C1493.02 166.887 1463.91 177.385 1434.3 185.831C1403.49 194.774 1371.68 198.565 1339.95 197.075C1332.78 196.603 1325.69 195.76 1318.86 194.56C1260.75 184.356 1225.98 147.888 1192.01 112.544C1156.13 74.2359 1121.9 38.4998 1062.21 34.5648ZM631.656 212.849C674.281 215.659 707.494 206.706 739.317 183.895C840.089 111.578 919.572 67.2138 982.452 47.3598C997.869 42.5378 1013.61 39.1138 1029.51 37.1238C1040.34 35.8078 1051.24 35.4878 1062.1 36.1648C1121.26 40.0638 1155.31 75.6278 1191.38 113.252C1225.34 148.702 1260.49 185.409 1318.83 195.683C1325.71 196.886 1332.85 197.732 1340.07 198.208C1371.96 199.724 1403.92 195.906 1434.86 186.886C1464.53 178.451 1493.69 167.937 1522.17 155.411C1556.68 140.866 1588.74 141.211 1616.55 156.275C1638.7 168.785 1656.91 188.187 1668.91 212.062C1683.4 241.115 1693.62 272.513 1699.22 305.124C1724.38 433.845 1713.21 572.919 1669.2 677.207C1643.89 737.248 1583.71 836.559 1464.95 828.732C1416.18 825.517 1362.31 803.807 1305.51 764.226C1195.83 687.841 1095.05 629.453 997.418 585.735C915.685 548.428 828.741 526.121 740.058 519.704C691.961 516.529 643.638 518.566 595.796 525.783C572.986 529.261 539.763 539.124 501.097 550.557C418.608 575.117 315.935 605.686 232.245 600.17C183.719 596.971 147.124 581.435 123.364 553.996C98.6085 525.313 90.3338 485.878 99.4363 439.928C117.043 351.149 195.04 258.743 289.078 215.017C341.404 190.142 398.306 179.375 454.944 183.631C487.924 186.49 520.665 191.78 552.942 199.465C578.865 205.8 605.159 210.271 631.656 212.849Z" fill="url(#paint26_linear_1220_1290)"/>
<path d="M1060.7 27.6088C1049.8 26.9605 1038.86 27.2602 1027.97 28.5048C1011.53 30.5198 995.263 34.0339 979.329 39.0119C914.335 58.9939 832.541 104.974 729.075 179.523C698.216 201.808 664.701 210.902 623.782 208.205C596.138 205.532 568.727 200.7 541.76 193.746C507.942 185.112 473.551 179.264 438.874 176.251C381.778 171.947 324.43 183.224 271.984 209.069C224.206 232.393 181.594 266.876 147.182 310.066C113.922 351.692 91.0549 398.396 82.818 441.617C73.7529 489.23 82.438 529.871 107.939 559.139C132.343 587.21 169.749 603.067 219.105 606.321C305.428 612.01 414.844 578.725 494.723 554.368C532.26 542.968 564.703 533.054 586.531 529.618C635.649 522.075 685.284 520.016 734.667 523.472C823.275 529.977 910.207 551.854 992.205 588.283C1092.65 632.401 1194.42 691.337 1303.32 768.367C1361.45 809.428 1416.69 831.978 1467.21 835.308C1587.77 843.254 1652.05 742.714 1679.66 682.02C1705.58 623 1721.81 559.569 1727.62 494.642C1734.05 429.073 1731.26 362.931 1719.34 298.522C1713.75 265.362 1703.32 233.46 1688.44 204.028C1675.92 179.509 1656.82 159.827 1633.68 147.601C1621.82 141.596 1609.01 138.081 1595.91 137.237C1575.08 136.262 1554.26 140.38 1534.96 149.29C1505.52 162.673 1475.32 173.942 1444.57 183.026C1412.22 192.869 1378.72 197.114 1345.29 195.605C1338.51 195.158 1331.8 194.395 1325.31 193.271C1265.15 183.091 1229.16 144.936 1194.37 108.038C1157.37 68.9058 1122.25 31.7189 1060.7 27.6088ZM623.677 209.805C664.937 212.525 698.654 203.337 729.868 180.861C833.181 106.409 914.919 60.5319 979.718 40.5369C995.563 35.5569 1011.75 32.0724 1028.11 30.1209C1038.91 28.8448 1049.78 28.5398 1060.6 29.2089C1121.61 33.2303 1156.54 70.2449 1193.49 109.427C1228.42 146.495 1264.59 184.822 1325 195.071C1331.53 196.199 1338.29 196.965 1345.12 197.415C1378.78 198.926 1412.51 194.605 1445.05 184.611C1475.81 175.527 1506.01 164.239 1535.45 150.822C1571.36 135.084 1604.57 134.433 1633 148.896C1655.88 160.983 1674.76 180.446 1687.12 204.691C1701.99 234.047 1712.36 265.902 1717.84 299.012C1742.57 429.204 1727.69 572.373 1677.95 681.265C1650.51 741.541 1586.68 841.307 1467.09 833.425C1416.71 830.105 1361.81 807.684 1303.87 766.689C1194.91 689.869 1093.1 630.717 992.471 586.479C910.41 550.088 823.436 528.21 734.786 521.659C685.328 518.359 635.631 520.593 586.469 528.328C564.589 531.814 532.101 541.672 494.463 553.119C414.49 577.416 305.419 610.671 219.339 604.997C170.569 601.782 133.25 586.091 109.121 558.306C83.985 529.438 75.4145 489.286 84.3957 442.203C101.775 350.945 179.23 255.612 272.701 210.83C324.891 184.97 381.993 173.621 438.87 177.804C473.478 180.843 507.803 186.686 541.56 195.286C568.559 202.257 596.001 207.109 623.677 209.805Z" fill="url(#paint27_linear_1220_1290)"/>
<path d="M1059.1 20.7002C1048.26 20.0401 1037.39 20.3262 1026.57 21.5558C1009.68 23.5187 992.965 27.0584 976.597 32.1358C909.011 52.804 825.175 100.042 719.624 176.489C688.777 198.615 655.798 207.744 615.611 205.095C588.299 203.295 560.144 196.457 530.3 189.241C496.555 181.017 461.503 172.546 423.023 170.01C365.488 165.828 307.757 177.807 255.316 204.81C163.395 250.604 84.4176 351.194 67.4626 444.194C58.571 492.89 67.5518 534.247 93.3801 563.751C118.203 592.17 156.093 608.113 205.936 611.399C294.698 617.249 406.317 582.502 487.83 557.127C524.486 545.723 556.19 535.867 577.039 532.42C627.599 524.083 678.758 521.548 729.676 524.858C818.206 531.33 905.126 552.744 987.351 588.338C1087.96 631.502 1193.74 692.685 1301.69 770.134C1360.9 812.605 1417.31 835.929 1469.4 839.362C1559.57 845.306 1637.38 790.654 1688.49 685.548C1742.89 573.643 1761.85 422.814 1737.95 291.981C1732.45 258.383 1721.81 226.101 1706.47 196.485C1693.61 171.586 1673.85 151.84 1649.99 140.052C1638.71 134.778 1626.65 131.681 1614.35 130.9C1591.66 130.066 1569.04 134.934 1548.22 145.129C1517.86 159.365 1486.7 171.394 1454.93 181.138C1421.19 191.886 1386.14 196.613 1351.15 195.134C1344.66 194.707 1338.25 193.963 1332.09 192.968C1269.62 182.85 1232.52 143.015 1196.8 104.503C1158.5 63.571 1122.55 24.8824 1059.1 20.7002ZM615.509 206.642C656.037 209.313 689.41 200.157 720.271 177.818C825.477 101.401 909.404 54.276 976.792 33.6485C993.062 28.5948 1009.68 25.0665 1026.47 23.1025C1037.2 21.9094 1048 21.6357 1058.75 22.2842C1121.67 26.4311 1157.44 64.893 1195.31 105.636C1231.26 144.325 1268.49 184.33 1331.5 194.482C1337.7 195.534 1344.17 196.281 1350.94 196.728C1386.17 198.235 1421.45 193.487 1455.42 182.669C1487.25 172.929 1518.46 160.866 1548.86 146.564C1569.55 136.528 1592.01 131.778 1614.53 132.679C1626.66 133.441 1638.56 136.49 1649.69 141.693C1673.26 153.352 1692.78 172.876 1705.48 197.491C1720.73 226.979 1731.28 259.134 1736.68 292.594C1760.55 423.104 1741.63 573.506 1687.4 685.101C1636.42 789.626 1559.37 843.953 1469.68 838.042C1417.88 834.628 1361.66 811.424 1302.79 769.081C1194.75 691.573 1088.87 630.33 988.164 587.16C905.747 551.3 818.584 529.707 729.789 523.151C678.753 519.729 627.467 522.184 576.775 530.475C555.829 533.915 524.121 543.824 487.368 555.222C405.955 580.55 294.487 615.253 205.968 609.419C156.467 606.156 119.061 590.299 94.3598 562.262C68.8519 533.1 60.0345 492.237 68.7899 444.121C85.6504 351.811 164.3 251.735 255.911 206.188C308.127 179.263 365.623 167.304 422.928 171.45C461.31 173.98 496.212 182.494 530.01 190.668C559.847 197.991 588.051 204.832 615.509 206.642Z" fill="url(#paint28_linear_1220_1290)"/>
<path d="M1057.6 13.7983C1046.8 13.1299 1035.96 13.3824 1025.17 14.5535C1007.84 16.529 990.669 20.1289 973.863 25.3135C904.591 46.2989 818.322 94.7699 710.175 173.456C679.327 195.582 646.888 204.693 607.287 202.083C578.902 200.212 549.699 192.93 518.74 184.783C483.577 175.769 447.213 166.409 407.075 163.763C349.117 159.839 291.042 172.419 238.52 200.274C147.243 247.451 68.672 350.799 52.0118 446.015C43.3425 495.797 52.5738 537.813 78.7781 567.556C104.039 596.005 142.343 612.35 192.674 615.667C283.875 621.679 397.794 585.476 480.945 559.031C516.716 547.675 547.581 537.925 567.405 534.411C619.478 525.556 672.208 522.871 724.676 526.403C813.107 532.994 899.961 554.16 982.299 589.184C1084.46 631.861 1191.28 693.595 1299.95 772.698C1360.2 816.577 1417.93 840.631 1471.58 844.167C1518.7 847.731 1565.72 833.638 1604.9 804.208C1640.63 777.797 1671.73 739.297 1697.27 689.824C1756.34 575.44 1779.54 416.696 1756.41 286.021C1751.1 251.897 1740.33 219.13 1724.59 189.216C1711.42 163.986 1691.07 144.204 1666.59 132.843C1655.92 128.202 1644.62 125.468 1633.13 124.745C1608.47 123.858 1583.9 129.321 1561.39 140.694C1530.1 155.865 1497.92 168.671 1465.07 179.02C1423.98 191.472 1388.38 196.518 1356.29 194.402C1350.2 194.001 1344.12 193.279 1338.3 192.36C1273.63 182.258 1235.61 140.808 1198.87 100.729C1159.79 58.2449 1123 18.1091 1057.6 13.7983ZM607.178 203.736C647.121 206.369 680.054 197.183 710.965 174.848C819.007 96.2609 905.077 47.8309 974.2 26.8891C990.94 21.718 1008.04 18.1316 1025.31 16.1697C1036.01 15.0351 1046.77 14.795 1057.49 15.4517C1122.35 19.7271 1158.96 59.6369 1197.66 101.881C1234.59 142.134 1272.79 183.81 1337.9 193.994C1343.82 194.919 1349.89 195.588 1356.04 195.993C1388.42 198.127 1424.17 193.091 1465.4 180.596C1498.31 170.202 1530.56 157.383 1561.93 142.229C1584.21 130.948 1608.55 125.523 1632.97 126.395C1644.31 127.126 1655.46 129.813 1666 134.358C1690.26 145.595 1710.44 165.177 1723.5 190.162C1739.14 219.905 1749.85 252.487 1755.11 286.417C1778.15 416.979 1755.05 575.033 1696.15 689.106C1641.96 794.062 1562.3 848.593 1471.83 842.63C1418.52 839.116 1360.98 815.129 1300.97 771.426C1192.25 692.266 1085.33 630.472 983.081 587.736C900.597 552.679 813.598 531.486 725.022 524.873C672.474 521.337 619.663 524.016 567.507 532.864C547.442 536.309 516.522 546.163 480.702 557.515C397.634 584.18 283.883 620.072 192.877 614.074C142.936 610.782 104.907 594.723 79.9284 566.453C54.0932 537.056 44.9278 495.527 53.562 446.278C70.0442 351.532 148.092 248.685 239.171 201.549C291.455 173.799 349.278 161.275 406.98 165.203C447.02 167.842 483.291 177.143 518.259 186.144C549.412 194.304 578.699 201.805 607.181 203.683L607.178 203.736Z" fill="url(#paint29_linear_1220_1290)"/>
<path d="M1056.15 6.84516C1045.38 6.18086 1034.57 6.41775 1023.82 7.55355C1006.02 9.49465 988.388 13.1363 971.132 18.4368C900.125 39.737 811.667 89.456 700.676 170.419C670.219 192.57 637.877 201.688 598.812 199.113C569.55 197.184 539.131 189.019 506.985 180.311C470.509 170.407 432.828 160.21 390.935 157.449C332.517 153.551 274.022 166.763 221.48 195.722C174.386 222.041 133.061 259.317 100.45 304.897C67.0475 350.906 44.3451 401.798 36.5871 448.158C28.0948 498.97 37.674 541.651 64.258 571.58C89.8811 600.481 128.674 616.858 179.492 620.208C273.18 626.383 389.354 588.669 474.144 561.153C508.932 549.84 539.207 540.104 558.094 536.689C611.689 527.177 666.019 524.218 720.073 527.867C808.441 534.535 895.28 555.365 977.809 589.691C1082.32 632.255 1190.27 694.76 1298.68 774.917C1360.16 820.109 1419.22 844.893 1474.23 848.519C1521.97 852.063 1569.61 838.149 1609.68 808.968C1646.59 782.528 1679.11 743.907 1706.37 693.744C1769.89 577.19 1797.51 410.862 1775.14 279.755C1769.99 245.162 1759.08 211.964 1742.95 181.801C1727.11 153.973 1706.85 135.068 1682.99 125.407C1672.95 121.376 1662.39 118.984 1651.67 118.307C1628.21 116.761 1602.4 122.773 1574.62 136.262C1542.36 152.292 1509.14 165.854 1475.2 176.848C1432.2 190.085 1394.99 195.774 1361.44 193.562C1355.69 193.183 1349.93 192.804 1344.37 191.741C1277.54 181.551 1238.55 138.484 1200.83 96.84C1161.07 52.865 1123.45 11.2814 1056.15 6.84516ZM598.706 200.713C638.112 203.31 670.754 194.105 701.518 171.76C812.161 90.881 900.66 41.272 971.473 19.9592C988.652 14.7032 1006.2 11.0744 1023.91 9.11315C1034.6 8.02095 1045.34 7.79765 1056.04 8.44525C1122.81 12.8461 1160.25 54.204 1199.86 98.276C1237.75 140.146 1276.93 183.385 1344.25 193.501C1349.83 194.351 1355.61 195 1361.42 195.382C1395.07 197.6 1432.41 192.134 1475.58 178.587C1509.57 167.582 1542.84 153.988 1575.14 137.904C1602.62 124.555 1628.34 118.59 1651.55 120.12C1662.12 120.779 1672.53 123.125 1682.44 127.084C1706.3 136.692 1725.98 155.452 1741.71 182.897C1757.75 212.868 1768.59 245.864 1773.69 280.248C1796.03 411.032 1768.44 576.933 1705.13 693.18C1664.51 767.693 1591.61 854.863 1474.56 847.148C1419.8 843.538 1360.98 818.877 1299.73 773.808C1191.25 693.377 1083.19 630.973 978.575 588.456C895.907 554.076 808.921 533.218 720.405 526.549C666.273 522.89 611.866 525.825 558.187 535.302C539.052 538.755 508.922 548.5 474.085 559.81C389.397 587.279 273.373 624.95 179.929 618.79C129.451 615.463 90.9896 599.269 65.5441 570.647C39.2804 541.061 29.8787 498.659 38.2695 448.644C54.4745 351.416 132.061 245.913 222.695 197.356C274.961 168.469 333.171 155.257 391.317 159.081C432.869 161.82 470.501 172.014 506.883 181.858C538.834 190.553 569.151 198.765 598.706 200.713Z" fill="url(#paint30_linear_1220_1290)"/>
<path d="M1054.69 -0.0531556C1025.58 -1.36246 996.405 2.57864 968.35 11.6118C895.705 33.2322 805.059 84.1999 691.228 167.386C661.466 189.413 625.765 199.59 590.189 196.188C559.805 194.185 528.554 185.269 495.43 175.8C457.735 165.067 418.497 153.963 375.579 151.134C316.665 147.243 257.712 161.088 205.128 191.163C115.915 240.457 36.8583 351.916 21.1541 450.463C12.846 502.197 22.7766 545.491 49.6949 575.549C75.7429 604.692 114.967 621.205 166.322 624.59C262.546 630.933 380.922 591.757 467.402 563.12C502.459 551.45 530.446 542.259 548.647 538.852C603.732 528.722 659.624 525.523 715.227 529.316C897.824 541.351 1093.64 624.753 1297.16 777.121C1359.65 824.094 1419.75 849.482 1476.61 853.23C1589.37 860.662 1663.52 781.342 1705.9 713.533C1757.59 630.751 1791.51 518.245 1798.98 404.907C1804.12 326.877 1795.7 255.452 1775.21 203.748C1752.62 146.603 1716.32 114.801 1670.33 111.77C1645.45 110.13 1617.73 116.873 1587.84 131.778C1497.89 176.737 1425.65 196.67 1366.98 192.803C1287.82 187.586 1244.8 139.486 1203.2 92.979C1162.4 47.5429 1123.94 4.51164 1054.69 -0.0531556ZM590.077 197.895C625.963 201.346 661.982 191.095 692.01 168.884C805.689 85.7949 896.23 34.9269 968.729 13.2973C996.622 4.30995 1025.63 0.393946 1054.58 1.70695C1123.24 6.23315 1161.57 49.0419 1202.13 94.3549C1243.91 141.088 1287.16 189.417 1366.95 194.676C1425.87 198.56 1498.36 178.536 1588.51 133.536C1618.14 118.722 1645.67 112.02 1670.3 113.643C1715.75 116.639 1751.59 148.088 1773.97 204.684C1794.33 256.165 1802.72 327.32 1797.6 405.083C1790.14 518.155 1756.35 630.347 1704.76 712.923C1662.65 780.427 1588.87 859.29 1476.8 851.903C1420.47 848.19 1360.33 822.799 1298.13 775.846C1094.34 623.138 898.267 539.827 715.427 527.775C659.712 523.951 603.703 527.143 548.505 537.289C530.206 540.69 502.362 549.943 467.062 561.598C380.732 590.191 262.502 629.376 166.522 623.05C115.557 619.691 76.6181 603.304 50.8452 574.446C24.2995 544.681 14.5358 501.826 22.7113 450.619C38.2863 352.546 117.067 241.551 205.873 192.498C258.229 162.561 316.922 148.774 375.579 152.634C418.594 155.469 457.539 166.554 495.136 177.281C528.209 186.8 559.546 195.882 590.077 197.895Z" fill="url(#paint31_linear_1220_1290)"/>
</g>
</g>
<defs>
<linearGradient id="paint0_linear_1220_1290" x1="488.474" y1="441.767" x2="1513.66" y2="472.599" gradientUnits="userSpaceOnUse">
<stop stop-color="#00BCE2"/>
<stop offset="0.08" stop-color="#279EE7"/>
<stop offset="0.25" stop-color="#7364F1"/>
<stop offset="0.39" stop-color="#AA3AF9"/>
<stop offset="0.5" stop-color="#CC20FD"/>
<stop offset="0.55" stop-color="#D916FF"/>
<stop offset="0.98" stop-color="#7300FF"/>
</linearGradient>
<linearGradient id="paint1_linear_1220_1290" x1="473.366" y1="441.739" x2="1516.09" y2="473.099" gradientUnits="userSpaceOnUse">
<stop stop-color="#06B7E3"/>
<stop offset="0.02" stop-color="#0EB0E4"/>
<stop offset="0.2" stop-color="#5F71EF"/>
<stop offset="0.35" stop-color="#9A43F6"/>
<stop offset="0.47" stop-color="#BE27FB"/>
<stop offset="0.52" stop-color="#CC1CFD"/>
<stop offset="0.55" stop-color="#D218FE"/>
<stop offset="0.94" stop-color="#7A07FD"/>
<stop offset="0.98" stop-color="#6F05FD"/>
</linearGradient>
<linearGradient id="paint2_linear_1220_1290" x1="458.261" y1="441.498" x2="1518.63" y2="473.388" gradientUnits="userSpaceOnUse">
<stop stop-color="#0DB1E4"/>
<stop offset="0.17" stop-color="#517BED"/>
<stop offset="0.34" stop-color="#8F49F5"/>
<stop offset="0.46" stop-color="#B62AFA"/>
<stop offset="0.52" stop-color="#C51EFC"/>
<stop offset="0.55" stop-color="#CB1BFD"/>
<stop offset="0.94" stop-color="#760CFB"/>
<stop offset="0.98" stop-color="#6C0AFB"/>
</linearGradient>
<linearGradient id="paint3_linear_1220_1290" x1="443.164" y1="440.935" x2="1521.31" y2="473.36" gradientUnits="userSpaceOnUse">
<stop stop-color="#13ACE5"/>
<stop offset="0.12" stop-color="#4286EB"/>
<stop offset="0.31" stop-color="#8550F4"/>
<stop offset="0.45" stop-color="#AF2EF9"/>
<stop offset="0.52" stop-color="#BF21FB"/>
<stop offset="0.55" stop-color="#C41DFC"/>
<stop offset="0.94" stop-color="#7211FA"/>
<stop offset="0.98" stop-color="#680FFA"/>
</linearGradient>
<linearGradient id="paint4_linear_1220_1290" x1="428.177" y1="440.055" x2="1524.16" y2="473.016" gradientUnits="userSpaceOnUse">
<stop stop-color="#19A7E6"/>
<stop offset="0.07" stop-color="#3094E9"/>
<stop offset="0.29" stop-color="#7957F2"/>
<stop offset="0.45" stop-color="#A632F8"/>
<stop offset="0.52" stop-color="#B823FA"/>
<stop offset="0.55" stop-color="#BD20FB"/>
<stop offset="0.94" stop-color="#6E16F8"/>
<stop offset="0.98" stop-color="#6415F8"/>
</linearGradient>
<linearGradient id="paint5_linear_1220_1290" x1="413.147" y1="439.013" x2="1527.36" y2="472.523" gradientUnits="userSpaceOnUse">
<stop stop-color="#20A1E7"/>
<stop offset="0.25" stop-color="#6C60F0"/>
<stop offset="0.43" stop-color="#9E35F7"/>
<stop offset="0.52" stop-color="#B125F9"/>
<stop offset="0.55" stop-color="#B622FA"/>
<stop offset="0.94" stop-color="#6A1BF6"/>
<stop offset="0.98" stop-color="#601AF6"/>
</linearGradient>
<linearGradient id="paint6_linear_1220_1290" x1="398.07" y1="437.811" x2="1530.7" y2="471.874" gradientUnits="userSpaceOnUse">
<stop stop-color="#269CE8"/>
<stop offset="0.2" stop-color="#5E6AEF"/>
<stop offset="0.42" stop-color="#953AF6"/>
<stop offset="0.52" stop-color="#AA27F9"/>
<stop offset="0.55" stop-color="#AF25F9"/>
<stop offset="0.94" stop-color="#6621F4"/>
<stop offset="0.98" stop-color="#5D1FF4"/>
</linearGradient>
<linearGradient id="paint7_linear_1220_1290" x1="383" y1="436.5" x2="1534.44" y2="471.129" gradientUnits="userSpaceOnUse">
<stop stop-color="#2C97E9"/>
<stop offset="0.14" stop-color="#4E77ED"/>
<stop offset="0.4" stop-color="#8B3FF5"/>
<stop offset="0.52" stop-color="#A329F8"/>
<stop offset="0.55" stop-color="#A827F8"/>
<stop offset="0.94" stop-color="#6226F2"/>
<stop offset="0.98" stop-color="#5924F2"/>
</linearGradient>
<linearGradient id="paint8_linear_1220_1290" x1="367.981" y1="435.031" x2="1538.38" y2="470.23" gradientUnits="userSpaceOnUse">
<stop stop-color="#3391E9"/>
<stop offset="0.04" stop-color="#3D88EA"/>
<stop offset="0.37" stop-color="#8246F3"/>
<stop offset="0.52" stop-color="#9D2CF7"/>
<stop offset="0.55" stop-color="#A12AF7"/>
<stop offset="0.94" stop-color="#5D2BF1"/>
<stop offset="0.98" stop-color="#5529F1"/>
</linearGradient>
<linearGradient id="paint9_linear_1220_1290" x1="352.914" y1="433.561" x2="1542.66" y2="469.342" gradientUnits="userSpaceOnUse">
<stop stop-color="#398CEA"/>
<stop offset="0.33" stop-color="#774DF2"/>
<stop offset="0.52" stop-color="#962EF6"/>
<stop offset="0.55" stop-color="#9A2CF6"/>
<stop offset="0.94" stop-color="#5930EF"/>
<stop offset="0.98" stop-color="#522EEF"/>
</linearGradient>
<linearGradient id="paint10_linear_1220_1290" x1="337.851" y1="431.984" x2="1547.53" y2="468.365" gradientUnits="userSpaceOnUse">
<stop stop-color="#3F86EB"/>
<stop offset="0.28" stop-color="#6C55F1"/>
<stop offset="0.52" stop-color="#8F30F5"/>
<stop offset="0.55" stop-color="#932FF5"/>
<stop offset="0.94" stop-color="#5535ED"/>
<stop offset="0.98" stop-color="#4E34ED"/>
</linearGradient>
<linearGradient id="paint11_linear_1220_1290" x1="322.836" y1="430.408" x2="1552.65" y2="467.394" gradientUnits="userSpaceOnUse">
<stop stop-color="#4681EC"/>
<stop offset="0.21" stop-color="#625FEF"/>
<stop offset="0.52" stop-color="#8832F4"/>
<stop offset="0.55" stop-color="#8C31F4"/>
<stop offset="0.94" stop-color="#513AEB"/>
<stop offset="0.98" stop-color="#4A39EB"/>
</linearGradient>
<linearGradient id="paint12_linear_1220_1290" x1="307.774" y1="428.778" x2="1558.45" y2="466.392" gradientUnits="userSpaceOnUse">
<stop stop-color="#4C7CED"/>
<stop offset="0.1" stop-color="#566EEE"/>
<stop offset="0.52" stop-color="#8134F3"/>
<stop offset="0.55" stop-color="#8534F3"/>
<stop offset="0.94" stop-color="#4D3FE9"/>
<stop offset="0.98" stop-color="#463EE9"/>
</linearGradient>
<linearGradient id="paint13_linear_1220_1290" x1="292.711" y1="427.147" x2="1564.64" y2="465.4" gradientUnits="userSpaceOnUse">
<stop stop-color="#5276EE"/>
<stop offset="0.52" stop-color="#7B37F2"/>
<stop offset="0.55" stop-color="#7E36F2"/>
<stop offset="0.94" stop-color="#4944E8"/>
<stop offset="0.98" stop-color="#4343E8"/>
</linearGradient>
<linearGradient id="paint14_linear_1220_1290" x1="277.65" y1="425.464" x2="1571.37" y2="464.372" gradientUnits="userSpaceOnUse">
<stop stop-color="#5971EF"/>
<stop offset="0.52" stop-color="#7439F1"/>
<stop offset="0.55" stop-color="#7739F1"/>
<stop offset="0.94" stop-color="#4549E6"/>
<stop offset="0.98" stop-color="#3F48E6"/>
</linearGradient>
<linearGradient id="paint15_linear_1220_1290" x1="262.591" y1="423.779" x2="1578.84" y2="463.365" gradientUnits="userSpaceOnUse">
<stop stop-color="#5F6CF0"/>
<stop offset="0.52" stop-color="#6D3BF0"/>
<stop offset="0.55" stop-color="#703BF0"/>
<stop offset="0.94" stop-color="#414EE4"/>
<stop offset="0.98" stop-color="#3B4DE4"/>
</linearGradient>
<linearGradient id="paint16_linear_1220_1290" x1="247.528" y1="422.095" x2="1586.79" y2="462.373" gradientUnits="userSpaceOnUse">
<stop stop-color="#6566F1"/>
<stop offset="0.52" stop-color="#663DF0"/>
<stop offset="0.55" stop-color="#693EEF"/>
<stop offset="0.94" stop-color="#3D54E2"/>
<stop offset="0.98" stop-color="#3853E2"/>
</linearGradient>
<linearGradient id="paint17_linear_1220_1290" x1="232.466" y1="420.412" x2="1595.47" y2="461.404" gradientUnits="userSpaceOnUse">
<stop stop-color="#6B61F2"/>
<stop offset="0.52" stop-color="#5F3FEF"/>
<stop offset="0.55" stop-color="#6240EE"/>
<stop offset="0.94" stop-color="#3959E0"/>
<stop offset="0.98" stop-color="#3458E0"/>
</linearGradient>
<linearGradient id="paint18_linear_1220_1290" x1="217.405" y1="418.781" x2="1604.99" y2="460.512" gradientUnits="userSpaceOnUse">
<stop stop-color="#725CF3"/>
<stop offset="0.52" stop-color="#5841EE"/>
<stop offset="0.55" stop-color="#5B43ED"/>
<stop offset="0.94" stop-color="#355EDE"/>
<stop offset="0.98" stop-color="#305DDE"/>
</linearGradient>
<linearGradient id="paint19_linear_1220_1290" x1="202.344" y1="417.098" x2="1615.62" y2="459.602" gradientUnits="userSpaceOnUse">
<stop stop-color="#7856F4"/>
<stop offset="0.52" stop-color="#5244ED"/>
<stop offset="0.55" stop-color="#5445EC"/>
<stop offset="0.94" stop-color="#3163DD"/>
<stop offset="0.98" stop-color="#2D62DD"/>
</linearGradient>
<linearGradient id="paint20_linear_1220_1290" x1="187.234" y1="415.412" x2="1627.29" y2="458.722" gradientUnits="userSpaceOnUse">
<stop stop-color="#7E51F5"/>
<stop offset="0.47" stop-color="#5147ED"/>
<stop offset="0.52" stop-color="#4B46EC"/>
<stop offset="0.55" stop-color="#4D48EB"/>
<stop offset="0.94" stop-color="#2D68DB"/>
<stop offset="0.98" stop-color="#2967DB"/>
</linearGradient>
<linearGradient id="paint21_linear_1220_1290" x1="172.173" y1="413.782" x2="1639.98" y2="457.926" gradientUnits="userSpaceOnUse">
<stop stop-color="#854CF6"/>
<stop offset="0.31" stop-color="#604AF0"/>
<stop offset="0.52" stop-color="#4448EB"/>
<stop offset="0.55" stop-color="#464AEA"/>
<stop offset="0.94" stop-color="#296DD9"/>
<stop offset="0.98" stop-color="#256CD9"/>
</linearGradient>
<linearGradient id="paint22_linear_1220_1290" x1="157.061" y1="412.15" x2="1653.45" y2="457.154" gradientUnits="userSpaceOnUse">
<stop stop-color="#8B46F7"/>
<stop offset="0.23" stop-color="#6C48F2"/>
<stop offset="0.52" stop-color="#3D4AEA"/>
<stop offset="0.55" stop-color="#3F4DE9"/>
<stop offset="0.94" stop-color="#2572D7"/>
<stop offset="0.98" stop-color="#2172D7"/>
</linearGradient>
<linearGradient id="paint23_linear_1220_1290" x1="141.948" y1="410.518" x2="1667.9" y2="456.411" gradientUnits="userSpaceOnUse">
<stop stop-color="#9141F8"/>
<stop offset="0.18" stop-color="#7644F4"/>
<stop offset="0.52" stop-color="#364CE9"/>
<stop offset="0.55" stop-color="#384FE8"/>
<stop offset="0.94" stop-color="#2177D5"/>
<stop offset="0.98" stop-color="#1E77D5"/>
</linearGradient>
<linearGradient id="paint24_linear_1220_1290" x1="126.886" y1="408.941" x2="1682.94" y2="455.739" gradientUnits="userSpaceOnUse">
<stop stop-color="#983BF8"/>
<stop offset="0.14" stop-color="#8040F4"/>
<stop offset="0.44" stop-color="#434BEB"/>
<stop offset="0.52" stop-color="#304FE8"/>
<stop offset="0.55" stop-color="#3152E7"/>
<stop offset="0.94" stop-color="#1C7CD4"/>
<stop offset="0.98" stop-color="#1A7CD4"/>
</linearGradient>
<linearGradient id="paint25_linear_1220_1290" x1="111.774" y1="407.31" x2="1698.12" y2="455.018" gradientUnits="userSpaceOnUse">
<stop stop-color="#9E36F9"/>
<stop offset="0.12" stop-color="#893BF6"/>
<stop offset="0.36" stop-color="#5248ED"/>
<stop offset="0.52" stop-color="#2951E7"/>
<stop offset="0.55" stop-color="#2A54E6"/>
<stop offset="0.94" stop-color="#1881D2"/>
<stop offset="0.98" stop-color="#1681D2"/>
</linearGradient>
<linearGradient id="paint26_linear_1220_1290" x1="96.6607" y1="405.732" x2="1714.18" y2="454.378" gradientUnits="userSpaceOnUse">
<stop stop-color="#A431FA"/>
<stop offset="0.1" stop-color="#9136F7"/>
<stop offset="0.3" stop-color="#5F43F0"/>
<stop offset="0.52" stop-color="#2253E7"/>
<stop offset="0.55" stop-color="#2357E5"/>
<stop offset="0.94" stop-color="#1487D0"/>
<stop offset="0.98" stop-color="#1386D0"/>
</linearGradient>
<linearGradient id="paint27_linear_1220_1290" x1="81.4991" y1="404.152" x2="1730.43" y2="453.743" gradientUnits="userSpaceOnUse">
<stop stop-color="#AB2BFB"/>
<stop offset="0.09" stop-color="#9930F8"/>
<stop offset="0.26" stop-color="#6C3DF2"/>
<stop offset="0.5" stop-color="#2353E7"/>
<stop offset="0.52" stop-color="#1B55E6"/>
<stop offset="0.55" stop-color="#1C59E4"/>
<stop offset="0.94" stop-color="#108CCE"/>
<stop offset="0.98" stop-color="#0F8BCE"/>
</linearGradient>
<linearGradient id="paint28_linear_1220_1290" x1="66.3836" y1="402.627" x2="1747.18" y2="453.177" gradientUnits="userSpaceOnUse">
<stop stop-color="#B126FC"/>
<stop offset="0.08" stop-color="#A12BFA"/>
<stop offset="0.23" stop-color="#7738F3"/>
<stop offset="0.43" stop-color="#344DEA"/>
<stop offset="0.52" stop-color="#1457E5"/>
<stop offset="0.55" stop-color="#155CE3"/>
<stop offset="0.94" stop-color="#0C91CC"/>
<stop offset="0.98" stop-color="#0B91CC"/>
</linearGradient>
<linearGradient id="paint29_linear_1220_1290" x1="51.2224" y1="401.048" x2="1763.97" y2="452.559" gradientUnits="userSpaceOnUse">
<stop stop-color="#B721FD"/>
<stop offset="0.07" stop-color="#A826FB"/>
<stop offset="0.2" stop-color="#8133F5"/>
<stop offset="0.38" stop-color="#4348EC"/>
<stop offset="0.52" stop-color="#0E5AE4"/>
<stop offset="0.55" stop-color="#0E5EE2"/>
<stop offset="0.94" stop-color="#0896CB"/>
<stop offset="0.98" stop-color="#0796CB"/>
</linearGradient>
<linearGradient id="paint30_linear_1220_1290" x1="36.0597" y1="399.468" x2="1780.96" y2="451.945" gradientUnits="userSpaceOnUse">
<stop stop-color="#BE1BFE"/>
<stop offset="0.06" stop-color="#B020FC"/>
<stop offset="0.18" stop-color="#8C2DF7"/>
<stop offset="0.34" stop-color="#5142EE"/>
<stop offset="0.52" stop-color="#075CE3"/>
<stop offset="0.55" stop-color="#0761E1"/>
<stop offset="0.94" stop-color="#049BC9"/>
<stop offset="0.98" stop-color="#049BC9"/>
</linearGradient>
<linearGradient id="paint31_linear_1220_1290" x1="20.896" y1="397.997" x2="1798.14" y2="451.447" gradientUnits="userSpaceOnUse">
<stop stop-color="#C416FF"/>
<stop offset="0.06" stop-color="#B71BFD"/>
<stop offset="0.17" stop-color="#9527F8"/>
<stop offset="0.31" stop-color="#5E3CF0"/>
<stop offset="0.48" stop-color="#1257E5"/>
<stop offset="0.52" stop-color="#005EE2"/>
<stop offset="0.94" stop-color="#00A0C7"/>
</linearGradient>
<clipPath id="clip0_1220_1290">
<rect width="1335" height="622" fill="white"/>
</clipPath>
</defs>
</svg>
