<svg width="134" height="121" viewBox="0 0 134 121" fill="none" xmlns="http://www.w3.org/2000/svg">
<path fill-rule="evenodd" clip-rule="evenodd" d="M47.502 17.026C52.1753 7.24848 62.1493 0.499878 73.609 0.499878C86.0471 0.499878 96.4879 8.37033 100.664 19.1882C101.157 19.1722 101.632 19.1722 102.103 19.1722L102.158 19.1722C119.176 19.1722 133.021 33.0168 133.021 50.0355C133.021 67.0542 119.176 80.8988 102.158 80.8988H91.6641C90.3857 80.8988 89.3493 79.8625 89.3493 78.5841C89.3493 77.3057 90.3857 76.2693 91.6641 76.2693H102.158C116.62 76.2693 128.391 64.4974 128.391 50.0355C128.391 35.5736 116.62 23.8017 102.158 23.8017C101.063 23.8017 100.294 23.8049 99.3986 23.9327C98.2763 24.0931 97.2029 23.4169 96.863 22.3353C93.7544 12.4441 84.5797 5.12938 73.609 5.12938C63.3371 5.12938 54.4515 11.6046 50.9245 20.7747C50.6987 21.3619 50.2436 21.8318 49.6641 22.0764C49.0845 22.321 48.4304 22.3192 47.8522 22.0714C45.9753 21.267 44.1248 20.8697 41.9741 20.8697C34.2617 20.8697 27.9964 26.8512 27.4627 34.4573C27.3776 35.6698 26.3691 36.61 25.1536 36.61H24.5363C13.6132 36.61 4.6295 45.4603 4.6295 56.5168C4.6295 67.4399 13.4799 76.4237 24.5363 76.4237H51.3874C52.6658 76.4237 53.7022 77.46 53.7022 78.7384C53.7022 80.0168 52.6658 81.0532 51.3874 81.0532H24.5363C10.9022 81.0532 0 69.9758 0 56.5168C0 43.3678 10.3031 32.7598 23.1091 32.0215C24.7358 23.055 32.5155 16.2402 41.9741 16.2402C43.9406 16.2402 45.7492 16.5032 47.502 17.026Z" fill="white"/>
<path fill-rule="evenodd" clip-rule="evenodd" d="M48.6388 42.2371C45.6741 54.8911 53.5289 67.5525 66.1828 70.5171C78.8368 73.4817 91.4982 65.627 94.4628 52.973C97.4274 40.3191 89.5727 27.6577 76.9187 24.6931C64.2648 21.7285 51.6034 29.5832 48.6388 42.2371ZM65.3028 74.2732C50.5745 70.8225 41.4321 56.0855 44.8827 41.3572C48.3333 26.6288 63.0703 17.4864 77.7987 20.937C92.5271 24.3877 101.67 39.1247 98.2189 53.853C94.7682 68.5814 80.0312 77.7238 65.3028 74.2732Z" fill="white"/>
<path fill-rule="evenodd" clip-rule="evenodd" d="M64.9492 30.3777C62.9428 34.6771 61.6499 40.7522 61.6499 47.5665C61.6499 54.3808 62.9428 60.456 64.9492 64.7553C67.0287 69.2113 69.5167 71.0998 71.6033 71.0998C73.6899 71.0998 76.178 69.2113 78.2574 64.7553C80.2638 60.456 81.5567 54.3808 81.5567 47.5665C81.5567 40.7522 80.2638 34.6771 78.2574 30.3777C76.178 25.9217 73.6899 24.0332 71.6033 24.0332C69.5167 24.0332 67.0287 25.9217 64.9492 30.3777ZM61.4532 28.7463C63.6743 23.9867 67.1275 20.1753 71.6033 20.1753C76.0792 20.1753 79.5323 23.9867 81.7534 28.7463C84.0476 33.6624 85.4147 40.3184 85.4147 47.5665C85.4147 54.8146 84.0476 61.4706 81.7534 66.3868C79.5323 71.1463 76.0792 74.9577 71.6033 74.9577C67.1275 74.9577 63.6743 71.1463 61.4532 66.3868C59.159 61.4706 57.792 54.8146 57.792 47.5665C57.792 40.3184 59.159 33.6624 61.4532 28.7463Z" fill="white"/>
<path fill-rule="evenodd" clip-rule="evenodd" d="M44.3662 47.5665C44.3662 46.5012 45.2298 45.6376 46.2952 45.6376H97.0653C98.1307 45.6376 98.9943 46.5012 98.9943 47.5665C98.9943 48.6318 98.1307 49.4955 97.0653 49.4955H46.2952C45.2298 49.4955 44.3662 48.6318 44.3662 47.5665Z" fill="white"/>
<path fill-rule="evenodd" clip-rule="evenodd" d="M71.6028 20.3296C72.6681 20.3296 73.5317 21.1932 73.5317 22.2585V73.0287C73.5317 74.0941 72.6681 74.9577 71.6028 74.9577C70.5375 74.9577 69.6738 74.0941 69.6738 73.0287V22.2585C69.6738 21.1932 70.5375 20.3296 71.6028 20.3296Z" fill="white"/>
<path fill-rule="evenodd" clip-rule="evenodd" d="M48.2564 33.622C48.7134 32.6597 49.8641 32.2501 50.8264 32.7072C56.724 35.5086 63.8462 37.1501 71.6031 37.1501C79.3702 37.1501 86.6375 35.5046 92.3626 32.7155C93.3203 32.2489 94.4749 32.647 94.9415 33.6048C95.4081 34.5625 95.01 35.7171 94.0522 36.1837C87.7406 39.2586 79.8849 41.0081 71.6031 41.0081C63.3111 41.0081 55.6188 39.2546 49.1711 36.192C48.2088 35.7349 47.7993 34.5843 48.2564 33.622Z" fill="white"/>
<path fill-rule="evenodd" clip-rule="evenodd" d="M49.3082 58.9493C55.6198 55.8744 63.4756 54.125 71.7574 54.125C80.0494 54.125 87.7416 55.8784 94.1893 58.941C95.1516 59.3981 95.5612 60.5488 95.1041 61.5111C94.647 62.4734 93.4963 62.8829 92.5341 62.4258C86.6364 59.6244 79.5143 57.9829 71.7574 57.9829C63.9902 57.9829 56.7229 59.6284 50.9979 62.4175C50.0401 62.8841 48.8855 62.486 48.4189 61.5283C47.9523 60.5705 48.3505 59.4159 49.3082 58.9493Z" fill="white"/>
<path fill-rule="evenodd" clip-rule="evenodd" d="M59.8748 68.5535C61.1532 68.5535 62.1895 69.5898 62.1895 70.8682V94.3244C62.1895 95.0113 61.8844 95.6628 61.3567 96.1026L42.8387 111.534C41.8566 112.353 40.397 112.22 39.5786 111.238C38.7601 110.256 38.8928 108.796 39.8749 107.978L57.56 93.2402V70.8682C57.56 69.5898 58.5964 68.5535 59.8748 68.5535Z" fill="white"/>
<path fill-rule="evenodd" clip-rule="evenodd" d="M83.4856 68.5535C84.764 68.5535 85.8004 69.5898 85.8004 70.8682V93.237L98.5434 103.808C99.5273 104.624 99.6633 106.083 98.8471 107.067C98.0309 108.051 96.5716 108.187 95.5876 107.371L82.0078 96.1059C81.4776 95.6662 81.1709 95.0132 81.1709 94.3244V70.8682C81.1709 69.5898 82.2072 68.5535 83.4856 68.5535Z" fill="white"/>
<path fill-rule="evenodd" clip-rule="evenodd" d="M76.2327 71.0225C77.5111 71.0225 78.5475 72.0589 78.5475 73.3373V116.083C78.5475 117.361 77.5111 118.398 76.2327 118.398C74.9543 118.398 73.918 117.361 73.918 116.083V73.3373C73.918 72.0589 74.9543 71.0225 76.2327 71.0225Z" fill="white"/>
<path fill-rule="evenodd" clip-rule="evenodd" d="M67.8998 71.0225C69.1782 71.0225 70.2145 72.0589 70.2145 73.3373V98.9538C70.2145 99.6257 69.9226 100.265 69.4145 100.704L61.3901 107.648C60.4234 108.485 58.9615 108.379 58.125 107.413C57.2884 106.446 57.3939 104.984 58.3606 104.148L65.585 97.8958V73.3373C65.585 72.0589 66.6214 71.0225 67.8998 71.0225Z" fill="white"/>
<path d="M44.7521 110.836C44.7521 113.151 42.9003 115.157 40.4312 115.157C38.1165 115.157 36.1104 113.305 36.1104 110.836C36.1104 108.367 37.9622 106.515 40.4312 106.515C42.9003 106.515 44.7521 108.522 44.7521 110.836Z" fill="white"/>
<path d="M59.566 110.836C61.9523 110.836 63.8868 108.902 63.8868 106.515C63.8868 104.129 61.9523 102.195 59.566 102.195C57.1796 102.195 55.2451 104.129 55.2451 106.515C55.2451 108.902 57.1796 110.836 59.566 110.836Z" fill="white"/>
<path d="M97.065 110.219C99.4514 110.219 101.386 108.284 101.386 105.898C101.386 103.512 99.4514 101.577 97.065 101.577C94.6787 101.577 92.7441 103.512 92.7441 105.898C92.7441 108.284 94.6787 110.219 97.065 110.219Z" fill="white"/>
<path d="M80.3995 116.083C80.3995 118.398 78.5477 120.404 76.0787 120.404C73.7639 120.404 71.7578 118.552 71.7578 116.083C71.7578 113.614 73.6096 111.762 76.0787 111.762C78.5477 111.762 80.3995 113.768 80.3995 116.083Z" fill="white"/>
</svg>
