<svg width="100" height="100" viewBox="0 0 100 100" fill="none" xmlns="http://www.w3.org/2000/svg">
<rect width="100" height="100" rx="24" fill="#587DFF"/>
<path d="M26.25 43.75H73.75M26.25 43.75V70C26.25 70.663 26.5134 71.2989 26.9822 71.7678C27.4511 72.2366 28.087 72.5 28.75 72.5H71.25C71.913 72.5 72.5489 72.2366 73.0178 71.7678C73.4866 71.2989 73.75 70.663 73.75 70V43.75M26.25 43.75V31.25C26.25 30.587 26.5134 29.9511 26.9822 29.4822C27.4511 29.0134 28.087 28.75 28.75 28.75H71.25C71.913 28.75 72.5489 29.0134 73.0178 29.4822C73.4866 29.9511 73.75 30.587 73.75 31.25V43.75" stroke="white" stroke-width="5" stroke-linejoin="round"/>
<path d="M40 25V35M60 25V35M55 62.5H62.5M37.5 62.5H45M55 52.5H62.5M37.5 52.5H45" stroke="white" stroke-width="5" stroke-linecap="round" stroke-linejoin="round"/>
</svg>
