<svg width="75" height="78" viewBox="0 0 75 78" fill="none" xmlns="http://www.w3.org/2000/svg">
<path d="M37.5001 76.8713C36.8946 76.8713 36.4038 76.38 36.4038 75.7739V58.2149C36.4038 57.6088 36.8946 57.1174 37.5001 57.1174C38.1055 57.1174 38.5963 57.6088 38.5963 58.2149V75.7739C38.5963 76.38 38.1055 76.8713 37.5001 76.8713Z" fill="white"/>
<path d="M0.633049 17.0657C0.409325 16.5386 0.654819 15.9297 1.18138 15.7057L37.0335 0.456137C37.5601 0.232168 38.1683 0.477932 38.392 1.00507C38.6157 1.5322 38.3703 2.14109 37.8437 2.36506L1.99155 17.6146C1.46499 17.8386 0.856773 17.5928 0.633049 17.0657Z" fill="white"/>
<path d="M0.633049 60.6846C0.409325 61.2117 0.654819 61.8206 1.18138 62.0445L37.0244 77.2902C37.551 77.5142 38.1592 77.2684 38.3829 76.7413C38.6066 76.2142 38.3612 75.6053 37.8346 75.3813L1.99155 60.1356C1.465 59.9117 0.856773 60.1574 0.633049 60.6846Z" fill="white"/>
<path d="M0.633049 16.8017C0.409325 17.3288 0.654819 17.9377 1.18138 18.1616L17.9472 25.2929C18.4737 25.5169 19.0819 25.2711 19.3057 24.744C19.5294 24.2168 19.2839 23.608 18.7573 23.384L1.99156 16.2527C1.465 16.0288 0.856773 16.2745 0.633049 16.8017Z" fill="white"/>
<path d="M1.59098 62.132C1.01887 62.132 0.555076 61.6677 0.555076 61.095V16.8844C0.555076 16.3116 1.01887 15.8473 1.59098 15.8473C2.1631 15.8473 2.62689 16.3116 2.62689 16.8844V61.095C2.62689 61.6677 2.1631 62.132 1.59098 62.132Z" fill="white"/>
<path d="M74.3669 17.0653C74.5906 16.5381 74.3451 15.9292 73.8186 15.7053L37.9771 0.460258C37.4506 0.236288 36.8423 0.482052 36.6186 1.00919C36.3949 1.53632 36.6404 2.14521 37.1669 2.36918L73.0084 17.6142C73.5349 17.8382 74.1432 17.5924 74.3669 17.0653Z" fill="white"/>
<path d="M74.3669 60.6833C74.5906 61.2105 74.3451 61.8193 73.8186 62.0433L37.9755 77.289C37.449 77.513 36.8407 77.2672 36.617 76.7401C36.3933 76.2129 36.6388 75.6041 37.1653 75.3801L73.0084 60.1344C73.5349 59.9104 74.1432 60.1562 74.3669 60.6833Z" fill="white"/>
<path d="M74.3669 16.8007C74.5906 17.3279 74.3451 17.9368 73.8185 18.1608L56.9742 25.3254C56.4476 25.5494 55.8394 25.3036 55.6157 24.7765C55.3919 24.2493 55.6374 23.6404 56.164 23.4164L73.0083 16.2518C73.5349 16.0278 74.1431 16.2736 74.3669 16.8007Z" fill="white"/>
<path d="M73.4089 62.1308C73.9811 62.1308 74.4449 61.6665 74.4449 61.0938V16.8832C74.4449 16.3105 73.9811 15.8462 73.4089 15.8462C72.8368 15.8462 72.373 16.3105 72.373 16.8832V61.0938C72.373 61.6665 72.8368 62.1308 73.4089 62.1308Z" fill="white"/>
<path d="M37.5 47.079L47.8535 29.1265H27.1465L37.5 47.079Z" fill="white"/>
<path fill-rule="evenodd" clip-rule="evenodd" d="M37.5001 60.8777L15.6968 23.072H59.3034L37.5001 60.8777ZM37.5001 56.4879L19.4943 25.2668H55.506L37.5001 56.4879Z" fill="white"/>
</svg>
