<svg width="525" height="207" viewBox="0 0 525 207" fill="none" xmlns="http://www.w3.org/2000/svg">
<g clip-path="url(#clip0_748_509)">
<path d="M16.8867 84.8981H57.3633C58.2441 84.8981 58.9746 84.1643 58.9746 83.2795C58.9746 82.3947 58.2441 81.6609 57.3633 81.6609H16.8867C16.0059 81.6609 15.2754 82.3947 15.2754 83.2795C15.2754 84.1643 15.9844 84.8981 16.8867 84.8981Z" fill="black"/>
<path d="M16.8867 96.1417H57.3633C58.2441 96.1417 58.9746 95.408 58.9746 94.5231C58.9746 93.6383 58.2441 92.9045 57.3633 92.9045H16.8867C16.0059 92.9045 15.2754 93.6383 15.2754 94.5231C15.2754 95.408 15.9844 96.1417 16.8867 96.1417Z" fill="black"/>
<path d="M38.6504 105.746C38.6504 104.861 37.9199 104.127 37.0391 104.127H16.8867C16.0059 104.127 15.2754 104.861 15.2754 105.746C15.2754 106.63 16.0059 107.364 16.8867 107.364H37.0391C37.9199 107.364 38.6504 106.652 38.6504 105.746Z" fill="black"/>
<path d="M110 149.728L109.312 125.212C109.312 125.19 109.312 125.169 109.312 125.147C109.012 120.572 105.682 116.73 101.213 115.802L100.461 115.651V110.688C100.461 109.803 99.7305 109.069 98.8496 109.069C97.9688 109.069 97.2383 109.803 97.2383 110.688V114.982L91.0293 113.687C90.5566 113.58 90.2129 113.17 90.2129 112.695V111.055C91.5664 109.803 94.6172 107.364 94.7246 102.163C94.7246 102.141 94.7246 102.141 94.7246 102.12V97.5231C95.6484 97.9978 96.5293 98.2784 97.2168 98.4726V104.213C97.2168 105.098 97.9473 105.832 98.8281 105.832C99.709 105.832 100.439 105.098 100.439 104.213C100.439 102.422 100.439 97.0051 100.439 94.4153C100.439 88.61 97.4102 83.5168 92.8555 80.6249V75.359H94.5957C96.7656 75.359 98.5273 73.5894 98.5273 71.4097V68.9494C98.5273 66.7697 96.7656 65 94.5957 65H3.93164C1.76172 65 0 66.7697 0 68.9494V71.4097C0 73.5894 1.76172 75.359 3.93164 75.359H5.67188V132.183H3.93164C1.76172 132.183 0 133.974 0 136.154V138.592C0 140.772 1.76172 142.542 3.93164 142.542H65.0547V153.699C65.0547 155.037 65.4199 156.311 66.0645 157.39C65.1836 158.49 64.625 159.828 64.4746 161.253L63.293 171.72C63.0996 173.446 64.4531 174.978 66.1934 174.978H99.623C101.363 174.978 102.717 173.446 102.523 171.72C101.277 160.692 101.277 160.692 101.277 160.692C103.404 160.26 105.359 159.202 106.928 157.605C108.99 155.49 110.086 152.685 110 149.728ZM90.3633 116.86L95.584 117.961C94.5957 123.14 89.3105 127.003 82.9297 127.003C76.5488 127.003 71.2637 123.118 70.2754 117.961L75.4961 116.86C77.1934 116.515 78.4824 115.155 78.8047 113.493C80.0078 114.249 81.3828 114.788 82.9727 114.81H82.9941H83.0156C84.5625 114.788 85.916 114.27 87.0977 113.536C87.4199 115.177 88.6875 116.515 90.3633 116.86ZM68.6211 114.982V99.4654C69.459 99.7028 70.3184 99.897 71.1992 100.005L71.2207 102.163C71.3066 106.328 73.2188 108.724 75.6465 110.947V112.695C75.6465 113.17 75.3027 113.601 74.8301 113.687L68.6211 114.982ZM91.502 102.098C91.416 105.767 89.3535 107.407 88 108.659C86.625 109.932 84.8848 111.529 82.9727 111.572C81.0605 111.551 79.3203 109.954 77.9453 108.659C76.5918 107.407 74.5293 105.789 74.4434 102.098L74.4219 100.134C80.1582 99.897 86.0879 97.2425 90.8145 94.0053C91.0293 94.3506 91.2441 94.6527 91.502 94.9549V102.098ZM97.2383 94.4369V95.1059C95.7988 94.588 93.8438 93.4658 92.9414 91.0271C92.5547 89.9912 91.2871 89.6459 90.4277 90.3365C90.2988 90.4444 78.5039 99.7891 68.6211 96.0771V94.4369C68.6211 87.2288 74.4434 81.3802 81.6191 81.3802H84.2402C91.3945 81.3802 97.2383 87.2288 97.2383 94.4369ZM3.93164 72.1218C3.54492 72.1218 3.22266 71.7981 3.22266 71.4097V68.9494C3.22266 68.5609 3.54492 68.2372 3.93164 68.2372H94.5957C94.9824 68.2372 95.3047 68.5609 95.3047 68.9494V71.4097C95.3047 71.7981 94.9824 72.1218 94.5957 72.1218H3.93164ZM3.93164 139.326C3.54492 139.326 3.22266 139.002 3.22266 138.614V136.154C3.22266 135.765 3.54492 135.441 3.93164 135.441H12.8262C13.707 135.441 14.4375 134.708 14.4375 133.823C14.4375 132.938 13.707 132.204 12.8262 132.204H8.89453V75.359H89.6543V79.071C87.957 78.4667 86.1523 78.143 84.2402 78.143H81.6191C72.6816 78.143 65.3984 85.4591 65.3984 94.4369V115.673L64.6465 115.824C60.1777 116.752 56.8477 120.593 56.5469 125.169L56.2891 128.881C56.2676 129.053 56.0742 129.161 55.9238 129.053L46.6211 122.644C46.1914 122.342 45.7188 122.126 45.2246 121.953C44.6016 121.176 43.9785 120.917 43.2266 120.378C41.1426 118.996 38.4785 119.169 36.6094 120.637L26.1035 113.385C25.373 112.889 24.3633 113.062 23.8691 113.795C23.375 114.529 23.5469 115.543 24.2773 116.04L34.7188 123.27C34.3965 124.219 34.3105 125.233 34.5254 126.248C34.8262 127.737 35.6855 129.032 36.9316 129.873C38.0488 130.607 37.877 130.499 38.1348 130.672C38.457 131.255 38.8652 131.794 39.3809 132.226H19.2285C18.3477 132.226 17.6172 132.96 17.6172 133.844C17.6172 134.729 18.3477 135.463 19.2285 135.463H44.3438L50.3809 139.348L3.93164 139.326ZM42.7969 125.449L41.4648 127.478C41.0781 128.039 40.3262 128.212 39.7461 127.823L38.7363 127.154C38.1992 126.787 37.834 126.226 37.7051 125.6C37.5762 124.953 37.7051 124.305 38.0703 123.766C38.543 123.054 39.3164 122.665 40.1113 122.665C40.584 122.665 41.0566 122.795 41.4648 123.075L42.4746 123.744C42.6465 123.852 42.7754 124.003 42.8613 124.154L42.8828 124.176C43.0547 124.564 43.0547 125.061 42.7969 125.449ZM66.5586 171.763L67.6973 161.62C67.7832 160.951 67.998 160.303 68.3633 159.764C69.4805 160.497 70.834 160.929 72.2734 160.929H98.0547C98.0547 160.929 98.0977 161.058 99.3223 171.763H66.5586ZM104.629 155.361C103.576 156.462 102.244 157.195 100.805 157.498V136.132C100.805 135.247 100.074 134.513 99.1934 134.513C98.3125 134.513 97.582 135.247 97.582 136.132V157.67H72.252C70.0605 157.67 68.2988 155.879 68.2988 153.699C68.2988 151.196 68.2988 138.355 68.2988 136.132C68.2988 135.247 67.5684 134.513 66.6875 134.513C65.8066 134.513 65.0762 135.247 65.0762 136.132V139.326H57.6211C56.8047 139.326 56.0098 139.11 55.3223 138.679L42.7754 130.586C43.3125 130.262 43.7637 129.809 44.1289 129.269L45.4609 127.241C45.6973 126.895 45.8691 126.507 45.998 126.118L54.0977 131.708C56.3105 133.24 59.3184 131.773 59.5117 129.075L59.7695 125.363C59.9844 122.234 62.2617 119.622 65.3125 118.975L67.1172 118.608C68.4277 125.255 75.002 130.24 82.9297 130.24C90.8574 130.24 97.4316 125.277 98.7422 118.608L100.547 118.975C103.598 119.601 105.854 122.212 106.09 125.341L106.777 149.815C106.842 151.908 106.068 153.872 104.629 155.361Z" fill="black"/>
</g>
<path d="M19.0977 197.271L22.1738 189.203H25.2236L20.873 199.434C20.7148 199.797 20.5332 200.146 20.3281 200.479C20.123 200.808 19.8799 201.101 19.5986 201.358C19.3232 201.61 18.9922 201.812 18.6055 201.965C18.2246 202.111 17.7734 202.185 17.252 202.185C17.1172 202.185 16.9561 202.182 16.7686 202.176C16.5869 202.17 16.4346 202.164 16.3115 202.158L16.2764 199.935C16.3525 199.952 16.4609 199.964 16.6016 199.97C16.748 199.97 16.8506 199.97 16.9092 199.97C17.2607 199.97 17.5361 199.923 17.7354 199.829C17.9404 199.735 18.1016 199.601 18.2188 199.425C18.3418 199.249 18.4502 199.029 18.5439 198.766L19.0977 197.271ZM17.1904 189.203L19.9678 195.145L20.873 198.379L18.79 198.396L14.1406 189.203H17.1904ZM26.5947 189.203H29.4512V193.114C29.4512 193.653 29.5361 194.075 29.7061 194.38C29.8818 194.679 30.1396 194.89 30.4795 195.013C30.8252 195.136 31.2529 195.197 31.7627 195.197C31.9268 195.197 32.1377 195.188 32.3955 195.171C32.6533 195.153 32.9229 195.13 33.2041 195.101C33.4912 195.065 33.7578 195.027 34.0039 194.986C34.2559 194.939 34.4551 194.887 34.6016 194.828V197.043C34.4551 197.096 34.2529 197.146 33.9951 197.192C33.7373 197.239 33.4648 197.28 33.1777 197.315C32.8965 197.345 32.627 197.368 32.3691 197.386C32.1172 197.403 31.915 197.412 31.7627 197.412C30.7197 197.412 29.8086 197.26 29.0293 196.955C28.2559 196.65 27.6553 196.182 27.2275 195.549C26.8057 194.916 26.5947 194.104 26.5947 193.114V189.203ZM34.0303 189.203H36.8867V202H34.0303V189.203ZM41.7031 197.57L46.5811 189.203H49.4375V202H46.5811V193.642L41.7031 202H38.8467V189.203H41.7031V197.57ZM57.207 189.203V202H54.3506V189.203H57.207ZM61.1006 189.203V191.427H50.5361V189.203H61.1006ZM71.2168 199.785V202H64.4053V199.785H71.2168ZM65.3809 189.203V202H62.5156V189.203H65.3809ZM70.3379 194.354V196.498H64.4053V194.354H70.3379ZM71.2256 189.203V191.427H64.4053V189.203H71.2256ZM81.2363 189.203V191.427H74.75V189.203H81.2363ZM83.2227 189.203V202H80.3574V189.203H83.2227ZM74.4775 189.203H77.3252L77 195.672C76.9473 196.639 76.8506 197.479 76.71 198.194C76.5752 198.903 76.3877 199.504 76.1475 199.996C75.9131 200.482 75.6289 200.875 75.2949 201.174C74.9609 201.467 74.5713 201.678 74.126 201.807C73.6807 201.936 73.1738 202 72.6055 202H71.9111V199.785L72.2451 199.75C72.5264 199.727 72.7695 199.653 72.9746 199.53C73.1855 199.407 73.3672 199.226 73.5195 198.985C73.6719 198.739 73.7979 198.426 73.8975 198.045C74.0029 197.664 74.085 197.201 74.1436 196.656C74.208 196.111 74.252 195.473 74.2754 194.74L74.4775 189.203ZM87.1602 193.738H90.0254C91.0449 193.738 91.9297 193.908 92.6797 194.248C93.4297 194.588 94.0068 195.065 94.4111 195.681C94.8154 196.29 95.0176 197.005 95.0176 197.825C95.0176 198.44 94.9004 199.003 94.666 199.513C94.4375 200.022 94.1035 200.465 93.6641 200.84C93.2305 201.209 92.7061 201.496 92.0908 201.701C91.4814 201.9 90.793 202 90.0254 202H85.332V189.203H88.2061V199.785H90.0254C90.4941 199.785 90.8867 199.697 91.2031 199.521C91.5195 199.34 91.7568 199.1 91.915 198.801C92.0791 198.502 92.1611 198.171 92.1611 197.808C92.1611 197.45 92.0791 197.134 91.915 196.858C91.7568 196.577 91.5195 196.357 91.2031 196.199C90.8867 196.035 90.4941 195.953 90.0254 195.953H87.1602V193.738Z" fill="#1D2332"/>
<g clip-path="url(#clip1_748_509)">
<path d="M318.35 80.5125H316.812V29.4188C316.812 25.1438 313.344 21.675 309.069 21.675H304.419V24.7688H309.069C311.638 24.7688 313.719 26.85 313.719 29.4188V80.5125H236.281V29.4188C236.281 26.85 238.363 24.7688 240.931 24.7688H245.581V21.675H240.931C236.656 21.675 233.188 25.1438 233.188 29.4188V80.5125H231.631C229.081 80.5125 227 82.5938 227 85.1626C227 91.1438 231.856 96 237.837 96H312.163C318.144 96 323 91.1438 323 85.1626C323 82.5938 320.919 80.5125 318.35 80.5125ZM265.719 83.6063H284.3V85.1626C284.3 86.025 283.606 86.7188 282.744 86.7188H267.256C266.394 86.7188 265.7 86.025 265.7 85.1626V83.6063H265.719ZM298.231 92.9063H295.137V89.8125H298.231V92.9063ZM310.606 92.9063H307.512V89.8125H310.606V92.9063ZM313.719 92.7375V86.7H304.438V92.8875H301.344V86.7H292.062V92.8875H237.875C233.6 92.8875 230.131 89.4188 230.131 85.1438C230.131 84.2813 230.825 83.5875 231.688 83.5875H262.662V85.1438C262.662 87.7125 264.744 89.7938 267.312 89.7938H282.8C285.369 89.7938 287.45 87.7125 287.45 85.1438V83.5875H318.425C319.287 83.5875 319.981 84.2813 319.981 85.1438C319.906 88.8938 317.244 92.025 313.719 92.7375Z" fill="black"/>
<path d="M261.069 30.9751V27.8813H242.487C240.781 27.8813 239.394 29.2688 239.394 30.9751V74.3251C239.394 76.0313 240.781 77.4188 242.487 77.4188H307.512C309.219 77.4188 310.606 76.0313 310.606 74.3251V30.9751C310.606 29.2688 309.219 27.8813 307.512 27.8813H288.931V30.9751H307.512V74.3251H301.325V65.4563L297.087 64.1063C296.694 62.9063 296.225 61.7438 295.662 60.6563L297.687 56.7188L289.512 48.5438L285.575 50.5689C284.469 50.0064 283.325 49.5376 282.125 49.1438L280.756 44.9063H269.206L267.856 49.1438C266.656 49.5376 265.494 50.0064 264.406 50.5689L260.469 48.5438L252.312 56.7001L254.337 60.6376C253.775 61.7438 253.306 62.8876 252.912 64.0876L248.675 65.4563V74.3251H242.487V30.9751H261.069ZM261.069 71.2313C261.069 63.5438 267.312 57.3001 275 57.3001C282.687 57.3001 288.931 63.5438 288.931 71.2313C288.931 72.2813 288.781 73.3126 288.537 74.3251H282.069C282.5 73.3501 282.725 72.3001 282.725 71.2313C282.725 66.9563 279.256 63.4876 274.981 63.4876C270.706 63.4876 267.237 66.9563 267.237 71.2313C267.237 72.3001 267.462 73.3688 267.894 74.3251H261.444C261.219 73.3126 261.069 72.2813 261.069 71.2313ZM270.35 71.2313C270.35 68.6626 272.431 66.5813 275 66.5813C277.569 66.5813 279.65 68.6626 279.65 71.2313C279.65 72.3938 279.2 73.4813 278.431 74.3251H271.587C270.8 73.4813 270.35 72.3751 270.35 71.2313ZM251.769 67.7063L255.425 66.5438L255.65 65.7376C256.081 64.2001 256.681 62.7563 257.431 61.4063L257.844 60.6751L256.1 57.2813L261.069 52.3126L264.462 54.0563L265.194 53.6438C266.544 52.8938 267.987 52.2938 269.525 51.8626L270.331 51.6376L271.494 48.0001H278.525L279.687 51.6563L280.494 51.8814C282.031 52.3126 283.475 52.9126 284.825 53.6626L285.556 54.0751L288.95 52.3313L293.919 57.3001L292.175 60.6939L292.587 61.4251C293.337 62.7751 293.937 64.2188 294.369 65.7564L294.594 66.5626L298.25 67.7251V74.3438H291.762C291.95 73.3313 292.062 72.3001 292.062 71.2501C292.062 61.8563 284.412 54.2251 275.037 54.2251C265.662 54.2251 258.012 61.8751 258.012 71.2501C258.012 72.3001 258.125 73.3313 258.312 74.3438H251.825L251.769 67.7063Z" fill="black"/>
<path d="M247.138 6.1875H253.325V9.28125H247.138V6.1875Z" fill="black"/>
<path d="M271.906 6.1875H278.094V9.28125H271.906V6.1875Z" fill="black"/>
<path d="M296.675 6.1875H302.862V9.28125H296.675V6.1875Z" fill="black"/>
<path d="M273.444 41.8125H276.538V15.4875H284.281V0H265.7V15.4875H273.444V41.8125ZM268.813 3.09375H281.188V12.375H268.813V3.09375Z" fill="black"/>
<path d="M298.232 21.675H282.744V41.8125H285.838V24.7875H301.325V15.4875H309.069V0H290.488V15.4875H298.232V21.675ZM293.582 3.09375H305.975V12.375H293.582V3.09375Z" fill="black"/>
<path d="M248.675 24.7688H264.163V41.8125H267.257V21.675H251.769V15.4875H259.513V0H240.932V15.4875H248.675V24.7688ZM244.025 3.09375H256.419V12.375H244.025V3.09375Z" fill="black"/>
</g>
<path d="M223.014 110.203V123H220.157V110.203H223.014ZM226.907 110.203V112.427H216.343V110.203H226.907ZM237.023 120.785V123H230.212V120.785H237.023ZM231.188 110.203V123H228.322V110.203H231.188ZM236.145 115.354V117.498H230.212V115.354H236.145ZM237.032 110.203V112.427H230.212V110.203H237.032ZM240.855 110.203L243.105 114.562L245.355 110.203H248.625L244.986 116.549L248.722 123H245.426L243.105 118.562L240.794 123H237.489L241.233 116.549L237.586 110.203H240.855ZM258.478 115.354V117.568H251.851V115.354H258.478ZM252.756 110.203V123H249.891V110.203H252.756ZM260.455 110.203V123H257.599V110.203H260.455ZM273.252 116.32V116.892C273.252 117.864 273.117 118.737 272.848 119.511C272.584 120.284 272.206 120.943 271.714 121.488C271.228 122.033 270.647 122.452 269.974 122.745C269.306 123.032 268.564 123.176 267.75 123.176C266.936 123.176 266.191 123.032 265.518 122.745C264.844 122.452 264.258 122.033 263.76 121.488C263.268 120.943 262.887 120.284 262.617 119.511C262.348 118.737 262.213 117.864 262.213 116.892V116.32C262.213 115.348 262.348 114.475 262.617 113.701C262.887 112.922 263.265 112.26 263.751 111.715C264.243 111.17 264.826 110.754 265.5 110.467C266.174 110.174 266.918 110.027 267.732 110.027C268.547 110.027 269.291 110.174 269.965 110.467C270.639 110.754 271.219 111.17 271.705 111.715C272.197 112.26 272.578 112.922 272.848 113.701C273.117 114.475 273.252 115.348 273.252 116.32ZM270.36 116.892V116.303C270.36 115.652 270.302 115.078 270.185 114.58C270.067 114.076 269.897 113.654 269.675 113.314C269.452 112.975 269.177 112.72 268.849 112.55C268.521 112.374 268.148 112.286 267.732 112.286C267.299 112.286 266.921 112.374 266.599 112.55C266.276 112.72 266.004 112.975 265.781 113.314C265.564 113.654 265.397 114.076 265.28 114.58C265.169 115.078 265.113 115.652 265.113 116.303V116.892C265.113 117.536 265.169 118.11 265.28 118.614C265.397 119.112 265.567 119.534 265.79 119.88C266.013 120.226 266.285 120.486 266.607 120.662C266.936 120.838 267.316 120.926 267.75 120.926C268.166 120.926 268.535 120.838 268.857 120.662C269.186 120.486 269.461 120.226 269.684 119.88C269.906 119.534 270.073 119.112 270.185 118.614C270.302 118.11 270.36 117.536 270.36 116.892ZM283.342 110.203V112.427H276.855V110.203H283.342ZM285.328 110.203V123H282.463V110.203H285.328ZM276.583 110.203H279.431L279.105 116.672C279.053 117.639 278.956 118.479 278.815 119.194C278.681 119.903 278.493 120.504 278.253 120.996C278.019 121.482 277.734 121.875 277.4 122.174C277.066 122.467 276.677 122.678 276.231 122.807C275.786 122.936 275.279 123 274.711 123H274.017V120.785L274.351 120.75C274.632 120.727 274.875 120.653 275.08 120.53C275.291 120.407 275.473 120.226 275.625 119.985C275.777 119.739 275.903 119.426 276.003 119.045C276.108 118.664 276.19 118.201 276.249 117.656C276.313 117.111 276.357 116.473 276.381 115.74L276.583 110.203ZM298.107 116.32V116.892C298.107 117.864 297.973 118.737 297.703 119.511C297.439 120.284 297.062 120.943 296.569 121.488C296.083 122.033 295.503 122.452 294.829 122.745C294.161 123.032 293.42 123.176 292.605 123.176C291.791 123.176 291.047 123.032 290.373 122.745C289.699 122.452 289.113 122.033 288.615 121.488C288.123 120.943 287.742 120.284 287.473 119.511C287.203 118.737 287.068 117.864 287.068 116.892V116.32C287.068 115.348 287.203 114.475 287.473 113.701C287.742 112.922 288.12 112.26 288.606 111.715C289.099 111.17 289.682 110.754 290.355 110.467C291.029 110.174 291.773 110.027 292.588 110.027C293.402 110.027 294.146 110.174 294.82 110.467C295.494 110.754 296.074 111.17 296.561 111.715C297.053 112.26 297.434 112.922 297.703 113.701C297.973 114.475 298.107 115.348 298.107 116.32ZM295.216 116.892V116.303C295.216 115.652 295.157 115.078 295.04 114.58C294.923 114.076 294.753 113.654 294.53 113.314C294.308 112.975 294.032 112.72 293.704 112.55C293.376 112.374 293.004 112.286 292.588 112.286C292.154 112.286 291.776 112.374 291.454 112.55C291.132 112.72 290.859 112.975 290.637 113.314C290.42 113.654 290.253 114.076 290.136 114.58C290.024 115.078 289.969 115.652 289.969 116.303V116.892C289.969 117.536 290.024 118.11 290.136 118.614C290.253 119.112 290.423 119.534 290.646 119.88C290.868 120.226 291.141 120.486 291.463 120.662C291.791 120.838 292.172 120.926 292.605 120.926C293.021 120.926 293.391 120.838 293.713 120.662C294.041 120.486 294.316 120.226 294.539 119.88C294.762 119.534 294.929 119.112 295.04 118.614C295.157 118.11 295.216 117.536 295.216 116.892ZM308.382 110.203V112.427H302.722V123H299.865V110.203H308.382ZM312.627 118.57L317.505 110.203H320.361V123H317.505V114.642L312.627 123H309.771V110.203H312.627V118.57ZM325.16 118.57L330.038 110.203H332.895V123H330.038V114.642L325.16 123H322.304V110.203H325.16V118.57Z" fill="#1D2332"/>
<g clip-path="url(#clip2_748_509)">
<path d="M514.033 126.433H507.767C506.905 126.433 506.2 125.728 506.2 124.867V123.985C509.901 121.694 512.565 118.032 513.583 113.802C516.99 113.195 519.243 109.925 518.635 106.517C518.205 104.108 516.403 102.17 514.033 101.562V95.1C514.033 89.4012 509.666 84.6621 503.987 84.1725C502.636 82.175 500.403 81 497.995 81H492.1C484.325 81 478 87.3254 478 95.1V99.8C478 100.662 478.705 101.367 479.567 101.367H481.133V101.562C477.785 102.424 475.768 105.851 476.629 109.2C477.236 111.57 479.175 113.371 481.584 113.802C481.623 113.978 481.662 114.155 481.721 114.311L484.737 113.489C484.423 112.353 484.267 111.158 484.267 109.983V101.328C490.455 101.034 496.487 99.2517 501.833 96.1575C502.714 99.5063 505.221 102.189 508.511 103.286L510.9 104.089V109.983C510.9 117.347 504.927 123.3 497.583 123.3C494.822 123.3 492.12 122.438 489.868 120.852L488.046 123.398C488.83 123.946 489.652 124.436 490.514 124.847V124.867C490.514 125.728 489.809 126.433 488.947 126.433H487.38V121.733C487.38 118.267 484.58 115.467 481.114 115.467H437.267C433.8 115.467 431 118.267 431 121.733V126.433H434.133V121.733C434.133 120.01 435.543 118.6 437.267 118.6H481.133C482.857 118.6 484.267 120.01 484.267 121.733V149.933C484.267 151.657 482.857 153.067 481.133 153.067H463.822L465.428 145.566C465.604 144.724 465.075 143.882 464.233 143.706C464.115 143.686 464.018 143.667 463.9 143.667H452.933C452.307 143.667 451.739 144.039 451.484 144.607L447.881 153.067H437.267C435.543 153.067 434.133 151.657 434.133 149.933V129.567H431V149.933C431 153.4 433.8 156.2 437.267 156.2H446.53L442.495 165.6H432.567C431.705 165.6 431 166.305 431 167.167V173.433C431 174.295 431.705 175 432.567 175H523.433C524.295 175 525 174.295 525 173.433V167.167C525 166.305 524.295 165.6 523.433 165.6H520.75C523.453 163.23 525 159.803 525 156.2V154.633H521.867V156.2C521.867 161.39 517.656 165.6 512.467 165.6H487.4V162.467C487.4 159.882 489.515 157.767 492.1 157.767H512.467C513.328 157.767 514.033 157.062 514.033 156.2V145.233H521.867V151.5H525V137.4C525 131.349 520.085 126.433 514.033 126.433ZM514.033 109.983V104.931C515.522 105.792 516.05 107.712 515.189 109.2C515.052 109.435 514.875 109.65 514.699 109.846C514.503 110.042 514.288 110.218 514.033 110.355C514.033 110.218 514.033 110.101 514.033 109.983ZM479.567 107.633C479.567 106.811 479.9 106.008 480.487 105.42C480.683 105.225 480.898 105.068 481.133 104.931V109.983C481.133 110.101 481.133 110.218 481.133 110.355C480.174 109.788 479.567 108.75 479.567 107.633ZM501.5 92.6913C495.782 96.3142 489.143 98.2333 482.367 98.2333H481.133V96.4904C494.548 94.7279 499.268 90.1454 499.483 89.9496L497.27 87.7171C497.25 87.7367 496.115 88.8138 493.373 90.0671C491.062 91.1246 487.145 92.4954 481.29 93.3179C481.466 92.2996 481.76 91.3204 482.21 90.4C488.066 90.2433 491.101 88.755 491.238 88.6767L489.848 85.8763C489.828 85.8958 488.066 86.7183 484.639 87.0904C486.656 85.1908 489.339 84.1333 492.1 84.1333H497.995C499.424 84.1333 500.756 84.8775 501.5 86.0917V92.6913ZM509.51 100.29C506.592 99.33 504.633 96.6079 504.633 93.5333V87.4233C508.276 88.1675 510.9 91.3792 510.9 95.1V100.76L509.51 100.29ZM493.549 125.924C496.702 126.727 500.031 126.57 503.106 125.474C503.243 126.512 503.713 127.452 504.438 128.196C504.673 128.431 504.927 128.627 505.201 128.803L504.751 129.39C502.029 133.033 496.878 133.777 493.236 131.055C492.452 130.468 491.787 129.763 491.258 128.96C492.413 128.313 493.236 127.217 493.549 125.924ZM484.267 162.467V165.6H476.433V162.467H484.267ZM480.938 156.2H481.133C481.662 156.2 482.191 156.141 482.7 156.004V159.333H479.684L480.938 156.2ZM468.404 156.2H477.569L476.316 159.333H474.867C474.005 159.333 473.3 160.038 473.3 160.9V165.6H470.167V160.9C470.167 160.038 469.462 159.333 468.6 159.333H467.151L468.404 156.2ZM463.156 156.2H465.036L463.783 159.333H462.49L463.156 156.2ZM467.033 162.467V165.6H461.139L461.805 162.467H467.033ZM453.971 146.8H461.961L457.927 165.6H445.903L453.971 146.8ZM521.867 168.733V171.867H434.133V168.733H521.867ZM521.867 142.1H514.033V137.4H510.9V154.633H492.1C489.633 154.633 487.302 155.789 485.833 157.767V154.065C486.852 152.93 487.4 151.461 487.4 149.933V129.567H488.007C490.827 135.187 497.662 137.439 503.282 134.619C504.849 133.836 506.22 132.68 507.277 131.27L508.57 129.547H514.053C518.381 129.547 521.886 133.053 521.886 137.38V142.1H521.867ZM504.516 137.557L505.887 140.377C500.736 142.864 494.705 142.648 489.75 139.789L491.317 137.067C495.37 139.417 500.305 139.593 504.516 137.557ZM493.667 106.067C493.667 107.79 492.257 109.2 490.533 109.2C488.81 109.2 487.4 107.79 487.4 106.067C487.4 104.343 488.81 102.933 490.533 102.933C492.257 102.933 493.667 104.343 493.667 106.067ZM499.933 106.067C499.933 104.343 501.343 102.933 503.067 102.933C504.79 102.933 506.2 104.343 506.2 106.067C506.2 107.79 504.79 109.2 503.067 109.2C501.343 109.2 499.933 107.79 499.933 106.067ZM500.638 111.198L502.342 113.822C498.974 116.015 494.607 116.015 491.238 113.822L492.942 111.198C495.292 112.725 498.308 112.725 500.638 111.198ZM452.933 126.433H446.667V123.3H452.933V126.433ZM462.333 123.3V126.433H456.067V123.3H462.333ZM471.733 123.3V126.433H465.467V123.3H471.733ZM481.133 126.433H474.867V123.3H481.133V126.433ZM443.533 123.3V126.433H437.267V123.3H443.533Z" fill="black"/>
</g>
<path d="M447.598 197.271L450.674 189.203H453.724L449.373 199.434C449.215 199.797 449.033 200.146 448.828 200.479C448.623 200.808 448.38 201.101 448.099 201.358C447.823 201.61 447.492 201.812 447.105 201.965C446.725 202.111 446.273 202.185 445.752 202.185C445.617 202.185 445.456 202.182 445.269 202.176C445.087 202.17 444.935 202.164 444.812 202.158L444.776 199.935C444.853 199.952 444.961 199.964 445.102 199.97C445.248 199.97 445.351 199.97 445.409 199.97C445.761 199.97 446.036 199.923 446.235 199.829C446.44 199.735 446.602 199.601 446.719 199.425C446.842 199.249 446.95 199.029 447.044 198.766L447.598 197.271ZM445.69 189.203L448.468 195.145L449.373 198.379L447.29 198.396L442.641 189.203H445.69ZM455.095 189.203H457.951V193.114C457.951 193.653 458.036 194.075 458.206 194.38C458.382 194.679 458.64 194.89 458.979 195.013C459.325 195.136 459.753 195.197 460.263 195.197C460.427 195.197 460.638 195.188 460.896 195.171C461.153 195.153 461.423 195.13 461.704 195.101C461.991 195.065 462.258 195.027 462.504 194.986C462.756 194.939 462.955 194.887 463.102 194.828V197.043C462.955 197.096 462.753 197.146 462.495 197.192C462.237 197.239 461.965 197.28 461.678 197.315C461.396 197.345 461.127 197.368 460.869 197.386C460.617 197.403 460.415 197.412 460.263 197.412C459.22 197.412 458.309 197.26 457.529 196.955C456.756 196.65 456.155 196.182 455.728 195.549C455.306 194.916 455.095 194.104 455.095 193.114V189.203ZM462.53 189.203H465.387V202H462.53V189.203ZM476.18 199.785V202H469.368V199.785H476.18ZM470.344 189.203V202H467.479V189.203H470.344ZM475.301 194.354V196.498H469.368V194.354H475.301ZM476.188 189.203V191.427H469.368V189.203H476.188ZM486.173 194.354V196.568H479.546V194.354H486.173ZM480.451 189.203V202H477.586V189.203H480.451ZM488.15 189.203V202H485.294V189.203H488.15ZM493.002 197.57L497.88 189.203H500.736V202H497.88V193.642L493.002 202H490.146V189.203H493.002V197.57ZM505.667 189.203V202H502.811V189.203H505.667ZM513.129 189.203L508.374 196.823H505.104L504.753 194.266H506.88L509.666 189.203H513.129ZM510.167 202L506.88 196.34L508.91 194.371L513.56 202H510.167Z" fill="#1D2332"/>
<path d="M130 195L135 197.887V192.113L130 195ZM420 195L415 192.113V197.887L420 195ZM132.5 195.5C132.776 195.5 133 195.276 133 195C133 194.724 132.776 194.5 132.5 194.5V195.5ZM137.5 194.5C137.224 194.5 137 194.724 137 195C137 195.276 137.224 195.5 137.5 195.5V194.5ZM142.5 195.5C142.776 195.5 143 195.276 143 195C143 194.724 142.776 194.5 142.5 194.5V195.5ZM147.5 194.5C147.224 194.5 147 194.724 147 195C147 195.276 147.224 195.5 147.5 195.5V194.5ZM152.5 195.5C152.776 195.5 153 195.276 153 195C153 194.724 152.776 194.5 152.5 194.5V195.5ZM157.5 194.5C157.224 194.5 157 194.724 157 195C157 195.276 157.224 195.5 157.5 195.5V194.5ZM162.5 195.5C162.776 195.5 163 195.276 163 195C163 194.724 162.776 194.5 162.5 194.5V195.5ZM167.5 194.5C167.224 194.5 167 194.724 167 195C167 195.276 167.224 195.5 167.5 195.5V194.5ZM172.5 195.5C172.776 195.5 173 195.276 173 195C173 194.724 172.776 194.5 172.5 194.5V195.5ZM177.5 194.5C177.224 194.5 177 194.724 177 195C177 195.276 177.224 195.5 177.5 195.5V194.5ZM182.5 195.5C182.776 195.5 183 195.276 183 195C183 194.724 182.776 194.5 182.5 194.5V195.5ZM187.5 194.5C187.224 194.5 187 194.724 187 195C187 195.276 187.224 195.5 187.5 195.5V194.5ZM192.5 195.5C192.776 195.5 193 195.276 193 195C193 194.724 192.776 194.5 192.5 194.5V195.5ZM197.5 194.5C197.224 194.5 197 194.724 197 195C197 195.276 197.224 195.5 197.5 195.5V194.5ZM202.5 195.5C202.776 195.5 203 195.276 203 195C203 194.724 202.776 194.5 202.5 194.5V195.5ZM207.5 194.5C207.224 194.5 207 194.724 207 195C207 195.276 207.224 195.5 207.5 195.5V194.5ZM212.5 195.5C212.776 195.5 213 195.276 213 195C213 194.724 212.776 194.5 212.5 194.5V195.5ZM217.5 194.5C217.224 194.5 217 194.724 217 195C217 195.276 217.224 195.5 217.5 195.5V194.5ZM222.5 195.5C222.776 195.5 223 195.276 223 195C223 194.724 222.776 194.5 222.5 194.5V195.5ZM227.5 194.5C227.224 194.5 227 194.724 227 195C227 195.276 227.224 195.5 227.5 195.5V194.5ZM232.5 195.5C232.776 195.5 233 195.276 233 195C233 194.724 232.776 194.5 232.5 194.5V195.5ZM237.5 194.5C237.224 194.5 237 194.724 237 195C237 195.276 237.224 195.5 237.5 195.5V194.5ZM242.5 195.5C242.776 195.5 243 195.276 243 195C243 194.724 242.776 194.5 242.5 194.5V195.5ZM247.5 194.5C247.224 194.5 247 194.724 247 195C247 195.276 247.224 195.5 247.5 195.5V194.5ZM252.5 195.5C252.776 195.5 253 195.276 253 195C253 194.724 252.776 194.5 252.5 194.5V195.5ZM257.5 194.5C257.224 194.5 257 194.724 257 195C257 195.276 257.224 195.5 257.5 195.5V194.5ZM262.5 195.5C262.776 195.5 263 195.276 263 195C263 194.724 262.776 194.5 262.5 194.5V195.5ZM267.5 194.5C267.224 194.5 267 194.724 267 195C267 195.276 267.224 195.5 267.5 195.5V194.5ZM272.5 195.5C272.776 195.5 273 195.276 273 195C273 194.724 272.776 194.5 272.5 194.5V195.5ZM277.5 194.5C277.224 194.5 277 194.724 277 195C277 195.276 277.224 195.5 277.5 195.5V194.5ZM282.5 195.5C282.776 195.5 283 195.276 283 195C283 194.724 282.776 194.5 282.5 194.5V195.5ZM287.5 194.5C287.224 194.5 287 194.724 287 195C287 195.276 287.224 195.5 287.5 195.5V194.5ZM292.5 195.5C292.776 195.5 293 195.276 293 195C293 194.724 292.776 194.5 292.5 194.5V195.5ZM297.5 194.5C297.224 194.5 297 194.724 297 195C297 195.276 297.224 195.5 297.5 195.5V194.5ZM302.5 195.5C302.776 195.5 303 195.276 303 195C303 194.724 302.776 194.5 302.5 194.5V195.5ZM307.5 194.5C307.224 194.5 307 194.724 307 195C307 195.276 307.224 195.5 307.5 195.5V194.5ZM312.5 195.5C312.776 195.5 313 195.276 313 195C313 194.724 312.776 194.5 312.5 194.5V195.5ZM317.5 194.5C317.224 194.5 317 194.724 317 195C317 195.276 317.224 195.5 317.5 195.5V194.5ZM322.5 195.5C322.776 195.5 323 195.276 323 195C323 194.724 322.776 194.5 322.5 194.5V195.5ZM327.5 194.5C327.224 194.5 327 194.724 327 195C327 195.276 327.224 195.5 327.5 195.5V194.5ZM332.5 195.5C332.776 195.5 333 195.276 333 195C333 194.724 332.776 194.5 332.5 194.5V195.5ZM337.5 194.5C337.224 194.5 337 194.724 337 195C337 195.276 337.224 195.5 337.5 195.5V194.5ZM342.5 195.5C342.776 195.5 343 195.276 343 195C343 194.724 342.776 194.5 342.5 194.5V195.5ZM347.5 194.5C347.224 194.5 347 194.724 347 195C347 195.276 347.224 195.5 347.5 195.5V194.5ZM352.5 195.5C352.776 195.5 353 195.276 353 195C353 194.724 352.776 194.5 352.5 194.5V195.5ZM357.5 194.5C357.224 194.5 357 194.724 357 195C357 195.276 357.224 195.5 357.5 195.5V194.5ZM362.5 195.5C362.776 195.5 363 195.276 363 195C363 194.724 362.776 194.5 362.5 194.5V195.5ZM367.5 194.5C367.224 194.5 367 194.724 367 195C367 195.276 367.224 195.5 367.5 195.5V194.5ZM372.5 195.5C372.776 195.5 373 195.276 373 195C373 194.724 372.776 194.5 372.5 194.5V195.5ZM377.5 194.5C377.224 194.5 377 194.724 377 195C377 195.276 377.224 195.5 377.5 195.5V194.5ZM382.5 195.5C382.776 195.5 383 195.276 383 195C383 194.724 382.776 194.5 382.5 194.5V195.5ZM387.5 194.5C387.224 194.5 387 194.724 387 195C387 195.276 387.224 195.5 387.5 195.5V194.5ZM392.5 195.5C392.776 195.5 393 195.276 393 195C393 194.724 392.776 194.5 392.5 194.5V195.5ZM397.5 194.5C397.224 194.5 397 194.724 397 195C397 195.276 397.224 195.5 397.5 195.5V194.5ZM402.5 195.5C402.776 195.5 403 195.276 403 195C403 194.724 402.776 194.5 402.5 194.5V195.5ZM407.5 194.5C407.224 194.5 407 194.724 407 195C407 195.276 407.224 195.5 407.5 195.5V194.5ZM412.5 195.5C412.776 195.5 413 195.276 413 195C413 194.724 412.776 194.5 412.5 194.5V195.5ZM417.5 194.5C417.224 194.5 417 194.724 417 195C417 195.276 417.224 195.5 417.5 195.5V194.5ZM137.5 195.5H142.5V194.5H137.5V195.5ZM147.5 195.5H152.5V194.5H147.5V195.5ZM157.5 195.5H162.5V194.5H157.5V195.5ZM167.5 195.5H172.5V194.5H167.5V195.5ZM177.5 195.5H182.5V194.5H177.5V195.5ZM187.5 195.5H192.5V194.5H187.5V195.5ZM197.5 195.5H202.5V194.5H197.5V195.5ZM207.5 195.5H212.5V194.5H207.5V195.5ZM217.5 195.5H222.5V194.5H217.5V195.5ZM227.5 195.5H232.5V194.5H227.5V195.5ZM237.5 195.5H242.5V194.5H237.5V195.5ZM247.5 195.5H252.5V194.5H247.5V195.5ZM257.5 195.5H262.5V194.5H257.5V195.5ZM267.5 195.5H272.5V194.5H267.5V195.5ZM277.5 195.5H282.5V194.5H277.5V195.5ZM287.5 195.5H292.5V194.5H287.5V195.5ZM297.5 195.5H302.5V194.5H297.5V195.5ZM307.5 195.5H312.5V194.5H307.5V195.5ZM317.5 195.5H322.5V194.5H317.5V195.5ZM327.5 195.5H332.5V194.5H327.5V195.5ZM337.5 195.5H342.5V194.5H337.5V195.5ZM347.5 195.5H352.5V194.5H347.5V195.5ZM357.5 195.5H362.5V194.5H357.5V195.5ZM367.5 195.5H372.5V194.5H367.5V195.5ZM377.5 195.5H382.5V194.5H377.5V195.5ZM387.5 195.5H392.5V194.5H387.5V195.5ZM397.5 195.5H402.5V194.5H397.5V195.5ZM407.5 195.5H412.5V194.5H407.5V195.5ZM130 195L140 200.774V189.226L130 195ZM420 195L410 189.226V200.774L420 195ZM132.5 196C133.052 196 133.5 195.552 133.5 195C133.5 194.448 133.052 194 132.5 194V196ZM137.5 194C136.948 194 136.5 194.448 136.5 195C136.5 195.552 136.948 196 137.5 196V194ZM142.5 196C143.052 196 143.5 195.552 143.5 195C143.5 194.448 143.052 194 142.5 194V196ZM147.5 194C146.948 194 146.5 194.448 146.5 195C146.5 195.552 146.948 196 147.5 196V194ZM152.5 196C153.052 196 153.5 195.552 153.5 195C153.5 194.448 153.052 194 152.5 194V196ZM157.5 194C156.948 194 156.5 194.448 156.5 195C156.5 195.552 156.948 196 157.5 196V194ZM162.5 196C163.052 196 163.5 195.552 163.5 195C163.5 194.448 163.052 194 162.5 194V196ZM167.5 194C166.948 194 166.5 194.448 166.5 195C166.5 195.552 166.948 196 167.5 196V194ZM172.5 196C173.052 196 173.5 195.552 173.5 195C173.5 194.448 173.052 194 172.5 194V196ZM177.5 194C176.948 194 176.5 194.448 176.5 195C176.5 195.552 176.948 196 177.5 196V194ZM182.5 196C183.052 196 183.5 195.552 183.5 195C183.5 194.448 183.052 194 182.5 194V196ZM187.5 194C186.948 194 186.5 194.448 186.5 195C186.5 195.552 186.948 196 187.5 196V194ZM192.5 196C193.052 196 193.5 195.552 193.5 195C193.5 194.448 193.052 194 192.5 194V196ZM197.5 194C196.948 194 196.5 194.448 196.5 195C196.5 195.552 196.948 196 197.5 196V194ZM202.5 196C203.052 196 203.5 195.552 203.5 195C203.5 194.448 203.052 194 202.5 194V196ZM207.5 194C206.948 194 206.5 194.448 206.5 195C206.5 195.552 206.948 196 207.5 196V194ZM212.5 196C213.052 196 213.5 195.552 213.5 195C213.5 194.448 213.052 194 212.5 194V196ZM217.5 194C216.948 194 216.5 194.448 216.5 195C216.5 195.552 216.948 196 217.5 196V194ZM222.5 196C223.052 196 223.5 195.552 223.5 195C223.5 194.448 223.052 194 222.5 194V196ZM227.5 194C226.948 194 226.5 194.448 226.5 195C226.5 195.552 226.948 196 227.5 196V194ZM232.5 196C233.052 196 233.5 195.552 233.5 195C233.5 194.448 233.052 194 232.5 194V196ZM237.5 194C236.948 194 236.5 194.448 236.5 195C236.5 195.552 236.948 196 237.5 196V194ZM242.5 196C243.052 196 243.5 195.552 243.5 195C243.5 194.448 243.052 194 242.5 194V196ZM247.5 194C246.948 194 246.5 194.448 246.5 195C246.5 195.552 246.948 196 247.5 196V194ZM252.5 196C253.052 196 253.5 195.552 253.5 195C253.5 194.448 253.052 194 252.5 194V196ZM257.5 194C256.948 194 256.5 194.448 256.5 195C256.5 195.552 256.948 196 257.5 196V194ZM262.5 196C263.052 196 263.5 195.552 263.5 195C263.5 194.448 263.052 194 262.5 194V196ZM267.5 194C266.948 194 266.5 194.448 266.5 195C266.5 195.552 266.948 196 267.5 196V194ZM272.5 196C273.052 196 273.5 195.552 273.5 195C273.5 194.448 273.052 194 272.5 194V196ZM277.5 194C276.948 194 276.5 194.448 276.5 195C276.5 195.552 276.948 196 277.5 196V194ZM282.5 196C283.052 196 283.5 195.552 283.5 195C283.5 194.448 283.052 194 282.5 194V196ZM287.5 194C286.948 194 286.5 194.448 286.5 195C286.5 195.552 286.948 196 287.5 196V194ZM292.5 196C293.052 196 293.5 195.552 293.5 195C293.5 194.448 293.052 194 292.5 194V196ZM297.5 194C296.948 194 296.5 194.448 296.5 195C296.5 195.552 296.948 196 297.5 196V194ZM302.5 196C303.052 196 303.5 195.552 303.5 195C303.5 194.448 303.052 194 302.5 194V196ZM307.5 194C306.948 194 306.5 194.448 306.5 195C306.5 195.552 306.948 196 307.5 196V194ZM312.5 196C313.052 196 313.5 195.552 313.5 195C313.5 194.448 313.052 194 312.5 194V196ZM317.5 194C316.948 194 316.5 194.448 316.5 195C316.5 195.552 316.948 196 317.5 196V194ZM322.5 196C323.052 196 323.5 195.552 323.5 195C323.5 194.448 323.052 194 322.5 194V196ZM327.5 194C326.948 194 326.5 194.448 326.5 195C326.5 195.552 326.948 196 327.5 196V194ZM332.5 196C333.052 196 333.5 195.552 333.5 195C333.5 194.448 333.052 194 332.5 194V196ZM337.5 194C336.948 194 336.5 194.448 336.5 195C336.5 195.552 336.948 196 337.5 196V194ZM342.5 196C343.052 196 343.5 195.552 343.5 195C343.5 194.448 343.052 194 342.5 194V196ZM347.5 194C346.948 194 346.5 194.448 346.5 195C346.5 195.552 346.948 196 347.5 196V194ZM352.5 196C353.052 196 353.5 195.552 353.5 195C353.5 194.448 353.052 194 352.5 194V196ZM357.5 194C356.948 194 356.5 194.448 356.5 195C356.5 195.552 356.948 196 357.5 196V194ZM362.5 196C363.052 196 363.5 195.552 363.5 195C363.5 194.448 363.052 194 362.5 194V196ZM367.5 194C366.948 194 366.5 194.448 366.5 195C366.5 195.552 366.948 196 367.5 196V194ZM372.5 196C373.052 196 373.5 195.552 373.5 195C373.5 194.448 373.052 194 372.5 194V196ZM377.5 194C376.948 194 376.5 194.448 376.5 195C376.5 195.552 376.948 196 377.5 196V194ZM382.5 196C383.052 196 383.5 195.552 383.5 195C383.5 194.448 383.052 194 382.5 194V196ZM387.5 194C386.948 194 386.5 194.448 386.5 195C386.5 195.552 386.948 196 387.5 196V194ZM392.5 196C393.052 196 393.5 195.552 393.5 195C393.5 194.448 393.052 194 392.5 194V196ZM397.5 194C396.948 194 396.5 194.448 396.5 195C396.5 195.552 396.948 196 397.5 196V194ZM402.5 196C403.052 196 403.5 195.552 403.5 195C403.5 194.448 403.052 194 402.5 194V196ZM407.5 194C406.948 194 406.5 194.448 406.5 195C406.5 195.552 406.948 196 407.5 196V194ZM412.5 196C413.052 196 413.5 195.552 413.5 195C413.5 194.448 413.052 194 412.5 194V196ZM417.5 194C416.948 194 416.5 194.448 416.5 195C416.5 195.552 416.948 196 417.5 196V194ZM137.5 196H142.5V194H137.5V196ZM147.5 196H152.5V194H147.5V196ZM157.5 196H162.5V194H157.5V196ZM167.5 196H172.5V194H167.5V196ZM177.5 196H182.5V194H177.5V196ZM187.5 196H192.5V194H187.5V196ZM197.5 196H202.5V194H197.5V196ZM207.5 196H212.5V194H207.5V196ZM217.5 196H222.5V194H217.5V196ZM227.5 196H232.5V194H227.5V196ZM237.5 196H242.5V194H237.5V196ZM247.5 196H252.5V194H247.5V196ZM257.5 196H262.5V194H257.5V196ZM267.5 196H272.5V194H267.5V196ZM277.5 196H282.5V194H277.5V196ZM287.5 196H292.5V194H287.5V196ZM297.5 196H302.5V194H297.5V196ZM307.5 196H312.5V194H307.5V196ZM317.5 196H322.5V194H317.5V196ZM327.5 196H332.5V194H327.5V196ZM337.5 196H342.5V194H337.5V196ZM347.5 196H352.5V194H347.5V196ZM357.5 196H362.5V194H357.5V196ZM367.5 196H372.5V194H367.5V196ZM377.5 196H382.5V194H377.5V196ZM387.5 196H392.5V194H387.5V196ZM397.5 196H402.5V194H397.5V196ZM407.5 196H412.5V194H407.5V196Z" fill="#587DFF"/>
<path d="M200 120L194.325 121.062L198.082 125.446L200 120ZM130 180L135.675 178.938L131.918 174.554L130 180ZM197.73 121.287C197.52 121.467 197.496 121.782 197.676 121.992C197.856 122.202 198.171 122.226 198.381 122.046L197.73 121.287ZM194.492 125.38C194.702 125.2 194.726 124.884 194.546 124.675C194.367 124.465 194.051 124.441 193.841 124.62L194.492 125.38ZM189.952 127.954C189.743 128.133 189.718 128.449 189.898 128.659C190.078 128.868 190.394 128.893 190.603 128.713L189.952 127.954ZM186.714 132.046C186.924 131.867 186.948 131.551 186.769 131.341C186.589 131.132 186.273 131.107 186.063 131.287L186.714 132.046ZM182.175 134.62C181.965 134.8 181.941 135.116 182.12 135.325C182.3 135.535 182.616 135.559 182.825 135.38L182.175 134.62ZM178.937 138.713C179.146 138.533 179.17 138.218 178.991 138.008C178.811 137.798 178.495 137.774 178.286 137.954L178.937 138.713ZM174.397 141.287C174.187 141.467 174.163 141.782 174.343 141.992C174.522 142.202 174.838 142.226 175.048 142.046L174.397 141.287ZM171.159 145.38C171.368 145.2 171.393 144.884 171.213 144.675C171.033 144.465 170.718 144.441 170.508 144.62L171.159 145.38ZM166.619 147.954C166.409 148.133 166.385 148.449 166.565 148.659C166.745 148.868 167.06 148.893 167.27 148.713L166.619 147.954ZM163.381 152.046C163.591 151.867 163.615 151.551 163.435 151.341C163.255 151.132 162.94 151.107 162.73 151.287L163.381 152.046ZM158.841 154.62C158.632 154.8 158.607 155.116 158.787 155.325C158.967 155.535 159.282 155.559 159.492 155.38L158.841 154.62ZM155.603 158.713C155.813 158.533 155.837 158.218 155.657 158.008C155.478 157.798 155.162 157.774 154.952 157.954L155.603 158.713ZM151.063 161.287C150.854 161.467 150.83 161.782 151.009 161.992C151.189 162.202 151.505 162.226 151.714 162.046L151.063 161.287ZM147.825 165.38C148.035 165.2 148.059 164.884 147.88 164.675C147.7 164.465 147.384 164.441 147.175 164.62L147.825 165.38ZM143.286 167.954C143.076 168.133 143.052 168.449 143.231 168.659C143.411 168.868 143.727 168.893 143.936 168.713L143.286 167.954ZM140.048 172.046C140.257 171.867 140.282 171.551 140.102 171.341C139.922 171.132 139.606 171.107 139.397 171.287L140.048 172.046ZM135.508 174.62C135.298 174.8 135.274 175.116 135.454 175.325C135.633 175.535 135.949 175.559 136.159 175.38L135.508 174.62ZM132.27 178.713C132.479 178.533 132.504 178.218 132.324 178.008C132.144 177.798 131.829 177.774 131.619 177.954L132.27 178.713ZM193.841 124.62L189.952 127.954L190.603 128.713L194.492 125.38L193.841 124.62ZM186.063 131.287L182.175 134.62L182.825 135.38L186.714 132.046L186.063 131.287ZM178.286 137.954L174.397 141.287L175.048 142.046L178.937 138.713L178.286 137.954ZM170.508 144.62L166.619 147.954L167.27 148.713L171.159 145.38L170.508 144.62ZM162.73 151.287L158.841 154.62L159.492 155.38L163.381 152.046L162.73 151.287ZM154.952 157.954L151.063 161.287L151.714 162.046L155.603 158.713L154.952 157.954ZM147.175 164.62L143.286 167.954L143.936 168.713L147.825 165.38L147.175 164.62ZM139.397 171.287L135.508 174.62L136.159 175.38L140.048 172.046L139.397 171.287ZM200 120L188.65 122.124L196.165 130.891L200 120ZM130 180L141.35 177.876L133.835 169.109L130 180ZM197.405 120.907C196.985 121.267 196.937 121.898 197.296 122.317C197.656 122.737 198.287 122.785 198.706 122.426L197.405 120.907ZM194.817 125.759C195.237 125.4 195.285 124.769 194.926 124.349C194.567 123.93 193.935 123.881 193.516 124.241L194.817 125.759ZM189.627 127.574C189.208 127.933 189.159 128.565 189.519 128.984C189.878 129.403 190.509 129.452 190.929 129.093L189.627 127.574ZM187.04 132.426C187.459 132.066 187.508 131.435 187.148 131.016C186.789 130.597 186.157 130.548 185.738 130.907L187.04 132.426ZM181.849 134.241C181.43 134.6 181.381 135.231 181.741 135.651C182.1 136.07 182.731 136.119 183.151 135.759L181.849 134.241ZM179.262 139.093C179.681 138.733 179.73 138.102 179.37 137.683C179.011 137.263 178.38 137.215 177.96 137.574L179.262 139.093ZM174.071 140.907C173.652 141.267 173.604 141.898 173.963 142.317C174.322 142.737 174.954 142.785 175.373 142.426L174.071 140.907ZM171.484 145.759C171.903 145.4 171.952 144.769 171.593 144.349C171.233 143.93 170.602 143.881 170.183 144.241L171.484 145.759ZM166.294 147.574C165.874 147.933 165.826 148.565 166.185 148.984C166.545 149.403 167.176 149.452 167.595 149.093L166.294 147.574ZM163.706 152.426C164.126 152.066 164.174 151.435 163.815 151.016C163.455 150.597 162.824 150.548 162.405 150.907L163.706 152.426ZM158.516 154.241C158.097 154.6 158.048 155.231 158.407 155.651C158.767 156.07 159.398 156.119 159.817 155.759L158.516 154.241ZM155.929 159.093C156.348 158.733 156.396 158.102 156.037 157.683C155.678 157.263 155.046 157.215 154.627 157.574L155.929 159.093ZM150.738 160.907C150.319 161.267 150.27 161.898 150.63 162.317C150.989 162.737 151.62 162.785 152.04 162.426L150.738 160.907ZM148.151 165.759C148.57 165.4 148.619 164.769 148.259 164.349C147.9 163.93 147.269 163.881 146.849 164.241L148.151 165.759ZM142.96 167.574C142.541 167.934 142.492 168.565 142.852 168.984C143.211 169.403 143.843 169.452 144.262 169.093L142.96 167.574ZM140.373 172.426C140.792 172.067 140.841 171.435 140.481 171.016C140.122 170.597 139.491 170.548 139.071 170.907L140.373 172.426ZM135.183 174.241C134.763 174.6 134.715 175.231 135.074 175.651C135.433 176.07 136.065 176.119 136.484 175.759L135.183 174.241ZM132.595 179.093C133.015 178.733 133.063 178.102 132.704 177.683C132.344 177.263 131.713 177.215 131.294 177.574L132.595 179.093ZM193.516 124.241L189.627 127.574L190.929 129.093L194.817 125.759L193.516 124.241ZM185.738 130.907L181.849 134.241L183.151 135.759L187.04 132.426L185.738 130.907ZM177.96 137.574L174.071 140.907L175.373 142.426L179.262 139.093L177.96 137.574ZM170.183 144.241L166.294 147.574L167.595 149.093L171.484 145.759L170.183 144.241ZM162.405 150.907L158.516 154.241L159.817 155.759L163.706 152.426L162.405 150.907ZM154.627 157.574L150.738 160.907L152.04 162.426L155.929 159.093L154.627 157.574ZM146.849 164.241L142.96 167.574L144.262 169.093L148.151 165.759L146.849 164.241ZM139.071 170.907L135.183 174.241L136.484 175.759L140.373 172.426L139.071 170.907Z" fill="#587DFF"/>
<path d="M349 120L354.675 121.062L350.918 125.446L349 120ZM419 180L413.325 178.938L417.082 174.554L419 180ZM351.27 121.287C351.48 121.467 351.504 121.782 351.324 121.992C351.144 122.202 350.829 122.226 350.619 122.046L351.27 121.287ZM354.508 125.38C354.298 125.2 354.274 124.884 354.454 124.675C354.633 124.465 354.949 124.441 355.159 124.62L354.508 125.38ZM359.048 127.954C359.257 128.133 359.282 128.449 359.102 128.659C358.922 128.868 358.606 128.893 358.397 128.713L359.048 127.954ZM362.286 132.046C362.076 131.867 362.052 131.551 362.231 131.341C362.411 131.132 362.727 131.107 362.937 131.287L362.286 132.046ZM366.825 134.62C367.035 134.8 367.059 135.116 366.88 135.325C366.7 135.535 366.384 135.559 366.175 135.38L366.825 134.62ZM370.063 138.713C369.854 138.533 369.83 138.218 370.009 138.008C370.189 137.798 370.505 137.774 370.714 137.954L370.063 138.713ZM374.603 141.287C374.813 141.467 374.837 141.782 374.657 141.992C374.478 142.202 374.162 142.226 373.952 142.046L374.603 141.287ZM377.841 145.38C377.632 145.2 377.607 144.884 377.787 144.675C377.967 144.465 378.282 144.441 378.492 144.62L377.841 145.38ZM382.381 147.954C382.591 148.133 382.615 148.449 382.435 148.659C382.255 148.868 381.94 148.893 381.73 148.713L382.381 147.954ZM385.619 152.046C385.409 151.867 385.385 151.551 385.565 151.341C385.745 151.132 386.06 151.107 386.27 151.287L385.619 152.046ZM390.159 154.62C390.368 154.8 390.393 155.116 390.213 155.325C390.033 155.535 389.718 155.559 389.508 155.38L390.159 154.62ZM393.397 158.713C393.187 158.533 393.163 158.218 393.343 158.008C393.522 157.798 393.838 157.774 394.048 157.954L393.397 158.713ZM397.937 161.287C398.146 161.467 398.17 161.782 397.991 161.992C397.811 162.202 397.495 162.226 397.286 162.046L397.937 161.287ZM401.175 165.38C400.965 165.2 400.941 164.884 401.12 164.675C401.3 164.465 401.616 164.441 401.825 164.62L401.175 165.38ZM405.714 167.954C405.924 168.133 405.948 168.449 405.769 168.659C405.589 168.868 405.273 168.893 405.064 168.713L405.714 167.954ZM408.952 172.046C408.743 171.867 408.718 171.551 408.898 171.341C409.078 171.132 409.394 171.107 409.603 171.287L408.952 172.046ZM413.492 174.62C413.702 174.8 413.726 175.116 413.546 175.325C413.367 175.535 413.051 175.559 412.841 175.38L413.492 174.62ZM416.73 178.713C416.521 178.533 416.496 178.218 416.676 178.008C416.856 177.798 417.171 177.774 417.381 177.954L416.73 178.713ZM355.159 124.62L359.048 127.954L358.397 128.713L354.508 125.38L355.159 124.62ZM362.937 131.287L366.825 134.62L366.175 135.38L362.286 132.046L362.937 131.287ZM370.714 137.954L374.603 141.287L373.952 142.046L370.063 138.713L370.714 137.954ZM378.492 144.62L382.381 147.954L381.73 148.713L377.841 145.38L378.492 144.62ZM386.27 151.287L390.159 154.62L389.508 155.38L385.619 152.046L386.27 151.287ZM394.048 157.954L397.937 161.287L397.286 162.046L393.397 158.713L394.048 157.954ZM401.825 164.62L405.714 167.954L405.064 168.713L401.175 165.38L401.825 164.62ZM409.603 171.287L413.492 174.62L412.841 175.38L408.952 172.046L409.603 171.287ZM349 120L360.35 122.124L352.835 130.891L349 120ZM419 180L407.65 177.876L415.165 169.109L419 180ZM351.595 120.907C352.015 121.267 352.063 121.898 351.704 122.317C351.344 122.737 350.713 122.785 350.294 122.426L351.595 120.907ZM354.183 125.759C353.763 125.4 353.715 124.769 354.074 124.349C354.433 123.93 355.065 123.881 355.484 124.241L354.183 125.759ZM359.373 127.574C359.792 127.933 359.841 128.565 359.481 128.984C359.122 129.403 358.491 129.452 358.071 129.093L359.373 127.574ZM361.96 132.426C361.541 132.066 361.492 131.435 361.852 131.016C362.211 130.597 362.843 130.548 363.262 130.907L361.96 132.426ZM367.151 134.241C367.57 134.6 367.619 135.231 367.259 135.651C366.9 136.07 366.269 136.119 365.849 135.759L367.151 134.241ZM369.738 139.093C369.319 138.733 369.27 138.102 369.63 137.683C369.989 137.263 370.62 137.215 371.04 137.574L369.738 139.093ZM374.929 140.907C375.348 141.267 375.396 141.898 375.037 142.317C374.678 142.737 374.046 142.785 373.627 142.426L374.929 140.907ZM377.516 145.759C377.097 145.4 377.048 144.769 377.407 144.349C377.767 143.93 378.398 143.881 378.817 144.241L377.516 145.759ZM382.706 147.574C383.126 147.933 383.174 148.565 382.815 148.984C382.455 149.403 381.824 149.452 381.405 149.093L382.706 147.574ZM385.294 152.426C384.874 152.066 384.826 151.435 385.185 151.016C385.545 150.597 386.176 150.548 386.595 150.907L385.294 152.426ZM390.484 154.241C390.903 154.6 390.952 155.231 390.593 155.651C390.233 156.07 389.602 156.119 389.183 155.759L390.484 154.241ZM393.071 159.093C392.652 158.733 392.604 158.102 392.963 157.683C393.322 157.263 393.954 157.215 394.373 157.574L393.071 159.093ZM398.262 160.907C398.681 161.267 398.73 161.898 398.37 162.317C398.011 162.737 397.38 162.785 396.96 162.426L398.262 160.907ZM400.849 165.759C400.43 165.4 400.381 164.769 400.741 164.349C401.1 163.93 401.731 163.881 402.151 164.241L400.849 165.759ZM406.04 167.574C406.459 167.934 406.508 168.565 406.148 168.984C405.789 169.403 405.157 169.452 404.738 169.093L406.04 167.574ZM408.627 172.426C408.208 172.067 408.159 171.435 408.519 171.016C408.878 170.597 409.509 170.548 409.929 170.907L408.627 172.426ZM413.817 174.241C414.237 174.6 414.285 175.231 413.926 175.651C413.567 176.07 412.935 176.119 412.516 175.759L413.817 174.241ZM416.405 179.093C415.985 178.733 415.937 178.102 416.296 177.683C416.656 177.263 417.287 177.215 417.706 177.574L416.405 179.093ZM355.484 124.241L359.373 127.574L358.071 129.093L354.183 125.759L355.484 124.241ZM363.262 130.907L367.151 134.241L365.849 135.759L361.96 132.426L363.262 130.907ZM371.04 137.574L374.929 140.907L373.627 142.426L369.738 139.093L371.04 137.574ZM378.817 144.241L382.706 147.574L381.405 149.093L377.516 145.759L378.817 144.241ZM386.595 150.907L390.484 154.241L389.183 155.759L385.294 152.426L386.595 150.907ZM394.373 157.574L398.262 160.907L396.96 162.426L393.071 159.093L394.373 157.574ZM402.151 164.241L406.04 167.574L404.738 169.093L400.849 165.759L402.151 164.241ZM409.929 170.907L413.817 174.241L412.516 175.759L408.627 172.426L409.929 170.907Z" fill="#587DFF"/>
<defs>
<clipPath id="clip0_748_509">
<rect width="110" height="110" fill="white" transform="translate(0 65)"/>
</clipPath>
<clipPath id="clip1_748_509">
<rect width="96" height="96" fill="white" transform="translate(227)"/>
</clipPath>
<clipPath id="clip2_748_509">
<rect width="94" height="94" fill="white" transform="translate(431 81)"/>
</clipPath>
</defs>
</svg>
