<svg width="110" height="127" viewBox="0 0 110 127" fill="none" xmlns="http://www.w3.org/2000/svg">
<path d="M108.908 77.6509C110.181 72.558 108.696 61.3111 106.574 52.6106C103.603 39.8783 99.9955 32.8754 95.7514 31.8144C95.1147 31.6022 94.6903 31.6022 94.0537 31.6022C88.9608 31.6022 85.5655 37.1195 84.9289 41.1514C83.8679 46.4566 84.9289 54.5205 86.8387 60.8866C80.897 61.3111 75.5918 68.5261 71.7721 74.8922C67.9524 81.4706 64.7693 89.7467 64.3449 93.9908C64.1327 95.4762 63.9205 100.781 63.9205 104.389C62.435 104.389 61.374 105.662 61.374 106.935V123.063C61.374 124.548 62.6472 125.822 64.1327 125.822H101.693C103.391 125.822 104.664 124.336 104.24 122.639L101.481 106.511C101.269 105.238 100.208 104.389 98.9344 104.389H96.1758C96.8124 97.8105 99.1467 94.6274 101.905 90.8077C104.452 87.6246 107.211 84.0171 108.908 77.6509ZM98.2979 120.729H66.467V110.118C72.4087 110.118 90.234 110.118 96.1758 110.118L98.2979 120.729ZM90.8706 104.601H69.2256C69.2256 101.418 69.4378 96.1128 69.65 94.8396C70.0745 91.6565 72.621 84.4415 76.4407 77.6509C81.1092 69.3749 85.1411 66.6162 87.4753 66.6162C87.6875 66.6162 87.8998 66.6162 88.112 66.6162C88.5364 66.8284 88.5364 67.0406 88.5364 67.0406C88.7486 67.465 89.173 69.1627 86.6265 74.68C84.9289 78.2875 82.5946 81.6828 81.3214 83.3805C81.1092 83.5927 80.8969 84.0171 80.8969 84.0171C80.0481 85.2903 80.4726 86.988 81.7458 87.6246C83.019 88.4734 84.7167 88.049 85.3533 86.7757C85.5655 86.5635 85.5655 86.3513 85.7777 86.1391C90.6585 78.9241 95.7514 69.7993 93.4171 64.4941C93.4171 64.2819 93.4171 63.8575 93.2049 63.6453C90.8707 57.7035 88.9608 47.5177 90.0218 42.0003C90.4462 39.6661 92.3561 36.6952 93.8415 36.6952C94.0537 36.6952 94.0537 36.6952 94.266 36.6952C95.327 37.1196 98.51 41.7881 101.269 53.8838C103.391 63.0087 104.452 72.558 103.603 75.9533C102.33 81.0462 99.9955 84.0171 97.6613 87.2002C94.6904 91.8687 91.5073 95.9006 90.8706 104.601Z" fill="white"/>
<path d="M88.7489 113.301C87.6879 114.362 87.6879 116.06 88.7489 117.121C89.8099 118.182 91.932 117.546 92.5686 117.121C93.6296 116.06 93.6296 114.362 92.5686 113.301C91.5075 112.24 89.8099 112.24 88.7489 113.301Z" fill="white"/>
<path d="M45.2465 104.601C45.2465 100.993 45.0343 95.6883 44.8221 94.2028C44.3977 89.9587 41.0024 81.4705 37.3949 75.1043C33.9996 68.9503 28.4823 61.7354 22.3283 61.0987C24.026 54.7326 25.087 46.6687 24.2382 41.3635C23.6015 37.3316 20.2062 31.8143 15.1133 31.8143C14.4766 31.8143 13.8401 31.8143 13.4156 32.0265C9.38373 33.0875 5.77623 40.0903 2.80535 52.8226C0.683286 61.5231 -0.802169 72.7701 0.471067 77.863C1.95651 84.017 4.92743 87.8367 7.4739 91.2319C10.2326 94.8394 12.779 98.0225 13.2034 104.813H10.657C9.38376 104.813 8.3227 105.662 8.1105 106.935L5.35184 123.063C5.13964 124.76 6.41284 126.246 7.89828 126.246H45.2465C46.732 126.246 48.0052 124.973 48.0052 123.487V107.36C48.0052 105.662 46.732 104.601 45.2465 104.601ZM11.2936 87.6245C8.95932 84.4414 6.62508 81.4705 5.35184 76.3775C4.50302 72.9822 5.35179 63.433 7.68606 54.3081C10.4447 42.2124 13.6279 37.5438 14.6889 37.1194C14.9011 37.1194 14.9011 37.1194 15.1133 37.1194C16.5987 37.1194 18.7208 40.0903 19.1452 42.4246C20.2063 47.9419 18.2964 58.1278 15.9621 64.0696C15.7499 64.2818 15.7499 64.7062 15.7499 64.9184C13.4157 70.2236 18.7208 79.3485 23.3894 86.5635C23.6016 86.7757 23.8137 86.9878 23.8137 87.2C24.6625 88.4733 26.3602 88.6855 27.4213 88.0489C28.6945 87.2 28.9067 85.5024 28.2701 84.4414C26.9968 82.5315 24.4503 78.924 22.5405 74.8921C19.7818 69.3748 20.4184 67.4649 20.6306 67.2527C20.6306 67.2527 20.8429 67.0405 21.0551 66.8283C21.4795 66.8283 21.6917 66.8283 21.6917 66.8283C23.8137 66.8283 27.8457 69.7992 32.7264 77.863C36.5461 84.4414 39.0925 91.8686 39.517 95.0517C39.7292 96.3249 39.9414 101.63 39.9414 104.813H18.0842C17.6598 95.9005 14.4767 91.8686 11.2936 87.6245ZM42.4879 120.729H10.8691L12.5668 110.118C18.5086 110.118 36.3339 110.118 42.2757 110.118L42.4879 120.729Z" fill="white"/>
<path d="M16.3866 116.909C17.4476 117.97 19.5697 117.333 20.2063 116.909C21.2674 115.848 21.2674 114.15 20.2063 113.089C19.1453 112.028 17.4476 112.028 16.3866 113.089C15.3256 114.15 15.3256 115.848 16.3866 116.909Z" fill="white"/>
<path d="M75.3805 60.4621C76.4415 60.0377 77.2903 58.9767 77.2903 57.9157C77.2903 31.1778 77.2903 32.6632 77.2903 32.451C77.0781 31.6022 76.6536 30.7533 75.5926 30.3289C75.3804 30.3289 76.4415 30.5411 55.2209 24.3871C54.7965 24.1749 54.1598 24.1749 53.7354 24.3871C32.3026 30.5411 33.5758 30.1167 33.3636 30.3289C32.3026 30.7533 31.666 31.6021 31.666 32.8754V57.9157C31.666 59.1889 32.5148 60.0377 33.5759 60.4621C55.0087 66.6161 53.7354 66.1917 54.372 66.4039H54.5842C54.5842 66.4039 54.5842 66.4039 54.7965 66.4039C55.2209 66.1917 53.7355 66.6161 75.3805 60.4621ZM57.1307 60.0378V40.3026C62.0115 38.8171 66.8922 37.5439 71.9852 36.0584V55.7936L57.1307 60.0378ZM54.5842 29.6923L64.9823 32.6631C61.3748 33.7242 58.4039 34.573 54.5842 35.6341C50.9767 34.573 48.0059 33.7242 44.1862 32.6631L54.5842 29.6923ZM37.1834 36.2707C42.0641 37.7561 46.9449 39.0293 52.0378 40.5148V60.0378L37.1834 55.7936V36.2707Z" fill="white"/>
<path d="M20.6308 29.4801C21.9041 30.1167 23.6017 29.2679 24.0262 27.9947C29.3313 14.2013 41.2148 5.50083 54.3716 5.50083C67.7406 5.50083 79.4119 14.2013 84.5049 27.9947C85.1415 29.2679 86.6269 30.1167 87.9002 29.4801C89.1734 28.8435 90.0222 27.3581 89.3856 26.0848C83.4438 10.3816 69.4382 0.407898 53.9472 0.407898C38.4562 0.407898 24.875 10.3816 18.5088 26.0848C18.5088 27.1459 19.3576 28.8435 20.6308 29.4801Z" fill="white"/>
</svg>
