<svg width="126" height="118" viewBox="0 0 126 118" fill="none" xmlns="http://www.w3.org/2000/svg">
<path fill-rule="evenodd" clip-rule="evenodd" d="M0 9.2467C0 4.08054 3.81895 0 8.65396 0H116.853C121.688 0 125.507 4.08054 125.507 9.2467V84.5434C125.507 89.7095 121.688 93.79 116.853 93.79H81.3081L59.6758 116.904C59.0289 117.595 58.0561 117.802 57.211 117.428C56.3658 117.054 55.8147 116.173 55.8147 115.195V93.79H8.65396C3.81896 93.79 0 89.7095 0 84.5434V9.2467ZM8.65396 4.83336C6.31724 4.83336 4.52353 6.74992 4.52353 9.2467V84.5434C4.52353 87.0401 6.31723 88.9567 8.65396 88.9567H58.0765C59.3256 88.9567 60.3383 90.0387 60.3383 91.3734V109.361L78.7719 89.6645C79.1961 89.2113 79.7714 88.9567 80.3712 88.9567H116.853C119.19 88.9567 120.984 87.0401 120.984 84.5434V9.2467C120.984 6.74992 119.19 4.83336 116.853 4.83336H8.65396Z" fill="white"/>
<path fill-rule="evenodd" clip-rule="evenodd" d="M23.3096 21.2557C22.6356 21.2557 22.0763 21.8533 22.0763 22.5735V29.7367C22.0763 30.4569 22.6356 31.0545 23.3096 31.0545C23.9836 31.0545 24.5429 30.4569 24.5429 29.7367V22.5735C24.5429 21.8533 23.9836 21.2557 23.3096 21.2557ZM18.3066 22.5735C18.3066 19.6288 20.5537 17.2279 23.3096 17.2279C26.0655 17.2279 28.3125 19.6288 28.3125 22.5735V29.7367C28.3125 32.6814 26.0655 35.0823 23.3096 35.0823C20.5537 35.0823 18.3066 32.6814 18.3066 29.7367V22.5735Z" fill="white"/>
<path fill-rule="evenodd" clip-rule="evenodd" d="M34.2227 17.8942C35.2636 17.8942 36.1075 18.7959 36.1075 19.9081V32.402C36.1075 33.5143 35.2636 34.4159 34.2227 34.4159C33.1817 34.4159 32.3379 33.5143 32.3379 32.402V19.9081C32.3379 18.7959 33.1817 17.8942 34.2227 17.8942Z" fill="white"/>
<path fill-rule="evenodd" clip-rule="evenodd" d="M43.8887 21.2557C43.2147 21.2557 42.6554 21.8533 42.6554 22.5735V29.7367C42.6554 30.4569 43.2147 31.0545 43.8887 31.0545C44.5627 31.0545 45.122 30.4569 45.122 29.7367V22.5735C45.122 21.8533 44.5627 21.2557 43.8887 21.2557ZM38.8857 22.5735C38.8857 19.6288 41.1328 17.2279 43.8887 17.2279C46.6446 17.2279 48.8916 19.6288 48.8916 22.5735V29.7367C48.8916 32.6814 46.6446 35.0823 43.8887 35.0823C41.1328 35.0823 38.8857 32.6814 38.8857 29.7367V22.5735Z" fill="white"/>
<path fill-rule="evenodd" clip-rule="evenodd" d="M64.625 21.2557C63.951 21.2557 63.3917 21.8533 63.3917 22.5735V29.7367C63.3917 30.4569 63.951 31.0545 64.625 31.0545C65.299 31.0545 65.8584 30.4569 65.8584 29.7367V22.5735C65.8584 21.8533 65.299 21.2557 64.625 21.2557ZM59.6221 22.5735C59.6221 19.6288 61.8691 17.2279 64.625 17.2279C67.3809 17.2279 69.628 19.6288 69.628 22.5735V29.7367C69.628 32.6814 67.3809 35.0823 64.625 35.0823C61.8691 35.0823 59.6221 32.6814 59.6221 29.7367V22.5735Z" fill="white"/>
<path fill-rule="evenodd" clip-rule="evenodd" d="M78.6563 21.2557C77.9822 21.2557 77.4229 21.8533 77.4229 22.5735V29.7367C77.4229 30.4569 77.9822 31.0545 78.6563 31.0545C79.3303 31.0545 79.8896 30.4569 79.8896 29.7367V22.5735C79.8896 21.8533 79.3303 21.2557 78.6563 21.2557ZM73.6533 22.5735C73.6533 19.6288 75.9003 17.2279 78.6563 17.2279C81.4122 17.2279 83.6592 19.6288 83.6592 22.5735V29.7367C83.6592 32.6814 81.4122 35.0823 78.6563 35.0823C75.9003 35.0823 73.6533 32.6814 73.6533 29.7367V22.5735Z" fill="white"/>
<path fill-rule="evenodd" clip-rule="evenodd" d="M92.8447 21.2557C92.1707 21.2557 91.6114 21.8533 91.6114 22.5735V29.7367C91.6114 30.4569 92.1707 31.0545 92.8447 31.0545C93.5188 31.0545 94.0781 30.4569 94.0781 29.7367V22.5735C94.0781 21.8533 93.5188 21.2557 92.8447 21.2557ZM87.8418 22.5735C87.8418 19.6288 90.0888 17.2279 92.8447 17.2279C95.6007 17.2279 97.8477 19.6288 97.8477 22.5735V29.7367C97.8477 32.6814 95.6007 35.0823 92.8447 35.0823C90.0888 35.0823 87.8418 32.6814 87.8418 29.7367V22.5735Z" fill="white"/>
<path fill-rule="evenodd" clip-rule="evenodd" d="M53.5557 17.8942C54.5967 17.8942 55.4405 18.7959 55.4405 19.9081V32.402C55.4405 33.5143 54.5967 34.4159 53.5557 34.4159C52.5148 34.4159 51.6709 33.5143 51.6709 32.402V19.9081C51.6709 18.7959 52.5148 17.8942 53.5557 17.8942Z" fill="white"/>
<path fill-rule="evenodd" clip-rule="evenodd" d="M105.472 17.8942C106.513 17.8942 107.357 18.7959 107.357 19.9081V32.402C107.357 33.5143 106.513 34.4159 105.472 34.4159C104.431 34.4159 103.587 33.5143 103.587 32.402V19.9081C103.587 18.7959 104.431 17.8942 105.472 17.8942Z" fill="white"/>
<path fill-rule="evenodd" clip-rule="evenodd" d="M102.198 42.7453C101.524 42.7453 100.965 43.3429 100.965 44.0631V51.2262C100.965 51.9464 101.524 52.5441 102.198 52.5441C102.872 52.5441 103.432 51.9464 103.432 51.2262V44.0631C103.432 43.3429 102.872 42.7453 102.198 42.7453ZM97.1953 44.0631C97.1953 41.1184 99.4423 38.7175 102.198 38.7175C104.954 38.7175 107.201 41.1184 107.201 44.0631V51.2262C107.201 54.1709 104.954 56.5719 102.198 56.5719C99.4423 56.5719 97.1953 54.1709 97.1953 51.2262V44.0631Z" fill="white"/>
<path fill-rule="evenodd" clip-rule="evenodd" d="M91.2852 39.3838C92.3261 39.3838 93.17 40.2854 93.17 41.3977V54.0582C93.17 55.1704 92.3261 56.0721 91.2852 56.0721C90.2442 56.0721 89.4004 55.1704 89.4004 54.0582V41.3977C89.4004 40.2854 90.2442 39.3838 91.2852 39.3838Z" fill="white"/>
<path fill-rule="evenodd" clip-rule="evenodd" d="M81.6192 42.7453C80.9451 42.7453 80.3858 43.3429 80.3858 44.0631V51.2262C80.3858 51.9464 80.9451 52.5441 81.6192 52.5441C82.2932 52.5441 82.8525 51.9464 82.8525 51.2262V44.0631C82.8525 43.3429 82.2932 42.7453 81.6192 42.7453ZM76.6162 44.0631C76.6162 41.1184 78.8632 38.7175 81.6192 38.7175C84.3751 38.7175 86.6221 41.1184 86.6221 44.0631V51.2262C86.6221 54.1709 84.3751 56.5719 81.6192 56.5719C78.8632 56.5719 76.6162 54.1709 76.6162 51.2262V44.0631Z" fill="white"/>
<path fill-rule="evenodd" clip-rule="evenodd" d="M60.8828 42.7453C60.2088 42.7453 59.6495 43.3429 59.6495 44.0631V51.2262C59.6495 51.9464 60.2088 52.5441 60.8828 52.5441C61.5569 52.5441 62.1162 51.9464 62.1162 51.2262V44.0631C62.1162 43.3429 61.5569 42.7453 60.8828 42.7453ZM55.8799 44.0631C55.8799 41.1184 58.1269 38.7175 60.8828 38.7175C63.6388 38.7175 65.8858 41.1184 65.8858 44.0631V51.2262C65.8858 54.1709 63.6388 56.5719 60.8828 56.5719C58.1269 56.5719 55.8799 54.1709 55.8799 51.2262V44.0631Z" fill="white"/>
<path fill-rule="evenodd" clip-rule="evenodd" d="M46.6953 42.7453C46.0213 42.7453 45.462 43.3429 45.462 44.0631V51.2262C45.462 51.9464 46.0213 52.5441 46.6953 52.5441C47.3694 52.5441 47.9287 51.9464 47.9287 51.2262V44.0631C47.9287 43.3429 47.3694 42.7453 46.6953 42.7453ZM41.6924 44.0631C41.6924 41.1184 43.9394 38.7175 46.6953 38.7175C49.4513 38.7175 51.6983 41.1184 51.6983 44.0631V51.2262C51.6983 54.1709 49.4513 56.5719 46.6953 56.5719C43.9394 56.5719 41.6924 54.1709 41.6924 51.2262V44.0631Z" fill="white"/>
<path fill-rule="evenodd" clip-rule="evenodd" d="M32.6641 42.7453C31.9901 42.7453 31.4307 43.3429 31.4307 44.0631V51.2262C31.4307 51.9464 31.9901 52.5441 32.6641 52.5441C33.3381 52.5441 33.8974 51.9464 33.8974 51.2262V44.0631C33.8974 43.3429 33.3381 42.7453 32.6641 42.7453ZM27.6611 44.0631C27.6611 41.1184 29.9082 38.7175 32.6641 38.7175C35.42 38.7175 37.667 41.1184 37.667 44.0631V51.2262C37.667 54.1709 35.42 56.5719 32.6641 56.5719C29.9082 56.5719 27.6611 54.1709 27.6611 51.2262V44.0631Z" fill="white"/>
<path fill-rule="evenodd" clip-rule="evenodd" d="M71.9532 39.3838C72.9941 39.3838 73.838 40.2854 73.838 41.3977V54.0582C73.838 55.1704 72.9941 56.0721 71.9532 56.0721C70.9122 56.0721 70.0684 55.1704 70.0684 54.0582V41.3977C70.0684 40.2854 70.9122 39.3838 71.9532 39.3838Z" fill="white"/>
<path fill-rule="evenodd" clip-rule="evenodd" d="M20.0352 39.3838C21.0761 39.3838 21.92 40.2854 21.92 41.3977V54.0582C21.92 55.1704 21.0761 56.0721 20.0352 56.0721C18.9942 56.0721 18.1504 55.1704 18.1504 54.0582V41.3977C18.1504 40.2854 18.9942 39.3838 20.0352 39.3838Z" fill="white"/>
<path fill-rule="evenodd" clip-rule="evenodd" d="M18.3066 65.7192C18.3066 62.7745 20.5537 60.3736 23.3096 60.3736C26.0655 60.3736 28.3125 62.7745 28.3125 65.7192V72.8824C28.3125 75.827 26.0655 78.228 23.3096 78.228C20.5537 78.228 18.3066 75.827 18.3066 72.8824V65.7192ZM23.3096 64.4014C22.6356 64.4014 22.0763 64.999 22.0763 65.7192V72.8824C22.0763 73.6026 22.6356 74.2002 23.3096 74.2002C23.9836 74.2002 24.5429 73.6026 24.5429 72.8824V65.7192C24.5429 64.999 23.9836 64.4014 23.3096 64.4014Z" fill="white"/>
<path fill-rule="evenodd" clip-rule="evenodd" d="M34.2227 60.8733C35.2636 60.8733 36.1075 61.7749 36.1075 62.8872V75.5477C36.1075 76.6599 35.2636 77.5616 34.2227 77.5616C33.1817 77.5616 32.3379 76.6599 32.3379 75.5477V62.8872C32.3379 61.7749 33.1817 60.8733 34.2227 60.8733Z" fill="white"/>
<path fill-rule="evenodd" clip-rule="evenodd" d="M38.8857 65.7192C38.8857 62.7745 41.1328 60.3736 43.8887 60.3736C46.6446 60.3736 48.8916 62.7745 48.8916 65.7192V72.8824C48.8916 75.827 46.6446 78.228 43.8887 78.228C41.1328 78.228 38.8857 75.827 38.8857 72.8824V65.7192ZM43.8887 64.4014C43.2147 64.4014 42.6554 64.999 42.6554 65.7192V72.8824C42.6554 73.6026 43.2147 74.2002 43.8887 74.2002C44.5627 74.2002 45.122 73.6026 45.122 72.8824V65.7192C45.122 64.999 44.5627 64.4014 43.8887 64.4014Z" fill="white"/>
<path fill-rule="evenodd" clip-rule="evenodd" d="M59.6221 65.7192C59.6221 62.7745 61.8691 60.3736 64.625 60.3736C67.3809 60.3736 69.628 62.7745 69.628 65.7192V72.8824C69.628 75.827 67.3809 78.228 64.625 78.228C61.8691 78.228 59.6221 75.827 59.6221 72.8824V65.7192ZM64.625 64.4014C63.951 64.4014 63.3917 64.999 63.3917 65.7192V72.8824C63.3917 73.6026 63.951 74.2002 64.625 74.2002C65.299 74.2002 65.8584 73.6026 65.8584 72.8824V65.7192C65.8584 64.999 65.299 64.4014 64.625 64.4014Z" fill="white"/>
<path fill-rule="evenodd" clip-rule="evenodd" d="M73.6533 65.7192C73.6533 62.7745 75.9003 60.3736 78.6563 60.3736C81.4122 60.3736 83.6592 62.7745 83.6592 65.7192V72.8824C83.6592 75.827 81.4122 78.228 78.6563 78.228C75.9003 78.228 73.6533 75.827 73.6533 72.8824V65.7192ZM78.6563 64.4014C77.9822 64.4014 77.4229 64.999 77.4229 65.7192V72.8824C77.4229 73.6026 77.9822 74.2002 78.6563 74.2002C79.3303 74.2002 79.8896 73.6026 79.8896 72.8824V65.7192C79.8896 64.999 79.3303 64.4014 78.6563 64.4014Z" fill="white"/>
<path fill-rule="evenodd" clip-rule="evenodd" d="M87.8418 65.7192C87.8418 62.7745 90.0888 60.3736 92.8447 60.3736C95.6007 60.3736 97.8477 62.7745 97.8477 65.7192V72.8824C97.8477 75.827 95.6007 78.228 92.8447 78.228C90.0888 78.228 87.8418 75.827 87.8418 72.8824V65.7192ZM92.8447 64.4014C92.1707 64.4014 91.6114 64.999 91.6114 65.7192V72.8824C91.6114 73.6026 92.1707 74.2002 92.8447 74.2002C93.5188 74.2002 94.0781 73.6026 94.0781 72.8824V65.7192C94.0781 64.999 93.5188 64.4014 92.8447 64.4014Z" fill="white"/>
<path fill-rule="evenodd" clip-rule="evenodd" d="M53.5557 60.8733C54.5967 60.8733 55.4405 61.7749 55.4405 62.8872V75.5477C55.4405 76.6599 54.5967 77.5616 53.5557 77.5616C52.5148 77.5616 51.6709 76.6599 51.6709 75.5477V62.8872C51.6709 61.7749 52.5148 60.8733 53.5557 60.8733Z" fill="white"/>
<path fill-rule="evenodd" clip-rule="evenodd" d="M105.472 60.8733C106.513 60.8733 107.357 61.7749 107.357 62.8872V75.5477C107.357 76.6599 106.513 77.5616 105.472 77.5616C104.431 77.5616 103.587 76.6599 103.587 75.5477V62.8872C103.587 61.7749 104.431 60.8733 105.472 60.8733Z" fill="white"/>
</svg>
