<svg width="79" height="83" viewBox="0 0 79 83" fill="none" xmlns="http://www.w3.org/2000/svg">
<path d="M39.5635 82.2333C38.9521 82.2333 38.4566 81.7377 38.4566 81.1263V60.5024C38.4566 59.891 38.9521 59.3955 39.5635 59.3955C40.1748 59.3955 40.6704 59.891 40.6704 60.5024V81.1263C40.6704 81.7377 40.1748 82.2333 39.5635 82.2333Z" fill="url(#paint0_linear_766_161)"/>
<path d="M0.0884303 17.8175C-0.150634 17.2548 0.111694 16.6049 0.674356 16.3658L38.9848 0.0884304C39.5475 -0.150634 40.1974 0.111693 40.4365 0.674355C40.6755 1.23702 40.4132 1.88695 39.8505 2.12601L1.54009 18.4034C0.977424 18.6425 0.327495 18.3801 0.0884303 17.8175Z" fill="url(#paint1_linear_766_161)"/>
<path d="M0.0884303 64.3763C-0.150634 64.9389 0.111694 65.5888 0.674356 65.8279L38.9751 82.1012C39.5377 82.3402 40.1877 82.0779 40.4267 81.5152C40.6658 80.9526 40.4035 80.3026 39.8408 80.0636L1.54008 63.7903C0.977421 63.5513 0.327495 63.8136 0.0884303 64.3763Z" fill="url(#paint2_linear_766_161)"/>
<path d="M0.0884303 17.5357C-0.150634 18.0983 0.111694 18.7483 0.674356 18.9873L19.3814 26.9356C19.944 27.1747 20.594 26.9123 20.833 26.3497C21.0721 25.787 20.8098 25.1371 20.2471 24.898L1.54009 16.9498C0.977424 16.7107 0.327495 16.973 0.0884303 17.5357Z" fill="url(#paint3_linear_766_161)"/>
<path d="M1.11206 65.9212C0.500716 65.9212 0.00512408 65.4256 0.00512408 64.8143V17.6239C0.00512408 17.0126 0.500716 16.517 1.11206 16.517C1.7234 16.517 2.21899 17.0125 2.21899 17.6239V64.8143C2.21899 65.4256 1.7234 65.9212 1.11206 65.9212Z" fill="url(#paint4_linear_766_161)"/>
<path d="M78.8783 17.8172C79.1174 17.2545 78.8551 16.6046 78.2924 16.3655L39.9934 0.0929817C39.4307 -0.146083 38.7808 0.116245 38.5417 0.678907C38.3027 1.24157 38.565 1.8915 39.1277 2.13056L77.4267 18.4031C77.9893 18.6421 78.6393 18.3798 78.8783 17.8172Z" fill="url(#paint5_linear_766_161)"/>
<path d="M78.8783 64.3751C79.1174 64.9378 78.8551 65.5877 78.2924 65.8267L39.9917 82.1C39.429 82.3391 38.7791 82.0767 38.54 81.5141C38.301 80.9514 38.5633 80.3015 39.126 80.0624L77.4267 63.7892C77.9893 63.5501 78.6393 63.8124 78.8783 64.3751Z" fill="url(#paint6_linear_766_161)"/>
<path d="M78.8783 17.5348C79.1174 18.0974 78.8551 18.7474 78.2924 18.9864L60.293 26.634C59.7304 26.8731 59.0804 26.6108 58.8414 26.0481C58.6023 25.4854 58.8646 24.8355 59.4273 24.5964L77.4267 16.9489C77.9893 16.7098 78.6393 16.9721 78.8783 17.5348Z" fill="url(#paint7_linear_766_161)"/>
<path d="M77.8547 65.92C78.466 65.92 78.9616 65.4244 78.9616 64.8131V17.6227C78.9616 17.0114 78.466 16.5158 77.8547 16.5158C77.2434 16.5158 76.7478 17.0114 76.7478 17.6227V64.8131C76.7478 65.4244 77.2434 65.92 77.8547 65.92Z" fill="url(#paint8_linear_766_161)"/>
<path fill-rule="evenodd" clip-rule="evenodd" d="M63.21 24.0734L39.5005 65.1395L15.791 24.0734H63.21ZM57.9715 27.0959L39.5052 59.0805L21.0389 27.0959H57.9715Z" fill="url(#paint9_linear_766_161)"/>
<path d="M39.447 49.7589L49.7901 31.8441H29.1038L39.447 49.7589Z" fill="url(#paint10_linear_766_161)"/>
<defs>
<linearGradient id="paint0_linear_766_161" x1="0.642005" y1="79.5566" x2="72.5685" y2="68.2982" gradientUnits="userSpaceOnUse">
<stop stop-color="#060F63"/>
<stop offset="0.554434" stop-color="#2C3BFF"/>
<stop offset="0.848817" stop-color="#9051F9"/>
</linearGradient>
<linearGradient id="paint1_linear_766_161" x1="0.642005" y1="79.5566" x2="72.5685" y2="68.2982" gradientUnits="userSpaceOnUse">
<stop stop-color="#060F63"/>
<stop offset="0.554434" stop-color="#2C3BFF"/>
<stop offset="0.848817" stop-color="#9051F9"/>
</linearGradient>
<linearGradient id="paint2_linear_766_161" x1="0.642005" y1="79.5566" x2="72.5685" y2="68.2982" gradientUnits="userSpaceOnUse">
<stop stop-color="#060F63"/>
<stop offset="0.554434" stop-color="#2C3BFF"/>
<stop offset="0.848817" stop-color="#9051F9"/>
</linearGradient>
<linearGradient id="paint3_linear_766_161" x1="0.642005" y1="79.5566" x2="72.5685" y2="68.2982" gradientUnits="userSpaceOnUse">
<stop stop-color="#060F63"/>
<stop offset="0.554434" stop-color="#2C3BFF"/>
<stop offset="0.848817" stop-color="#9051F9"/>
</linearGradient>
<linearGradient id="paint4_linear_766_161" x1="0.642005" y1="79.5566" x2="72.5685" y2="68.2982" gradientUnits="userSpaceOnUse">
<stop stop-color="#060F63"/>
<stop offset="0.554434" stop-color="#2C3BFF"/>
<stop offset="0.848817" stop-color="#9051F9"/>
</linearGradient>
<linearGradient id="paint5_linear_766_161" x1="0.642005" y1="79.5566" x2="72.5685" y2="68.2982" gradientUnits="userSpaceOnUse">
<stop stop-color="#060F63"/>
<stop offset="0.554434" stop-color="#2C3BFF"/>
<stop offset="0.848817" stop-color="#9051F9"/>
</linearGradient>
<linearGradient id="paint6_linear_766_161" x1="0.642005" y1="79.5566" x2="72.5685" y2="68.2982" gradientUnits="userSpaceOnUse">
<stop stop-color="#060F63"/>
<stop offset="0.554434" stop-color="#2C3BFF"/>
<stop offset="0.848817" stop-color="#9051F9"/>
</linearGradient>
<linearGradient id="paint7_linear_766_161" x1="0.642005" y1="79.5566" x2="72.5685" y2="68.2982" gradientUnits="userSpaceOnUse">
<stop stop-color="#060F63"/>
<stop offset="0.554434" stop-color="#2C3BFF"/>
<stop offset="0.848817" stop-color="#9051F9"/>
</linearGradient>
<linearGradient id="paint8_linear_766_161" x1="0.642005" y1="79.5566" x2="72.5685" y2="68.2982" gradientUnits="userSpaceOnUse">
<stop stop-color="#060F63"/>
<stop offset="0.554434" stop-color="#2C3BFF"/>
<stop offset="0.848817" stop-color="#9051F9"/>
</linearGradient>
<linearGradient id="paint9_linear_766_161" x1="0.642005" y1="79.5566" x2="72.5685" y2="68.2982" gradientUnits="userSpaceOnUse">
<stop stop-color="#060F63"/>
<stop offset="0.554434" stop-color="#2C3BFF"/>
<stop offset="0.848817" stop-color="#9051F9"/>
</linearGradient>
<linearGradient id="paint10_linear_766_161" x1="0.642005" y1="79.5566" x2="72.5685" y2="68.2982" gradientUnits="userSpaceOnUse">
<stop stop-color="#060F63"/>
<stop offset="0.554434" stop-color="#2C3BFF"/>
<stop offset="0.848817" stop-color="#9051F9"/>
</linearGradient>
</defs>
</svg>
