<svg width="17" height="28" viewBox="0 0 17 28" fill="none" xmlns="http://www.w3.org/2000/svg">
<g clip-path="url(#clip0_1196_1288)">
<path d="M8.66526 4.58691C10.2942 4.58691 11.6156 5.87891 11.6156 7.47148C11.6156 9.05879 10.2942 10.3508 8.66526 10.3508C7.03637 10.3508 5.71492 9.05879 5.71492 7.47148C5.71492 5.87891 7.03637 4.58691 8.66526 4.58691ZM8.66526 14.4377C12.5973 14.4377 15.7957 11.3105 15.7957 7.47148C15.7957 3.62715 12.5973 0.5 8.66526 0.5C4.73327 0.5 1.54022 3.62715 1.54022 7.47148C1.54022 11.3105 4.73327 14.4377 8.66526 14.4377ZM11.5509 20.1225C13.0018 19.7955 14.3988 19.2365 15.6878 18.4455C16.6641 17.8443 16.9554 16.584 16.3459 15.6295C15.7256 14.6697 14.4419 14.385 13.4603 14.9861C10.5423 16.7791 6.78826 16.7791 3.86489 14.9861C2.88864 14.3797 1.59955 14.6697 0.984666 15.6295C0.369787 16.584 0.666439 17.8443 1.6427 18.4455C2.93179 19.2365 4.32875 19.7955 5.77965 20.1225L1.79372 24.0143C0.979272 24.8105 0.979272 26.1025 1.79372 26.8988C2.20364 27.2943 2.73761 27.5 3.27159 27.5C3.80556 27.5 4.33953 27.2996 4.75485 26.8988L8.66526 23.0756L12.5811 26.8988C13.3955 27.7004 14.7116 27.7004 15.5314 26.8988C16.3459 26.1025 16.3459 24.8105 15.5314 24.0143L11.5509 20.1225Z" fill="#FF7700"/>
</g>
<defs>
<clipPath id="clip0_1196_1288">
<rect width="17" height="28" fill="white"/>
</clipPath>
</defs>
</svg>
