<svg width="80" height="83" viewBox="0 0 80 83" fill="none" xmlns="http://www.w3.org/2000/svg">
<rect x="38.6113" y="81.4441" width="20.929" height="2.32544" rx="1.16272" transform="rotate(-90 38.6113 81.4441)" fill="#170132"/>
<rect x="0.241211" y="17.0696" width="43.5139" height="2.19746" rx="1.09873" transform="rotate(-23.0197 0.241211 17.0696)" fill="#170132"/>
<rect width="43.5034" height="2.19746" rx="1.09873" transform="matrix(0.92037 0.391048 0.391048 -0.92037 0.241211 65.3057)" fill="#170132"/>
<rect width="21.5186" height="2.19746" rx="1.09873" transform="matrix(0.92037 0.391048 0.391048 -0.92037 0.241211 18.8124)" fill="#170132"/>
<rect x="0.588379" y="65.828" width="49.038" height="2.19746" rx="1.09873" transform="rotate(-90 0.588379 65.828)" fill="#170132"/>
<rect width="43.5016" height="2.19746" rx="1.09873" transform="matrix(-0.92037 -0.391048 -0.391048 0.92037 79.3066 17.0692)" fill="#170132"/>
<rect x="79.3066" y="65.3044" width="43.5034" height="2.19746" rx="1.09873" transform="rotate(156.98 79.3066 65.3044)" fill="#170132"/>
<rect x="79.3066" y="18.8114" width="21.6091" height="2.19755" rx="1.09877" transform="rotate(156.98 79.3066 18.8114)" fill="#170132"/>
<rect width="49.038" height="2.19746" rx="1.09873" transform="matrix(0 -1 -1 0 78.9595 65.8268)" fill="#170132"/>
<path d="M39.774 49.8795L50.7554 30.8591H28.7926L39.774 49.8795Z" fill="#170132"/>
<path d="M18.6622 25.6072L39.7739 62.1737L60.8856 25.6072H18.6622Z" stroke="#170132" stroke-width="2.32544"/>
</svg>
