<svg width="628" height="145" viewBox="0 0 628 145" fill="none" xmlns="http://www.w3.org/2000/svg">
<path d="M113.326 23.2029C112.023 23.2029 110.99 22.9685 110.229 22.4999C109.467 22.0313 108.918 21.3649 108.581 20.5009C108.259 19.6222 108.098 18.5751 108.098 17.3596V10.7255C108.098 9.50995 108.259 8.47017 108.581 7.60613C108.918 6.74209 109.467 6.08307 110.229 5.62908C110.99 5.17509 112.023 4.9481 113.326 4.9481C114.644 4.9481 115.684 5.18241 116.446 5.65105C117.222 6.10504 117.771 6.76405 118.093 7.6281C118.43 8.4775 118.598 9.50995 118.598 10.7255V17.3596C118.598 18.5751 118.43 19.6222 118.093 20.5009C117.771 21.3649 117.222 22.0313 116.446 22.4999C115.684 22.9685 114.644 23.2029 113.326 23.2029ZM113.326 20.5888C113.795 20.5888 114.139 20.4862 114.359 20.2812C114.578 20.0615 114.725 19.776 114.798 19.4245C114.871 19.0584 114.908 18.6703 114.908 18.2602V9.84678C114.908 9.43673 114.871 9.05597 114.798 8.70449C114.725 8.35301 114.578 8.07476 114.359 7.86974C114.139 7.65006 113.795 7.54023 113.326 7.54023C112.887 7.54023 112.557 7.65006 112.338 7.86974C112.118 8.07476 111.972 8.35301 111.898 8.70449C111.825 9.05597 111.788 9.43673 111.788 9.84678V18.2602C111.788 18.6703 111.818 19.0584 111.876 19.4245C111.95 19.776 112.096 20.0615 112.316 20.2812C112.535 20.4862 112.872 20.5888 113.326 20.5888Z" fill="white"/>
<path d="M121.062 22.9612V5.16777H124.687V12.4829H127.828V5.16777H131.453V22.9612H127.828V15.075H124.687V22.9612H121.062Z" fill="white"/>
<path d="M132.982 22.9612V20.391C133.436 20.391 133.809 20.3618 134.102 20.3032C134.41 20.23 134.652 20.0762 134.827 19.8419C135.018 19.5929 135.171 19.2195 135.289 18.7215C135.406 18.209 135.501 17.528 135.574 16.6786C135.662 15.8292 135.75 14.7528 135.838 13.4494L136.431 5.16777H145.503V22.9612H141.901V7.93564H139.682L139.309 14.0206C139.221 15.4265 139.118 16.6493 139.001 17.6891C138.899 18.7142 138.73 19.5783 138.496 20.2812C138.276 20.9842 137.947 21.548 137.507 21.9727C137.083 22.3827 136.504 22.6683 135.772 22.8294C135.04 22.9759 134.11 23.0198 132.982 22.9612Z" fill="white"/>
<path d="M147.363 22.9612L150.812 5.16777H154.832L158.259 22.9612H154.898L154.261 19.051H151.449L150.768 22.9612H147.363ZM151.778 16.8324H153.909L152.833 9.64908L151.778 16.8324Z" fill="white"/>
<path d="M160.106 22.9612V5.16777H163.005V15.8219L167.706 5.16777H170.079V22.9612H167.135V12.1314L162.39 22.9612H160.106ZM165.378 3.7399C164.338 3.7399 163.518 3.45433 162.918 2.88318C162.332 2.29739 162.039 1.47728 162.039 0.422852H163.928C163.928 0.950064 164.038 1.3528 164.258 1.63105C164.477 1.89465 164.851 2.02646 165.378 2.02646C165.89 2.02646 166.257 1.88733 166.476 1.60908C166.711 1.33083 166.828 0.935419 166.828 0.422852H168.695C168.695 1.47728 168.402 2.29739 167.816 2.88318C167.23 3.45433 166.418 3.7399 165.378 3.7399Z" fill="white"/>
<path d="M172.848 22.9612V5.16777H176.473V12.4829H179.614V5.16777H183.239V22.9612H179.614V15.075H176.473V22.9612H172.848Z" fill="white"/>
<path d="M185.976 16.5688V14.394H191.49V16.5688H185.976Z" fill="white"/>
<path d="M194.193 22.9612V5.16777H197.818V12.395H198.323L201.069 5.16777H204.672L201.355 13.5373L204.848 22.9612H201.135L198.323 15.0091H197.818V22.9612H194.193Z" fill="white"/>
<path d="M206.223 26.2783V23.8399C206.882 23.8692 207.439 23.8472 207.893 23.774C208.347 23.7008 208.705 23.5543 208.969 23.3347C209.247 23.1296 209.423 22.8441 209.496 22.4779C209.569 22.1118 209.547 21.6578 209.43 21.116L205.52 5.16777H208.903L210.419 12.5488L211.188 17.4914L211.781 12.5268L213.077 5.16777H216.482L212.901 21.5992C212.74 22.3901 212.557 23.0564 212.352 23.5983C212.147 24.1548 211.891 24.6161 211.583 24.9822C211.276 25.3483 210.887 25.6266 210.419 25.8169C209.95 26.022 209.372 26.1538 208.683 26.2124C207.995 26.2856 207.175 26.3075 206.223 26.2783Z" fill="white"/>
<path d="M218.09 22.9612V5.16777H223.736C224.805 5.16777 225.676 5.3728 226.35 5.78285C227.024 6.17826 227.522 6.75673 227.844 7.51826C228.181 8.27979 228.349 9.20241 228.349 10.2861C228.349 11.5602 228.129 12.5561 227.69 13.2737C227.265 13.9913 226.68 14.5038 225.933 14.8114C225.186 15.1043 224.329 15.2507 223.363 15.2507H221.715V22.9612H218.09ZM221.715 12.7025H222.989C223.516 12.7025 223.919 12.622 224.197 12.4609C224.49 12.2851 224.688 12.0142 224.79 11.6481C224.893 11.282 224.944 10.8133 224.944 10.2422C224.944 9.70034 224.9 9.24635 224.812 8.88023C224.739 8.51411 224.563 8.22853 224.285 8.02351C224.007 7.81848 223.568 7.71597 222.967 7.71597H221.715V12.7025Z" fill="white"/>
<path d="M235.154 23.2029C233.836 23.2029 232.788 22.9539 232.012 22.456C231.251 21.958 230.716 21.2697 230.409 20.391C230.101 19.4977 229.947 18.4653 229.947 17.2937V10.9012C229.947 9.67105 230.101 8.61662 230.409 7.73793C230.716 6.8446 231.251 6.15629 232.012 5.67301C232.788 5.18974 233.836 4.9481 235.154 4.9481C236.428 4.9481 237.424 5.16045 238.141 5.58515C238.873 6.00985 239.386 6.61028 239.679 7.38646C239.986 8.16263 240.14 9.06329 240.14 10.0884V11.5822H236.625V9.91269C236.625 9.50263 236.603 9.12187 236.559 8.77039C236.516 8.40427 236.391 8.11138 236.186 7.8917C235.996 7.65739 235.659 7.54023 235.176 7.54023C234.692 7.54023 234.341 7.65739 234.121 7.8917C233.901 8.12602 233.762 8.43356 233.704 8.81432C233.645 9.18045 233.616 9.5905 233.616 10.0445V18.1284C233.616 18.6263 233.652 19.0657 233.726 19.4465C233.814 19.8126 233.967 20.0982 234.187 20.3032C234.421 20.4936 234.751 20.5888 235.176 20.5888C235.644 20.5888 235.974 20.4789 236.164 20.2592C236.369 20.0249 236.494 19.7174 236.538 19.3366C236.596 18.9559 236.625 18.5531 236.625 18.1284V16.393H240.14V17.8648C240.14 18.9046 239.994 19.8272 239.701 20.6327C239.408 21.4235 238.903 22.0532 238.185 22.5219C237.467 22.9759 236.457 23.2029 235.154 23.2029Z" fill="white"/>
<path d="M247.845 22.9612V5.16777H258.301V22.9612H254.743V7.7599H251.403V22.9612H247.845Z" fill="white"/>
<path d="M260.974 22.9612V5.16777H266.619C267.688 5.16777 268.56 5.3728 269.233 5.78285C269.907 6.17826 270.405 6.75673 270.727 7.51826C271.064 8.27979 271.232 9.20241 271.232 10.2861C271.232 11.5602 271.013 12.5561 270.573 13.2737C270.149 13.9913 269.563 14.5038 268.816 14.8114C268.069 15.1043 267.212 15.2507 266.246 15.2507H264.598V22.9612H260.974ZM264.598 12.7025H265.872C266.4 12.7025 266.802 12.622 267.081 12.4609C267.373 12.2851 267.571 12.0142 267.674 11.6481C267.776 11.282 267.827 10.8133 267.827 10.2422C267.827 9.70034 267.783 9.24635 267.696 8.88023C267.622 8.51411 267.447 8.22853 267.168 8.02351C266.89 7.81848 266.451 7.71597 265.85 7.71597H264.598V12.7025Z" fill="white"/>
<path d="M278.059 23.2029C276.755 23.2029 275.723 22.9685 274.961 22.4999C274.2 22.0313 273.651 21.3649 273.314 20.5009C272.992 19.6222 272.831 18.5751 272.831 17.3596V10.7255C272.831 9.50995 272.992 8.47017 273.314 7.60613C273.651 6.74209 274.2 6.08307 274.961 5.62908C275.723 5.17509 276.755 4.9481 278.059 4.9481C279.377 4.9481 280.417 5.18241 281.178 5.65105C281.954 6.10504 282.504 6.76405 282.826 7.6281C283.163 8.4775 283.331 9.50995 283.331 10.7255V17.3596C283.331 18.5751 283.163 19.6222 282.826 20.5009C282.504 21.3649 281.954 22.0313 281.178 22.4999C280.417 22.9685 279.377 23.2029 278.059 23.2029ZM278.059 20.5888C278.527 20.5888 278.872 20.4862 279.091 20.2812C279.311 20.0615 279.457 19.776 279.531 19.4245C279.604 19.0584 279.64 18.6703 279.64 18.2602V9.84678C279.64 9.43673 279.604 9.05597 279.531 8.70449C279.457 8.35301 279.311 8.07476 279.091 7.86974C278.872 7.65006 278.527 7.54023 278.059 7.54023C277.619 7.54023 277.29 7.65006 277.07 7.86974C276.851 8.07476 276.704 8.35301 276.631 8.70449C276.558 9.05597 276.521 9.43673 276.521 9.84678V18.2602C276.521 18.6703 276.55 19.0584 276.609 19.4245C276.682 19.776 276.829 20.0615 277.048 20.2812C277.268 20.4862 277.605 20.5888 278.059 20.5888Z" fill="white"/>
<path d="M290.694 23.2029C289.376 23.2029 288.329 22.9539 287.552 22.456C286.791 21.958 286.256 21.2697 285.949 20.391C285.641 19.4977 285.488 18.4653 285.488 17.2937V10.9012C285.488 9.67105 285.641 8.61662 285.949 7.73793C286.256 6.8446 286.791 6.15629 287.552 5.67301C288.329 5.18974 289.376 4.9481 290.694 4.9481C291.968 4.9481 292.964 5.16045 293.681 5.58515C294.414 6.00985 294.926 6.61028 295.219 7.38646C295.527 8.16263 295.68 9.06329 295.68 10.0884V11.5822H292.166V9.91269C292.166 9.50263 292.144 9.12187 292.1 8.77039C292.056 8.40427 291.931 8.11138 291.726 7.8917C291.536 7.65739 291.199 7.54023 290.716 7.54023C290.232 7.54023 289.881 7.65739 289.661 7.8917C289.442 8.12602 289.302 8.43356 289.244 8.81432C289.185 9.18045 289.156 9.5905 289.156 10.0445V18.1284C289.156 18.6263 289.193 19.0657 289.266 19.4465C289.354 19.8126 289.507 20.0982 289.727 20.3032C289.961 20.4936 290.291 20.5888 290.716 20.5888C291.184 20.5888 291.514 20.4789 291.704 20.2592C291.909 20.0249 292.034 19.7174 292.078 19.3366C292.136 18.9559 292.166 18.5531 292.166 18.1284V16.393H295.68V17.8648C295.68 18.9046 295.534 19.8272 295.241 20.6327C294.948 21.4235 294.443 22.0532 293.725 22.5219C293.008 22.9759 291.997 23.2029 290.694 23.2029Z" fill="white"/>
<path d="M297.893 22.9612V5.16777H302.396C303.173 5.16777 303.89 5.23367 304.549 5.36547C305.208 5.49728 305.787 5.73159 306.285 6.06842C306.797 6.40525 307.185 6.87389 307.449 7.47433C307.727 8.06012 307.866 8.82897 307.866 9.78088C307.866 10.4985 307.764 11.1136 307.559 11.6261C307.354 12.1241 307.061 12.5195 306.68 12.8124C306.299 13.1053 305.831 13.303 305.274 13.4055C305.962 13.508 306.541 13.7423 307.01 14.1084C307.478 14.4745 307.83 14.9578 308.064 15.5583C308.298 16.1587 308.415 16.8836 308.415 17.733C308.415 18.6263 308.298 19.4025 308.064 20.0615C307.844 20.7206 307.515 21.2624 307.075 21.6871C306.636 22.1118 306.094 22.434 305.45 22.6537C304.805 22.8587 304.059 22.9612 303.209 22.9612H297.893ZM301.518 20.413H302.528C303.436 20.413 304.059 20.186 304.395 19.732C304.747 19.278 304.923 18.5971 304.923 17.6891C304.923 16.9861 304.842 16.4296 304.681 16.0196C304.52 15.5949 304.256 15.2873 303.89 15.0969C303.539 14.8919 303.063 14.7894 302.462 14.7894H301.518V20.413ZM301.518 12.351H302.418C303.048 12.351 303.524 12.2632 303.846 12.0874C304.168 11.8971 304.388 11.6188 304.505 11.2527C304.637 10.8719 304.703 10.4106 304.703 9.86875C304.703 9.32689 304.608 8.89487 304.417 8.57269C304.242 8.23586 303.963 7.99422 303.583 7.84777C303.217 7.70132 302.748 7.6281 302.177 7.6281H301.518V12.351Z" fill="white"/>
<path d="M310.507 22.9612V5.16777H318.262V7.67203H314.132V12.395H317.317V14.9212H314.132V20.5009H318.305V22.9612H310.507Z" fill="white"/>
<path d="M321.809 22.9612V7.86974H319.063V5.16777H328.157V7.86974H325.455V22.9612H321.809Z" fill="white"/>
<path d="M329.815 22.9612V5.16777H332.715V15.8219L337.416 5.16777H339.788V22.9612H336.845V12.1314L332.1 22.9612H329.815Z" fill="white"/>
<path d="M344.184 22.9612V7.86974H341.438V5.16777H350.532V7.86974H347.83V22.9612H344.184Z" fill="white"/>
<path d="M352.146 22.9612V5.16777H359.901V7.67203H355.771V12.395H358.956V14.9212H355.771V20.5009H359.945V22.9612H352.146Z" fill="white"/>
<path d="M360.57 22.9612V20.391C361.024 20.391 361.397 20.3618 361.69 20.3032C361.998 20.23 362.24 20.0762 362.415 19.8419C362.606 19.5929 362.759 19.2195 362.877 18.7215C362.994 18.209 363.089 17.528 363.162 16.6786C363.25 15.8292 363.338 14.7528 363.426 13.4494L364.019 5.16777H373.091V22.9612H369.489V7.93564H367.27L366.897 14.0206C366.809 15.4265 366.706 16.6493 366.589 17.6891C366.487 18.7142 366.318 19.5783 366.084 20.2812C365.864 20.9842 365.535 21.548 365.095 21.9727C364.671 22.3827 364.092 22.6683 363.36 22.8294C362.628 22.9759 361.698 23.0198 360.57 22.9612Z" fill="white"/>
<path d="M375.874 22.9612V5.16777H379.498V12.6586H380.333C381.49 12.6586 382.464 12.8343 383.254 13.1858C384.045 13.5373 384.646 14.0938 385.056 14.8553C385.466 15.6022 385.671 16.5834 385.671 17.7989C385.671 18.8533 385.532 19.7174 385.253 20.391C384.99 21.0501 384.602 21.57 384.089 21.9507C383.591 22.3315 382.998 22.5951 382.31 22.7415C381.636 22.888 380.889 22.9612 380.069 22.9612H375.874ZM379.498 20.5668H380.091C380.633 20.5668 381.065 20.4716 381.387 20.2812C381.724 20.0908 381.966 19.7906 382.112 19.3806C382.259 18.9559 382.325 18.4067 382.31 17.733C382.295 16.9568 382.134 16.3418 381.827 15.8878C381.534 15.4191 380.941 15.1848 380.047 15.1848H379.498V20.5668Z" fill="white"/>
<path d="M392.7 23.2029C391.382 23.2029 390.335 22.9539 389.558 22.456C388.797 21.958 388.262 21.2697 387.955 20.391C387.647 19.4977 387.493 18.4653 387.493 17.2937V10.9012C387.493 9.67105 387.647 8.61662 387.955 7.73793C388.262 6.8446 388.797 6.15629 389.558 5.67301C390.335 5.18974 391.382 4.9481 392.7 4.9481C393.974 4.9481 394.97 5.16045 395.687 5.58515C396.419 6.00985 396.932 6.61028 397.225 7.38646C397.532 8.16263 397.686 9.06329 397.686 10.0884V11.5822H394.171V9.91269C394.171 9.50263 394.15 9.12187 394.106 8.77039C394.062 8.40427 393.937 8.11138 393.732 7.8917C393.542 7.65739 393.205 7.54023 392.722 7.54023C392.238 7.54023 391.887 7.65739 391.667 7.8917C391.448 8.12602 391.308 8.43356 391.25 8.81432C391.191 9.18045 391.162 9.5905 391.162 10.0445V18.1284C391.162 18.6263 391.199 19.0657 391.272 19.4465C391.36 19.8126 391.513 20.0982 391.733 20.3032C391.967 20.4936 392.297 20.5888 392.722 20.5888C393.19 20.5888 393.52 20.4789 393.71 20.2592C393.915 20.0249 394.04 19.7174 394.084 19.3366C394.142 18.9559 394.171 18.5531 394.171 18.1284V16.393H397.686V17.8648C397.686 18.9046 397.54 19.8272 397.247 20.6327C396.954 21.4235 396.449 22.0532 395.731 22.5219C395.014 22.9759 394.003 23.2029 392.7 23.2029Z" fill="white"/>
<path d="M399.943 22.9612V5.16777H403.568V12.395H404.073L406.819 5.16777H410.421L407.104 13.5373L410.597 22.9612H406.885L404.073 15.0091H403.568V22.9612H399.943Z" fill="white"/>
<path d="M412.192 22.9612V5.16777H415.092V15.8219L419.793 5.16777H422.165V22.9612H419.222V12.1314L414.477 22.9612H412.192Z" fill="white"/>
<path d="M423.727 22.9612L427.242 13.4494L423.859 5.16777H427.286L429.394 10.2861L431.174 5.16777H434.227L430.976 14.2842L434.535 22.9612H431.152L428.823 17.3596L426.78 22.9612H423.727Z" fill="white"/>
<path d="M440.33 22.9612V20.391C440.784 20.391 441.157 20.3618 441.45 20.3032C441.758 20.23 441.999 20.0762 442.175 19.8419C442.366 19.5929 442.519 19.2195 442.636 18.7215C442.754 18.209 442.849 17.528 442.922 16.6786C443.01 15.8292 443.098 14.7528 443.186 13.4494L443.779 5.16777H452.851V22.9612H449.249V7.93564H447.03L446.656 14.0206C446.569 15.4265 446.466 16.6493 446.349 17.6891C446.246 18.7142 446.078 19.5783 445.844 20.2812C445.624 20.9842 445.294 21.548 444.855 21.9727C444.43 22.3827 443.852 22.6683 443.12 22.8294C442.387 22.9759 441.458 23.0198 440.33 22.9612Z" fill="white"/>
<path d="M455.589 22.9612V5.16777H463.344V7.67203H459.214V12.395H462.399V14.9212H459.214V20.5009H463.388V22.9612H455.589Z" fill="white"/>
<path d="M465.265 22.9612V5.16777H468.89V12.395H469.395L472.141 5.16777H475.744L472.427 13.5373L475.92 22.9612H472.207L469.395 15.0091H468.89V22.9612H465.265Z" fill="white"/>
<path d="M487.773 26.6737L487.334 22.9612H477.515V5.16777H481.139V20.5009H484.566V5.16777H488.191V20.5009H490.453V26.6737H487.773Z" fill="white"/>
<path d="M492.274 22.9612V5.16777H495.174V15.8219L499.875 5.16777H502.247V22.9612H499.303V12.1314L494.559 22.9612H492.274Z" fill="white"/>
<path d="M505.017 22.9612V5.16777H507.916V15.8219L512.617 5.16777H514.99V22.9612H512.046V12.1314L507.301 22.9612H505.017ZM510.289 3.7399C509.249 3.7399 508.429 3.45433 507.828 2.88318C507.243 2.29739 506.95 1.47728 506.95 0.422852H508.839C508.839 0.950064 508.949 1.3528 509.168 1.63105C509.388 1.89465 509.762 2.02646 510.289 2.02646C510.801 2.02646 511.167 1.88733 511.387 1.60908C511.621 1.33083 511.739 0.935419 511.739 0.422852H513.606C513.606 1.47728 513.313 2.29739 512.727 2.88318C512.141 3.45433 511.329 3.7399 510.289 3.7399Z" fill="white"/>
<path d="M0 87.6316V49.5503H6.62898V71.3648L16.3609 49.5503H21.8145V87.6316H15.0445V65.441L5.12453 87.6316H0Z" fill="white"/>
<path d="M38.4971 88.1958C35.6136 88.1958 33.3256 87.6786 31.6331 86.6443C29.9719 85.5787 28.7966 84.1056 28.107 82.225C27.4175 80.3131 27.0727 78.0721 27.0727 75.502V61.7739C27.0727 59.1411 27.4175 56.8844 28.107 55.0039C28.7966 53.092 29.9719 51.6189 31.6331 50.5846C33.3256 49.5503 35.6136 49.0331 38.4971 49.0331C41.318 49.0331 43.512 49.5032 45.0791 50.4435C46.6776 51.3525 47.8059 52.6375 48.4641 54.2987C49.1223 55.9598 49.4514 57.8717 49.4514 60.0344V63.3254H41.224V59.5172C41.224 58.765 41.1769 58.0441 41.0829 57.3546C41.0202 56.665 40.8008 56.1009 40.4247 55.6621C40.0486 55.1919 39.4061 54.9569 38.4971 54.9569C37.6195 54.9569 36.9613 55.1919 36.5225 55.6621C36.1151 56.1322 35.8487 56.7277 35.7233 57.4486C35.6293 58.1382 35.5823 58.8747 35.5823 59.6583V77.5706C35.5823 78.4169 35.645 79.2004 35.7703 79.9213C35.927 80.6109 36.2091 81.175 36.6166 81.6138C37.0554 82.0213 37.6822 82.225 38.4971 82.225C39.3747 82.225 40.0016 82.0056 40.3777 81.5668C40.7538 81.0967 40.9889 80.5012 41.0829 79.7803C41.1769 79.0594 41.224 78.3228 41.224 77.5706V73.5744H49.4514V76.8654C49.4514 79.028 49.1223 80.9713 48.4641 82.6951C47.8373 84.3876 46.7246 85.7354 45.1261 86.7383C43.559 87.71 41.3493 88.1958 38.4971 88.1958Z" fill="white"/>
<path d="M54.2222 87.6316V49.5503H62.6377V64.6418H63.484L69.0787 49.5503H77.4472L70.4891 67.4156L77.6822 87.6316H69.0316L63.484 71.0357H62.6377V87.6316H54.2222Z" fill="white"/>
<path d="M80.6566 95.1068V89.5592C82.0043 89.5905 83.1797 89.5278 84.1826 89.3711C85.1856 89.2144 86.0005 88.9167 86.6274 88.4779C87.2542 88.0391 87.6617 87.4436 87.8497 86.6913C88.0691 85.9078 88.0378 84.9361 87.7557 83.7765L79.1992 49.5503H87.0035L90.2945 65.2059L91.8459 75.408L92.9743 65.1589L95.7481 49.5503H103.646L95.7481 85.0458C95.372 86.7697 94.9332 88.2271 94.4317 89.4181C93.9302 90.6092 93.3034 91.5808 92.5511 92.333C91.8303 93.1166 90.937 93.7121 89.8713 94.1196C88.8057 94.527 87.505 94.7934 85.9692 94.9188C84.4647 95.0755 82.6939 95.1382 80.6566 95.1068Z" fill="white"/>
<path d="M117.925 88.1958C115.042 88.1958 112.754 87.6786 111.061 86.6443C109.4 85.5787 108.225 84.1056 107.535 82.225C106.845 80.3131 106.501 78.0721 106.501 75.502V61.7739C106.501 59.1411 106.845 56.8844 107.535 55.0039C108.225 53.092 109.4 51.6189 111.061 50.5846C112.754 49.5503 115.042 49.0331 117.925 49.0331C120.746 49.0331 122.94 49.5032 124.507 50.4435C126.106 51.3525 127.234 52.6375 127.892 54.2987C128.55 55.9598 128.879 57.8717 128.879 60.0344V63.3254H120.652V59.5172C120.652 58.765 120.605 58.0441 120.511 57.3546C120.448 56.665 120.229 56.1009 119.853 55.6621C119.477 55.1919 118.834 54.9569 117.925 54.9569C117.048 54.9569 116.389 55.1919 115.951 55.6621C115.543 56.1322 115.277 56.7277 115.151 57.4486C115.057 58.1382 115.01 58.8747 115.01 59.6583V77.5706C115.01 78.4169 115.073 79.2004 115.198 79.9213C115.355 80.6109 115.637 81.175 116.045 81.6138C116.483 82.0213 117.11 82.225 117.925 82.225C118.803 82.225 119.43 82.0056 119.806 81.5668C120.182 81.0967 120.417 80.5012 120.511 79.7803C120.605 79.0594 120.652 78.3228 120.652 77.5706V73.5744H128.879V76.8654C128.879 79.028 128.55 80.9713 127.892 82.6951C127.265 84.3876 126.153 85.7354 124.554 86.7383C122.987 87.71 120.777 88.1958 117.925 88.1958Z" fill="white"/>
<path d="M144.416 88.1958C141.533 88.1958 139.245 87.6786 137.552 86.6443C135.891 85.5787 134.716 84.1056 134.026 82.225C133.337 80.3131 132.992 78.0721 132.992 75.502V61.7739C132.992 59.1411 133.337 56.8844 134.026 55.0039C134.716 53.092 135.891 51.6189 137.552 50.5846C139.245 49.5503 141.533 49.0331 144.416 49.0331C147.237 49.0331 149.431 49.5032 150.998 50.4435C152.597 51.3525 153.725 52.6375 154.383 54.2987C155.042 55.9598 155.371 57.8717 155.371 60.0344V63.3254H147.143V59.5172C147.143 58.765 147.096 58.0441 147.002 57.3546C146.94 56.665 146.72 56.1009 146.344 55.6621C145.968 55.1919 145.325 54.9569 144.416 54.9569C143.539 54.9569 142.881 55.1919 142.442 55.6621C142.034 56.1322 141.768 56.7277 141.643 57.4486C141.549 58.1382 141.502 58.8747 141.502 59.6583V77.5706C141.502 78.4169 141.564 79.2004 141.69 79.9213C141.846 80.6109 142.128 81.175 142.536 81.6138C142.975 82.0213 143.602 82.225 144.416 82.225C145.294 82.225 145.921 82.0056 146.297 81.5668C146.673 81.0967 146.908 80.5012 147.002 79.7803C147.096 79.0594 147.143 78.3228 147.143 77.5706V73.5744H155.371V76.8654C155.371 79.028 155.042 80.9713 154.383 82.6951C153.757 84.3876 152.644 85.7354 151.045 86.7383C149.478 87.71 147.269 88.1958 144.416 88.1958Z" fill="white"/>
<path d="M163.432 87.6316V55.8031H157.697V49.5503H177.584V55.8031H171.895V87.6316H163.432Z" fill="white"/>
<path d="M180.936 87.6316V49.5503H190.856C192.486 49.5503 194.022 49.6756 195.464 49.9264C196.937 50.1771 198.238 50.6629 199.366 51.3838C200.494 52.0733 201.372 53.0763 201.999 54.3927C202.657 55.6778 202.986 57.3859 202.986 59.5172C202.986 61.053 202.751 62.3537 202.281 63.4194C201.842 64.4537 201.199 65.2843 200.353 65.9111C199.538 66.538 198.551 66.9611 197.391 67.1805C198.864 67.3686 200.102 67.8544 201.105 68.6379C202.108 69.3902 202.861 70.4088 203.362 71.6939C203.895 72.9789 204.161 74.5304 204.161 76.3483C204.161 78.3228 203.895 80.031 203.362 81.4728C202.861 82.8832 202.124 84.0429 201.152 84.9518C200.181 85.8608 198.974 86.5346 197.532 86.9734C196.122 87.4122 194.492 87.6316 192.643 87.6316H180.936ZM189.352 81.7549H191.138C192.988 81.7549 194.257 81.2847 194.947 80.3444C195.667 79.4042 196.028 78.0251 196.028 76.2072C196.028 74.7654 195.871 73.6214 195.558 72.7752C195.244 71.9289 194.727 71.3177 194.006 70.9416C193.285 70.5342 192.314 70.3305 191.091 70.3305H189.352V81.7549ZM189.352 64.7828H190.997C192.282 64.7828 193.254 64.5947 193.912 64.2186C194.57 63.8112 195.009 63.2313 195.229 62.4791C195.479 61.7269 195.605 60.818 195.605 59.7523C195.605 58.7493 195.417 57.9188 195.041 57.2606C194.696 56.571 194.163 56.0539 193.442 55.7091C192.753 55.3643 191.875 55.1919 190.809 55.1919H189.352V64.7828Z" fill="white"/>
<path d="M208.576 87.6316V49.5503H225.689V55.286H216.991V64.7358H223.62V70.5655H216.991V81.9429H225.783V87.6316H208.576Z" fill="white"/>
<path d="M229.744 87.6316V49.5503H238.16V64.9709H244.037V49.5503H252.499V87.6316H244.037V70.9887H238.16V87.6316H229.744Z" fill="white"/>
<path d="M258.439 87.6316V49.5503H266.855V64.9709H272.732V49.5503H281.194V87.6316H272.732V70.9887H266.855V87.6316H258.439Z" fill="white"/>
<path d="M287.134 87.6316V49.5503H295.55V65.6291H297.431C299.844 65.6291 301.881 66.0208 303.542 66.8044C305.235 67.588 306.504 68.7947 307.35 70.4245C308.228 72.023 308.667 74.0916 308.667 76.6303C308.667 78.9497 308.353 80.8303 307.727 82.272C307.131 83.7138 306.285 84.8264 305.188 85.61C304.091 86.3936 302.821 86.9264 301.38 87.2085C299.938 87.4906 298.371 87.6316 296.678 87.6316H287.134ZM295.55 82.131H296.725C297.791 82.131 298.622 81.9272 299.217 81.5198C299.844 81.1123 300.283 80.4855 300.533 79.6392C300.816 78.793 300.941 77.7273 300.91 76.4423C300.878 75.0319 300.58 73.8565 300.016 72.9162C299.452 71.9446 298.324 71.4588 296.631 71.4588H295.55V82.131ZM311.864 87.6316V49.5503H320.279V87.6316H311.864Z" fill="white"/>
<path d="M326.206 87.6316V49.5503H332.835V71.3648L342.567 49.5503H348.02V87.6316H341.25V65.441L331.33 87.6316H326.206ZM337.724 46.4943C335.499 46.4943 333.712 45.8675 332.365 44.6138C331.017 43.3601 330.343 41.5422 330.343 39.1602H334.668C334.668 40.3198 334.888 41.1818 335.326 41.7459C335.797 42.3101 336.596 42.5922 337.724 42.5922C338.821 42.5922 339.605 42.3101 340.075 41.7459C340.545 41.1504 340.78 40.2885 340.78 39.1602H345.105C345.105 41.5422 344.431 43.3601 343.084 44.6138C341.736 45.8675 339.949 46.4943 337.724 46.4943Z" fill="white"/>
<path d="M365.966 87.6316V49.5503H372.595V71.3648L382.326 49.5503H387.78V87.6316H381.01V65.441L371.09 87.6316H365.966Z" fill="white"/>
<path d="M393.697 87.6316V49.5503H402.112V64.9709H407.989V49.5503H416.451V87.6316H407.989V70.9887H402.112V87.6316H393.697Z" fill="white"/>
<path d="M425.683 87.6316V55.8031H419.947V49.5503H439.834V55.8031H434.145V87.6316H425.683Z" fill="white"/>
<path d="M443.186 87.6316V49.5503H460.3V55.286H451.602V64.7358H458.231V70.5655H451.602V81.9429H460.394V87.6316H443.186Z" fill="white"/>
<path d="M461.722 87.6316V81.7079C462.788 81.7079 463.65 81.6452 464.308 81.5198C464.966 81.3631 465.484 81.0183 465.86 80.4855C466.236 79.9527 466.534 79.1378 466.753 78.0408C466.972 76.9438 467.145 75.4707 467.27 73.6214C467.427 71.7722 467.615 69.4215 467.834 66.5693L469.057 49.5503H489.226V87.6316H480.857V55.9912H476.673L475.921 68.1678C475.701 71.3021 475.482 74.0132 475.263 76.3012C475.043 78.5579 474.683 80.4541 474.181 81.9899C473.711 83.5257 472.99 84.7324 472.019 85.61C471.078 86.4563 469.778 87.0361 468.116 87.3495C466.455 87.663 464.324 87.757 461.722 87.6316Z" fill="white"/>
<path d="M492.575 87.6316V81.7079C493.641 81.7079 494.503 81.6452 495.161 81.5198C495.819 81.3631 496.337 81.0183 496.713 80.4855C497.089 79.9527 497.387 79.1378 497.606 78.0408C497.825 76.9438 497.998 75.4707 498.123 73.6214C498.28 71.7722 498.468 69.4215 498.687 66.5693L499.91 49.5503H520.079V87.6316H511.71V55.9912H507.526L506.774 68.1678C506.554 71.3021 506.335 74.0132 506.115 76.3012C505.896 78.5579 505.536 80.4541 505.034 81.9899C504.564 83.5257 503.843 84.7324 502.871 85.61C501.931 86.4563 500.631 87.0361 498.969 87.3495C497.308 87.663 495.177 87.757 492.575 87.6316Z" fill="white"/>
<path d="M525.92 87.6316V49.5503H543.033V55.286H534.336V64.7358H540.965V70.5655H534.336V81.9429H543.127V87.6316H525.92Z" fill="white"/>
<path d="M547.089 87.6316V49.5503H555.505V64.6418H556.351L561.945 49.5503H570.314L563.356 67.4156L570.549 87.6316H561.898L556.351 71.0357H555.505V87.6316H547.089Z" fill="white"/>
<path d="M577.284 87.6316V55.8031H571.549V49.5503H591.436V55.8031H585.747V87.6316H577.284Z" fill="white"/>
<path d="M604.138 73.0103V67.7917H627.315V73.0103H604.138Z" fill="white"/>
<path d="M123.228 144.878V106.796H129.857V128.611L139.589 106.796H145.043V144.878H138.273V122.687L128.353 144.878H123.228Z" fill="white"/>
<path d="M150.959 144.878V106.796H159.375V122.217H165.251V106.796H173.714V144.878H165.251V128.235H159.375V144.878H150.959Z" fill="white"/>
<path d="M182.945 144.878V113.049H177.209V106.796H197.096V113.049H191.408V144.878H182.945Z" fill="white"/>
<path d="M200.449 144.878V106.796H217.562V112.532H208.865V121.982H215.494V127.812H208.865V139.189H217.656V144.878H200.449Z" fill="white"/>
<path d="M221.477 144.878V106.796H234.265C236.553 106.796 238.433 107.235 239.906 108.113C241.379 108.959 242.476 110.213 243.197 111.874C243.918 113.504 244.279 115.494 244.279 117.845C244.279 120.791 243.793 123.048 242.821 124.615C241.85 126.15 240.533 127.216 238.872 127.812C237.211 128.407 235.346 128.705 233.277 128.705H229.892V144.878H221.477ZM229.892 122.828H232.713C233.748 122.828 234.531 122.64 235.064 122.264C235.597 121.888 235.941 121.324 236.098 120.572C236.286 119.819 236.38 118.863 236.38 117.704C236.38 116.732 236.302 115.886 236.145 115.165C236.02 114.413 235.691 113.817 235.158 113.378C234.625 112.94 233.795 112.72 232.666 112.72H229.892V122.828Z" fill="white"/>
<path d="M248.476 144.878V106.796H256.892V122.217H262.769V106.796H271.231V144.878H262.769V128.235H256.892V144.878H248.476Z" fill="white"/>
<path d="M277.03 144.878V106.796H294.144V112.532H285.446V121.982H292.075V127.812H285.446V139.189H294.238V144.878H277.03Z" fill="white"/>
<path d="M301.49 144.878V113.049H295.755V106.796H315.641V113.049H309.953V144.878H301.49Z" fill="white"/>
<path d="M328.531 144.878L335.913 124.38L328.861 106.796H336.806L340.99 117.092L344.375 106.796H351.38L344.704 126.589L352.132 144.878H344.234L339.58 133.5L335.49 144.878H328.531Z" fill="white"/>
<path d="M352.727 144.878L360.108 124.38L353.056 106.796H361.002L365.186 117.092L368.571 106.796H375.576L368.9 126.589L376.328 144.878H368.43L363.775 133.5L359.685 144.878H352.727Z" fill="white"/>
<path d="M379.462 144.878V106.796H387.877V144.878H379.462Z" fill="white"/>
<path d="M405.584 144.878V106.796H415.504C417.134 106.796 418.67 106.922 420.112 107.173C421.585 107.423 422.886 107.909 424.014 108.63C425.142 109.319 426.02 110.322 426.647 111.639C427.305 112.924 427.634 114.632 427.634 116.763C427.634 118.299 427.399 119.6 426.929 120.666C426.49 121.7 425.848 122.53 425.001 123.157C424.186 123.784 423.199 124.207 422.039 124.427C423.513 124.615 424.751 125.101 425.753 125.884C426.756 126.636 427.509 127.655 428.01 128.94C428.543 130.225 428.809 131.777 428.809 133.594C428.809 135.569 428.543 137.277 428.01 138.719C427.509 140.129 426.772 141.289 425.801 142.198C424.829 143.107 423.622 143.781 422.18 144.22C420.77 144.658 419.14 144.878 417.291 144.878H405.584ZM414 139.001H415.786C417.636 139.001 418.905 138.531 419.595 137.591C420.316 136.65 420.676 135.271 420.676 133.453C420.676 132.012 420.519 130.868 420.206 130.021C419.892 129.175 419.375 128.564 418.654 128.188C417.934 127.78 416.962 127.577 415.739 127.577H414V139.001ZM414 122.029H415.645C416.931 122.029 417.902 121.841 418.56 121.465C419.219 121.057 419.657 120.477 419.877 119.725C420.127 118.973 420.253 118.064 420.253 116.998C420.253 115.995 420.065 115.165 419.689 114.507C419.344 113.817 418.811 113.3 418.09 112.955C417.401 112.61 416.523 112.438 415.457 112.438H414V122.029Z" fill="white"/>
<path d="M433.224 144.878V106.796H450.337V112.532H441.639V121.982H448.268V127.812H441.639V139.189H450.431V144.878H433.224Z" fill="white"/>
<path d="M454.392 144.878V106.796H462.808V121.888H463.654L469.249 106.796H477.617L470.659 124.662L477.852 144.878H469.202L463.654 128.282H462.808V144.878H454.392Z" fill="white"/>
<path d="M479.322 144.878L486.515 106.796H496.106L503.205 144.878H495.448L494.179 136.838H488.584L487.268 144.878H479.322ZM489.336 131.808H493.379L491.358 116.951L489.336 131.808Z" fill="white"/>
</svg>
