<svg width="309" height="80" viewBox="0 0 309 80" fill="none" xmlns="http://www.w3.org/2000/svg">
<path d="M5.87002 19.1207C4.97385 19.1207 4.26396 18.9596 3.74035 18.6374C3.21674 18.3152 2.83914 17.857 2.60754 17.2629C2.38602 16.6588 2.27525 15.9388 2.27525 15.1031V10.5416C2.27525 9.70587 2.38602 8.99095 2.60754 8.39686C2.83914 7.80276 3.21674 7.34964 3.74035 7.03749C4.26396 6.72534 4.97385 6.56927 5.87002 6.56927C6.77626 6.56927 7.49119 6.73038 8.01479 7.0526C8.54847 7.36475 8.92607 7.81787 9.1476 8.41196C9.37919 8.99598 9.49499 9.70587 9.49499 10.5416V15.1031C9.49499 15.9388 9.37919 16.6588 9.1476 17.2629C8.92607 17.857 8.54847 18.3152 8.01479 18.6374C7.49119 18.9596 6.77626 19.1207 5.87002 19.1207ZM5.87002 17.3234C6.19224 17.3234 6.42887 17.2529 6.57991 17.1119C6.73095 16.9609 6.83164 16.7645 6.88199 16.5228C6.93234 16.2711 6.95751 16.0043 6.95751 15.7223V9.93747C6.95751 9.65553 6.93234 9.39372 6.88199 9.15206C6.83164 8.91039 6.73095 8.71908 6.57991 8.57811C6.42887 8.42707 6.19224 8.35155 5.87002 8.35155C5.56794 8.35155 5.34138 8.42707 5.19034 8.57811C5.0393 8.71908 4.9386 8.91039 4.88826 9.15206C4.83791 9.39372 4.81274 9.65553 4.81274 9.93747V15.7223C4.81274 16.0043 4.83287 16.2711 4.87315 16.5228C4.9235 16.7645 5.02419 16.9609 5.17523 17.1119C5.32627 17.2529 5.55787 17.3234 5.87002 17.3234ZM11.1892 18.9546V6.72031H13.6814V11.75H15.8413V6.72031H18.3335V18.9546H15.8413V13.5322H13.6814V18.9546H11.1892ZM19.3848 18.9546V17.1874C19.697 17.1874 19.9538 17.1673 20.1551 17.127C20.3666 17.0767 20.5327 16.9709 20.6536 16.8098C20.7845 16.6386 20.8902 16.3819 20.9708 16.0395C21.0513 15.6871 21.1168 15.2189 21.1671 14.6348C21.2275 14.0508 21.288 13.3107 21.3484 12.4145L21.7562 6.72031H27.9942V18.9546H25.5171V8.62342H23.9916L23.7348 12.8072C23.6744 13.7739 23.6039 14.6147 23.5234 15.3296C23.4529 16.0345 23.3371 16.6286 23.176 17.1119C23.0249 17.5952 22.7984 17.9829 22.4963 18.2749C22.2043 18.5568 21.8065 18.7532 21.3031 18.864C20.7996 18.9647 20.1602 18.9949 19.3848 18.9546ZM29.2727 18.9546L31.644 6.72031H34.4081L36.7643 18.9546H34.4534L34.0154 16.2661H32.082L31.6138 18.9546H29.2727ZM32.3086 14.7406H33.7737L33.0336 9.80153L32.3086 14.7406ZM38.0343 18.9546V6.72031H40.0281V14.0458L43.2603 6.72031H44.8916V18.9546H42.8676V11.5083L39.6052 18.9546H38.0343ZM41.6593 5.73854C40.9444 5.73854 40.3805 5.54219 39.9677 5.14949C39.5649 4.74671 39.3635 4.18283 39.3635 3.45783H40.6624C40.6624 3.82033 40.738 4.09724 40.889 4.28855C41.04 4.4698 41.2968 4.56043 41.6593 4.56043C42.0117 4.56043 42.2635 4.46477 42.4145 4.27345C42.5756 4.08213 42.6562 3.81026 42.6562 3.45783H43.94C43.94 4.18283 43.7386 4.74671 43.3359 5.14949C42.9331 5.54219 42.3742 5.73854 41.6593 5.73854ZM46.7959 18.9546V6.72031H49.288V11.75H51.4479V6.72031H53.9401V18.9546H51.4479V13.5322H49.288V18.9546H46.7959ZM55.8222 14.5593V13.064H59.6133V14.5593H55.8222ZM61.4722 18.9546V6.72031H63.9643V11.6895H64.3117L66.1997 6.72031H68.6768L66.3961 12.475L68.7976 18.9546H66.245L64.3117 13.4869H63.9643V18.9546H61.4722ZM69.7434 21.2353V19.5588C70.1965 19.5789 70.5792 19.5638 70.8913 19.5134C71.2035 19.4631 71.4502 19.3624 71.6314 19.2114C71.8227 19.0704 71.9436 18.874 71.9939 18.6223C72.0443 18.3706 72.0291 18.0584 71.9486 17.6858L69.2601 6.72031H71.5861L72.6283 11.7953L73.1569 15.1937L73.5647 11.7802L74.4559 6.72031H76.797L74.335 18.0181C74.2243 18.5619 74.0984 19.02 73.9574 19.3926C73.8165 19.7752 73.6402 20.0924 73.4288 20.3442C73.2173 20.5959 72.9505 20.7872 72.6283 20.9181C72.3061 21.0591 71.9083 21.1497 71.4351 21.19C70.9618 21.2403 70.3979 21.2554 69.7434 21.2353ZM77.903 18.9546V6.72031H81.7847C82.5198 6.72031 83.1189 6.86128 83.5821 7.14322C84.0453 7.41509 84.3877 7.81283 84.6092 8.33644C84.8408 8.86005 84.9566 9.49442 84.9566 10.2396C84.9566 11.1156 84.8056 11.8003 84.5035 12.2937C84.2115 12.7871 83.8087 13.1395 83.2952 13.351C82.7816 13.5524 82.1926 13.6531 81.528 13.6531H80.3952V18.9546H77.903ZM80.3952 11.901H81.2712C81.6337 11.901 81.9106 11.8456 82.1019 11.7349C82.3033 11.614 82.4393 11.4277 82.5097 11.176C82.5802 10.9243 82.6155 10.602 82.6155 10.2093C82.6155 9.83678 82.5853 9.52463 82.5248 9.27289C82.4745 9.02116 82.3537 8.82481 82.1623 8.68383C81.971 8.54286 81.6689 8.47238 81.2561 8.47238H80.3952V11.901ZM89.6352 19.1207C88.729 19.1207 88.009 18.9496 87.4753 18.6072C86.9517 18.2648 86.5842 17.7916 86.3727 17.1874C86.1613 16.5732 86.0555 15.8633 86.0555 15.0577V10.6625C86.0555 9.81664 86.1613 9.09164 86.3727 8.48748C86.5842 7.87325 86.9517 7.39999 87.4753 7.0677C88.009 6.73541 88.729 6.56927 89.6352 6.56927C90.5112 6.56927 91.196 6.71527 91.6894 7.00728C92.1928 7.2993 92.5453 7.71214 92.7466 8.24582C92.9581 8.77949 93.0638 9.39876 93.0638 10.1036V11.1307H90.6472V9.98278C90.6472 9.70084 90.6321 9.43904 90.6019 9.19737C90.5717 8.94564 90.4861 8.74425 90.3451 8.59321C90.2142 8.4321 89.9826 8.35155 89.6503 8.35155C89.318 8.35155 89.0764 8.4321 88.9253 8.59321C88.7743 8.75432 88.6786 8.96578 88.6383 9.22758C88.5981 9.47931 88.5779 9.76126 88.5779 10.0734V15.6317C88.5779 15.9741 88.6031 16.2761 88.6534 16.5379C88.7139 16.7897 88.8196 16.986 88.9706 17.127C89.1317 17.2579 89.3583 17.3234 89.6503 17.3234C89.9725 17.3234 90.1991 17.2478 90.33 17.0968C90.471 16.9357 90.5566 16.7242 90.5868 16.4624C90.627 16.2006 90.6472 15.9237 90.6472 15.6317V14.4385H93.0638V15.4504C93.0638 16.1654 92.9631 16.7997 92.7617 17.3536C92.5604 17.8973 92.213 18.3303 91.7196 18.6525C91.2262 18.9647 90.5314 19.1207 89.6352 19.1207ZM98.3613 18.9546V6.72031H105.551V18.9546H103.104V8.50259H100.808V18.9546H98.3613ZM107.388 18.9546V6.72031H111.27C112.005 6.72031 112.604 6.86128 113.067 7.14322C113.531 7.41509 113.873 7.81283 114.095 8.33644C114.326 8.86005 114.442 9.49442 114.442 10.2396C114.442 11.1156 114.291 11.8003 113.989 12.2937C113.697 12.7871 113.294 13.1395 112.781 13.351C112.267 13.5524 111.678 13.6531 111.013 13.6531H109.881V18.9546H107.388ZM109.881 11.901H110.757C111.119 11.901 111.396 11.8456 111.587 11.7349C111.789 11.614 111.925 11.4277 111.995 11.176C112.066 10.9243 112.101 10.602 112.101 10.2093C112.101 9.83678 112.071 9.52463 112.01 9.27289C111.96 9.02116 111.839 8.82481 111.648 8.68383C111.456 8.54286 111.154 8.47238 110.741 8.47238H109.881V11.901ZM119.136 19.1207C118.239 19.1207 117.53 18.9596 117.006 18.6374C116.482 18.3152 116.105 17.857 115.873 17.2629C115.652 16.6588 115.541 15.9388 115.541 15.1031V10.5416C115.541 9.70587 115.652 8.99095 115.873 8.39686C116.105 7.80276 116.482 7.34964 117.006 7.03749C117.53 6.72534 118.239 6.56927 119.136 6.56927C120.042 6.56927 120.757 6.73038 121.28 7.0526C121.814 7.36475 122.192 7.81787 122.413 8.41196C122.645 8.99598 122.761 9.70587 122.761 10.5416V15.1031C122.761 15.9388 122.645 16.6588 122.413 17.2629C122.192 17.857 121.814 18.3152 121.28 18.6374C120.757 18.9596 120.042 19.1207 119.136 19.1207ZM119.136 17.3234C119.458 17.3234 119.695 17.2529 119.846 17.1119C119.997 16.9609 120.097 16.7645 120.148 16.5228C120.198 16.2711 120.223 16.0043 120.223 15.7223V9.93747C120.223 9.65553 120.198 9.39372 120.148 9.15206C120.097 8.91039 119.997 8.71908 119.846 8.57811C119.695 8.42707 119.458 8.35155 119.136 8.35155C118.834 8.35155 118.607 8.42707 118.456 8.57811C118.305 8.71908 118.204 8.91039 118.154 9.15206C118.104 9.39372 118.078 9.65553 118.078 9.93747V15.7223C118.078 16.0043 118.099 16.2711 118.139 16.5228C118.189 16.7645 118.29 16.9609 118.441 17.1119C118.592 17.2529 118.824 17.3234 119.136 17.3234ZM127.823 19.1207C126.917 19.1207 126.197 18.9496 125.663 18.6072C125.14 18.2648 124.772 17.7916 124.561 17.1874C124.349 16.5732 124.243 15.8633 124.243 15.0577V10.6625C124.243 9.81664 124.349 9.09164 124.561 8.48748C124.772 7.87325 125.14 7.39999 125.663 7.0677C126.197 6.73541 126.917 6.56927 127.823 6.56927C128.699 6.56927 129.384 6.71527 129.877 7.00728C130.381 7.2993 130.733 7.71214 130.935 8.24582C131.146 8.77949 131.252 9.39876 131.252 10.1036V11.1307H128.835V9.98278C128.835 9.70084 128.82 9.43904 128.79 9.19737C128.76 8.94564 128.674 8.74425 128.533 8.59321C128.402 8.4321 128.17 8.35155 127.838 8.35155C127.506 8.35155 127.264 8.4321 127.113 8.59321C126.962 8.75432 126.866 8.96578 126.826 9.22758C126.786 9.47931 126.766 9.76126 126.766 10.0734V15.6317C126.766 15.9741 126.791 16.2761 126.841 16.5379C126.902 16.7897 127.007 16.986 127.158 17.127C127.32 17.2579 127.546 17.3234 127.838 17.3234C128.16 17.3234 128.387 17.2478 128.518 17.0968C128.659 16.9357 128.744 16.7242 128.775 16.4624C128.815 16.2006 128.835 15.9237 128.835 15.6317V14.4385H131.252V15.4504C131.252 16.1654 131.151 16.7997 130.95 17.3536C130.748 17.8973 130.401 18.3303 129.907 18.6525C129.414 18.9647 128.719 19.1207 127.823 19.1207ZM132.773 18.9546V6.72031H135.87C136.403 6.72031 136.897 6.76562 137.35 6.85624C137.803 6.94687 138.201 7.10798 138.543 7.33957C138.895 7.57117 139.162 7.89339 139.343 8.30623C139.535 8.70901 139.63 9.23765 139.63 9.89216C139.63 10.3856 139.56 10.8085 139.419 11.1609C139.278 11.5033 139.077 11.7751 138.815 11.9765C138.553 12.1779 138.231 12.3138 137.848 12.3843C138.321 12.4548 138.719 12.6159 139.041 12.8677C139.364 13.1194 139.605 13.4517 139.766 13.8645C139.927 14.2774 140.008 14.7758 140.008 15.3598C140.008 15.9741 139.927 16.5077 139.766 16.9609C139.615 17.414 139.389 17.7865 139.087 18.0786C138.785 18.3706 138.412 18.5921 137.969 18.7431C137.526 18.8841 137.012 18.9546 136.428 18.9546H132.773ZM135.265 17.2025H135.96C136.584 17.2025 137.012 17.0464 137.244 16.7343C137.486 16.4221 137.606 15.9539 137.606 15.3296C137.606 14.8463 137.551 14.4637 137.44 14.1817C137.33 13.8897 137.148 13.6782 136.897 13.5473C136.655 13.4064 136.328 13.3359 135.915 13.3359H135.265V17.2025ZM135.265 11.6593H135.885C136.318 11.6593 136.645 11.5989 136.866 11.4781C137.088 11.3472 137.239 11.1559 137.32 10.9041C137.41 10.6423 137.455 10.3251 137.455 9.95257C137.455 9.58001 137.39 9.28296 137.259 9.06144C137.138 8.82984 136.947 8.6637 136.685 8.563C136.433 8.46231 136.111 8.41196 135.718 8.41196H135.265V11.6593ZM141.446 18.9546V6.72031H146.778V8.44217H143.938V11.6895H146.128V13.4265H143.938V17.2629H146.808V18.9546H141.446ZM149.217 18.9546V8.57811H147.329V6.72031H153.582V8.57811H151.724V18.9546H149.217ZM154.722 18.9546V6.72031H156.716V14.0458L159.948 6.72031H161.579V18.9546H159.555V11.5083L156.293 18.9546H154.722ZM164.601 18.9546V8.57811H162.713V6.72031H168.966V8.57811H167.108V18.9546H164.601ZM170.076 18.9546V6.72031H175.408V8.44217H172.568V11.6895H174.758V13.4265H172.568V17.2629H175.438V18.9546H170.076ZM175.868 18.9546V17.1874C176.18 17.1874 176.437 17.1673 176.638 17.127C176.85 17.0767 177.016 16.9709 177.137 16.8098C177.268 16.6386 177.373 16.3819 177.454 16.0395C177.535 15.6871 177.6 15.2189 177.65 14.6348C177.711 14.0508 177.771 13.3107 177.832 12.4145L178.239 6.72031H184.477V18.9546H182V8.62342H180.475L180.218 12.8072C180.158 13.7739 180.087 14.6147 180.007 15.3296C179.936 16.0345 179.82 16.6286 179.659 17.1119C179.508 17.5952 179.282 17.9829 178.98 18.2749C178.688 18.5568 178.29 18.7532 177.786 18.864C177.283 18.9647 176.643 18.9949 175.868 18.9546ZM186.39 18.9546V6.72031H188.883V11.8708H189.456C190.252 11.8708 190.922 11.9916 191.465 12.2333C192.009 12.475 192.422 12.8576 192.704 13.3812C192.986 13.8947 193.127 14.5694 193.127 15.4051C193.127 16.1301 193.031 16.7242 192.84 17.1874C192.659 17.6405 192.392 17.998 192.039 18.2598C191.697 18.5216 191.289 18.7029 190.816 18.8035C190.353 18.9042 189.839 18.9546 189.275 18.9546H186.39ZM188.883 17.3082H189.29C189.663 17.3082 189.96 17.2428 190.181 17.1119C190.413 16.981 190.579 16.7746 190.68 16.4926C190.781 16.2006 190.826 15.823 190.816 15.3598C190.806 14.8261 190.695 14.4032 190.484 14.0911C190.282 13.7689 189.874 13.6078 189.26 13.6078H188.883V17.3082ZM197.96 19.1207C197.053 19.1207 196.333 18.9496 195.8 18.6072C195.276 18.2648 194.909 17.7916 194.697 17.1874C194.486 16.5732 194.38 15.8633 194.38 15.0577V10.6625C194.38 9.81664 194.486 9.09164 194.697 8.48748C194.909 7.87325 195.276 7.39999 195.8 7.0677C196.333 6.73541 197.053 6.56927 197.96 6.56927C198.836 6.56927 199.52 6.71527 200.014 7.00728C200.517 7.2993 200.87 7.71214 201.071 8.24582C201.282 8.77949 201.388 9.39876 201.388 10.1036V11.1307H198.972V9.98278C198.972 9.70084 198.956 9.43904 198.926 9.19737C198.896 8.94564 198.81 8.74425 198.669 8.59321C198.539 8.4321 198.307 8.35155 197.975 8.35155C197.642 8.35155 197.401 8.4321 197.25 8.59321C197.099 8.75432 197.003 8.96578 196.963 9.22758C196.922 9.47931 196.902 9.76126 196.902 10.0734V15.6317C196.902 15.9741 196.927 16.2761 196.978 16.5379C197.038 16.7897 197.144 16.986 197.295 17.127C197.456 17.2579 197.683 17.3234 197.975 17.3234C198.297 17.3234 198.523 17.2478 198.654 17.0968C198.795 16.9357 198.881 16.7242 198.911 16.4624C198.951 16.2006 198.972 15.9237 198.972 15.6317V14.4385H201.388V15.4504C201.388 16.1654 201.288 16.7997 201.086 17.3536C200.885 17.8973 200.537 18.3303 200.044 18.6525C199.551 18.9647 198.856 19.1207 197.96 19.1207ZM202.94 18.9546V6.72031H205.432V11.6895H205.779L207.667 6.72031H210.145L207.864 12.475L210.265 18.9546H207.713L205.779 13.4869H205.432V18.9546H202.94ZM211.362 18.9546V6.72031H213.356V14.0458L216.588 6.72031H218.219V18.9546H216.195V11.5083L212.933 18.9546H211.362ZM219.293 18.9546L221.71 12.4145L219.384 6.72031H221.74L223.19 10.2396L224.413 6.72031H226.513L224.277 12.9885L226.724 18.9546H224.398L222.797 15.1031L221.392 18.9546H219.293ZM230.709 18.9546V17.1874C231.021 17.1874 231.278 17.1673 231.479 17.127C231.691 17.0767 231.857 16.9709 231.978 16.8098C232.108 16.6386 232.214 16.3819 232.295 16.0395C232.375 15.6871 232.441 15.2189 232.491 14.6348C232.552 14.0508 232.612 13.3107 232.672 12.4145L233.08 6.72031H239.318V18.9546H236.841V8.62342H235.316L235.059 12.8072C234.998 13.7739 234.928 14.6147 234.847 15.3296C234.777 16.0345 234.661 16.6286 234.5 17.1119C234.349 17.5952 234.122 17.9829 233.82 18.2749C233.528 18.5568 233.131 18.7532 232.627 18.864C232.124 18.9647 231.484 18.9949 230.709 18.9546ZM241.201 18.9546V6.72031H246.533V8.44217H243.693V11.6895H245.883V13.4265H243.693V17.2629H246.563V18.9546H241.201ZM247.854 18.9546V6.72031H250.346V11.6895H250.693L252.581 6.72031H255.058L252.778 12.475L255.179 18.9546H252.627L250.693 13.4869H250.346V18.9546H247.854ZM263.33 21.5072L263.028 18.9546H256.276V6.72031H258.768V17.2629H261.124V6.72031H263.617V17.2629H265.172V21.5072H263.33ZM266.424 18.9546V6.72031H268.418V14.0458L271.65 6.72031H273.281V18.9546H271.257V11.5083L267.995 18.9546H266.424ZM275.186 18.9546V6.72031H277.179V14.0458L280.412 6.72031H282.043V18.9546H280.019V11.5083L276.756 18.9546H275.186ZM278.811 5.73854C278.096 5.73854 277.532 5.54219 277.119 5.14949C276.716 4.74671 276.515 4.18283 276.515 3.45783H277.814C277.814 3.82033 277.889 4.09724 278.04 4.28855C278.191 4.4698 278.448 4.56043 278.811 4.56043C279.163 4.56043 279.415 4.46477 279.566 4.27345C279.727 4.08213 279.807 3.81026 279.807 3.45783H281.091C281.091 4.18283 280.89 4.74671 280.487 5.14949C280.084 5.54219 279.526 5.73854 278.811 5.73854Z" fill="#1D2332"/>
<path d="M2.03158 49.7363V31.1998H5.25831V41.8182L9.99542 31.1998H12.65V49.7363H9.35466V38.9348L4.526 49.7363H2.03158ZM20.7705 50.0109C19.3669 50.0109 18.2532 49.7592 17.4294 49.2558C16.6208 48.737 16.0486 48.02 15.713 47.1046C15.3774 46.174 15.2095 45.0831 15.2095 43.8321V37.1498C15.2095 35.8682 15.3774 34.7698 15.713 33.8544C16.0486 32.9238 16.6208 32.2067 17.4294 31.7032C18.2532 31.1998 19.3669 30.9481 20.7705 30.9481C22.1436 30.9481 23.2115 31.1769 23.9744 31.6346C24.7524 32.077 25.3017 32.7025 25.622 33.5111C25.9424 34.3197 26.1026 35.2504 26.1026 36.3031V37.905H22.0978V36.0513C22.0978 35.6852 22.0749 35.3343 22.0292 34.9986C21.9986 34.663 21.8919 34.3884 21.7088 34.1748C21.5257 33.9459 21.2129 33.8315 20.7705 33.8315C20.3433 33.8315 20.0229 33.9459 19.8094 34.1748C19.611 34.4036 19.4813 34.6935 19.4203 35.0444C19.3745 35.38 19.3517 35.7386 19.3517 36.12V44.839C19.3517 45.2509 19.3822 45.6324 19.4432 45.9832C19.5195 46.3189 19.6568 46.5935 19.8551 46.8071C20.0687 47.0054 20.3738 47.1046 20.7705 47.1046C21.1977 47.1046 21.5028 46.9978 21.6859 46.7842C21.869 46.5554 21.9834 46.2655 22.0292 45.9146C22.0749 45.5637 22.0978 45.2052 22.0978 44.839V42.8938H26.1026V44.4957C26.1026 45.5484 25.9424 46.4943 25.622 47.3334C25.3169 48.1573 24.7753 48.8133 23.9972 49.3015C23.2344 49.7745 22.1588 50.0109 20.7705 50.0109ZM28.4249 49.7363V31.1998H32.5212V38.5457H32.9331L35.6564 31.1998H39.7299L36.343 39.8959L39.8443 49.7363H35.6335L32.9331 41.6581H32.5212V49.7363H28.4249ZM41.2921 53.375V50.6746C41.9481 50.6899 42.5203 50.6593 43.0085 50.5831C43.4967 50.5068 43.8933 50.3618 44.1985 50.1483C44.5036 49.9347 44.7019 49.6448 44.7935 49.2786C44.9003 48.8972 44.885 48.4243 44.7477 47.8598L40.5827 31.1998H44.3815L45.9835 38.8204L46.7387 43.7863L47.2879 38.7975L48.6381 31.1998H52.4827L48.6381 48.4777C48.455 49.3168 48.2414 50.0262 47.9973 50.6059C47.7532 51.1857 47.4481 51.6586 47.0819 52.0248C46.731 52.4062 46.2962 52.6961 45.7775 52.8944C45.2588 53.0927 44.6256 53.2224 43.8781 53.2834C43.1458 53.3597 42.2838 53.3902 41.2921 53.375ZM59.433 50.0109C58.0294 50.0109 56.9157 49.7592 56.0919 49.2558C55.2833 48.737 54.7111 48.02 54.3755 47.1046C54.0399 46.174 53.872 45.0831 53.872 43.8321V37.1498C53.872 35.8682 54.0399 34.7698 54.3755 33.8544C54.7111 32.9238 55.2833 32.2067 56.0919 31.7032C56.9157 31.1998 58.0294 30.9481 59.433 30.9481C60.8061 30.9481 61.874 31.1769 62.6369 31.6346C63.4149 32.077 63.9642 32.7025 64.2845 33.5111C64.6049 34.3197 64.7651 35.2504 64.7651 36.3031V37.905H60.7603V36.0513C60.7603 35.6852 60.7374 35.3343 60.6917 34.9986C60.6612 34.663 60.5544 34.3884 60.3713 34.1748C60.1882 33.9459 59.8754 33.8315 59.433 33.8315C59.0058 33.8315 58.6854 33.9459 58.4719 34.1748C58.2735 34.4036 58.1438 34.6935 58.0828 35.0444C58.037 35.38 58.0142 35.7386 58.0142 36.12V44.839C58.0142 45.2509 58.0447 45.6324 58.1057 45.9832C58.182 46.3189 58.3193 46.5935 58.5176 46.8071C58.7312 47.0054 59.0363 47.1046 59.433 47.1046C59.8602 47.1046 60.1653 46.9978 60.3484 46.7842C60.5315 46.5554 60.6459 46.2655 60.6917 45.9146C60.7374 45.5637 60.7603 45.2052 60.7603 44.839V42.8938H64.7651V44.4957C64.7651 45.5484 64.6049 46.4943 64.2845 47.3334C63.9794 48.1573 63.4378 48.8133 62.6597 49.3015C61.8969 49.7745 60.8213 50.0109 59.433 50.0109ZM72.328 50.0109C70.9244 50.0109 69.8106 49.7592 68.9868 49.2558C68.1782 48.737 67.6061 48.02 67.2705 47.1046C66.9348 46.174 66.767 45.0831 66.767 43.8321V37.1498C66.767 35.8682 66.9348 34.7698 67.2705 33.8544C67.6061 32.9238 68.1782 32.2067 68.9868 31.7032C69.8106 31.1998 70.9244 30.9481 72.328 30.9481C73.701 30.9481 74.769 31.1769 75.5318 31.6346C76.3099 32.077 76.8591 32.7025 77.1795 33.5111C77.4999 34.3197 77.6601 35.2504 77.6601 36.3031V37.905H73.6553V36.0513C73.6553 35.6852 73.6324 35.3343 73.5866 34.9986C73.5561 34.663 73.4493 34.3884 73.2662 34.1748C73.0831 33.9459 72.7704 33.8315 72.328 33.8315C71.9008 33.8315 71.5804 33.9459 71.3668 34.1748C71.1685 34.4036 71.0388 34.6935 70.9778 35.0444C70.932 35.38 70.9091 35.7386 70.9091 36.12V44.839C70.9091 45.2509 70.9396 45.6324 71.0006 45.9832C71.0769 46.3189 71.2142 46.5935 71.4126 46.8071C71.6262 47.0054 71.9313 47.1046 72.328 47.1046C72.7551 47.1046 73.0603 46.9978 73.2433 46.7842C73.4264 46.5554 73.5408 46.2655 73.5866 45.9146C73.6324 45.5637 73.6553 45.2052 73.6553 44.839V42.8938H77.6601V44.4957C77.6601 45.5484 77.4999 46.4943 77.1795 47.3334C76.8744 48.1573 76.3328 48.8133 75.5547 49.3015C74.7919 49.7745 73.7163 50.0109 72.328 50.0109ZM81.5843 49.7363V34.2434H78.7923V31.1998H88.4725V34.2434H85.7035V49.7363H81.5843ZM90.1045 49.7363V31.1998H94.9331C95.7265 31.1998 96.474 31.2608 97.1758 31.3829C97.8929 31.5049 98.526 31.7414 99.0753 32.0923C99.6245 32.4279 100.052 32.9161 100.357 33.5569C100.677 34.1824 100.837 35.0139 100.837 36.0513C100.837 36.7989 100.723 37.432 100.494 37.9507C100.281 38.4542 99.9678 38.8585 99.5558 39.1636C99.1592 39.4688 98.6786 39.6747 98.1141 39.7815C98.8312 39.8731 99.4338 40.1095 99.922 40.4909C100.41 40.8571 100.776 41.3529 101.02 41.9784C101.28 42.604 101.409 43.3591 101.409 44.244C101.409 45.2052 101.28 46.0366 101.02 46.7384C100.776 47.425 100.418 47.9895 99.9449 48.4319C99.4719 48.8743 98.8846 49.2024 98.1828 49.4159C97.4962 49.6295 96.7029 49.7363 95.8028 49.7363H90.1045ZM94.2008 46.8758H95.0704C95.9706 46.8758 96.5885 46.6469 96.9241 46.1892C97.275 45.7315 97.4504 45.0602 97.4504 44.1754C97.4504 43.4736 97.3742 42.9167 97.2216 42.5048C97.069 42.0929 96.8173 41.7954 96.4664 41.6123C96.1155 41.414 95.6426 41.3148 95.0476 41.3148H94.2008V46.8758ZM94.2008 38.6144H95.0018C95.6273 38.6144 96.1003 38.5229 96.4206 38.3398C96.741 38.1415 96.9546 37.8592 97.0614 37.4931C97.1835 37.1269 97.2445 36.6845 97.2445 36.1657C97.2445 35.6775 97.1529 35.2732 96.9699 34.9529C96.8021 34.6172 96.5427 34.3655 96.1918 34.1977C95.8562 34.0298 95.429 33.9459 94.9103 33.9459H94.2008V38.6144ZM103.558 49.7363V31.1998H111.888V33.9917H107.654V38.5915H110.881V41.4292H107.654V46.9673H111.934V49.7363H103.558ZM113.862 49.7363V31.1998H117.959V38.7059H120.819V31.1998H124.938V49.7363H120.819V41.6352H117.959V49.7363H113.862ZM127.83 49.7363V31.1998H131.926V38.7059H134.787V31.1998H138.906V49.7363H134.787V41.6352H131.926V49.7363H127.83ZM141.798 49.7363V31.1998H145.894V39.0263H146.809C147.984 39.0263 148.976 39.217 149.784 39.5984C150.608 39.9798 151.226 40.5672 151.638 41.3606C152.065 42.1386 152.279 43.1456 152.279 44.3813C152.279 45.5103 152.126 46.4257 151.821 47.1275C151.531 47.8293 151.119 48.3709 150.585 48.7523C150.051 49.1337 149.433 49.3931 148.732 49.5304C148.03 49.6677 147.267 49.7363 146.443 49.7363H141.798ZM145.894 47.0588H146.466C146.985 47.0588 147.389 46.9597 147.679 46.7613C147.984 46.563 148.198 46.2579 148.32 45.8459C148.457 45.434 148.518 44.9153 148.503 44.2898C148.488 43.6032 148.343 43.0311 148.068 42.5734C147.793 42.1005 147.244 41.864 146.42 41.864H145.894V47.0588ZM153.835 49.7363V31.1998H157.931V49.7363H153.835ZM160.816 49.7363V31.1998H164.043V41.8182L168.78 31.1998H171.434V49.7363H168.139V38.9348L163.31 49.7363H160.816ZM166.423 29.7123C165.34 29.7123 164.47 29.4072 163.814 28.7969C163.158 28.1866 162.83 27.3018 162.83 26.1423H164.935C164.935 26.7068 165.042 27.1263 165.256 27.4009C165.484 27.6755 165.874 27.8129 166.423 27.8129C166.957 27.8129 167.338 27.6755 167.567 27.4009C167.796 27.1111 167.91 26.6915 167.91 26.1423H170.016C170.016 27.3018 169.688 28.1866 169.032 28.7969C168.376 29.4072 167.506 29.7123 166.423 29.7123ZM180.17 49.7363V31.1998H183.396V41.8182L188.133 31.1998H190.788V49.7363H187.493V38.9348L182.664 49.7363H180.17ZM193.668 49.7363V31.1998H197.764V38.7059H200.625V31.1998H204.744V49.7363H200.625V41.6352H197.764V49.7363H193.668ZM209.238 49.7363V34.2434H206.446V31.1998H216.126V34.2434H213.357V49.7363H209.238ZM217.758 49.7363V31.1998H226.088V33.9917H221.854V38.5915H225.081V41.4292H221.854V46.9673H226.134V49.7363H217.758ZM226.78 49.7363V46.8529C227.299 46.8529 227.719 46.8224 228.039 46.7613C228.359 46.685 228.611 46.5172 228.794 46.2579C228.977 45.9985 229.122 45.6018 229.229 45.0679C229.336 44.5339 229.42 43.8168 229.481 42.9167C229.557 42.0166 229.649 40.8723 229.755 39.484L230.35 31.1998H240.168V49.7363H236.094V34.335H234.058L233.692 40.2621C233.585 41.7877 233.478 43.1074 233.371 44.2211C233.264 45.3196 233.089 46.2426 232.845 46.9902C232.616 47.7377 232.265 48.3251 231.792 48.7523C231.334 49.1642 230.701 49.4465 229.893 49.599C229.084 49.7516 228.047 49.7974 226.78 49.7363ZM241.798 49.7363V46.8529C242.317 46.8529 242.737 46.8224 243.057 46.7613C243.377 46.685 243.629 46.5172 243.812 46.2579C243.995 45.9985 244.14 45.6018 244.247 45.0679C244.354 44.5339 244.438 43.8168 244.499 42.9167C244.575 42.0166 244.667 40.8723 244.773 39.484L245.368 31.1998H255.186V49.7363H251.112V34.335H249.076L248.71 40.2621C248.603 41.7877 248.496 43.1074 248.389 44.2211C248.282 45.3196 248.107 46.2426 247.863 46.9902C247.634 47.7377 247.283 48.3251 246.81 48.7523C246.352 49.1642 245.719 49.4465 244.911 49.599C244.102 49.7516 243.065 49.7974 241.798 49.7363ZM258.029 49.7363V31.1998H266.359V33.9917H262.126V38.5915H265.352V41.4292H262.126V46.9673H266.405V49.7363H258.029ZM268.334 49.7363V31.1998H272.43V38.5457H272.842L275.565 31.1998H279.639L276.252 39.8959L279.753 49.7363H275.542L272.842 41.6581H272.43V49.7363H268.334ZM283.032 49.7363V34.2434H280.24V31.1998H289.92V34.2434H287.151V49.7363H283.032ZM296.103 42.6192V40.079H307.385V42.6192H296.103ZM2.03158 76.7363V58.1998H5.25831V68.8182L9.99542 58.1998H12.65V76.7363H9.35466V65.9348L4.526 76.7363H2.03158ZM15.5299 76.7363V58.1998H19.6263V65.7059H22.4869V58.1998H26.6061V76.7363H22.4869V68.6352H19.6263V76.7363H15.5299ZM31.0995 76.7363V61.2434H28.3076V58.1998H37.9878V61.2434H35.2188V76.7363H31.0995ZM39.6198 76.7363V58.1998H47.9498V60.9917H43.7161V65.5915H46.9428V68.4292H43.7161V73.9673H47.9955V76.7363H39.6198ZM49.8553 76.7363V58.1998H56.0799C57.1936 58.1998 58.109 58.4134 58.826 58.8406C59.5431 59.2525 60.0771 59.8627 60.428 60.6713C60.7788 61.4647 60.9543 62.4334 60.9543 63.5777C60.9543 65.0118 60.7178 66.1102 60.2449 66.8731C59.7719 67.6206 59.1312 68.1393 58.3226 68.4292C57.514 68.7191 56.6062 68.864 55.5993 68.864H53.9516V76.7363H49.8553ZM53.9516 66.0034H55.3247C55.8281 66.0034 56.2096 65.9119 56.4689 65.7288C56.7283 65.5457 56.8961 65.2711 56.9724 64.905C57.0639 64.5388 57.1097 64.0735 57.1097 63.509C57.1097 63.0361 57.0715 62.6241 56.9953 62.2732C56.9342 61.9071 56.774 61.6172 56.5147 61.4036C56.2553 61.19 55.851 61.0832 55.3018 61.0832H53.9516V66.0034ZM62.9976 76.7363V58.1998H67.094V65.7059H69.9546V58.1998H74.0738V76.7363H69.9546V68.6352H67.094V76.7363H62.9976ZM76.8967 76.7363V58.1998H85.2267V60.9917H80.993V65.5915H84.2197V68.4292H80.993V73.9673H85.2724V76.7363H76.8967ZM88.8027 76.7363V61.2434H86.0108V58.1998H95.691V61.2434H92.922V76.7363H88.8027ZM101.965 76.7363L105.558 66.7586L102.126 58.1998H105.993L108.03 63.2115L109.677 58.1998H113.087L109.838 67.8342L113.453 76.7363H109.609L107.343 71.1982L105.352 76.7363H101.965ZM113.743 76.7363L117.336 66.7586L113.903 58.1998H117.771L119.807 63.2115L121.455 58.1998H124.865L121.615 67.8342L125.231 76.7363H121.386L119.121 71.1982L117.13 76.7363H113.743ZM126.756 76.7363V58.1998H130.853V76.7363H126.756ZM139.472 76.7363V58.1998H144.3C145.094 58.1998 145.841 58.2608 146.543 58.3829C147.26 58.5049 147.893 58.7414 148.443 59.0923C148.992 59.4279 149.419 59.9161 149.724 60.5569C150.044 61.1824 150.205 62.0139 150.205 63.0513C150.205 63.7989 150.09 64.432 149.861 64.9507C149.648 65.4542 149.335 65.8585 148.923 66.1636C148.526 66.4688 148.046 66.6747 147.481 66.7815C148.198 66.8731 148.801 67.1095 149.289 67.4909C149.778 67.8571 150.144 68.3529 150.388 68.9784C150.647 69.604 150.777 70.3591 150.777 71.244C150.777 72.2052 150.647 73.0366 150.388 73.7384C150.144 74.425 149.785 74.9895 149.312 75.4319C148.839 75.8743 148.252 76.2024 147.55 76.4159C146.864 76.6295 146.07 76.7363 145.17 76.7363H139.472ZM143.568 73.8758H144.438C145.338 73.8758 145.956 73.6469 146.291 73.1892C146.642 72.7315 146.818 72.0602 146.818 71.1754C146.818 70.4736 146.741 69.9167 146.589 69.5048C146.436 69.0929 146.185 68.7954 145.834 68.6123C145.483 68.414 145.01 68.3148 144.415 68.3148H143.568V73.8758ZM143.568 65.6144H144.369C144.995 65.6144 145.468 65.5229 145.788 65.3398C146.108 65.1415 146.322 64.8592 146.429 64.4931C146.551 64.1269 146.612 63.6845 146.612 63.1657C146.612 62.6775 146.52 62.2732 146.337 61.9529C146.169 61.6172 145.91 61.3655 145.559 61.1977C145.223 61.0298 144.796 60.9459 144.278 60.9459H143.568V65.6144ZM152.925 76.7363V58.1998H161.255V60.9917H157.022V65.5915H160.249V68.4292H157.022V73.9673H161.301V76.7363H152.925ZM163.23 76.7363V58.1998H167.326V65.5457H167.738L170.461 58.1998H174.535L171.148 66.8959L174.649 76.7363H170.438L167.738 68.6581H167.326V76.7363H163.23ZM175.365 76.7363L178.866 58.1998H183.534L186.99 76.7363H183.214L182.596 72.8231H179.873L179.232 76.7363H175.365ZM180.239 70.3744H182.207L181.223 63.1429L180.239 70.3744Z" fill="#1D2332"/>
</svg>
