<svg width="1335" height="688" viewBox="0 0 1335 688" fill="none" xmlns="http://www.w3.org/2000/svg">
<g opacity="0.2">
<path d="M1128.49 262.368C1111.37 261.24 1090.77 269.952 1065.14 283.476C1055.76 288.215 1045.69 293.979 1035.01 299.917C1019.76 308.287 1002.73 317.77 984.227 327.211C928.08 355.65 839.95 394.463 723.277 398.129C588.883 402.395 511.472 423.487 493.278 460.963C485.786 476.54 488.248 494.915 500.68 515.876C513.111 536.836 536.979 547.784 575.702 550.336C609.159 552.541 649.639 548.514 696.526 543.89C740.901 539.477 791.289 534.495 841.921 534.725C851.178 534.746 860.413 535.087 869.435 535.682C959.465 541.616 1041.55 575.256 1120.35 638.517C1202.37 704.347 1277.48 749.42 1343.5 772.467C1367.6 781.309 1392.63 786.898 1418.04 789.111C1466.81 792.325 1499.63 774.454 1506.41 741.368C1513.2 708.282 1491.05 661.558 1436.83 639.289C1414.17 629.975 1388.66 626.848 1363.84 623.765C1307.86 616.861 1249.99 609.779 1216.13 532.767C1207.53 512.568 1201.14 491.31 1197.09 469.428C1193.5 450.941 1190.86 432.24 1189.17 413.41C1187.07 386.976 1183.49 360.728 1178.43 334.815C1176.48 325.255 1173.99 315.842 1170.98 306.63C1167.48 294.936 1161.82 284.174 1154.35 275.001C1147.58 267.291 1138.32 262.767 1128.49 262.368ZM575.71 548.73C537.474 546.209 514.032 535.504 501.816 514.986C489.6 494.468 487.256 476.529 494.504 461.687C512.415 424.781 589.366 403.98 723.172 399.729C840.482 396.052 928.747 357.408 985.013 328.655C1003.52 319.161 1020.56 309.571 1035.8 301.309C1046.47 295.423 1056.54 289.82 1065.88 284.917C1087.9 273.352 1110.74 262.751 1128.54 263.924C1137.97 264.397 1146.83 268.817 1153.29 276.27C1160.65 285.301 1166.2 295.916 1169.6 307.45C1172.62 316.607 1175.11 325.967 1177.06 335.475C1182.15 361.231 1185.8 387.321 1187.98 413.599C1189.62 432.519 1192.24 451.31 1195.83 469.88C1199.93 491.889 1206.37 513.272 1215 533.603C1249.05 611.378 1307.36 618.542 1363.82 625.478C1388.51 628.498 1413.97 631.622 1436.27 640.967C1489.73 662.971 1511.58 709.086 1505 741.275C1498.42 773.464 1465.87 790.924 1418.12 787.777C1392.83 785.594 1367.91 780.029 1343.93 771.209C1278.04 748.225 1203.14 703.006 1121.21 637.449C1042.12 574.008 959.846 540.302 869.523 534.348C860.501 533.754 851.217 533.41 841.912 533.385C791.231 533.152 740.842 538.134 696.419 542.544C649.793 546.917 609.313 550.945 576.003 548.749L575.71 548.73Z" fill="url(#paint0_linear_928_70)"/>
<path d="M1126.7 259.143C1110.75 258.092 1091.39 263.458 1063.89 276.43C1058.84 278.669 1054.68 280.859 1050.42 283.042C1038.86 289.029 1026.25 296.019 1012.88 303.441C1000.88 310.096 988.48 316.938 974.976 324.137C897.456 365.47 809.746 388.24 706.729 393.557C573.458 400.843 496.6 423.953 478.346 463.086C470.651 479.506 473.36 498.594 486.36 519.86C499.359 541.126 523.411 552.246 562.427 554.818C597.493 557.129 641.697 552.329 688.578 547.063C732.977 542.276 783.056 536.791 832.483 536.728C843.018 536.672 853.573 537.047 863.815 537.722C954.089 543.672 1036.45 576.742 1115.63 638.796C1198.85 704.276 1274.85 749.943 1341.81 774.444C1367.05 784.215 1393.38 790.362 1420.15 792.732C1467.75 795.869 1500.66 778.165 1508.21 745.344C1516.74 707.981 1489.88 663.784 1445.65 642.924C1424.61 632.913 1401.62 628.719 1377.37 624.229C1323.46 614.301 1267.71 604.037 1234.59 526.217C1226.07 505.513 1219.54 483.883 1215.08 461.668C1210.96 442.434 1207.76 424.117 1205.45 405.698C1203 380.137 1198.38 354.906 1191.66 330.33C1188.73 321.411 1185.21 312.746 1181.12 304.406C1176 293.221 1169.07 283.163 1160.64 274.719C1151.3 265.469 1139.34 259.98 1126.7 259.143ZM562.724 553.284C524.195 550.745 500.276 539.847 487.541 519.027C474.807 498.207 472.205 479.716 479.621 463.813C497.64 425.254 574.056 402.168 706.766 395.22C809.989 389.756 897.89 367.052 975.613 325.625C989.116 318.427 1001.54 311.264 1013.52 304.929C1026.89 297.507 1039.49 290.571 1051.01 284.58C1055.27 282.397 1059.67 280.223 1064.48 277.915C1091.73 264.98 1110.9 259.548 1126.6 260.583C1138.99 261.324 1150.73 266.65 1159.89 275.687C1168.19 284.106 1175 294.12 1179.99 305.242C1184.09 313.498 1187.6 322.093 1190.49 330.95C1197.22 355.478 1201.87 380.655 1204.39 406.164C1206.75 424.639 1209.89 443.06 1214.01 462.294C1218.45 484.615 1224.98 506.352 1233.49 527.163C1266.96 605.756 1323.05 616.095 1377.3 626.099C1401.5 630.533 1424.4 634.56 1445.29 644.668C1488.84 665.43 1515.38 708.641 1506.99 745.157C1499.64 777.187 1467.3 794.447 1420.68 791.374C1394.04 788.984 1367.84 782.846 1342.73 773.112C1275.76 748.664 1199.81 703.054 1116.54 637.677C1037.37 575.41 954.574 542.258 864.008 536.288C853.717 535.61 843.158 535.289 832.578 535.288C783.098 535.401 732.828 540.819 688.526 545.613C641.848 550.786 597.644 555.586 562.724 553.284Z" fill="url(#paint1_linear_928_70)"/>
<path d="M1123.32 255.332C1106.74 254.239 1087.44 258.698 1062.53 269.484C1057.19 271.757 1052.43 274.175 1047.69 276.273C1031.64 284.161 1014.04 294.036 993.643 305.494C984.757 310.265 975.382 315.754 965.471 321.207C897.311 358.765 809.713 380.578 690.028 389.081C557.929 398.641 481.592 424.25 463.171 465.193C455.315 482.566 458.222 502.364 471.786 523.988C485.349 545.613 509.983 556.825 549.34 559.419C586.016 561.837 632.074 556.409 680.794 550.728C728.087 544.317 775.617 540.495 823.205 539.277C835.067 539.148 846.898 539.499 858.408 540.258C948.926 546.224 1031.52 578.72 1111.02 639.67C1195.53 704.807 1272.82 750.988 1340.7 777.05C1367.03 787.729 1394.6 794.447 1422.66 797.022C1470.06 800.147 1501.96 782.965 1510.55 749.998C1519.93 713.119 1496.56 670.064 1454.96 647.234C1435.44 636.52 1413.9 631.083 1391.11 625.349C1339.41 612.352 1285.93 598.864 1253.54 520.288C1245.07 499.126 1238.32 477.172 1233.37 454.678C1229.61 437.556 1225.35 418.902 1222.03 398.649C1217.58 369.536 1212.99 344.004 1204.88 325.846C1200.94 317.565 1196.36 309.666 1191.21 302.231C1184.49 291.481 1176.32 281.914 1166.97 273.85C1154.52 262.983 1139.3 256.527 1123.32 255.332ZM549.446 557.819C510.43 555.248 486.273 544.228 473.019 523.105C459.766 501.983 456.872 482.723 464.449 465.866C482.637 425.497 558.563 400.182 690.072 390.637C810.064 381.941 897.797 360.297 966.164 322.592C976.022 317.189 985.383 311.913 994.283 306.929C1014.63 295.467 1032.28 285.596 1048.28 277.705C1052.93 275.44 1057.75 272.972 1063.07 270.966C1087.78 260.274 1106.88 255.855 1123.22 256.932C1138.93 258.17 1153.87 264.57 1166.09 275.292C1175.34 283.277 1183.4 292.767 1190 303.438C1195.11 310.804 1199.64 318.628 1203.55 326.829C1211.59 344.554 1216.13 369.976 1220.84 398.892C1224.15 419.198 1228.07 437.883 1232.22 455.084C1237.16 477.682 1243.9 499.743 1252.37 521.014C1285.05 600.306 1338.92 613.873 1390.96 626.999C1413.65 632.673 1435.14 638.107 1454.48 648.702C1495.46 671.223 1518.52 713.669 1509.3 749.647C1501.1 781.837 1469.58 798.561 1423 795.491C1395.06 792.946 1367.6 786.253 1341.39 775.595C1273.59 749.699 1196.45 703.475 1112.08 638.401C1032.16 577.262 949.271 544.694 858.51 538.711C846.951 537.95 835.072 537.595 823.21 537.724C774.886 538.128 726.954 543.753 680.652 549.165C631.981 554.849 586.024 560.23 549.446 557.819Z" fill="url(#paint2_linear_928_70)"/>
<path d="M1118.91 250.862C1102.38 249.772 1084.02 253.437 1061.18 262.484C1055.3 264.775 1050 267.104 1044.95 269.396C1024.74 278.778 1001.68 292.095 974.887 307.632L956.006 318.386C885.426 358.463 795.631 373.489 673.268 384.708C542.377 396.758 466.576 424.652 447.985 467.405C440.014 485.789 443.12 506.296 457.247 528.279C471.375 550.262 496.35 561.497 536.098 564.117C574.431 566.644 622.242 560.635 672.868 554.276C719.613 547.53 766.611 543.351 813.684 541.756C826.923 541.557 840.126 541.892 852.806 542.727C943.47 548.703 1026.35 580.628 1105.97 640.462C1191.79 705.042 1270.05 752.037 1338.88 779.5C1366.26 791.149 1395.07 798.459 1424.44 801.21C1471.01 804.28 1503.04 787.267 1512.39 754.618C1522.48 719.071 1502.02 675.673 1463.7 651.452C1445.6 639.974 1425.41 633.394 1404.07 626.363C1354.64 610.195 1303.38 593.478 1271.92 514.213C1263.6 492.555 1256.78 470.224 1251.53 447.411L1249.44 439.023C1245.55 423.768 1241.69 407.979 1238.48 391.376C1232.24 360.324 1227.36 337.076 1217.74 321.764C1213.49 315.101 1208.69 308.885 1203.39 303.194C1202.62 302.233 1201.8 301.322 1200.98 300.411C1192.63 290.304 1183.23 281.307 1172.96 273.602C1152.6 258.546 1136.86 252.045 1118.91 250.862ZM536.214 562.357C496.953 559.769 472.222 548.55 458.45 527.126C444.677 505.702 441.585 485.732 449.344 467.602C467.421 425.94 544.91 397.728 673.383 385.948C795.797 374.679 885.742 359.609 956.967 319.414L975.796 308.71C1002.57 293.386 1025.68 280.178 1045.81 270.471C1050.87 268.125 1055.92 265.78 1061.9 263.549C1084.58 254.598 1102.74 250.975 1119.08 252.052C1136.74 253.215 1152.28 259.597 1172.72 274.336C1182.85 281.986 1192.12 290.902 1200.36 300.905L1202.77 303.689C1208.01 309.303 1212.75 315.444 1216.94 322.033C1226.18 337.212 1231.26 360.473 1237.47 391.095C1240.82 407.761 1244.67 423.71 1248.47 438.853L1250.57 447.24C1255.85 470.117 1262.67 492.517 1270.98 514.259C1302.89 594.196 1354.3 610.816 1404.06 627.273C1425.37 634.034 1445.45 640.714 1463.4 652.183C1501.01 676.089 1521.33 718.674 1511.39 753.534C1502.33 785.453 1470.82 802.017 1425.12 799.005C1395.9 796.245 1367.24 788.944 1340 777.324C1271.37 749.874 1193.03 703.356 1107.38 638.412C1027.38 578.446 944.259 546.398 853.302 540.403C840.476 539.558 827.224 539.22 814.18 539.431C767.058 541.02 720.012 545.195 673.218 551.942C622.166 558.809 574.645 564.89 536.214 562.357Z" fill="url(#paint3_linear_928_70)"/>
<path d="M1114.25 245.788C1095.72 245.171 1077.21 248.461 1059.73 255.479C1053.46 257.744 1047.68 260.041 1042.17 262.571C1017.99 273.511 990.327 289.633 955.335 309.986L946.522 315.137C876.792 355.698 792.567 364.984 675.987 377.656L656.497 379.8C528.698 393.982 451.334 424.772 432.848 468.925C424.771 488.159 428.186 509.919 442.651 531.978C457.117 554.037 482.705 565.633 522.843 568.279C562.981 570.924 612.45 564.275 664.986 557.185C711.177 550.069 757.644 545.551 804.204 543.649C818.919 543.333 833.593 543.657 847.834 544.596C938.79 550.591 1021.71 581.983 1101.45 640.646C1189.71 705.388 1269.16 752.942 1337.67 781.456C1366.07 794.035 1396.07 801.916 1426.7 804.841C1472.44 807.856 1504.56 791.063 1514.82 758.742C1525.71 724.32 1508.1 680.734 1473.01 655.066C1456.23 642.818 1437.3 635.035 1417.23 626.748C1370.19 607.578 1321.61 587.395 1290.82 507.639C1282.64 485.471 1275.68 462.779 1269.97 439.68C1268.26 432.979 1266.4 426.267 1264.55 419.449C1261.39 407.832 1258.12 395.831 1255.2 383.586C1248.79 356.702 1242.73 331.339 1231.19 316.866C1226.52 311.365 1221.41 306.332 1215.92 301.824L1211.28 297.876C1201.3 288.551 1190.66 280.111 1179.44 272.636C1156.45 257.997 1138.25 247.369 1114.25 245.788ZM522.987 566.842C483.336 564.228 458.218 552.931 443.878 531.201C429.538 509.472 426.255 488.686 434.213 469.765C446.946 439.321 495.868 399.371 656.677 381.526L676.41 379.398C793.148 366.576 877.47 357.296 947.507 316.541L956.317 311.443C991.26 291.088 1018.87 274.962 1043.01 264.018C1048.51 261.542 1054.18 259.398 1060.47 256.974C1077.76 250.053 1096.06 246.804 1114.39 247.404C1138.04 248.963 1156.11 259.474 1179.1 274.167C1190.22 281.625 1200.79 290.022 1210.7 299.284L1215.33 303.286C1220.79 307.706 1225.84 312.684 1230.42 318.154C1241.73 332.291 1247.71 357.487 1254.15 383.999C1257.06 396.243 1260.33 408.297 1263.49 419.915C1265.34 426.68 1267.2 433.445 1268.92 440.093C1274.55 463.229 1281.43 485.968 1289.51 508.195C1320.56 588.504 1371.68 609.604 1416.74 628.162C1436.18 635.215 1454.8 644.655 1472.24 656.301C1506.83 681.561 1524.18 724.38 1513.49 758.119C1503.48 789.6 1471.92 806.107 1426.86 803.137C1396.37 800.207 1366.5 792.354 1338.22 779.832C1269.85 751.434 1190.48 704.099 1102.57 639.22C1022.69 580.387 939.488 548.923 848.239 542.909C833.949 541.967 819.276 541.642 804.512 541.955C757.887 543.897 711.354 548.429 665.095 555.532C612.399 562.825 562.832 569.468 522.987 566.842Z" fill="url(#paint4_linear_928_70)"/>
<path d="M1109.71 240.346C1092.35 239.648 1074.97 242.405 1058.43 248.483C1051.67 250.716 1045.5 252.987 1039.49 255.698C1011.09 268.129 976.833 288.53 937.122 312.107C875.951 348.411 803.292 356.853 711.232 366.855C688.482 369.427 664.993 372.057 639.849 375.274C479.881 395.96 430.78 438.631 417.736 470.822C409.54 491.119 413.146 513.695 428.148 535.789C443.15 557.883 469.734 569.974 509.677 572.607C551.375 575.355 602.751 568.028 657.44 560.223C703.081 553.696 750.303 546.953 795.056 545.724C811.203 545.235 827.298 545.546 842.856 546.571C933.959 552.576 1017.1 583.447 1097.02 641.05C1187.08 705.911 1267.62 754.073 1336.46 783.519C1365.84 797.073 1397.02 805.561 1428.89 808.682C1473.86 811.646 1506.11 795.023 1517.32 763.086C1529.35 729.221 1514.84 686.374 1482.3 659C1466.04 646.366 1448.55 635.729 1430.12 627.277C1387.75 605.735 1339.69 581.355 1309.69 501.49C1301.99 480.841 1295.53 457.703 1288.48 432.33C1285.83 422.834 1282.89 413.106 1280.03 403.704C1277.18 394.302 1274.52 385.502 1272.04 376.393C1263.44 345.561 1256.85 324.396 1244.74 312.67C1239.65 307.965 1234.15 303.817 1228.32 300.284C1226.06 298.797 1223.95 297.425 1221.84 295.947C1209.35 287.142 1197.55 278.812 1186.23 272.173L1175.81 266.129C1153.59 253.148 1134.73 241.995 1109.71 240.346ZM509.904 571.39C470.4 568.786 444.091 556.981 429.458 535.233C414.825 513.484 411.251 491.179 419.205 471.562C432.076 439.787 480.852 397.577 640.127 377.006C665.274 373.736 688.763 371.106 711.465 368.531C803.783 358.331 876.438 349.943 937.808 313.598C977.47 290.018 1011.73 269.67 1040.02 257.286C1045.97 254.679 1052.1 252.351 1058.82 250.062C1075.2 244.06 1092.41 241.328 1109.61 241.999C1133.99 243.607 1152.85 254.706 1174.77 267.722L1185.2 273.766C1196.43 280.238 1208.22 288.568 1220.71 297.533C1222.82 299.011 1224.93 300.436 1227.23 301.927C1232.98 305.401 1238.4 309.472 1243.42 314.083C1255.26 325.576 1261.71 346.518 1270.27 377.134C1272.85 386.41 1275.67 395.648 1278.27 404.444C1280.88 413.24 1284.06 423.575 1286.67 433.067C1293.7 458.707 1300.17 481.632 1307.97 502.341C1338.17 582.968 1386.46 607.472 1429.07 629.136C1447.37 637.522 1464.74 648.098 1480.87 660.673C1512.94 687.695 1527.16 729.826 1515.47 763.017C1504.43 794.43 1472.76 810.502 1428.48 807.583C1396.76 804.478 1365.72 796.036 1336.47 782.556C1268.05 752.762 1187.48 705.026 1097.57 640.176C1017.41 582.45 934.081 551.459 842.686 545.435C827.079 544.406 810.932 544.146 794.74 544.578C749.938 545.804 702.716 552.547 656.974 559.121C602.637 566.789 551.31 574.119 509.758 571.38L509.904 571.39Z" fill="url(#paint5_linear_928_70)"/>
<path d="M1105.54 234.5C1089.16 233.772 1072.75 236.133 1057.03 241.481C1049.88 243.688 1043.27 245.93 1036.95 248.889C1007.07 261.543 971.384 282.76 927.867 309.086C871.187 343.383 806.375 350.2 724.303 358.771C692.592 362.038 659.809 365.234 623.289 370.862C465.012 394.123 415.955 439.1 402.816 472.732C394.445 494.196 398.197 517.531 413.794 540.254C429.391 562.976 456.282 574.873 496.615 577.532C540.021 580.393 593.209 572.328 649.368 563.762C694.786 556.9 741.737 549.817 785.33 548.351C802.906 547.742 820.474 547.989 837.397 549.105C928.598 555.116 1011.87 585.513 1092.01 641.952C1185.63 707.797 1264.76 755.117 1334.66 786.187C1370.54 802.211 1402.76 811.245 1430.46 813.071C1474.65 815.983 1507.03 799.583 1519.34 768.094C1532.14 735.243 1520.48 692.157 1491.03 663.271C1475.96 649.595 1459.56 637.739 1442.13 627.908C1402.31 603.374 1357.17 575.49 1328.06 495.417C1321.22 476.592 1315.25 455.736 1308.87 433.62L1306.4 425.101C1302.97 413.197 1298.91 401.198 1294.97 389.636C1292.72 382.846 1290.34 375.885 1288.15 368.992C1278.81 339.824 1271.11 318.425 1257.59 308.053C1251.99 304.11 1246.08 300.71 1239.94 297.89C1236.99 296.464 1234.29 295.161 1231.64 293.647C1225.92 290.485 1220.49 287.555 1215.3 284.428C1207.23 279.772 1199.64 275.414 1192.25 271.552C1184.86 267.691 1177.41 263.343 1170.47 259.403C1149.1 246.907 1130.61 236.153 1105.54 234.5ZM496.526 575.919C456.632 573.289 429.894 561.295 414.743 539.245C399.591 517.194 395.815 494.233 403.951 473.342C416.969 440.078 465.551 395.605 623.284 372.415C659.734 367.104 692.438 363.635 724.25 360.321C806.468 351.759 871.426 344.952 928.364 310.458C971.832 284.129 1007.46 263.015 1037.29 250.358C1043.74 247.622 1050.32 245.217 1057.37 243.003C1072.93 237.711 1089.17 235.375 1105.39 236.097C1130.12 237.727 1148.66 248.431 1169.74 260.802C1176.63 264.791 1183.9 268.966 1191.57 272.954C1199.24 276.941 1206.51 281.17 1214.53 285.77C1219.77 288.74 1225.2 291.83 1230.91 295.046C1233.61 296.509 1236.36 297.869 1239.26 299.292C1245.33 302.051 1251.16 305.411 1256.67 309.332C1269.87 319.308 1277.49 340.487 1287 369.398C1289.19 376.292 1291.57 383.305 1293.82 390.042C1297.95 401.617 1301.77 413.6 1305.2 425.45L1307.67 433.97C1314.07 455.819 1320.07 476.945 1326.91 495.876C1356.23 576.445 1401.6 604.452 1441.61 629.159C1458.96 638.99 1475.27 650.84 1490.27 664.507C1519.24 693.2 1530.76 735.313 1518.16 767.534C1506.33 798.359 1474.26 814.405 1430.76 811.537C1403.25 809.724 1371.18 800.7 1335.45 784.738C1265.61 753.351 1186.26 706.446 1092.98 640.677C1012.65 584.065 929.139 553.598 837.694 547.571C820.722 546.452 803.154 546.205 785.481 546.807C741.839 548.27 694.836 555.403 649.369 562.263C592.924 570.702 539.785 578.77 496.526 575.919Z" fill="url(#paint6_linear_928_70)"/>
<path d="M1101.83 228.469C1086.28 227.721 1070.69 229.751 1055.68 234.481C1048.35 236.562 1041.12 239.072 1034.03 241.999C1004.12 254.33 968.919 274.83 918.174 306.036C864.052 339.43 803.783 344.939 727.545 351.967C691.618 355.277 650.863 359.019 606.396 366.319C483.99 386.374 406.27 424.801 387.466 474.504C378.924 497.082 382.92 521.183 399.029 544.315C415.138 567.446 442.471 579.319 483.194 582.003C528.356 584.979 583.355 576.177 641.57 566.89C686.717 559.688 733.4 552.212 775.829 550.563C794.935 549.787 813.924 550.021 832.262 551.229C923.463 557.241 1006.87 587.058 1087.22 642.493C1182.9 708.473 1263.36 756.202 1333.2 788.392C1370.32 805.517 1403.63 815.158 1432.16 817.039C1476.06 819.932 1508.05 804.256 1521.63 772.797C1535.57 740.397 1526.89 698.15 1500.03 667.238C1486.04 652.32 1470.62 639.077 1454.05 627.728C1416.68 600.142 1374.65 568.927 1346.7 489.091C1341.14 473.243 1336.13 456.254 1330.79 438.439C1328.79 431.611 1326.8 424.677 1324.57 417.62C1320.31 403.572 1315.15 389.679 1310.1 376.277C1308.27 371.335 1306.4 366.39 1304.62 361.452C1295.13 335.114 1285.75 312.48 1270.77 303.404C1264.67 300.048 1258.29 297.298 1251.72 295.184C1248.18 293.88 1244.88 292.698 1241.64 291.306C1230.07 286.258 1219.73 281.184 1209.72 276.238L1198.47 270.783C1187.29 265.761 1177.35 259.749 1167.76 253.76C1146.25 241.2 1127.68 230.173 1101.83 228.469ZM483.296 580.456C443.012 577.801 415.7 565.609 400.172 543.319C384.644 521.029 380.489 497.132 388.849 475.078C407.418 425.948 484.724 387.868 606.538 367.882C651.103 360.588 691.712 356.836 727.585 353.576C804.023 346.508 864.378 341.166 918.877 307.261C969.521 276.101 1004.67 255.652 1034.53 243.318C1041.56 240.437 1048.73 237.941 1055.98 235.84C1070.85 231.15 1086.29 229.128 1101.69 229.853C1127.19 231.534 1145.67 242.501 1167.02 255.211C1176.43 261.188 1186.63 266.896 1197.93 272.301L1209.13 277.806C1219.14 282.752 1229.53 287.829 1241.15 292.88C1244.38 294.326 1247.73 295.511 1251.28 296.762C1257.73 298.865 1263.99 301.59 1269.99 304.906C1284.56 313.473 1293.67 335.821 1303.21 361.948C1304.99 366.887 1306.87 371.832 1308.7 376.773C1313.74 390.176 1318.89 404.229 1323.18 418.01C1325.31 425.061 1327.15 431.985 1329.4 438.829C1334.68 456.747 1339.73 473.687 1345.3 489.535C1373.61 569.823 1415.87 601.32 1453.18 628.956C1469.67 640.246 1485.01 653.412 1498.94 668.238C1524.99 698.024 1533.79 740.708 1520.26 772.01C1506.74 803.313 1475.68 818.193 1432.23 815.329C1403.84 813.458 1370.68 803.88 1333.74 786.821C1263.96 754.634 1183.58 706.965 1088.01 641.045C1007.42 585.487 923.819 555.55 832.326 549.519C813.939 548.307 794.901 548.07 775.796 548.847C733.265 550.543 686.537 557.962 641.338 565.214C583.262 574.617 528.311 583.423 483.296 580.456Z" fill="url(#paint7_linear_928_70)"/>
<path d="M1098.41 222.405C1083.56 221.664 1068.67 223.448 1054.27 227.692C1046.49 229.781 1038.81 232.333 1031.28 235.337C998.826 248.411 958.826 271.915 908.707 303.27C856.038 336.17 798.488 340.573 726.064 346.191C685.94 349.278 640.399 352.812 589.635 362.001C468.482 383.852 391.301 424.511 372.364 476.241C363.647 499.986 367.83 524.956 384.458 548.39C401.086 571.824 428.799 583.882 470.107 586.604C517.024 589.697 576.459 579.74 633.964 570.085C678.56 562.311 725.156 554.669 766.468 552.892C787.05 551.999 807.513 552.17 827.265 553.471C918.164 559.366 1005.97 590.208 1082.58 643.151C1180.82 709.462 1262.38 757.745 1331.76 790.816C1370.09 809.038 1404.49 819.286 1433.9 821.225C1477.3 824.086 1509.28 808.623 1524 777.721C1538.72 746.819 1533.07 703.324 1509.16 671.376C1496.1 655.043 1481.54 640.227 1465.69 627.157C1431.36 596.664 1392.49 562.122 1365.43 482.934C1360.88 469.509 1356.65 455.571 1352.19 440.814C1349.22 430.869 1346.17 420.651 1342.88 410.363C1337.74 393.954 1331.31 378.639 1325.05 363.602C1323.74 360.462 1322.42 357.323 1321.16 354.186C1311.04 329.467 1300.53 306.705 1284.03 299.296C1277.47 296.452 1270.71 294.214 1263.8 292.606C1259.65 291.583 1255.75 290.575 1251.96 289.308C1234.33 283.325 1218.87 276.413 1205.22 270.157C1191.96 264.008 1179.09 256.897 1166.71 248.87C1145.35 236.213 1125.47 224.189 1098.41 222.405ZM470.119 584.945C429.347 582.257 401.745 569.992 385.612 547.234C369.478 524.476 365.222 499.876 373.698 476.811C392.46 425.498 469.227 385.187 589.885 363.41C640.604 354.164 686.051 350.571 726.119 347.588C798.933 341.995 856.389 337.533 909.417 304.388C959.431 273.133 999.383 249.626 1031.73 236.652C1039.22 233.645 1046.84 231.09 1054.57 228.998C1068.83 224.804 1083.57 223.047 1098.27 223.789C1124.99 225.55 1144.72 237.564 1165.62 250.566C1178.05 258.613 1190.96 265.746 1204.28 271.916C1217.92 278.172 1233.4 284.87 1251.11 291.073C1254.95 292.344 1258.9 293.354 1263.04 294.431C1269.86 295.947 1276.55 298.072 1283.05 300.785C1299.08 307.948 1309.4 330.484 1319.45 354.877C1320.71 358.013 1322.03 361.153 1323.34 364.293C1329.55 379.326 1336.02 394.805 1341.08 410.888C1344.37 421.228 1347.47 431.45 1350.44 441.341C1354.9 456.152 1359.08 470.087 1363.67 483.568C1390.85 563.139 1429.91 597.8 1464.39 628.41C1480.13 641.438 1494.61 656.175 1507.63 672.4C1531.16 704.056 1537.06 746.066 1522.33 777.022C1507.61 807.977 1476.4 822.205 1433.63 819.385C1404.36 817.457 1370.16 807.274 1331.97 789.116C1262.64 756.101 1181.18 707.824 1082.97 641.571C1006.18 588.466 918.136 557.533 826.995 551.632C806.712 550.326 786.37 550.147 766.047 551.097C724.631 552.974 678.272 560.739 633.348 568.277C576.223 578.118 516.889 588.027 470.119 584.945Z" fill="url(#paint8_linear_928_70)"/>
<path d="M1095.36 215.83C1081.09 215.08 1066.78 216.646 1052.88 220.476C1044.64 222.64 1036.52 225.324 1028.55 228.514C991.388 243.1 944.445 271.61 899.251 300.343C847.39 332.869 791.973 336.126 721.689 340.493C671.84 342.576 622.127 348.156 572.857 357.199C452.909 380.844 376.269 423.681 357.122 477.862C348.275 502.83 352.649 528.617 369.841 552.409C387.033 576.201 415.084 588.335 456.685 591.077C505.456 594.291 566.758 583.494 626.075 573.101C670.672 565.327 716.617 557.16 756.831 554.936C778.574 553.823 800.343 553.97 822.046 555.377C912.837 561.233 1000.64 591.511 1077.65 643.524C1180.45 711.366 1260.65 758.809 1330.11 792.85C1369.59 812.219 1404.98 823.015 1435.31 825.014C1477.99 827.827 1510.23 812.704 1526.29 782.425C1542.34 752.146 1539.08 708.649 1518.12 675.181C1505.92 657.075 1492.07 640.371 1476.79 625.317C1445.42 592.127 1409.89 554.484 1384.03 476.499C1380.27 465.11 1376.77 453.523 1373.03 441.224C1369.28 428.924 1365.35 415.755 1360.86 402.924C1354.66 385.093 1347.52 367.683 1339.46 350.786L1337.53 346.587C1324.68 318.582 1313.46 300.111 1296.87 294.679C1289.86 292.523 1282.72 290.924 1275.49 289.895C1270.64 289.04 1266.14 288.314 1261.8 287.171C1244.61 282.645 1227.73 276.862 1211.27 269.86C1195.5 262.966 1180.34 254.564 1165.95 244.749C1144.29 230.787 1123.84 217.708 1095.36 215.83ZM456.888 589.483C415.726 586.77 387.655 574.206 371.211 551.695C354.767 529.185 349.923 503.099 358.685 478.661C377.644 425.111 453.869 382.621 573.334 358.891C622.491 349.886 672.087 344.317 721.82 342.216C792.194 337.962 847.825 334.451 900.006 301.518C945.096 272.885 991.938 244.421 1029.06 229.673C1036.98 226.593 1045.05 223.996 1053.23 221.892C1066.99 218.138 1081.15 216.599 1095.26 217.324C1123.4 219.179 1143.71 232.195 1165.18 246.037C1179.64 255.9 1194.89 264.343 1210.73 271.271C1227.32 278.335 1244.33 284.18 1261.65 288.768C1266.04 289.861 1270.59 290.643 1275.43 291.445C1282.61 292.497 1289.71 294.093 1296.67 296.219C1312.54 301.497 1323.55 319.418 1336.21 347.357L1338.14 351.502C1346.22 368.292 1353.39 385.596 1359.61 403.324C1363.65 416.339 1367.69 429.301 1371.78 441.623C1375.86 453.945 1379.02 465.51 1382.78 476.899C1408.71 555.264 1444.43 592.973 1475.79 626.269C1490.99 641.28 1504.75 657.924 1516.9 675.957C1537.6 708.926 1540.83 751.35 1525.03 781.485C1509.23 811.62 1477.66 826.038 1435.57 823.264C1405.43 821.277 1370.19 810.491 1330.85 791.238C1261.41 757.574 1181.23 709.971 1078.47 642.345C1001.28 590.171 913.257 559.803 822.238 553.944C800.486 552.525 778.666 552.392 756.873 553.546C716.572 555.603 670.519 563.924 625.923 571.698C566.714 581.937 505.464 592.685 456.888 589.483Z" fill="url(#paint9_linear_928_70)"/>
<path d="M1092.8 209.34C1079.02 208.607 1065.19 210.004 1051.73 213.49C1043.03 215.568 1034.44 218.222 1026.03 221.438C993.763 233.828 954.359 255.711 890.018 297.002C838.564 330.037 784.38 332.411 716.048 335.407C669.658 337.706 617.122 339.6 556.598 352.699C494.796 365.874 444.542 384.417 407.197 407.775C373.733 428.71 351.377 453.538 342.464 479.52C333.551 505.502 338.05 532.368 355.758 556.516C373.465 580.663 401.951 592.879 443.991 595.65C494.517 598.98 557.786 587.348 618.918 576.165C663.096 568.042 708.763 559.642 747.852 557.397C771.081 556.063 794.346 556.147 817.536 557.651C908.187 563.436 995.954 593.113 1073.35 644.15C1181.41 714 1260.43 760.563 1329.08 795.192C1369.7 815.654 1406.08 827.051 1437.34 829.112C1479.34 831.88 1511.91 817.046 1528.95 787.421C1545.98 757.797 1545.84 714.612 1527.45 679.277C1516.04 658.915 1502.79 639.865 1487.9 622.407C1459.59 586.793 1427.47 546.429 1403 470.304C1399.95 460.782 1397.05 451.271 1394.05 441.162C1389.54 426.242 1384.88 410.775 1379.58 395.373C1372.44 375.983 1364.02 357.203 1354.38 339.181C1340.98 312.799 1328.42 294.615 1310.68 290.232C1303.25 288.66 1295.73 287.592 1288.17 287.034C1282.65 286.671 1277.51 286.01 1272.48 285.036C1253.91 281.446 1235.68 276.14 1217.98 269.176C1199.85 261.679 1182.57 252.007 1166.44 240.335C1143.71 225.392 1122.65 211.308 1092.8 209.34ZM443.902 594.037C402.252 591.292 373.742 578.699 356.709 555.453C339.677 532.207 334.854 505.802 343.656 480.027C362.518 424.971 440.131 379.251 556.691 354.258C617.103 341.366 669.57 339.039 715.894 337.004C781.916 334.124 838.706 331.6 890.759 298.39C954.999 257.146 994.333 235.58 1026.51 222.97C1034.86 219.744 1043.37 217.102 1052.01 215.062C1065.35 211.587 1079.05 210.2 1092.7 210.941C1122.4 212.898 1143.32 226.973 1165.45 241.877C1181.72 253.606 1199.15 263.307 1217.43 270.801C1235.21 277.82 1253.52 283.166 1272.16 286.783C1277 287.691 1282.45 288.211 1287.96 288.734C1295.46 289.279 1302.91 290.36 1310.27 291.973C1327.54 296.004 1339.82 314.115 1353.05 340.11C1362.53 358.094 1370.79 376.829 1377.76 396.164C1383.07 411.512 1387.73 426.926 1392.24 441.847C1395.29 451.958 1398.14 461.52 1401.24 471.045C1425.58 547.643 1457.99 587.92 1486.35 623.644C1501.18 641.018 1514.39 659.976 1525.77 680.238C1543.9 715.127 1544.48 756.894 1527.32 786.779C1510.17 816.663 1478.5 830.432 1437.04 827.7C1405.98 825.652 1369.75 814.265 1329.31 793.815C1260.67 759.239 1181.88 712.692 1073.72 643.05C996.125 591.846 908.134 562.045 817.241 556.186C793.985 554.67 770.653 554.599 747.358 555.972C708.025 558.2 662.516 566.45 618.281 574.676C557.205 585.757 494.135 597.348 443.707 594.024L443.902 594.037Z" fill="url(#paint10_linear_928_70)"/>
<path d="M1090 202.781C1076.64 202.034 1063.23 203.276 1050.13 206.474C1040.97 208.546 1031.94 211.261 1023.1 214.602C989.093 227.36 946.382 251.114 880.371 293.956C829.193 327.277 773.059 328.773 708.288 330.503C659.219 331.822 604.063 333.329 539.508 348.144C423.63 374.682 346.13 423.141 326.931 481.068C317.823 508.537 322.624 536.012 340.798 560.511C358.972 585.011 387.89 597.363 430.369 600.163C482.797 603.618 547.933 591.145 610.888 579.064C656.725 570.3 700.176 562.076 737.955 559.638C762.687 558.07 787.464 558.076 812.162 559.654C902.705 565.486 990.447 594.673 1068.21 644.829C1149.33 696.083 1243.55 754.308 1327.15 797.583C1368.89 819.136 1406.3 831.191 1438.39 833.306C1491.45 836.803 1518.09 813.115 1530.91 792.586C1549.51 763.011 1551.55 720.131 1536.04 683.433C1526.26 660.183 1513.06 640.51 1497.81 617.757C1472.66 580.209 1444.31 537.629 1421.23 464.22C1418.8 456.454 1416.39 448.421 1414.11 440.664C1408.93 423.448 1403.63 405.69 1397.34 388.134C1389.92 368.549 1380.92 349.742 1370.43 331.936C1358.09 309.695 1343.87 289.045 1323.45 285.985C1319.84 285.747 1316.02 285.067 1311.73 284.784C1307.43 284.501 1303.78 284.26 1300.02 284.012C1296.27 283.765 1292.8 283.537 1289.34 283.308C1286.71 283.135 1284.46 282.987 1282.27 282.842C1262.4 280.185 1242.87 275.307 1223.96 268.285C1203.62 260.297 1184.36 249.41 1166.68 235.905C1143.53 220.023 1121.75 204.874 1090 202.781ZM430.377 598.556C388.337 595.785 359.339 583.16 341.844 559.509C324.349 535.858 319.244 508.523 328.171 481.578C347.331 424.238 424.413 376.18 539.849 349.666C604.254 334.895 659.556 333.398 708.329 332.113C773.347 330.345 829.481 328.849 881.165 295.294C947.075 252.499 989.685 228.792 1023.54 216.025C1032.33 212.73 1041.29 210.047 1050.37 207.99C1063.33 204.835 1076.59 203.601 1089.8 204.322C1121.16 206.389 1142.54 221.565 1165.73 237.61C1183.52 251.186 1202.89 262.133 1223.35 270.173C1242.35 277.198 1261.99 282.082 1281.95 284.749C1284.14 284.894 1286.48 285.048 1289.12 285.222C1292.63 285.453 1296.14 285.685 1299.8 285.926C1303.45 286.167 1307.5 286.434 1311.5 286.697C1315.5 286.961 1319.6 287.231 1323.13 287.892C1342.92 290.911 1356.89 311.544 1369.13 333.135C1379.56 350.875 1388.52 369.607 1395.91 389.111C1402.15 406.61 1407.49 424.372 1412.63 441.531C1414.96 449.344 1417.37 457.377 1419.75 465.087C1442.77 538.759 1471.35 581.408 1496.54 619.066C1511.77 641.497 1524.91 661.379 1534.65 684.466C1549.95 720.721 1547.95 762.908 1529.62 792.072C1516.92 812.234 1490.8 835.528 1438.42 832.076C1406.52 829.973 1369.26 817.982 1327.71 796.495C1244.14 753.49 1149.98 695.055 1068.86 643.855C990.925 593.535 902.965 564.258 812.194 558.424C787.447 556.834 762.618 556.843 737.837 558.451C699.769 560.817 656.458 569.158 610.624 577.868C547.795 589.529 482.708 602.006 430.377 598.556Z" fill="url(#paint11_linear_928_70)"/>
<path d="M1087.6 196.142C1074.6 195.415 1061.55 196.536 1048.78 199.476C1039.16 201.521 1029.66 204.278 1020.37 207.727C984.218 221.093 939.475 245.946 870.923 290.924C819.72 324.617 764.14 325.132 700.078 325.784C648.957 326.271 591.071 326.849 522.571 343.546C408.058 371.674 330.95 422.355 311.597 482.629C302.355 511.374 307.344 539.719 325.789 564.558C344.235 589.397 373.787 601.791 416.705 604.619C471.035 608.2 538.087 594.889 602.91 581.967C648.274 572.958 691.157 564.428 728.061 561.879C754.311 560.066 780.618 560.011 806.835 561.714C897.186 567.859 984.813 596.501 1063.03 645.453C1155.42 702.538 1245.02 757.351 1325.24 799.868C1367.83 822.549 1406.18 835.201 1439.39 837.39C1491.72 840.839 1519.07 817.679 1532.82 797.695C1552.93 768.379 1557.48 726.147 1544.59 687.479C1535.68 660.75 1522.52 637.438 1507.3 610.455C1485.38 571.513 1460.5 527.555 1439.42 458.028C1437.61 452.069 1435.85 446.061 1434.04 439.996C1428.32 420.496 1422.35 400.389 1415.07 380.786C1407.35 360.98 1397.76 342.127 1386.45 324.528C1373.97 304.261 1358.26 283.298 1336.19 281.575L1334.53 281.466C1326.67 280.949 1319.22 281.047 1312.01 281.214C1304.8 281.382 1299.11 281.435 1293.07 281.037L1291.95 280.963C1270.81 279.362 1249.96 275.057 1229.8 268.135C1204.45 259.608 1185.43 245.712 1167.11 232.291C1143.64 214.674 1121.05 198.347 1087.6 196.142ZM417.249 603.048C374.77 600.248 345.351 587.328 327.375 563.538C309.399 539.747 304.069 511.38 313.08 483.155C332.301 423.409 408.795 373.116 523.005 345.128C591.129 328.192 648.949 327.878 699.972 327.384C764.279 326.748 819.813 326.177 871.567 292.305C940.067 247.377 984.659 222.569 1020.71 209.25C1030.06 205.846 1039.6 203.111 1049.26 201.061C1061.92 198.161 1074.86 197.051 1087.74 197.758C1120.8 199.938 1143.24 216.308 1166.98 233.622C1185.39 247.102 1204.36 261.048 1230.03 269.918C1250.28 276.86 1271.23 281.189 1292.46 282.818L1293.63 282.895C1299.73 283.297 1306 283.175 1312.67 283.079C1319.34 282.983 1327.38 282.817 1335.09 283.325L1336.75 283.434C1358.16 284.845 1373.63 305.738 1385.88 325.723C1397.14 343.221 1406.71 361.964 1414.43 381.654C1421.66 401.201 1427.58 421.304 1433.36 440.754C1435.11 446.816 1436.92 452.828 1438.68 458.783C1459.8 528.527 1484.71 572.648 1506.69 611.54C1521.91 638.47 1535.03 661.618 1543.9 688.344C1556.56 726.675 1552.16 768.114 1532.33 797.019C1518.84 816.7 1491.86 839.456 1440.17 836.048C1407.35 833.885 1369.14 821.296 1326.54 798.722C1246.43 755.945 1156.62 701.386 1064.43 644.313C986.022 595.24 898.18 566.529 807.61 560.372C781.344 558.663 754.987 558.715 728.689 560.527C691.687 563.07 648.755 571.597 603.343 580.603C538.482 593.362 471.384 606.616 417.249 603.048Z" fill="url(#paint12_linear_928_70)"/>
<path d="M1085.35 189.405C1072.66 188.639 1059.91 189.598 1047.39 192.26C1037.26 194.324 1027.25 197.137 1017.45 200.678C979.719 214.262 931.509 241.189 861.291 287.664C809.67 321.758 754.687 321.402 690.99 320.953C638.062 320.625 577.832 320.351 506.261 339.043C447.304 354.387 398.672 375.823 361.68 402.74C328.221 427.318 305.808 455.249 296.799 484.171C292.152 498.525 291.102 513.935 293.759 528.79C296.416 543.646 302.682 557.402 311.903 568.624C330.62 593.053 360.803 606.291 404.159 609.149C460.392 612.855 529.319 598.596 596.009 584.833C640.948 575.582 683.406 566.81 719.241 564.136C746.991 562.041 774.815 561.889 802.541 563.681C892.756 569.796 980.34 597.898 1058.88 645.929L1087.47 663.241C1172.27 714.416 1252.01 762.74 1324.36 802.06C1368.15 825.837 1407.54 839.04 1441.54 841.281C1493.18 844.685 1521.17 822.156 1535.87 802.663C1557.35 774.028 1564.28 731.362 1554.23 691.382C1546.5 660.017 1532.97 631.967 1517.43 599.445C1493.7 552.279 1474.01 502.783 1458.6 451.578C1457.36 447.425 1456.17 443.168 1454.93 438.962C1448.63 417.12 1442.07 394.725 1433.83 373.291C1425.72 353.272 1415.45 334.4 1403.25 317.065C1385.4 290.605 1369.66 278.318 1352 277.154L1349.86 277.013C1341.19 276.924 1333.03 277.457 1325.3 277.965C1317.58 278.474 1309.9 278.986 1302.72 278.727C1280.36 278.06 1258.21 274.278 1236.8 267.471C1208.92 258.617 1188.6 242.868 1168.85 228.174C1143.94 209.337 1120.56 191.726 1085.35 189.405ZM404.066 607.589C361.1 604.757 331.248 591.701 312.802 567.612C303.747 556.603 297.595 543.102 294.988 528.521C292.382 513.941 293.417 498.817 297.987 484.731C306.88 456.07 329.144 428.182 362.087 403.998C398.922 377.232 447.39 356.054 506.212 340.539C577.779 321.901 637.894 322.435 690.972 322.72C754.86 323.235 810.038 323.604 862.019 289.265C932.188 242.787 980.241 216.01 1017.87 202.42C1027.54 198.881 1037.42 196.078 1047.42 194.03C1059.82 191.363 1072.46 190.396 1085.04 191.152C1119.86 193.447 1143.04 211.045 1167.63 229.7C1187.4 244.717 1207.88 260.262 1235.95 269.183C1257.49 276.04 1279.77 279.849 1302.26 280.518C1309.48 280.993 1316.97 280.255 1324.99 279.766C1333 279.276 1340.98 278.731 1349.54 278.813L1351.64 278.951C1368.9 280.089 1384.42 292.2 1401.9 318.208C1413.97 335.463 1424.11 354.237 1432.11 374.142C1440.49 395.639 1446.86 417.967 1453.16 439.809C1454.4 444.016 1455.59 448.273 1456.83 452.426C1472.21 503.708 1491.9 553.277 1515.65 600.506C1531.09 632.968 1544.48 660.955 1552.32 692.166C1562.21 731.601 1555.27 773.676 1534.21 801.964C1513.14 830.252 1481.83 842.276 1441.45 839.615C1407.65 837.387 1368.46 824.09 1324.86 800.485C1252.5 761.166 1172.62 712.832 1088.02 661.67L1059.22 644.558C980.491 596.437 892.716 568.269 802.302 562.112C774.573 560.347 746.749 560.517 718.998 562.62C683.114 565.29 640.607 574.059 595.568 583.358C528.978 597.074 460.103 611.283 404.066 607.589Z" fill="url(#paint13_linear_928_70)"/>
<path d="M1083.19 182.728C1070.74 182.072 1058.24 183.047 1045.97 185.631C1035.45 187.757 1025.06 190.652 1014.88 194.295C975.055 208.49 924.81 236.569 852.138 285.346C800.234 320.012 745.46 318.705 682.043 316.989C626.98 315.609 564.674 314.127 489.493 334.831C378.64 365.396 300.947 421.985 281.584 486.114C276.876 500.885 275.852 516.715 278.619 531.967C281.386 547.219 287.843 561.337 297.321 572.859C316.46 597.583 347.119 611.014 390.915 613.901C449.098 617.736 519.945 602.586 588.556 587.931C633.024 578.381 675.054 569.42 709.82 566.622C739.103 564.246 768.475 563.999 797.743 565.882C887.804 571.967 975.328 599.51 1054.18 646.584C1082.89 663.582 1110.74 680.256 1138.04 696.464C1203.36 735.428 1265.29 772.24 1322.93 804.43C1367.67 829.395 1408.1 843.202 1443.02 845.504C1483.45 848.169 1516.39 835.18 1538.56 807.929C1561.18 779.851 1570.73 736.823 1563.51 695.582C1556.95 658.349 1543 623.95 1526.77 584.044C1507.63 539.075 1491.05 492.829 1477.12 445.568L1475.17 438.69C1468.59 414.023 1460.82 389.766 1451.9 366.018C1443.58 345.738 1432.79 326.81 1419.8 309.746C1400.56 283.569 1382.67 271.89 1363.02 272.791C1354.32 273.182 1346.09 274.032 1338.39 274.864C1329.41 275.826 1320.98 276.716 1312.89 276.772C1306.57 276.838 1300.31 276.64 1294.22 276.238C1276.94 275.155 1259.83 272.07 1243.19 267.036C1212.84 257.964 1191.04 240.886 1170.23 224.408C1144.44 204.013 1120.26 185.171 1083.19 182.728ZM390.836 612.128C347.43 609.267 317.151 596.022 298.283 571.637C288.93 560.31 282.56 546.412 279.836 531.393C277.113 516.373 278.136 500.783 282.8 486.248C301.981 422.642 379.305 366.458 489.66 336.02C564.496 315.348 626.847 316.886 681.861 318.262C745.438 319.775 800.501 321.154 852.764 286.245C925.534 237.474 975.66 209.709 1015.48 195.567C1025.6 191.919 1035.92 189.02 1046.38 186.89C1058.54 184.323 1070.92 183.341 1083.26 183.964C1119.88 186.378 1143.91 205.264 1169.29 225.257C1190.34 241.857 1212.13 258.989 1242.73 268.13C1259.47 273.189 1276.66 276.298 1294.04 277.405C1300.14 277.807 1306.48 278.225 1312.81 277.946C1320.95 277.893 1329.43 277.006 1338.46 276.047C1346.35 275.175 1354.59 274.325 1363.09 273.974C1382.3 273.098 1399.76 284.534 1418.69 310.315C1431.57 327.206 1442.31 345.93 1450.63 365.988C1459.52 389.682 1467.26 413.884 1473.82 438.493L1475.76 445.371C1489.58 492.681 1506.05 538.989 1525.06 584.038C1541.2 623.831 1555.1 658.173 1561.81 695.256C1568.92 736.008 1559.56 778.512 1537.26 806.13C1515.65 832.989 1483.07 845.786 1443.13 843.154C1408.4 840.865 1368.16 827.124 1323.37 802.262C1265.49 770.057 1203.79 733.261 1138.52 694.3C1111.42 678.105 1083.38 661.418 1054.62 644.416C975.626 597.107 887.909 569.386 797.626 563.196C768.261 561.303 738.791 561.543 709.41 563.917C674.596 566.711 632.514 575.722 587.948 585.266C519.622 600.797 448.824 615.95 390.836 612.128Z" fill="url(#paint14_linear_928_70)"/>
<path d="M1081.14 176.003C1068.94 175.295 1056.69 176.123 1044.63 178.471C1033.65 180.476 1022.8 183.341 1012.18 187.046C970.312 201.696 917.983 230.923 842.537 281.66C790.253 316.889 735.493 314.619 672.136 311.997C615.276 309.642 550.794 306.998 472.636 329.755C362.768 361.725 285.659 420.602 266.33 487.198C261.523 502.437 260.503 518.754 263.376 534.468C266.248 550.183 272.91 564.728 282.674 576.608C302.287 601.577 333.375 615.197 377.902 618.132C438.036 622.095 514.089 605.253 581.194 590.391C625.235 580.652 666.791 571.446 700.484 568.578C731.299 565.92 762.221 565.577 793.03 567.553C882.869 573.759 970.229 600.905 1049.25 647.169C1095.31 673.721 1139.19 699.808 1181.66 724.998C1230.55 753.986 1276.74 781.351 1321.26 806.73C1367.06 832.783 1408.48 847.19 1444.37 849.556C1484.41 852.196 1517.72 839.553 1540.68 813.05C1564.9 785.131 1576.66 742.731 1572.06 699.574C1567.32 654.854 1553.21 614.016 1535.21 562.369C1522.82 527.377 1509.26 487.808 1495.86 439.303L1495.58 438.32C1488.53 411.175 1479.96 384.546 1469.93 358.582C1461.28 338.054 1449.87 319.085 1436.07 302.3C1418.61 280.205 1402.34 269.223 1384.15 268.024C1381.52 267.88 1378.88 267.921 1376.26 268.146C1367.58 268.967 1359.42 270.143 1351.56 271.286C1341.67 272.723 1331.78 274.053 1322.79 274.425C1313.81 274.797 1304.11 274.747 1295.28 274.165C1279.73 273.171 1264.32 270.523 1249.27 266.258C1216.53 256.975 1193.75 238.439 1171.47 220.419C1145.03 198.695 1120.01 178.565 1081.14 176.003ZM377.656 616.669C333.762 613.776 303.051 600.395 283.713 575.712C274.098 564.044 267.536 549.747 264.706 534.296C261.875 518.846 262.878 502.801 267.611 487.818C286.905 421.755 363.645 363.283 472.966 331.438C550.921 308.775 615.306 311.411 672.069 313.76C735.572 316.392 790.575 318.678 843.267 283.208C918.616 232.464 970.986 203.347 1012.6 188.735C1023.15 185.05 1033.91 182.179 1044.81 180.144C1056.77 177.813 1068.93 176.996 1081.03 177.71C1119.5 180.246 1144.28 200.414 1170.6 221.807C1192.86 239.935 1215.88 258.646 1248.91 268.055C1264.03 272.372 1279.52 275.044 1295.16 276.032C1304.04 276.617 1313.39 276.698 1322.82 276.302C1332.25 275.905 1341.55 274.536 1351.75 272.852C1359.61 271.709 1367.72 270.583 1376.44 269.766C1379 269.509 1381.58 269.464 1384.14 269.63C1401.65 270.784 1417.9 281.444 1435.22 303.209C1448.95 319.826 1460.29 338.631 1468.87 358.994C1478.78 384.962 1487.18 411.6 1494.03 438.754L1494.31 439.736C1507.71 488.295 1521.51 527.933 1533.65 562.91C1551.61 614.5 1565.77 655.234 1570.48 699.791C1575.01 742.462 1563.43 784.392 1539.48 811.953C1516.84 838.102 1483.93 850.557 1444.33 847.947C1408.63 845.594 1367.4 831.252 1321.8 805.319C1277.28 779.94 1231.13 752.578 1182.24 723.591C1139.82 698.403 1095.84 672.31 1049.84 645.708C970.523 599.38 882.864 572.233 792.734 566.088C761.845 564.108 730.842 564.445 699.944 567.096C666.185 570.228 624.594 579.217 580.554 588.957C513.546 603.824 437.594 620.62 377.656 616.669Z" fill="url(#paint15_linear_928_70)"/>
<path d="M1079.18 169.231C1067.17 168.547 1055.12 169.297 1043.23 171.468C1031.79 173.529 1020.5 176.49 1009.44 180.329C966.078 195.309 910.038 226.595 833.072 278.839C780.31 314.626 725.513 311.443 662.129 307.747C603.573 304.37 537.064 300.522 455.927 325.386C400.48 342.462 352.118 367.236 316.29 397.283C282.809 425.181 260.345 456.858 251.47 488.95C246.583 504.632 245.583 521.403 248.573 537.545C251.563 553.687 258.435 568.62 268.485 580.814C288.516 606.133 320.039 619.835 364.81 622.786C426.943 626.881 505.021 609.047 573.897 593.338C617.362 583.401 658.441 574.002 691.065 571.01C723.428 568.031 755.918 567.576 788.286 569.651C877.88 575.846 965.083 602.429 1044.31 647.7C1106.51 682.868 1164.96 717.576 1221.47 751.138C1255.55 771.383 1287.8 790.489 1319.59 808.977C1366.34 836.217 1408.8 851.228 1445.72 853.662C1485.42 856.279 1519.09 844.035 1543.08 818.19C1568.55 790.781 1582.68 747.948 1580.85 703.635C1578.65 649.44 1563.03 597.95 1543.13 532.786C1534.23 503.541 1524.18 470.363 1514.19 433.065C1507.32 405.037 1498.6 377.609 1488.11 350.994C1479.21 330.199 1467.22 311.185 1452.63 294.714C1431.83 270.63 1411.38 260.658 1389.43 263.764C1381.02 264.924 1373.04 266.327 1365.37 267.535C1353.93 269.513 1343.12 271.425 1332.94 272.147C1321.08 273.047 1309.2 273.123 1297.36 272.373C1283.26 271.487 1269.28 269.184 1255.59 265.495C1220.51 256.005 1196.37 235.772 1173.02 216.181C1145.77 193.387 1119.76 171.906 1079.18 169.231ZM364.477 621.157C320.096 618.231 288.903 604.712 269.242 579.739C259.364 567.731 252.611 553.035 249.673 537.153C246.736 521.271 247.719 504.771 252.522 489.34C261.459 457.789 283.77 426.209 316.99 398.561C352.946 368.791 401.123 343.843 456.365 326.915C537.303 302.091 603.614 305.98 662.121 309.354C725.798 313.069 780.741 316.262 833.914 280.18C910.824 228.04 966.764 196.801 1009.97 181.865C1020.95 178.039 1032.16 175.089 1043.52 173.041C1055.31 170.881 1067.27 170.142 1079.17 170.838C1119.46 173.493 1145.13 195.005 1172.28 217.793C1195.47 237.481 1219.95 257.843 1255.37 267.356C1269.13 271.091 1283.19 273.417 1297.38 274.303C1309.27 275.056 1321.2 274.984 1333.1 274.086C1343.39 273.318 1354.24 271.408 1365.74 269.434C1373.42 268.066 1381.35 266.66 1389.69 265.656C1411.2 262.681 1431.22 272.518 1451.7 296.152C1466.27 312.509 1478.27 331.395 1487.2 352.06C1497.63 378.546 1506.33 405.826 1513.22 433.697C1523.25 471.052 1533.31 504.23 1542.16 533.472C1561.92 598.52 1577.54 649.902 1579.91 703.894C1581.91 747.79 1567.76 790.14 1542.56 817.244C1518.9 842.469 1485.61 854.845 1446.35 852.257C1409.62 849.837 1367.36 834.891 1320.8 807.77C1289 789.283 1256.81 770.18 1222.73 749.935C1166.16 716.37 1107.76 681.666 1045.52 646.494C965.973 601.015 878.398 574.35 788.43 568.214C755.997 566.134 723.442 566.584 691.013 569.56C658.278 572.759 617.161 581.995 573.647 591.929C504.391 607.452 426.415 625.239 364.477 621.157Z" fill="url(#paint16_linear_928_70)"/>
<path d="M1077.28 162.411C1065.45 161.74 1053.56 162.429 1041.83 164.467C1030.02 166.526 1018.36 169.553 1006.94 173.524C961.549 188.959 903.369 221.496 823.866 275.823C775.753 308.703 725.473 308.335 673.874 304.934L652.122 303.5L628.761 301.96C576.577 298.521 514.627 296.848 439.409 321.084C333.267 355.228 255.315 420.209 236.021 490.718C231.075 506.853 230.105 524.081 233.211 540.655C236.316 557.228 243.386 572.558 253.704 585.091C274.208 610.655 306.16 624.546 351.37 627.525C415.552 631.756 495.658 612.877 566.311 596.214C609.25 586.081 649.8 576.54 681.399 573.481C715.227 569.975 749.217 569.225 783.087 571.238C872.725 577.381 960.05 603.517 1039.69 648.039C1117.38 690.979 1189.49 734.086 1259.23 775.858L1318.18 811.027C1365.93 839.405 1409.43 855.021 1447.37 857.522C1487.32 860.155 1520.41 848.569 1545.75 823.027C1572.87 795.728 1588.93 753.557 1589.81 707.387C1591.12 641.478 1574.21 579.243 1550.75 493.06C1545.03 472.007 1538.88 450.227 1532.94 426.535C1526.14 398.131 1517.27 370.391 1506.42 343.579C1497.11 322.504 1484.46 303.429 1469.04 287.226C1447.38 264.371 1425.85 255.078 1402.6 259.277C1394.67 260.683 1387.13 262.221 1379.83 263.722C1366.82 266.4 1354.51 268.909 1343.02 270.08C1328.75 271.606 1314.42 271.932 1300.14 271.058C1287.24 270.23 1274.45 268.204 1261.89 265.001C1224.42 255.353 1199.12 233.491 1174.65 212.379C1146.56 188.083 1119.91 165.221 1077.28 162.411ZM673.524 306.518C725.367 309.935 776.139 310.282 824.367 277.142C903.818 222.865 961.796 190.422 1006.9 175.021C1018.3 171.07 1029.96 168.077 1041.77 166.07C1053.39 163.997 1065.16 163.3 1076.88 163.992C1119.07 166.773 1145.53 189.622 1173.52 213.858C1198.13 235.086 1223.57 257.065 1261.33 266.786C1273.96 270.041 1286.84 272.09 1299.82 272.912C1314.18 273.79 1328.6 273.468 1342.94 271.95C1354.48 270.782 1366.85 268.169 1379.85 265.545C1387.15 264.044 1394.75 262.509 1402.58 261.097C1425.37 257.242 1446.35 265.857 1467.82 288.645C1483.12 304.741 1495.65 323.703 1504.84 344.652C1515.67 371.392 1524.53 399.059 1531.32 427.392C1537.45 451.097 1543.4 472.917 1549.12 493.971C1572.54 579.99 1589.46 642.119 1588.17 707.814C1587.26 753.501 1571.34 795.252 1544.52 822.304C1519.5 847.438 1486.76 858.939 1447.25 856.336C1409.41 853.841 1366.15 838.295 1318.54 810.033C1299.22 798.546 1279.58 786.806 1259.64 774.814C1189.89 733.095 1117.75 689.931 1040.05 646.992C960.223 602.406 872.703 576.239 782.868 570.098C748.875 567.913 714.752 568.475 680.776 571.779C649.065 575.046 608.478 584.423 565.486 594.606C494.875 611.379 414.929 630.054 350.942 625.837C306.122 622.882 274.502 609.174 254.269 583.95C244.115 571.61 237.162 556.515 234.117 540.198C231.071 523.881 232.042 506.922 236.93 491.046C256.234 421.127 333.573 356.534 439.088 322.241C514.152 298.102 575.911 299.709 627.949 303.139C635.849 303.659 643.653 304.174 651.261 304.675L673.524 306.518Z" fill="url(#paint17_linear_928_70)"/>
<path d="M1075.48 155.595C1063.78 154.898 1052.03 155.542 1040.43 157.517C1028.09 159.542 1015.9 162.589 1003.97 166.631C956.533 182.574 896.412 216.323 814.319 272.782C772.051 301.708 728.913 305.186 677.119 301.772C665.512 301.007 653.828 299.915 641.413 298.775C628.997 297.636 615.119 296.4 601.317 295.49C552.547 292.275 493.233 292.223 422.513 315.845C317.311 351.336 239.939 418.659 220.63 491.631C210.972 528.17 217.286 561.691 238.736 588.496C259.662 614.355 292.094 628.385 337.792 631.397C404.022 635.762 486.107 615.835 558.586 598.222C600.948 587.943 640.971 578.207 671.546 575.08C707.002 571.404 742.632 570.708 778.122 572.998C867.598 579.145 954.837 604.783 1034.72 648.407C1127.71 698.622 1213.24 750.488 1295.9 800.665L1316.48 813.11C1365.28 842.682 1409.81 858.955 1448.92 861.533C1493.74 864.487 1531.74 849.1 1558.73 817.025C1582.38 787.449 1596.45 750.235 1598.72 711.241C1604.85 630.865 1584.78 551.173 1556.75 440.637L1551.5 419.882C1544.82 391.163 1535.85 363.165 1524.69 336.211C1515.08 314.897 1501.81 295.839 1485.58 280.065C1468.8 263.478 1451.98 254.817 1434.23 253.646C1428.08 253.251 1421.91 253.726 1415.86 255.061C1408.71 256.625 1401.79 258.258 1395.12 259.801C1380.2 263.263 1366.27 266.523 1353.28 268.185C1336.78 270.467 1320.15 271.163 1303.57 270.265C1291.7 269.505 1279.91 267.707 1268.32 264.888C1228.5 255.139 1201.93 231.64 1176.49 208.964C1147.45 182.784 1119.96 158.527 1075.48 155.595ZM677 303.585C729.086 307.018 772.486 303.29 814.917 274.107C896.906 217.748 957.316 184.072 1004.37 167.996C1016.25 163.969 1028.39 160.936 1040.68 158.926C1052.17 156.985 1063.8 156.351 1075.38 157.035C1119.28 159.929 1146.67 184.179 1175.6 209.816C1201.26 232.934 1227.9 256.117 1268 266.045C1279.66 268.914 1291.53 270.735 1303.49 271.492C1320.15 272.395 1336.86 271.705 1353.44 269.427C1366.48 267.769 1380.56 264.466 1395.44 261C1402.1 259.457 1409.02 257.824 1416.18 256.26C1422.1 254.961 1428.13 254.495 1434.15 254.873C1451.56 256.021 1468.09 264.503 1484.65 280.861C1500.74 296.656 1513.88 315.705 1523.37 336.98C1534.57 363.997 1543.55 392.068 1550.21 420.869L1555.51 441.627C1583.37 551.723 1603.55 631.315 1597.43 711.424C1591.48 789.936 1543.14 866.404 1449.2 860.213C1410.19 857.641 1365.95 841.44 1317.39 811.992L1296.8 799.546C1214.1 749.366 1128.57 697.393 1035.57 647.285C955.543 603.457 868.112 577.66 778.422 571.411C742.852 569.112 707.141 569.803 671.603 573.477C640.965 576.814 600.903 586.387 558.493 596.662C486.115 614.229 404.176 634.165 338.092 629.81C292.785 626.823 260.83 612.986 240.03 587.456C218.749 561.037 212.498 528.056 221.828 492.031C241.004 419.586 317.958 352.664 422.707 317.357C493.239 293.616 552.399 293.765 601.023 296.97C614.825 297.88 628.167 299.081 641.119 300.256C654.071 301.431 665.392 302.82 677 303.585Z" fill="url(#paint18_linear_928_70)"/>
<path d="M1073.68 148.728C1062.19 148.08 1050.67 148.684 1039.27 150.532C1026.47 152.551 1013.82 155.658 1001.43 159.822C951.956 176.22 889.538 211.371 804.918 269.753C761.294 299.929 717.011 301.456 675.654 298.73C661.023 297.766 646.434 296.161 630.967 294.499C614.427 292.766 597.306 290.941 579.407 289.761C520.97 284.73 462.06 292.144 405.943 311.593C353.087 330.233 306.252 357.84 270.531 391.483C237.058 422.97 214.549 458.287 205.565 493.532C195.871 531.354 202.425 565.694 224.59 592.814C245.936 618.969 278.748 633.184 324.934 636.229C393.212 640.729 477.44 619.497 551.683 601.142C593.417 590.716 632.911 580.838 662.462 577.643C699.463 573.574 736.666 572.731 773.72 575.12C863.061 581.304 950.234 606.502 1030.35 649.298C1129.76 701.704 1221.86 757.914 1315.38 815.717C1365.13 846.423 1410.79 863.36 1451.03 866.012C1551.74 872.65 1598.58 789.12 1607.88 715.649C1619.48 625.831 1599.62 534.1 1570.29 414.319C1563.7 384.952 1554.53 356.381 1542.9 329.002C1533.01 307.336 1519.12 288.184 1502.08 272.744C1488.13 258.847 1470.35 250.376 1451.46 248.623C1443.97 248.152 1436.45 248.865 1429.13 250.74L1411.39 255.303C1394.36 259.537 1378.2 263.829 1363.46 266.125C1344.87 269.055 1326.09 269.988 1307.38 268.91C1296.38 268.187 1285.45 266.59 1274.69 264.13C1232.62 254.287 1205.03 229.167 1178.42 204.914C1148.39 177.49 1120.06 151.785 1073.68 148.728ZM675.346 300.424C716.948 303.166 761.481 301.548 805.468 271.075C890.011 212.367 952.3 177.689 1001.63 161.335C1013.94 157.191 1026.53 154.098 1039.27 152.085C1050.66 150.233 1062.19 149.647 1073.67 150.335C1119.56 153.36 1147.7 178.998 1177.75 206.156C1204.55 230.528 1232.23 255.761 1274.68 265.683C1285.51 268.191 1296.5 269.811 1307.57 270.53C1326.38 271.615 1345.25 270.688 1363.94 267.763C1378.78 265.527 1394.92 261.342 1411.97 256.895L1429.76 252.282C1436.94 250.483 1444.31 249.797 1451.64 250.242C1470.24 251.96 1487.74 260.301 1501.46 273.989C1518.33 289.314 1532.08 308.31 1541.87 329.791C1553.44 357.076 1562.56 385.555 1569.08 414.828C1598.36 534.606 1618.2 625.961 1606.67 715.515C1597.26 788.39 1550.9 871.202 1451.17 864.629C1411.17 861.993 1365.7 845.122 1316.14 814.482C1222.58 756.676 1130.38 700.46 1031.02 648.004C950.738 605.129 863.388 579.884 773.864 573.683C736.633 571.265 699.249 572.097 662.069 576.171C632.456 579.576 592.923 589.29 551.092 599.711C476.936 618.232 392.917 639.263 324.785 634.772C279.038 631.757 246.508 617.721 225.384 591.902C203.634 565.185 197.161 531.118 206.693 494.249C215.608 459.321 237.952 424.261 271.216 392.974C306.781 359.482 353.608 331.981 406.116 313.426C462.043 294.042 520.749 286.634 578.992 291.609C596.841 292.785 613.96 294.664 630.499 296.397C646.123 297.909 660.715 299.46 675.346 300.424Z" fill="url(#paint19_linear_928_70)"/>
<path d="M1071.98 141.866C1060.5 141.192 1048.98 141.742 1037.58 143.51C1024.38 145.525 1011.33 148.677 998.556 152.936C947.056 169.576 882.401 205.972 795.129 266.697C752.261 296.547 710.364 298.286 671.494 295.724C654.864 294.627 637.857 292.542 619.879 290.339C600.445 287.934 580.282 285.426 559.019 284.025C501.596 279.198 443.735 287.08 388.894 307.201C287.042 344.628 208.941 418.545 189.923 495.286C180.243 534.395 187.082 569.611 209.668 597.026C231.436 623.477 264.732 637.778 311.405 640.854C381.878 645.499 468.027 623.376 544.061 603.854C585.217 593.282 624.08 583.308 652.607 580.046C691.167 575.551 729.964 574.525 768.603 576.978C857.816 583.18 944.926 607.938 1025.26 649.927C1128.53 703.177 1224.81 762.18 1313.51 818.004C1364.31 849.957 1411.05 867.555 1452.51 870.288C1552.54 876.881 1602.88 796.795 1616.69 719.603C1633.07 627.798 1617.37 528.627 1588.73 408.034C1582.26 378.194 1572.94 349.212 1560.93 321.565C1550.71 299.555 1536.18 280.313 1518.35 265.192C1504.28 252.535 1486.97 244.893 1468.71 243.278C1459.79 242.733 1450.84 243.715 1442.16 246.189L1428.48 250.108C1407.97 255.934 1390.24 261.033 1373.45 263.89C1352.88 267.645 1332.01 268.928 1311.24 267.717C1301.02 267.069 1290.87 265.63 1280.86 263.412C1236.83 253.6 1207.93 226.893 1180.25 201.016C1149.38 172.198 1120.21 145.045 1071.98 141.866ZM671.535 297.333C708.796 299.789 752.737 298.239 795.922 268.035C883.187 207.417 947.48 171.318 998.799 154.452C1011.56 150.226 1024.59 147.091 1037.77 145.076C1049.04 143.321 1060.43 142.78 1071.77 143.46C1119.52 146.607 1148.5 173.64 1179.19 202.232C1206.86 228.215 1235.85 255.089 1280.6 265.109C1290.68 267.305 1300.9 268.748 1311.17 269.427C1332.05 270.649 1353.01 269.372 1373.68 265.62C1390.57 262.716 1408.49 257.629 1428.92 251.744L1442.54 247.874C1451.06 245.394 1459.88 244.401 1468.65 244.935C1486.62 246.547 1503.64 254.096 1517.48 266.58C1535.14 281.538 1549.54 300.59 1559.65 322.392C1571.62 349.939 1580.91 378.809 1587.37 408.534C1615.93 528.961 1631.69 627.921 1615.27 719.457C1601.61 795.961 1551.71 875.326 1452.66 868.798C1411.44 866.081 1364.89 848.603 1314.33 816.826C1225.58 760.998 1129.25 701.992 1025.93 648.686C945.451 606.657 858.196 581.871 768.837 575.655C730.117 573.196 691.24 574.217 652.597 578.706C623.959 582.176 586.852 591.514 543.901 602.557C467.965 622.086 381.869 644.159 311.639 639.53C265.356 636.48 232.395 622.308 210.895 596.25C188.625 569.23 181.95 534.507 191.494 495.979C210.338 419.655 288.062 346.248 389.464 308.953C444.136 288.934 501.807 281.094 559.042 285.901C580.257 287.299 600.37 289.804 619.808 292.156C637.87 293.829 654.856 296.234 671.535 297.333Z" fill="url(#paint20_linear_928_70)"/>
<path d="M1070.28 134.844C1058.94 134.18 1047.56 134.686 1036.29 136.353C1022.57 138.376 1009 141.602 995.731 146.001C942.276 163.315 875.596 200.703 785.783 263.563C743.536 292.919 701.775 294.827 666.319 292.49C647.884 291.275 628.955 288.634 608.907 285.867C587.017 282.817 564.351 279.662 540.161 278.068C483.306 273.54 426.069 281.857 372.011 302.5C271.001 341.267 193.481 417.526 174.538 496.843C164.871 537.238 171.953 573.22 194.957 600.984C217.198 627.681 251.02 642.177 298.035 645.276C370.654 650.062 462.726 625.758 536.701 606.261C578.972 595.12 615.463 585.472 643.011 582.199C683.114 577.32 723.484 576.182 763.683 578.797C852.747 585.021 939.778 609.322 1020.33 650.459C1130.7 705.944 1234.11 770.453 1311.89 820.308C1363.59 853.499 1411.36 871.754 1454.23 874.58C1500.08 877.601 1539.14 863.088 1570.32 831.503C1603.39 797.953 1618.56 754.331 1625.48 723.612C1644.57 639.162 1638.93 539.637 1607.22 401.753C1600.98 371.412 1591.49 342.019 1578.95 314.182C1568.46 291.79 1553.29 272.447 1534.67 257.696C1520.63 246.136 1503.82 239.23 1486.21 237.79C1475.78 237.174 1465.31 238.495 1455.24 241.694L1447.39 244.123C1423.44 251.544 1402.79 258.003 1383.44 261.71C1361.01 266.244 1338.19 267.887 1315.47 266.604C1305.93 266.008 1296.44 264.703 1287.08 262.697C1240.42 252.711 1210.64 224.393 1181.89 196.84C1150.41 166.91 1120.42 138.149 1070.28 134.844ZM666.402 294.209C701.906 296.55 743.946 294.874 786.569 265.008C876.219 202.404 942.808 164.904 996.162 147.636C1009.36 143.286 1022.83 140.091 1036.47 138.079C1047.64 136.422 1058.93 135.928 1070.17 136.604C1119.81 139.877 1149.63 168.305 1181.2 198.401C1210.1 225.964 1240.01 254.452 1287.07 264.303C1296.5 266.285 1306.05 267.595 1315.66 268.223C1338.5 269.525 1361.43 267.872 1383.97 263.298C1405.55 258.68 1426.91 252.865 1447.96 245.875L1455.81 243.446C1465.72 240.298 1476.03 239.003 1486.29 239.616C1503.62 241.032 1520.17 247.828 1533.98 259.204C1552.41 273.788 1567.44 292.897 1577.86 315.021C1590.33 342.875 1599.77 372.26 1605.99 402.583C1637.62 540.14 1643.24 639.182 1624.26 723.638C1615.89 760.584 1578.89 881.35 1454.52 873.152C1412.09 870.356 1364.41 852.16 1312.81 819.083C1235.03 769.227 1131.56 704.822 1021.15 649.174C940.427 607.964 853.219 583.616 763.973 577.37C723.692 574.778 683.243 575.911 643.057 580.756C615.394 584.289 578.868 593.72 536.594 604.915C462.72 624.365 370.749 648.622 298.325 643.849C251.603 640.769 218.209 626.462 196.243 600.051C173.552 572.736 166.585 537.244 176.119 497.376C194.93 418.586 272.111 343.001 372.682 304.204C426.516 283.633 483.518 275.338 540.142 279.834C564.283 281.425 586.901 284.577 608.791 287.627C628.988 290.351 647.918 292.991 666.402 294.209Z" fill="url(#paint21_linear_928_70)"/>
<path d="M1068.76 128.155C1057.55 127.467 1046.28 127.926 1035.12 129.527C1020.94 131.532 1006.92 134.781 993.187 139.244C938.426 157.062 867.592 196.532 776.52 260.649C743.338 284.014 708.725 292.66 660.735 289.497C640.691 288.176 620.132 284.999 598.311 281.633C574.063 277.945 549.335 274.119 522.609 272.357C466.099 267.888 409.226 276.667 355.792 298.109C307.024 317.094 262.319 346.995 224.563 385.881C191.503 420.77 168.437 460.818 159.719 498.705C150.114 540.39 157.436 577.191 180.865 605.198C203.577 632.193 237.681 646.869 285.329 650.009C360.143 654.94 454.351 629.438 530.058 608.93C571.602 597.687 607.459 587.998 634.031 584.661C675.658 579.344 717.59 578.039 759.34 580.76C848.301 586.998 935.292 610.883 1016.06 651.249C1104.73 694.912 1198.42 749.405 1310.85 822.757C1363.68 857.255 1412.74 876.183 1456.63 879.076C1502.72 882.114 1542.46 867.753 1574.84 836.461C1609.32 803.111 1626.53 758.981 1634.9 727.928C1659.01 638.453 1656.18 529.793 1626.32 395.834C1620.18 365.021 1610.53 335.214 1597.58 307.108C1586.81 284.326 1571.01 264.881 1551.6 250.509C1537.72 239.993 1521.47 233.761 1504.54 232.462C1492.52 231.782 1480.46 233.473 1468.94 237.455C1444.32 246.315 1419.3 253.767 1394 259.781C1369.76 265.16 1345.05 267.22 1320.42 265.912C1311.48 265.32 1302.6 264.126 1293.81 262.337C1244.85 252.254 1214.06 222.315 1184.28 193.354C1151.49 161.624 1120.65 131.576 1068.76 128.155ZM660.435 291.084C708.717 294.266 743.609 285.853 777.119 261.974C868.232 197.967 938.784 158.317 993.447 140.493C1007.08 136.043 1021 132.804 1035.08 130.81C1046.17 129.25 1057.35 128.804 1068.48 129.476C1119.98 132.87 1150.69 162.696 1183.14 194.297C1213.1 223.431 1244.03 253.539 1293.38 263.701C1302.23 265.475 1311.18 266.655 1320.18 267.236C1344.91 268.585 1369.73 266.513 1394.06 261.07C1419.37 255.086 1444.39 247.633 1469.01 238.744C1480.35 234.834 1492.22 233.167 1504.06 233.823C1520.73 235.118 1536.73 241.258 1550.4 251.609C1569.59 265.775 1585.23 284.927 1595.95 307.375C1608.74 335.405 1618.3 365.091 1624.41 395.762C1654.2 529.448 1657 637.838 1632.99 727.053C1606.21 826.53 1540.15 882.653 1456.22 877.121C1412.33 874.228 1363.75 855.385 1311.11 821.06C1198.39 747.635 1104.9 693.102 1016.18 649.435C935.247 609.044 848.094 585.148 758.972 578.915C717.236 576.239 675.325 577.546 633.711 582.818C607.024 586.416 571.129 595.942 529.537 607.182C453.931 627.643 359.97 653.108 285.254 648.183C237.995 645.068 204.173 630.572 181.785 603.866C158.673 576.255 151.466 539.944 160.935 498.839C179.44 418.743 257.854 338.579 356.101 299.362C409.347 278.011 466.016 269.273 522.322 273.731C548.999 275.49 573.874 279.325 597.927 283C619.734 286.58 640.341 289.76 660.435 291.084Z" fill="url(#paint22_linear_928_70)"/>
<path d="M1066.97 121.233C1055.82 120.566 1044.63 120.993 1033.52 122.511C1018.89 124.518 1004.42 127.828 990.258 132.408C933.574 150.42 860.485 191.403 766.876 257.603C734.505 280.538 699.68 289.439 653.934 286.423C632.475 285.009 610.191 281.237 587.037 277.3C560.978 272.85 534.083 268.453 504.967 266.534C448.582 262.096 391.851 271.363 338.843 293.671C240.894 334.3 162.677 417.424 144.223 500.469C134.687 543.337 142.248 580.957 166.161 609.049C189.246 636.337 223.83 651.151 271.918 654.321C348.975 659.4 445.323 632.646 522.759 611.18C563.574 599.836 598.8 590.052 624.394 586.703C667.561 580.943 711.071 579.472 754.388 582.308C843.223 588.601 930.15 612.049 1011.14 651.567C1102.87 695.753 1197.59 750.796 1309.19 824.843C1363.07 860.535 1413.3 880.238 1458.46 883.214C1504.8 886.268 1545.26 872.062 1578.8 841.007C1607.18 814.755 1629.61 776.915 1643.71 731.616C1673.06 637.129 1673.41 521.875 1644.78 389.283C1638.85 357.996 1629.13 327.758 1615.88 299.367C1604.7 276.353 1588.25 256.948 1568.11 243.026C1554.49 233.5 1538.86 227.901 1522.65 226.745C1508.96 226.006 1495.24 228.12 1482.22 232.973C1456.66 242.74 1430.64 250.95 1404.28 257.566C1378.38 263.86 1351.85 266.327 1325.43 264.903C1316.99 264.357 1308.59 263.266 1300.27 261.637C1249.06 251.566 1217.2 219.951 1186.4 189.422C1152.62 156.341 1120.9 124.842 1066.97 121.233ZM653.832 287.97C699.92 291.008 734.992 282.07 767.67 258.94C861.125 192.838 934.054 152.059 990.647 133.934C1004.73 129.391 1019.12 126.094 1033.67 124.074C1044.69 122.594 1055.8 122.179 1066.86 122.834C1120.51 126.37 1151.8 157.627 1185.18 190.735C1216.17 221.436 1248.17 253.222 1299.77 263.372C1308.14 265.004 1316.61 266.099 1325.12 266.65C1351.66 268.059 1378.3 265.581 1404.32 259.282C1430.74 252.654 1456.83 244.43 1482.45 234.648C1495.28 229.839 1508.8 227.748 1522.29 228.489C1538.25 229.641 1553.65 235.15 1567.08 244.512C1587.04 258.273 1603.33 277.51 1614.34 300.337C1627.6 328.592 1637.36 358.686 1643.37 389.833C1671.92 522.152 1671.55 637.029 1642.31 731.309C1627.4 779.18 1579.75 889.763 1458.56 881.774C1413.64 878.814 1363.58 859.444 1309.95 823.768C1198.3 749.718 1103.53 694.618 1011.71 650.426C930.562 610.836 843.473 587.341 754.473 581.028C711.058 578.214 667.453 579.679 624.186 585.404C598.522 589.069 563.265 598.584 522.401 609.925C445.049 631.61 348.864 658.107 272.002 653.041C224.305 649.897 189.905 635.256 167.193 608.26C143.656 580.407 136.209 543.277 145.612 500.935C163.986 418.367 241.82 335.861 339.378 295.206C392.185 272.997 448.692 263.753 504.862 268.134C533.88 270.047 560.765 274.604 586.786 278.89C610.184 282.843 632.178 286.543 653.832 287.97Z" fill="url(#paint23_linear_928_70)"/>
<path d="M1065.36 114.379C1054.29 113.71 1043.17 114.088 1032.13 115.509C1017 117.505 1002.03 120.854 987.382 125.523C928.656 144.044 853.375 186.328 757.281 254.56C725.21 277.408 691.123 286.25 646.742 283.325C622.886 281.22 599.163 277.743 575.67 272.909C546.654 267.019 517.349 262.852 487.884 260.426C431.513 256.154 374.839 265.955 322.149 289.089C224.907 330.89 147.189 416.832 128.87 502.296C119.399 546.401 127.253 584.791 151.573 613.392C175.083 640.921 210.099 655.871 258.723 659.076C338.024 664.303 436.557 636.354 515.679 613.821C555.613 602.472 590.303 592.652 614.876 589.183C659.631 582.965 704.77 581.295 749.71 584.197C838.429 590.532 925.3 613.583 1006.49 652.332C1099.62 695.968 1198.16 753.298 1307.79 827.537C1362.76 864.586 1414.17 884.956 1460.55 888.013C1583.21 896.097 1635.78 784.446 1652.68 736.064C1687.27 637.155 1690.99 515.213 1663.45 383.229C1657.5 351.483 1647.53 320.846 1633.84 292.195C1622.37 268.803 1605.27 249.327 1584.36 235.848C1571.07 227.291 1556.1 222.286 1540.65 221.236C1525.24 220.474 1509.81 223.1 1495.27 228.958C1468.74 239.598 1441.69 248.547 1414.25 255.759C1386.67 262.915 1358.35 265.808 1330.12 264.355C1322.18 263.859 1314.28 262.873 1306.46 261.403C1253.25 251.253 1220.06 218.211 1188.25 185.902C1153.76 151.06 1121.2 118.059 1065.36 114.379ZM646.978 284.947C691.701 287.895 726.087 278.966 758.416 255.92C854.217 187.669 929.341 145.535 987.917 127.058C1002.44 122.424 1017.27 119.102 1032.26 117.125C1043.22 115.659 1054.26 115.257 1065.26 115.925C1120.61 119.574 1152.94 152.292 1187.25 186.908C1219.41 219.186 1252.28 252.582 1306.12 262.827C1314.01 264.274 1321.98 265.263 1329.98 265.792C1358.34 267.243 1386.79 264.322 1414.5 257.115C1442 249.939 1469.1 240.993 1495.67 230.324C1510.04 224.611 1525.28 222.083 1540.49 222.886C1555.74 223.909 1570.51 228.827 1583.63 237.246C1604.33 250.613 1621.25 269.909 1632.6 293.078C1646.25 321.578 1656.16 352.072 1662.05 383.672C1689.53 515.117 1685.82 636.738 1651.36 735.334C1634.57 783.402 1582.4 894.276 1460.71 886.256C1414.48 883.208 1363.26 862.958 1308.53 826.032C1198.84 752.004 1100.19 694.773 1007.03 650.814C925.71 611.984 838.688 588.904 749.815 582.597C704.846 579.659 659.675 581.309 614.887 587.523C590.171 590.93 555.576 600.809 515.297 612.189C436.276 634.675 337.889 662.634 258.832 657.423C210.598 654.243 175.916 639.423 152.633 612.176C128.689 583.814 121.006 545.81 130.469 502.562C148.715 417.468 226.004 332.087 322.807 290.257C375.364 267.243 431.88 257.524 488.085 261.832C517.504 264.228 546.762 268.392 575.725 274.305C599.274 279.217 623.058 282.769 646.978 284.947Z" fill="url(#paint24_linear_928_70)"/>
<path d="M1063.75 107.63C1052.76 106.954 1041.72 107.302 1030.76 108.67C1015.24 110.552 999.865 113.839 984.807 118.497C923.736 137.666 846.271 181.146 747.987 251.376C716.22 274.084 682.722 282.911 639.511 280.063C614.402 277.826 589.452 273.981 564.789 268.549C534.048 261.769 502.936 257.053 471.624 254.426C415.064 250.149 358.219 260.438 305.652 284.466C257.509 305.982 214.094 338.615 178.411 380.107C145.236 418.953 122.252 462.97 113.766 504.033C104.462 549.327 112.556 588.536 137.256 617.322C160.866 644.805 197.363 660.335 245.743 663.524C327.384 668.905 428.012 639.647 508.866 616.104C548.121 604.657 582.027 594.839 605.669 591.362C651.8 584.71 698.354 582.882 744.698 585.902C833.32 592.263 920.153 614.9 1001.56 652.864C1096.98 696.651 1196.62 754.482 1306.14 829.571C1362.1 867.917 1414.88 889.02 1462.62 892.167C1507.25 895.977 1551.75 881.214 1587.22 850.829C1617.89 824.728 1643.59 786.3 1661.54 739.809C1700.69 638.522 1708.14 506.273 1681.99 376.898C1676.18 344.675 1666.06 313.615 1651.96 284.712C1640.18 261.022 1622.51 241.501 1600.96 228.372C1573.57 212.264 1542.21 210.893 1508.7 224.326C1481.2 235.848 1453.11 245.588 1424.59 253.494C1395.38 261.532 1365.31 264.874 1335.32 263.413C1327.83 262.926 1320.37 262.005 1312.97 260.654C1257.31 250.503 1223.36 215.643 1190.52 181.927C1154.94 145.781 1121.54 111.439 1063.75 107.63ZM639.392 281.876C682.944 284.747 716.692 275.829 748.77 252.874C846.945 182.797 924.261 139.361 985.182 120.236C1000.15 115.473 1015.45 112.091 1030.91 110.126C1041.79 108.756 1052.74 108.402 1063.65 109.07C1120.91 112.844 1154.21 147.179 1189.31 183.08C1222.25 216.962 1256.35 251.779 1312.48 262.228C1319.92 263.584 1327.43 264.508 1334.97 264.996C1365.12 266.433 1395.35 263.011 1424.69 254.84C1453.28 246.976 1481.42 237.221 1508.96 225.629C1542.07 212.33 1572.98 213.778 1600.05 229.597C1621.47 242.567 1639.04 261.92 1650.74 285.434C1664.81 314.182 1674.87 345.101 1680.6 377.181C1706.72 506.18 1699.3 638.055 1660.27 739.028C1620.89 840.889 1548.92 896.087 1462.79 890.41C1415.19 887.273 1362.74 866.299 1306.97 828.019C1197.4 752.927 1097.67 695.089 1002.2 651.246C920.62 613.252 833.604 590.621 744.804 584.302C698.264 581.239 651.51 583.072 605.186 589.777C581.446 593.247 547.536 603.118 508.233 614.562C427.48 638.059 326.953 667.269 245.507 661.901C197.517 658.738 161.302 643.388 138.016 616.194C113.632 587.803 105.65 549.137 114.87 504.373C132.654 418.123 211.217 328.273 305.85 285.925C358.249 262.008 414.905 251.781 471.272 256.064C502.534 258.691 533.598 263.404 564.289 270.176C589.075 275.683 614.152 279.59 639.392 281.876Z" fill="url(#paint25_linear_928_70)"/>
<path d="M1062.21 100.565C1051.27 99.8818 1040.29 100.197 1029.37 101.508C1013.39 103.53 997.563 106.984 982.063 111.835C919.051 131.465 839.4 176.14 738.524 248.557C706.958 271.171 674.038 280.143 631.755 277.356C605.306 274.864 579.055 270.486 553.169 264.248C520.846 256.548 488.054 251.272 455.021 248.458C398.221 244.211 341.162 255.042 288.703 280.028C194.215 323.886 115.891 416.805 98.2063 506.007C88.9711 552.484 97.4093 592.412 122.482 621.492C146.468 649.213 183.296 664.926 232.31 668.156C316.244 673.689 419.025 642.966 501.604 618.518C540.075 607.073 573.25 597.207 595.962 593.722C643.708 586.543 691.93 584.518 739.928 587.677C828.46 594.079 915.258 616.34 996.856 653.572C1094.37 697.497 1195.07 755.613 1304.66 831.938C1361.75 871.698 1415.61 893.461 1464.82 896.705C1510.08 900.447 1555.22 885.864 1591.65 855.729C1623.39 829.698 1650.67 791 1670.53 743.937C1693.97 686.489 1707.97 625.08 1711.87 562.551C1716.5 498.269 1712.66 433.701 1700.46 370.831C1694.78 338.212 1684.49 306.814 1669.96 277.756C1657.8 253.606 1639.37 233.984 1616.95 221.338C1588.58 205.968 1556.32 205.61 1521.45 220.4C1493.02 232.887 1463.91 243.385 1434.3 251.831C1403.49 260.774 1371.68 264.565 1339.95 263.075C1332.78 262.603 1325.69 261.76 1318.86 260.56C1260.75 250.356 1225.98 213.888 1192.01 178.544C1156.13 140.236 1121.9 104.5 1062.21 100.565ZM631.656 278.849C674.281 281.659 707.494 272.706 739.317 249.895C840.089 177.578 919.572 133.214 982.452 113.36C997.869 108.538 1013.61 105.114 1029.51 103.124C1040.34 101.808 1051.24 101.488 1062.1 102.165C1121.26 106.064 1155.31 141.628 1191.38 179.252C1225.34 214.702 1260.49 251.409 1318.83 261.683C1325.71 262.886 1332.85 263.732 1340.07 264.208C1371.96 265.724 1403.92 261.906 1434.86 252.886C1464.53 244.451 1493.69 233.937 1522.17 221.411C1556.68 206.866 1588.74 207.211 1616.55 222.275C1638.7 234.785 1656.91 254.187 1668.91 278.062C1683.4 307.115 1693.62 338.513 1699.22 371.124C1724.38 499.845 1713.21 638.919 1669.2 743.207C1643.89 803.248 1583.71 902.559 1464.95 894.732C1416.18 891.517 1362.31 869.807 1305.51 830.226C1195.83 753.841 1095.05 695.453 997.418 651.735C915.685 614.428 828.741 592.121 740.058 585.704C691.961 582.529 643.638 584.566 595.796 591.783C572.986 595.261 539.763 605.124 501.097 616.557C418.608 641.117 315.935 671.686 232.245 666.17C183.719 662.971 147.124 647.435 123.364 619.996C98.6083 591.313 90.3336 551.878 99.4361 505.928C117.043 417.149 195.04 324.743 289.078 281.017C341.404 256.142 398.306 245.375 454.944 249.631C487.924 252.49 520.665 257.78 552.942 265.465C578.865 271.8 605.159 276.271 631.656 278.849Z" fill="url(#paint26_linear_928_70)"/>
<path d="M1060.7 93.6089C1049.8 92.9606 1038.86 93.2603 1027.97 94.5049C1011.53 96.5199 995.262 100.034 979.328 105.012C914.334 124.994 832.54 170.974 729.074 245.523C698.215 267.808 664.7 276.902 623.781 274.205C596.137 271.532 568.726 266.7 541.759 259.746C507.941 251.112 473.55 245.264 438.873 242.251C381.777 237.947 324.429 249.224 271.983 275.069C224.205 298.393 181.593 332.876 147.181 376.066C113.921 417.692 91.054 464.396 82.8171 507.617C73.752 555.23 82.4371 595.871 107.938 625.139C132.342 653.21 169.748 669.067 219.104 672.321C305.427 678.01 414.843 644.725 494.722 620.368C532.259 608.968 564.702 599.054 586.53 595.618C635.648 588.075 685.283 586.016 734.666 589.472C823.274 595.977 910.206 617.854 992.204 654.283C1092.65 698.401 1194.42 757.337 1303.32 834.367C1361.45 875.428 1416.69 897.978 1467.21 901.308C1587.77 909.254 1652.05 808.714 1679.66 748.02C1705.58 689 1721.81 625.569 1727.62 560.642C1734.05 495.073 1731.26 428.931 1719.34 364.522C1713.75 331.362 1703.32 299.46 1688.44 270.028C1675.92 245.509 1656.82 225.827 1633.68 213.601C1621.82 207.596 1609.01 204.081 1595.91 203.237C1575.08 202.262 1554.26 206.38 1534.96 215.29C1505.52 228.673 1475.32 239.942 1444.57 249.026C1412.22 258.869 1378.72 263.114 1345.29 261.605C1338.51 261.158 1331.8 260.395 1325.31 259.271C1265.15 249.091 1229.16 210.936 1194.37 174.038C1157.37 134.906 1122.25 97.719 1060.7 93.6089ZM623.676 275.805C664.936 278.525 698.653 269.337 729.867 246.861C833.18 172.409 914.918 126.532 979.717 106.537C995.562 101.557 1011.75 98.0725 1028.11 96.121C1038.91 94.8449 1049.78 94.5399 1060.6 95.209C1121.61 99.2304 1156.54 136.245 1193.49 175.427C1228.42 212.495 1264.59 250.822 1325 261.071C1331.53 262.199 1338.29 262.965 1345.12 263.415C1378.78 264.926 1412.51 260.605 1445.05 250.611C1475.81 241.527 1506.01 230.239 1535.45 216.822C1571.36 201.084 1604.57 200.433 1633 214.896C1655.88 226.983 1674.76 246.446 1687.12 270.691C1701.99 300.047 1712.36 331.902 1717.84 365.012C1742.57 495.204 1727.69 638.373 1677.95 747.265C1650.51 807.541 1586.68 907.307 1467.09 899.425C1416.71 896.105 1361.81 873.684 1303.87 832.689C1194.91 755.869 1093.1 696.717 992.47 652.479C910.409 616.088 823.435 594.21 734.785 587.659C685.327 584.359 635.63 586.593 586.468 594.328C564.588 597.814 532.1 607.672 494.462 619.119C414.489 643.416 305.418 676.671 219.338 670.997C170.568 667.782 133.249 652.091 109.12 624.306C83.9841 595.438 75.4136 555.286 84.3948 508.203C101.774 416.945 179.229 321.612 272.7 276.83C324.89 250.97 381.992 239.621 438.869 243.804C473.477 246.843 507.802 252.686 541.559 261.286C568.558 268.257 596 273.109 623.676 275.805Z" fill="url(#paint27_linear_928_70)"/>
<path d="M1059.1 86.7002C1048.26 86.0401 1037.39 86.3262 1026.57 87.5558C1009.68 89.5187 992.965 93.0584 976.597 98.1358C909.011 118.804 825.175 166.042 719.624 242.489C688.777 264.615 655.798 273.744 615.611 271.095C588.299 269.295 560.144 262.457 530.3 255.241C496.555 247.017 461.503 238.546 423.023 236.01C365.488 231.828 307.757 243.807 255.316 270.81C163.395 316.604 84.418 417.194 67.463 510.194C58.5714 558.89 67.5522 600.247 93.3805 629.751C118.203 658.17 156.093 674.113 205.936 677.399C294.698 683.249 406.317 648.502 487.83 623.127C524.486 611.723 556.19 601.867 577.039 598.42C627.599 590.083 678.758 587.548 729.676 590.858C818.206 597.33 905.126 618.744 987.351 654.338C1087.96 697.502 1193.74 758.685 1301.69 836.134C1360.9 878.605 1417.31 901.929 1469.4 905.362C1559.57 911.306 1637.38 856.654 1688.49 751.548C1742.89 639.643 1761.85 488.814 1737.95 357.981C1732.45 324.383 1721.81 292.101 1706.47 262.485C1693.61 237.586 1673.85 217.84 1649.99 206.052C1638.71 200.778 1626.65 197.681 1614.35 196.9C1591.66 196.066 1569.04 200.934 1548.22 211.129C1517.86 225.365 1486.7 237.394 1454.93 247.138C1421.19 257.886 1386.14 262.613 1351.15 261.134C1344.66 260.707 1338.25 259.963 1332.09 258.968C1269.62 248.85 1232.52 209.015 1196.8 170.503C1158.5 129.571 1122.55 90.8824 1059.1 86.7002ZM615.509 272.642C656.037 275.313 689.41 266.157 720.271 243.818C825.477 167.401 909.404 120.276 976.792 99.6485C993.062 94.5948 1009.68 91.0665 1026.47 89.1025C1037.2 87.9094 1048 87.6357 1058.75 88.2842C1121.67 92.4311 1157.44 130.893 1195.31 171.636C1231.26 210.325 1268.49 250.33 1331.5 260.482C1337.7 261.534 1344.17 262.281 1350.94 262.728C1386.17 264.235 1421.45 259.487 1455.42 248.669C1487.25 238.929 1518.46 226.866 1548.86 212.564C1569.55 202.528 1592.01 197.778 1614.53 198.679C1626.66 199.441 1638.56 202.49 1649.69 207.693C1673.26 219.352 1692.78 238.876 1705.48 263.491C1720.73 292.979 1731.28 325.134 1736.68 358.594C1760.55 489.104 1741.63 639.506 1687.4 751.101C1636.42 855.626 1559.37 909.953 1469.68 904.042C1417.88 900.628 1361.66 877.424 1302.79 835.081C1194.75 757.573 1088.87 696.33 988.164 653.16C905.747 617.3 818.584 595.707 729.789 589.151C678.753 585.729 627.467 588.184 576.775 596.475C555.829 599.915 524.121 609.824 487.368 621.222C405.955 646.55 294.487 681.253 205.968 675.419C156.467 672.156 119.061 656.299 94.3602 628.262C68.8523 599.1 60.0349 558.237 68.7903 510.121C85.6508 417.811 164.3 317.735 255.911 272.188C308.127 245.263 365.623 233.304 422.928 237.45C461.31 239.98 496.212 248.494 530.01 256.668C559.847 263.991 588.051 270.832 615.509 272.642Z" fill="url(#paint28_linear_928_70)"/>
<path d="M1057.6 79.7984C1046.8 79.13 1035.96 79.3825 1025.17 80.5536C1007.84 82.5291 990.67 86.129 973.864 91.3136C904.592 112.299 818.323 160.77 710.176 239.456C679.328 261.582 646.889 270.693 607.288 268.083C578.903 266.212 549.7 258.93 518.741 250.783C483.578 241.769 447.214 232.409 407.076 229.763C349.118 225.839 291.043 238.419 238.521 266.274C147.244 313.451 68.6727 416.799 52.0125 512.015C43.3432 561.797 52.5745 603.813 78.7788 633.556C104.04 662.005 142.344 678.35 192.675 681.667C283.876 687.679 397.795 651.476 480.946 625.031C516.717 613.675 547.582 603.925 567.406 600.411C619.479 591.556 672.209 588.871 724.677 592.403C813.108 598.994 899.962 620.16 982.3 655.184C1084.46 697.861 1191.28 759.595 1299.95 838.698C1360.2 882.577 1417.93 906.631 1471.58 910.167C1518.7 913.731 1565.72 899.638 1604.9 870.208C1640.63 843.797 1671.73 805.297 1697.27 755.824C1756.34 641.44 1779.54 482.696 1756.41 352.021C1751.1 317.897 1740.33 285.13 1724.59 255.216C1711.42 229.986 1691.07 210.204 1666.59 198.843C1655.92 194.202 1644.62 191.468 1633.13 190.745C1608.47 189.858 1583.9 195.321 1561.39 206.694C1530.1 221.865 1497.92 234.671 1465.07 245.02C1423.98 257.472 1388.38 262.518 1356.29 260.402C1350.2 260.001 1344.12 259.279 1338.3 258.36C1273.63 248.258 1235.61 206.808 1198.87 166.729C1159.79 124.245 1123 84.1092 1057.6 79.7984ZM607.179 269.736C647.122 272.369 680.055 263.183 710.966 240.848C819.008 162.261 905.078 113.831 974.201 92.8892C990.941 87.7181 1008.04 84.1317 1025.31 82.1698C1036.01 81.0352 1046.77 80.7951 1057.49 81.4518C1122.35 85.7272 1158.96 125.637 1197.66 167.881C1234.59 208.134 1272.79 249.81 1337.9 259.994C1343.82 260.919 1349.89 261.588 1356.04 261.993C1388.42 264.127 1424.17 259.091 1465.4 246.596C1498.31 236.202 1530.56 223.383 1561.93 208.229C1584.21 196.948 1608.55 191.523 1632.97 192.395C1644.31 193.126 1655.46 195.813 1666 200.358C1690.26 211.595 1710.44 231.177 1723.5 256.162C1739.14 285.905 1749.85 318.487 1755.11 352.417C1778.15 482.979 1755.05 641.033 1696.15 755.106C1641.96 860.062 1562.3 914.593 1471.83 908.63C1418.52 905.116 1360.98 881.129 1300.97 837.426C1192.25 758.266 1085.33 696.472 983.082 653.736C900.598 618.679 813.599 597.486 725.023 590.873C672.475 587.337 619.664 590.016 567.508 598.864C547.443 602.309 516.523 612.163 480.703 623.515C397.635 650.18 283.884 686.072 192.878 680.074C142.937 676.782 104.908 660.723 79.9291 632.453C54.0939 603.056 44.9285 561.527 53.5627 512.278C70.0449 417.532 148.093 314.685 239.172 267.549C291.456 239.799 349.279 227.275 406.981 231.203C447.021 233.842 483.292 243.143 518.26 252.144C549.413 260.304 578.7 267.805 607.182 269.683L607.179 269.736Z" fill="url(#paint29_linear_928_70)"/>
<path d="M1056.15 72.8452C1045.38 72.1809 1034.57 72.4178 1023.82 73.5536C1006.02 75.4947 988.388 79.1363 971.132 84.4368C900.125 105.737 811.667 155.456 700.676 236.419C670.219 258.57 637.877 267.688 598.812 265.113C569.55 263.184 539.131 255.019 506.985 246.311C470.509 236.407 432.828 226.21 390.935 223.449C332.517 219.551 274.022 232.763 221.48 261.722C174.386 288.041 133.061 325.317 100.45 370.897C67.048 416.906 44.3456 467.798 36.5876 514.158C28.0953 564.97 37.6745 607.651 64.2585 637.58C89.8816 666.481 128.674 682.858 179.492 686.208C273.18 692.383 389.354 654.669 474.144 627.153C508.932 615.84 539.208 606.104 558.095 602.689C611.69 593.177 666.019 590.218 720.073 593.867C808.441 600.535 895.28 621.365 977.809 655.691C1082.32 698.255 1190.27 760.76 1298.68 840.917C1360.16 886.109 1419.22 910.893 1474.23 914.519C1521.97 918.063 1569.61 904.149 1609.68 874.968C1646.59 848.528 1679.11 809.907 1706.37 759.744C1769.89 643.19 1797.51 476.862 1775.14 345.755C1769.99 311.162 1759.08 277.964 1742.95 247.801C1727.11 219.973 1706.85 201.068 1682.99 191.407C1672.95 187.376 1662.39 184.984 1651.67 184.307C1628.21 182.761 1602.4 188.773 1574.62 202.262C1542.36 218.292 1509.14 231.854 1475.2 242.848C1432.2 256.085 1394.99 261.774 1361.44 259.562C1355.69 259.183 1349.93 258.804 1344.37 257.741C1277.54 247.551 1238.55 204.484 1200.83 162.84C1161.07 118.865 1123.45 77.2814 1056.15 72.8452ZM598.707 266.713C638.113 269.31 670.754 260.105 701.518 237.76C812.161 156.881 900.66 107.272 971.473 85.9592C988.652 80.7032 1006.2 77.0744 1023.91 75.1132C1034.6 74.021 1045.34 73.7977 1056.04 74.4453C1122.81 78.8461 1160.25 120.204 1199.86 164.276C1237.75 206.146 1276.93 249.385 1344.25 259.501C1349.83 260.351 1355.61 261 1361.42 261.382C1395.07 263.6 1432.41 258.134 1475.58 244.587C1509.57 233.582 1542.84 219.988 1575.14 203.904C1602.62 190.555 1628.34 184.59 1651.55 186.12C1662.12 186.779 1672.53 189.125 1682.44 193.084C1706.3 202.692 1725.98 221.452 1741.71 248.897C1757.75 278.868 1768.59 311.864 1773.69 346.248C1796.03 477.032 1768.44 642.933 1705.13 759.18C1664.51 833.693 1591.61 920.863 1474.56 913.148C1419.8 909.538 1360.98 884.877 1299.73 839.808C1191.25 759.377 1083.19 696.973 978.575 654.456C895.907 620.076 808.921 599.218 720.405 592.549C666.273 588.89 611.866 591.825 558.187 601.302C539.052 604.755 508.922 614.5 474.085 625.81C389.397 653.279 273.373 690.95 179.929 684.79C129.451 681.463 90.9901 665.269 65.5446 636.647C39.2809 607.061 29.8792 564.659 38.27 514.644C54.475 417.416 132.061 311.913 222.695 263.356C274.961 234.469 333.171 221.257 391.317 225.081C432.869 227.82 470.501 238.014 506.883 247.858C538.834 256.553 569.152 264.765 598.707 266.713Z" fill="url(#paint30_linear_928_70)"/>
<path d="M1054.69 65.9469C1025.58 64.6376 996.405 68.5787 968.35 77.6119C895.705 99.2323 805.059 150.2 691.228 233.386C661.466 255.413 625.765 265.59 590.189 262.188C559.805 260.185 528.554 251.269 495.43 241.8C457.735 231.067 418.497 219.963 375.579 217.134C316.665 213.243 257.712 227.088 205.128 257.163C115.915 306.457 36.8584 417.916 21.1542 516.463C12.8461 568.197 22.7767 611.491 49.695 641.549C75.743 670.692 114.967 687.205 166.322 690.59C262.546 696.933 380.922 657.757 467.402 629.12C502.459 617.45 530.446 608.259 548.647 604.852C603.732 594.722 659.624 591.523 715.227 595.316C897.824 607.351 1093.64 690.753 1297.16 843.121C1359.65 890.094 1419.75 915.482 1476.61 919.23C1589.37 926.662 1663.52 847.342 1705.9 779.533C1757.59 696.751 1791.51 584.245 1798.98 470.907C1804.12 392.877 1795.7 321.452 1775.21 269.748C1752.62 212.603 1716.32 180.801 1670.33 177.77C1645.45 176.13 1617.73 182.873 1587.84 197.778C1497.89 242.737 1425.65 262.67 1366.98 258.803C1287.82 253.586 1244.8 205.486 1203.2 158.979C1162.4 113.543 1123.94 70.5117 1054.69 65.9469ZM590.077 263.895C625.963 267.346 661.982 257.095 692.01 234.884C805.689 151.795 896.23 100.927 968.729 79.2974C996.622 70.31 1025.63 66.394 1054.58 67.707C1123.24 72.2332 1161.57 115.042 1202.13 160.355C1243.91 207.088 1287.16 255.417 1366.95 260.676C1425.87 264.56 1498.36 244.536 1588.51 199.536C1618.14 184.722 1645.67 178.02 1670.3 179.643C1715.75 182.639 1751.59 214.088 1773.97 270.684C1794.33 322.165 1802.72 393.32 1797.6 471.083C1790.14 584.155 1756.35 696.347 1704.76 778.923C1662.65 846.427 1588.87 925.29 1476.8 917.903C1420.47 914.19 1360.33 888.799 1298.13 841.846C1094.34 689.138 898.267 605.827 715.427 593.775C659.712 589.951 603.703 593.143 548.505 603.289C530.206 606.69 502.362 615.943 467.062 627.598C380.732 656.191 262.502 695.376 166.522 689.05C115.557 685.691 76.6182 669.304 50.8453 640.446C24.2996 610.681 14.5359 567.826 22.7114 516.619C38.2864 418.546 117.067 307.551 205.873 258.498C258.229 228.561 316.922 214.774 375.579 218.634C418.594 221.469 457.539 232.554 495.136 243.281C528.209 252.8 559.546 261.882 590.077 263.895Z" fill="url(#paint31_linear_928_70)"/>
</g>
<defs>
<linearGradient id="paint0_linear_928_70" x1="488.475" y1="507.767" x2="1513.66" y2="538.599" gradientUnits="userSpaceOnUse">
<stop stop-color="#00BCE2"/>
<stop offset="0.08" stop-color="#279EE7"/>
<stop offset="0.25" stop-color="#7364F1"/>
<stop offset="0.39" stop-color="#AA3AF9"/>
<stop offset="0.5" stop-color="#CC20FD"/>
<stop offset="0.55" stop-color="#D916FF"/>
<stop offset="0.98" stop-color="#7300FF"/>
</linearGradient>
<linearGradient id="paint1_linear_928_70" x1="473.365" y1="507.739" x2="1516.09" y2="539.099" gradientUnits="userSpaceOnUse">
<stop stop-color="#06B7E3"/>
<stop offset="0.02" stop-color="#0EB0E4"/>
<stop offset="0.2" stop-color="#5F71EF"/>
<stop offset="0.35" stop-color="#9A43F6"/>
<stop offset="0.47" stop-color="#BE27FB"/>
<stop offset="0.52" stop-color="#CC1CFD"/>
<stop offset="0.55" stop-color="#D218FE"/>
<stop offset="0.94" stop-color="#7A07FD"/>
<stop offset="0.98" stop-color="#6F05FD"/>
</linearGradient>
<linearGradient id="paint2_linear_928_70" x1="458.261" y1="507.498" x2="1518.63" y2="539.388" gradientUnits="userSpaceOnUse">
<stop stop-color="#0DB1E4"/>
<stop offset="0.17" stop-color="#517BED"/>
<stop offset="0.34" stop-color="#8F49F5"/>
<stop offset="0.46" stop-color="#B62AFA"/>
<stop offset="0.52" stop-color="#C51EFC"/>
<stop offset="0.55" stop-color="#CB1BFD"/>
<stop offset="0.94" stop-color="#760CFB"/>
<stop offset="0.98" stop-color="#6C0AFB"/>
</linearGradient>
<linearGradient id="paint3_linear_928_70" x1="443.165" y1="506.935" x2="1521.31" y2="539.36" gradientUnits="userSpaceOnUse">
<stop stop-color="#13ACE5"/>
<stop offset="0.12" stop-color="#4286EB"/>
<stop offset="0.31" stop-color="#8550F4"/>
<stop offset="0.45" stop-color="#AF2EF9"/>
<stop offset="0.52" stop-color="#BF21FB"/>
<stop offset="0.55" stop-color="#C41DFC"/>
<stop offset="0.94" stop-color="#7211FA"/>
<stop offset="0.98" stop-color="#680FFA"/>
</linearGradient>
<linearGradient id="paint4_linear_928_70" x1="428.178" y1="506.055" x2="1524.16" y2="539.016" gradientUnits="userSpaceOnUse">
<stop stop-color="#19A7E6"/>
<stop offset="0.07" stop-color="#3094E9"/>
<stop offset="0.29" stop-color="#7957F2"/>
<stop offset="0.45" stop-color="#A632F8"/>
<stop offset="0.52" stop-color="#B823FA"/>
<stop offset="0.55" stop-color="#BD20FB"/>
<stop offset="0.94" stop-color="#6E16F8"/>
<stop offset="0.98" stop-color="#6415F8"/>
</linearGradient>
<linearGradient id="paint5_linear_928_70" x1="413.148" y1="505.013" x2="1527.36" y2="538.523" gradientUnits="userSpaceOnUse">
<stop stop-color="#20A1E7"/>
<stop offset="0.25" stop-color="#6C60F0"/>
<stop offset="0.43" stop-color="#9E35F7"/>
<stop offset="0.52" stop-color="#B125F9"/>
<stop offset="0.55" stop-color="#B622FA"/>
<stop offset="0.94" stop-color="#6A1BF6"/>
<stop offset="0.98" stop-color="#601AF6"/>
</linearGradient>
<linearGradient id="paint6_linear_928_70" x1="398.071" y1="503.811" x2="1530.7" y2="537.874" gradientUnits="userSpaceOnUse">
<stop stop-color="#269CE8"/>
<stop offset="0.2" stop-color="#5E6AEF"/>
<stop offset="0.42" stop-color="#953AF6"/>
<stop offset="0.52" stop-color="#AA27F9"/>
<stop offset="0.55" stop-color="#AF25F9"/>
<stop offset="0.94" stop-color="#6621F4"/>
<stop offset="0.98" stop-color="#5D1FF4"/>
</linearGradient>
<linearGradient id="paint7_linear_928_70" x1="383" y1="502.5" x2="1534.44" y2="537.129" gradientUnits="userSpaceOnUse">
<stop stop-color="#2C97E9"/>
<stop offset="0.14" stop-color="#4E77ED"/>
<stop offset="0.4" stop-color="#8B3FF5"/>
<stop offset="0.52" stop-color="#A329F8"/>
<stop offset="0.55" stop-color="#A827F8"/>
<stop offset="0.94" stop-color="#6226F2"/>
<stop offset="0.98" stop-color="#5924F2"/>
</linearGradient>
<linearGradient id="paint8_linear_928_70" x1="367.982" y1="501.031" x2="1538.38" y2="536.23" gradientUnits="userSpaceOnUse">
<stop stop-color="#3391E9"/>
<stop offset="0.04" stop-color="#3D88EA"/>
<stop offset="0.37" stop-color="#8246F3"/>
<stop offset="0.52" stop-color="#9D2CF7"/>
<stop offset="0.55" stop-color="#A12AF7"/>
<stop offset="0.94" stop-color="#5D2BF1"/>
<stop offset="0.98" stop-color="#5529F1"/>
</linearGradient>
<linearGradient id="paint9_linear_928_70" x1="352.915" y1="499.561" x2="1542.66" y2="535.342" gradientUnits="userSpaceOnUse">
<stop stop-color="#398CEA"/>
<stop offset="0.33" stop-color="#774DF2"/>
<stop offset="0.52" stop-color="#962EF6"/>
<stop offset="0.55" stop-color="#9A2CF6"/>
<stop offset="0.94" stop-color="#5930EF"/>
<stop offset="0.98" stop-color="#522EEF"/>
</linearGradient>
<linearGradient id="paint10_linear_928_70" x1="337.851" y1="497.984" x2="1547.53" y2="534.365" gradientUnits="userSpaceOnUse">
<stop stop-color="#3F86EB"/>
<stop offset="0.28" stop-color="#6C55F1"/>
<stop offset="0.52" stop-color="#8F30F5"/>
<stop offset="0.55" stop-color="#932FF5"/>
<stop offset="0.94" stop-color="#5535ED"/>
<stop offset="0.98" stop-color="#4E34ED"/>
</linearGradient>
<linearGradient id="paint11_linear_928_70" x1="322.835" y1="496.408" x2="1552.65" y2="533.394" gradientUnits="userSpaceOnUse">
<stop stop-color="#4681EC"/>
<stop offset="0.21" stop-color="#625FEF"/>
<stop offset="0.52" stop-color="#8832F4"/>
<stop offset="0.55" stop-color="#8C31F4"/>
<stop offset="0.94" stop-color="#513AEB"/>
<stop offset="0.98" stop-color="#4A39EB"/>
</linearGradient>
<linearGradient id="paint12_linear_928_70" x1="307.774" y1="494.778" x2="1558.45" y2="532.392" gradientUnits="userSpaceOnUse">
<stop stop-color="#4C7CED"/>
<stop offset="0.1" stop-color="#566EEE"/>
<stop offset="0.52" stop-color="#8134F3"/>
<stop offset="0.55" stop-color="#8534F3"/>
<stop offset="0.94" stop-color="#4D3FE9"/>
<stop offset="0.98" stop-color="#463EE9"/>
</linearGradient>
<linearGradient id="paint13_linear_928_70" x1="292.71" y1="493.147" x2="1564.64" y2="531.4" gradientUnits="userSpaceOnUse">
<stop stop-color="#5276EE"/>
<stop offset="0.52" stop-color="#7B37F2"/>
<stop offset="0.55" stop-color="#7E36F2"/>
<stop offset="0.94" stop-color="#4944E8"/>
<stop offset="0.98" stop-color="#4343E8"/>
</linearGradient>
<linearGradient id="paint14_linear_928_70" x1="277.649" y1="491.464" x2="1571.37" y2="530.372" gradientUnits="userSpaceOnUse">
<stop stop-color="#5971EF"/>
<stop offset="0.52" stop-color="#7439F1"/>
<stop offset="0.55" stop-color="#7739F1"/>
<stop offset="0.94" stop-color="#4549E6"/>
<stop offset="0.98" stop-color="#3F48E6"/>
</linearGradient>
<linearGradient id="paint15_linear_928_70" x1="262.59" y1="489.779" x2="1578.84" y2="529.365" gradientUnits="userSpaceOnUse">
<stop stop-color="#5F6CF0"/>
<stop offset="0.52" stop-color="#6D3BF0"/>
<stop offset="0.55" stop-color="#703BF0"/>
<stop offset="0.94" stop-color="#414EE4"/>
<stop offset="0.98" stop-color="#3B4DE4"/>
</linearGradient>
<linearGradient id="paint16_linear_928_70" x1="247.528" y1="488.095" x2="1586.79" y2="528.373" gradientUnits="userSpaceOnUse">
<stop stop-color="#6566F1"/>
<stop offset="0.52" stop-color="#663DF0"/>
<stop offset="0.55" stop-color="#693EEF"/>
<stop offset="0.94" stop-color="#3D54E2"/>
<stop offset="0.98" stop-color="#3853E2"/>
</linearGradient>
<linearGradient id="paint17_linear_928_70" x1="232.467" y1="486.412" x2="1595.47" y2="527.404" gradientUnits="userSpaceOnUse">
<stop stop-color="#6B61F2"/>
<stop offset="0.52" stop-color="#5F3FEF"/>
<stop offset="0.55" stop-color="#6240EE"/>
<stop offset="0.94" stop-color="#3959E0"/>
<stop offset="0.98" stop-color="#3458E0"/>
</linearGradient>
<linearGradient id="paint18_linear_928_70" x1="217.405" y1="484.781" x2="1604.99" y2="526.512" gradientUnits="userSpaceOnUse">
<stop stop-color="#725CF3"/>
<stop offset="0.52" stop-color="#5841EE"/>
<stop offset="0.55" stop-color="#5B43ED"/>
<stop offset="0.94" stop-color="#355EDE"/>
<stop offset="0.98" stop-color="#305DDE"/>
</linearGradient>
<linearGradient id="paint19_linear_928_70" x1="202.343" y1="483.098" x2="1615.62" y2="525.602" gradientUnits="userSpaceOnUse">
<stop stop-color="#7856F4"/>
<stop offset="0.52" stop-color="#5244ED"/>
<stop offset="0.55" stop-color="#5445EC"/>
<stop offset="0.94" stop-color="#3163DD"/>
<stop offset="0.98" stop-color="#2D62DD"/>
</linearGradient>
<linearGradient id="paint20_linear_928_70" x1="187.235" y1="481.412" x2="1627.29" y2="524.722" gradientUnits="userSpaceOnUse">
<stop stop-color="#7E51F5"/>
<stop offset="0.47" stop-color="#5147ED"/>
<stop offset="0.52" stop-color="#4B46EC"/>
<stop offset="0.55" stop-color="#4D48EB"/>
<stop offset="0.94" stop-color="#2D68DB"/>
<stop offset="0.98" stop-color="#2967DB"/>
</linearGradient>
<linearGradient id="paint21_linear_928_70" x1="172.172" y1="479.782" x2="1639.98" y2="523.926" gradientUnits="userSpaceOnUse">
<stop stop-color="#854CF6"/>
<stop offset="0.31" stop-color="#604AF0"/>
<stop offset="0.52" stop-color="#4448EB"/>
<stop offset="0.55" stop-color="#464AEA"/>
<stop offset="0.94" stop-color="#296DD9"/>
<stop offset="0.98" stop-color="#256CD9"/>
</linearGradient>
<linearGradient id="paint22_linear_928_70" x1="157.06" y1="478.15" x2="1653.45" y2="523.154" gradientUnits="userSpaceOnUse">
<stop stop-color="#8B46F7"/>
<stop offset="0.23" stop-color="#6C48F2"/>
<stop offset="0.52" stop-color="#3D4AEA"/>
<stop offset="0.55" stop-color="#3F4DE9"/>
<stop offset="0.94" stop-color="#2572D7"/>
<stop offset="0.98" stop-color="#2172D7"/>
</linearGradient>
<linearGradient id="paint23_linear_928_70" x1="141.949" y1="476.518" x2="1667.9" y2="522.411" gradientUnits="userSpaceOnUse">
<stop stop-color="#9141F8"/>
<stop offset="0.18" stop-color="#7644F4"/>
<stop offset="0.52" stop-color="#364CE9"/>
<stop offset="0.55" stop-color="#384FE8"/>
<stop offset="0.94" stop-color="#2177D5"/>
<stop offset="0.98" stop-color="#1E77D5"/>
</linearGradient>
<linearGradient id="paint24_linear_928_70" x1="126.886" y1="474.941" x2="1682.94" y2="521.739" gradientUnits="userSpaceOnUse">
<stop stop-color="#983BF8"/>
<stop offset="0.14" stop-color="#8040F4"/>
<stop offset="0.44" stop-color="#434BEB"/>
<stop offset="0.52" stop-color="#304FE8"/>
<stop offset="0.55" stop-color="#3152E7"/>
<stop offset="0.94" stop-color="#1C7CD4"/>
<stop offset="0.98" stop-color="#1A7CD4"/>
</linearGradient>
<linearGradient id="paint25_linear_928_70" x1="111.774" y1="473.31" x2="1698.12" y2="521.018" gradientUnits="userSpaceOnUse">
<stop stop-color="#9E36F9"/>
<stop offset="0.12" stop-color="#893BF6"/>
<stop offset="0.36" stop-color="#5248ED"/>
<stop offset="0.52" stop-color="#2951E7"/>
<stop offset="0.55" stop-color="#2A54E6"/>
<stop offset="0.94" stop-color="#1881D2"/>
<stop offset="0.98" stop-color="#1681D2"/>
</linearGradient>
<linearGradient id="paint26_linear_928_70" x1="96.6605" y1="471.732" x2="1714.18" y2="520.378" gradientUnits="userSpaceOnUse">
<stop stop-color="#A431FA"/>
<stop offset="0.1" stop-color="#9136F7"/>
<stop offset="0.3" stop-color="#5F43F0"/>
<stop offset="0.52" stop-color="#2253E7"/>
<stop offset="0.55" stop-color="#2357E5"/>
<stop offset="0.94" stop-color="#1487D0"/>
<stop offset="0.98" stop-color="#1386D0"/>
</linearGradient>
<linearGradient id="paint27_linear_928_70" x1="81.4982" y1="470.152" x2="1730.43" y2="519.743" gradientUnits="userSpaceOnUse">
<stop stop-color="#AB2BFB"/>
<stop offset="0.09" stop-color="#9930F8"/>
<stop offset="0.26" stop-color="#6C3DF2"/>
<stop offset="0.5" stop-color="#2353E7"/>
<stop offset="0.52" stop-color="#1B55E6"/>
<stop offset="0.55" stop-color="#1C59E4"/>
<stop offset="0.94" stop-color="#108CCE"/>
<stop offset="0.98" stop-color="#0F8BCE"/>
</linearGradient>
<linearGradient id="paint28_linear_928_70" x1="66.384" y1="468.627" x2="1747.18" y2="519.177" gradientUnits="userSpaceOnUse">
<stop stop-color="#B126FC"/>
<stop offset="0.08" stop-color="#A12BFA"/>
<stop offset="0.23" stop-color="#7738F3"/>
<stop offset="0.43" stop-color="#344DEA"/>
<stop offset="0.52" stop-color="#1457E5"/>
<stop offset="0.55" stop-color="#155CE3"/>
<stop offset="0.94" stop-color="#0C91CC"/>
<stop offset="0.98" stop-color="#0B91CC"/>
</linearGradient>
<linearGradient id="paint29_linear_928_70" x1="51.2231" y1="467.048" x2="1763.97" y2="518.559" gradientUnits="userSpaceOnUse">
<stop stop-color="#B721FD"/>
<stop offset="0.07" stop-color="#A826FB"/>
<stop offset="0.2" stop-color="#8133F5"/>
<stop offset="0.38" stop-color="#4348EC"/>
<stop offset="0.52" stop-color="#0E5AE4"/>
<stop offset="0.55" stop-color="#0E5EE2"/>
<stop offset="0.94" stop-color="#0896CB"/>
<stop offset="0.98" stop-color="#0796CB"/>
</linearGradient>
<linearGradient id="paint30_linear_928_70" x1="36.0602" y1="465.468" x2="1780.96" y2="517.945" gradientUnits="userSpaceOnUse">
<stop stop-color="#BE1BFE"/>
<stop offset="0.06" stop-color="#B020FC"/>
<stop offset="0.18" stop-color="#8C2DF7"/>
<stop offset="0.34" stop-color="#5142EE"/>
<stop offset="0.52" stop-color="#075CE3"/>
<stop offset="0.55" stop-color="#0761E1"/>
<stop offset="0.94" stop-color="#049BC9"/>
<stop offset="0.98" stop-color="#049BC9"/>
</linearGradient>
<linearGradient id="paint31_linear_928_70" x1="20.8961" y1="463.997" x2="1798.14" y2="517.447" gradientUnits="userSpaceOnUse">
<stop stop-color="#C416FF"/>
<stop offset="0.06" stop-color="#B71BFD"/>
<stop offset="0.17" stop-color="#9527F8"/>
<stop offset="0.31" stop-color="#5E3CF0"/>
<stop offset="0.48" stop-color="#1257E5"/>
<stop offset="0.52" stop-color="#005EE2"/>
<stop offset="0.94" stop-color="#00A0C7"/>
</linearGradient>
</defs>
</svg>
